<?xml version="1.0" encoding="UTF-8" standalone="no"?>
<!-- Created with Inkscape (http://www.inkscape.org/) -->
<svg
   xmlns:dc="http://purl.org/dc/elements/1.1/"
   xmlns:cc="http://web.resource.org/cc/"
   xmlns:rdf="http://www.w3.org/1999/02/22-rdf-syntax-ns#"
   xmlns:svg="http://www.w3.org/2000/svg"
   xmlns="http://www.w3.org/2000/svg"
   xmlns:sodipodi="http://sodipodi.sourceforge.net/DTD/sodipodi-0.dtd"
   xmlns:inkscape="http://www.inkscape.org/namespaces/inkscape"
   width="600"
   height="50"
   id="svg2"
   sodipodi:version="0.32"
   inkscape:version="0.45"
   version="1.0"
   sodipodi:docbase="/home/pcardune/work/zcontact/src/zcontact/skin/img"
   sodipodi:docname="zcontact.svg"
   inkscape:output_extension="org.inkscape.output.svg.inkscape"
   sodipodi:modified="true">
  <defs
     id="defs4">
    <filter
       inkscape:collect="always"
       id="filter3619">
      <feGaussianBlur
         inkscape:collect="always"
         stdDeviation="1.178609"
         id="feGaussianBlur3621" />
    </filter>
  </defs>
  <sodipodi:namedview
     id="base"
     pagecolor="#ffffff"
     bordercolor="#666666"
     borderopacity="1.0"
     gridtolerance="10000"
     guidetolerance="10"
     objecttolerance="10"
     inkscape:pageopacity="0.0"
     inkscape:pageshadow="2"
     inkscape:zoom="2.2743067"
     inkscape:cx="286.46211"
     inkscape:cy="35.126779"
     inkscape:document-units="px"
     inkscape:current-layer="layer1"
     height="50px"
     width="600px"
     inkscape:window-width="1680"
     inkscape:window-height="975"
     inkscape:window-x="0"
     inkscape:window-y="25" />
  <metadata
     id="metadata7">
    <rdf:RDF>
      <cc:Work
         rdf:about="">
        <dc:format>image/svg+xml</dc:format>
        <dc:type
           rdf:resource="http://purl.org/dc/dcmitype/StillImage" />
      </cc:Work>
    </rdf:RDF>
  </metadata>
  <g
     inkscape:label="Layer 1"
     inkscape:groupmode="layer"
     id="layer1">
    <flowRoot
       xml:space="preserve"
       id="flowRoot2168"
       style="font-family:URW Chancery L;font-weight:bold;font-style:italic;font-stretch:normal;font-variant:normal;font-size:40px;text-anchor:start;text-align:start;writing-mode:lr;line-height:125%"><flowRegion
         id="flowRegion2170"><rect
           id="rect2172"
           width="257.22125"
           height="35.175556"
           x="51.444248"
           y="-70.476273"
           style="font-family:URW Chancery L;font-weight:bold;font-style:italic;font-stretch:normal;font-variant:normal;font-size:40px;text-anchor:start;text-align:start;writing-mode:lr;line-height:125%" /></flowRegion><flowPara
         id="flowPara2174">ZContact</flowPara></flowRoot>    <path
       transform="matrix(1.8447367,0,0,1.8447367,35.235382,-7.0672966)"
       style="fill:#baed00;fill-opacity:1;stroke:#000000;stroke-width:0.54208279;stroke-miterlimit:4;stroke-dasharray:0.27104139, 0.27104139;stroke-dashoffset:0;stroke-opacity:1"
       d="M 16.75075,18.37674 C 16.83875,18.53074 16.94875,18.70674 17.03675,18.83874 C 17.38875,19.454739 17.47675,19.71874 17.47675,20.22474 C 17.47675,21.390739 16.794749,21.96274 15.34275,21.96274 C 14.506751,21.96274 13.626749,21.91874 12.19675,21.78674 C 10.348752,21.61074 9.9087493,21.58874 9.24875,21.58874 L 8.87475,21.58874 L 8.45675,21.58874 L 7.75275,21.69874 L 9.53475,19.85074 L 12.70275,16.61674 C 14.308748,15.032741 16.662752,12.656738 18.37875,10.87474 L 18.37875,10.23674 C 17.608751,10.896739 16.992749,11.13874 16.17875,11.13874 C 15.87075,11.13874 15.254749,11.09474 14.41875,11.00674 C 12.284752,10.80874 12.284749,10.80874 11.71275,10.74274 C 10.612751,10.63274 10.61275,10.63274 10.43675,10.63274 C 9.9527505,10.63274 9.8207496,10.742741 9.46875,11.46874 C 9.2267502,11.974739 8.5227495,13.514741 8.01675,14.63674 L 8.39075,15.18674 C 9.9307485,12.480743 10.040751,12.32674 10.72275,12.32674 C 10.87675,12.32674 11.09675,12.34874 11.31675,12.37074 C 12.196749,12.48074 12.790751,12.52474 13.56075,12.52474 C 14.594749,12.52474 15.034751,12.48074 16.11275,12.30474 L 8.65475,19.76274 C 6.9607517,21.412738 5.8607495,22.49074 5.33275,22.95274 L 5.33275,23.76674 C 6.0587493,23.23874 6.5647508,23.06274 7.37875,23.06274 C 7.9507494,23.06274 8.7207508,23.10674 9.55675,23.19474 C 12.240747,23.48074 14.374751,23.65674 14.90275,23.65674 C 15.518749,23.65674 16.04675,23.458739 16.46475,23.06274 C 16.72875,22.79874 16.926751,22.578739 17.54275,21.78674 C 17.78475,21.47874 17.96075,21.25874 18.04875,21.14874 C 18.708749,20.356741 18.84075,20.026739 18.84075,19.27874 C 18.84075,18.66274 18.73075,18.156739 18.40075,17.38674 L 16.75075,18.37674 M 34.083312,21.98474 C 32.059315,23.370738 30.563311,23.94274 29.023312,23.94274 C 27.285314,23.94274 26.185313,22.622738 26.185313,20.53274 C 26.185313,15.956744 29.419316,11.40274 32.675313,11.40274 C 33.995311,11.40274 34.655313,12.216742 34.787312,13.95474 L 36.415312,12.56874 C 36.217313,11.050741 35.425311,10.36874 33.841313,10.36874 C 31.927314,10.36874 29.705311,11.490742 27.769312,13.42674 C 25.635315,15.560738 24.381312,18.486743 24.381312,21.34674 C 24.381312,23.612738 25.635315,24.97674 27.747312,24.97674 C 29.639311,24.97674 32.037314,24.074738 33.929313,22.64474 L 34.083312,21.98474 M 41.773,14.32874 C 40.893001,14.32874 39.484999,14.966741 38.187,15.93474 C 36.779001,16.990739 35.789,19.278742 35.789,21.45674 C 35.789,22.798738 36.537001,23.65674 37.703,23.65674 C 38.318999,23.65674 38.935001,23.436739 39.947,22.90874 C 41.046999,22.29274 41.773,21.742739 42.169,21.21474 C 43.048999,20.026741 43.753,17.870738 43.753,16.35274 C 43.753,15.164741 42.938999,14.32874 41.773,14.32874 M 40.629,15.36274 C 41.508999,15.36274 42.059,16.220741 42.059,17.54074 C 42.059,18.464739 41.750999,19.608741 41.201,20.68674 C 40.585001,21.940739 39.792999,22.62274 38.957,22.62274 C 38.055001,22.62274 37.483,21.808739 37.483,20.55474 C 37.483,18.002742 39.089002,15.36274 40.629,15.36274 M 46.291594,22.95274 L 47.589594,17.78274 C 50.339591,16.044742 50.405594,16.02274 50.713594,16.02274 C 50.867594,16.02274 50.955594,16.13274 50.955594,16.30874 C 50.955594,16.638739 50.779593,17.474742 50.141594,19.98274 C 49.657594,21.940738 49.569594,22.31474 49.569594,22.73274 C 49.569594,23.04074 49.657594,23.32674 49.899594,23.72274 C 50.911593,23.26074 52.429595,22.314739 53.969594,21.17074 L 54.123594,20.55474 C 51.923596,21.808739 51.835594,21.85274 51.615594,21.85274 C 51.395594,21.85274 51.263594,21.610739 51.263594,21.25874 C 51.263594,20.79674 51.417594,20.070738 51.835594,18.55274 C 52.869593,14.856744 52.869594,14.85674 52.869594,14.70274 C 52.869594,14.46074 52.715593,14.32874 52.429594,14.32874 C 52.099594,14.32874 51.615593,14.52674 50.823594,15.03274 C 50.427594,15.27474 49.415592,15.890741 47.809594,16.90274 C 48.007594,16.176741 48.337594,14.79074 48.337594,14.61474 C 48.337594,14.46074 48.205594,14.32874 48.051594,14.32874 C 47.809594,14.32874 46.225592,15.142741 44.597594,16.11074 L 44.465594,16.68274 C 45.873592,16.04474 45.961594,16.02274 46.159594,16.02274 C 46.313594,16.02274 46.423594,16.15474 46.423594,16.33074 C 46.423594,16.792739 46.005593,18.618742 45.455594,20.62074 L 44.949594,22.40274 C 44.905594,22.55674 44.795594,22.97474 44.641594,23.59074 L 46.291594,22.95274 M 60.810219,20.59874 C 59.13822,21.588739 58.434218,21.96274 58.126219,21.96274 C 57.840219,21.96274 57.488219,21.390739 57.488219,20.92874 C 57.488219,20.62074 57.862219,18.926738 58.434219,16.61674 C 58.742218,16.59474 58.962219,16.59474 59.072219,16.59474 L 59.952219,16.57274 C 60.040219,16.57274 60.260219,16.55074 60.612219,16.50674 L 61.448219,15.86874 L 58.632219,15.86874 C 58.764219,15.31874 59.050219,14.130738 59.512219,12.30474 C 59.094219,12.52474 58.918218,12.59074 58.588219,12.74474 C 58.434219,12.83274 58.258219,12.89874 58.082219,12.98674 C 57.994219,13.03074 57.884219,13.07474 57.774219,13.11874 C 57.466219,14.526738 57.356219,14.988741 57.158219,15.86874 C 56.960219,15.89074 56.828219,15.89074 56.762219,15.89074 L 56.234219,15.89074 C 56.190219,15.89074 56.080219,15.89074 55.904219,15.91274 C 55.662219,16.06674 55.640218,16.06674 55.266219,16.37474 C 55.200219,16.41874 55.090219,16.50674 54.936219,16.61674 L 55.464219,16.61674 L 56.476219,16.61674 L 56.960219,16.61674 C 55.79422,21.500735 55.794219,21.50074 55.794219,22.18274 C 55.794219,22.886739 56.256219,23.65674 56.674219,23.65674 C 57.158218,23.65674 58.654221,22.732738 60.766219,21.14874 L 60.810219,20.59874 M 70.695094,20.51074 C 69.045095,21.610739 68.715094,21.80874 68.495094,21.80874 C 68.341094,21.80874 68.231094,21.63274 68.231094,21.36874 C 68.231094,20.79674 68.759095,18.376737 69.551094,15.45074 C 69.793094,15.12074 69.837094,15.054739 70.189094,14.65874 C 69.133095,14.41674 68.363093,14.32874 67.417094,14.32874 C 66.515095,14.32874 66.097093,14.41674 65.525094,14.76874 C 64.733095,15.230739 63.809093,15.91274 63.523094,16.22074 C 62.709095,17.144739 61.785094,20.114742 61.785094,21.89674 C 61.785094,22.952739 62.137094,23.65674 62.687094,23.65674 C 63.171093,23.65674 63.897097,23.216738 66.647094,21.23674 C 66.427094,22.248739 66.317094,22.93074 66.317094,23.19474 C 66.317094,23.48074 66.449094,23.65674 66.669094,23.65674 C 66.933093,23.65674 66.933096,23.656739 68.693094,22.53474 C 69.331093,22.11674 69.837095,21.764739 70.673094,21.14874 L 70.695094,20.51074 M 66.405094,20.64274 C 65.107095,21.588739 64.447093,21.96274 64.051094,21.96274 C 63.699094,21.96274 63.479094,21.566739 63.479094,20.86274 C 63.479094,19.762741 63.831094,18.266739 64.381094,17.01274 C 64.909093,15.802741 65.393094,15.34074 66.141094,15.34074 C 66.537093,15.34074 67.219095,15.45074 68.011094,15.62674 C 67.571094,17.298738 67.417094,17.80474 67.395094,17.91474 C 67.263094,18.464739 67.153094,19.01474 67.021094,19.58674 C 66.999094,19.69674 66.933094,19.96074 66.823094,20.35674 L 66.405094,20.64274 M 77.535375,20.57674 C 75.841377,21.786739 74.675374,22.40274 73.971375,22.40274 C 73.179376,22.40274 72.717375,21.786739 72.717375,20.73074 C 72.717375,19.674741 72.981375,18.266739 73.399375,17.23274 C 73.839375,16.066741 74.411376,15.47274 75.049375,15.47274 C 75.577374,15.47274 75.863375,15.890741 75.973375,16.85874 L 77.249375,16.11074 C 77.271375,16.00074 77.271375,15.89074 77.271375,15.86874 C 77.271375,14.922741 76.787374,14.32874 76.017375,14.32874 C 75.621375,14.32874 75.379374,14.41674 74.587375,14.94474 C 72.937377,15.978739 72.585375,16.308741 72.101375,17.21074 C 71.485376,18.398739 71.023375,20.268741 71.023375,21.63274 C 71.023375,22.908739 71.617376,23.65674 72.629375,23.65674 C 73.685374,23.65674 75.489377,22.776738 77.491375,21.28074 L 77.535375,20.57674 M 84.571938,20.59874 C 82.899939,21.588739 82.195937,21.96274 81.887938,21.96274 C 81.601938,21.96274 81.249938,21.390739 81.249938,20.92874 C 81.249938,20.62074 81.623938,18.926738 82.195937,16.61674 C 82.503937,16.59474 82.723938,16.59474 82.833938,16.59474 L 83.713938,16.57274 C 83.801937,16.57274 84.021938,16.55074 84.373937,16.50674 L 85.209937,15.86874 L 82.393938,15.86874 C 82.525937,15.31874 82.811938,14.130738 83.273938,12.30474 C 82.855938,12.52474 82.679937,12.59074 82.349937,12.74474 C 82.195938,12.83274 82.019937,12.89874 81.843937,12.98674 C 81.755938,13.03074 81.645937,13.07474 81.535938,13.11874 C 81.227938,14.526738 81.117937,14.988741 80.919938,15.86874 C 80.721938,15.89074 80.589937,15.89074 80.523938,15.89074 L 79.995937,15.89074 C 79.951938,15.89074 79.841937,15.89074 79.665937,15.91274 C 79.423938,16.06674 79.401937,16.06674 79.027937,16.37474 C 78.961938,16.41874 78.851937,16.50674 78.697937,16.61674 L 79.225938,16.61674 L 80.237938,16.61674 L 80.721937,16.61674 C 79.555939,21.500735 79.555937,21.50074 79.555937,22.18274 C 79.555937,22.886739 80.017938,23.65674 80.435937,23.65674 C 80.919937,23.65674 82.41594,22.732738 84.527937,21.14874 L 84.571938,20.59874"
       id="flowRoot2176" />
    <g
       id="g3623"
       transform="translate(1.7587777,2.1984722)">
      <g
         id="g3415">
        <path
           sodipodi:type="arc"
           style="color:#000000;fill:#000000;fill-opacity:0.45355195;fill-rule:nonzero;stroke:#baed00;stroke-width:1;stroke-linecap:square;stroke-linejoin:round;marker:none;marker-start:none;marker-mid:none;marker-end:none;stroke-miterlimit:4;stroke-dasharray:none;stroke-dashoffset:0;stroke-opacity:1;visibility:visible;display:inline;overflow:visible;enable-background:accumulate"
           id="path2184"
           sodipodi:cx="-10.992361"
           sodipodi:cy="-77.95108"
           sodipodi:rx="8.793889"
           sodipodi:ry="8.793889"
           d="M -2.198472 -77.95108 A 8.793889 8.793889 0 1 1  -19.78625,-77.95108 A 8.793889 8.793889 0 1 1  -2.198472 -77.95108 z"
           transform="matrix(0.7397947,0,0,0.7397947,29.45727,69.194532)" />
        <path
           sodipodi:type="arc"
           style="color:#000000;fill:#000000;fill-opacity:0.45355195;fill-rule:nonzero;stroke:#baed00;stroke-width:1;stroke-linecap:square;stroke-linejoin:round;marker:none;marker-start:none;marker-mid:none;marker-end:none;stroke-miterlimit:4;stroke-dasharray:none;stroke-dashoffset:0;stroke-opacity:1;visibility:visible;display:inline;overflow:visible;enable-background:accumulate"
           id="path3159"
           sodipodi:cx="-10.992361"
           sodipodi:cy="-77.95108"
           sodipodi:rx="8.793889"
           sodipodi:ry="8.793889"
           d="M -2.198472 -77.95108 A 8.793889 8.793889 0 1 1  -19.78625,-77.95108 A 8.793889 8.793889 0 1 1  -2.198472 -77.95108 z"
           transform="matrix(0.7397947,0,0,0.7397947,29.45727,91.194532)" />
        <path
           sodipodi:type="arc"
           style="color:#000000;fill:#000000;fill-opacity:0.45355195;fill-rule:nonzero;stroke:#baed00;stroke-width:1;stroke-linecap:square;stroke-linejoin:round;marker:none;marker-start:none;marker-mid:none;marker-end:none;stroke-miterlimit:4;stroke-dasharray:none;stroke-dashoffset:0;stroke-opacity:1;visibility:visible;display:inline;overflow:visible;enable-background:accumulate"
           id="path3163"
           sodipodi:cx="-10.992361"
           sodipodi:cy="-77.95108"
           sodipodi:rx="8.793889"
           sodipodi:ry="8.793889"
           d="M -2.198472 -77.95108 A 8.793889 8.793889 0 1 1  -19.78625,-77.95108 A 8.793889 8.793889 0 1 1  -2.198472 -77.95108 z"
           transform="matrix(0,-0.7397947,0.7397947,0,67.992976,14.394645)" />
        <path
           sodipodi:type="arc"
           style="color:#000000;fill:#000000;fill-opacity:0.45355195;fill-rule:nonzero;stroke:#baed00;stroke-width:1;stroke-linecap:square;stroke-linejoin:round;marker:none;marker-start:none;marker-mid:none;marker-end:none;stroke-miterlimit:4;stroke-dasharray:none;stroke-dashoffset:0;stroke-opacity:1;visibility:visible;display:inline;overflow:visible;enable-background:accumulate"
           id="path3165"
           sodipodi:cx="-10.992361"
           sodipodi:cy="-77.95108"
           sodipodi:rx="8.793889"
           sodipodi:ry="8.793889"
           d="M -2.198472 -77.95108 A 8.793889 8.793889 0 1 1  -19.78625,-77.95108 A 8.793889 8.793889 0 1 1  -2.198472 -77.95108 z"
           transform="matrix(0,-0.7397947,0.7397947,0,89.992976,14.394645)" />
      </g>
      <path
         transform="matrix(1.3075154,0,0,1.3075154,35.697861,124.17264)"
         d="M -2.198472 -77.95108 A 8.793889 8.793889 0 1 1  -19.78625,-77.95108 A 8.793889 8.793889 0 1 1  -2.198472 -77.95108 z"
         sodipodi:ry="8.793889"
         sodipodi:rx="8.793889"
         sodipodi:cy="-77.95108"
         sodipodi:cx="-10.992361"
         id="path3161"
         style="opacity:1;color:#000000;fill:#ff6800;fill-opacity:0.65573772;fill-rule:nonzero;stroke:#baed00;stroke-width:0.76480937;stroke-linecap:square;stroke-linejoin:round;marker:none;marker-start:none;marker-mid:none;marker-end:none;stroke-miterlimit:4;stroke-dasharray:none;stroke-dashoffset:0;stroke-opacity:1;visibility:visible;display:inline;overflow:visible;enable-background:accumulate"
         sodipodi:type="arc" />
      <g
         style="filter:url(#filter3619)"
         id="g3421">
        <path
           sodipodi:type="arc"
           style="color:#000000;fill:#000000;fill-opacity:0.45355195;fill-rule:nonzero;stroke:#baed00;stroke-width:1;stroke-linecap:square;stroke-linejoin:round;marker:none;marker-start:none;marker-mid:none;marker-end:none;stroke-miterlimit:4;stroke-dasharray:none;stroke-dashoffset:0;stroke-opacity:1;visibility:visible;display:inline;overflow:visible;enable-background:accumulate"
           id="path3423"
           sodipodi:cx="-10.992361"
           sodipodi:cy="-77.95108"
           sodipodi:rx="8.793889"
           sodipodi:ry="8.793889"
           d="M -2.198472 -77.95108 A 8.793889 8.793889 0 1 1  -19.78625,-77.95108 A 8.793889 8.793889 0 1 1  -2.198472 -77.95108 z"
           transform="matrix(0.7397947,0,0,0.7397947,29.45727,69.194532)" />
        <path
           sodipodi:type="arc"
           style="color:#000000;fill:#000000;fill-opacity:0.45355195;fill-rule:nonzero;stroke:#baed00;stroke-width:1;stroke-linecap:square;stroke-linejoin:round;marker:none;marker-start:none;marker-mid:none;marker-end:none;stroke-miterlimit:4;stroke-dasharray:none;stroke-dashoffset:0;stroke-opacity:1;visibility:visible;display:inline;overflow:visible;enable-background:accumulate"
           id="path3425"
           sodipodi:cx="-10.992361"
           sodipodi:cy="-77.95108"
           sodipodi:rx="8.793889"
           sodipodi:ry="8.793889"
           d="M -2.198472 -77.95108 A 8.793889 8.793889 0 1 1  -19.78625,-77.95108 A 8.793889 8.793889 0 1 1  -2.198472 -77.95108 z"
           transform="matrix(0.7397947,0,0,0.7397947,29.45727,91.194532)" />
        <path
           sodipodi:type="arc"
           style="color:#000000;fill:#000000;fill-opacity:0.45355195;fill-rule:nonzero;stroke:#baed00;stroke-width:1;stroke-linecap:square;stroke-linejoin:round;marker:none;marker-start:none;marker-mid:none;marker-end:none;stroke-miterlimit:4;stroke-dasharray:none;stroke-dashoffset:0;stroke-opacity:1;visibility:visible;display:inline;overflow:visible;enable-background:accumulate"
           id="path3427"
           sodipodi:cx="-10.992361"
           sodipodi:cy="-77.95108"
           sodipodi:rx="8.793889"
           sodipodi:ry="8.793889"
           d="M -2.198472 -77.95108 A 8.793889 8.793889 0 1 1  -19.78625,-77.95108 A 8.793889 8.793889 0 1 1  -2.198472 -77.95108 z"
           transform="matrix(0,-0.7397947,0.7397947,0,67.992976,14.394645)" />
        <path
           sodipodi:type="arc"
           style="color:#000000;fill:#000000;fill-opacity:0.45355195;fill-rule:nonzero;stroke:#baed00;stroke-width:1;stroke-linecap:square;stroke-linejoin:round;marker:none;marker-start:none;marker-mid:none;marker-end:none;stroke-miterlimit:4;stroke-dasharray:none;stroke-dashoffset:0;stroke-opacity:1;visibility:visible;display:inline;overflow:visible;enable-background:accumulate"
           id="path3429"
           sodipodi:cx="-10.992361"
           sodipodi:cy="-77.95108"
           sodipodi:rx="8.793889"
           sodipodi:ry="8.793889"
           d="M -2.198472 -77.95108 A 8.793889 8.793889 0 1 1  -19.78625,-77.95108 A 8.793889 8.793889 0 1 1  -2.198472 -77.95108 z"
           transform="matrix(0,-0.7397947,0.7397947,0,89.992976,14.394645)" />
      </g>
    </g>
  </g>
</svg>
