<?xml version="1.0" encoding="UTF-8" standalone="no"?>
<!-- Created with Inkscape (http://www.inkscape.org/) -->
<svg
   xmlns:dc="http://purl.org/dc/elements/1.1/"
   xmlns:cc="http://creativecommons.org/ns#"
   xmlns:rdf="http://www.w3.org/1999/02/22-rdf-syntax-ns#"
   xmlns:svg="http://www.w3.org/2000/svg"
   xmlns="http://www.w3.org/2000/svg"
   xmlns:xlink="http://www.w3.org/1999/xlink"
   xmlns:sodipodi="http://sodipodi.sourceforge.net/DTD/sodipodi-0.dtd"
   xmlns:inkscape="http://www.inkscape.org/namespaces/inkscape"
   width="640px"
   height="480px"
   id="svg4635"
   sodipodi:version="0.32"
   inkscape:version="0.46"
   sodipodi:docname="bridgwater.svg"
   inkscape:output_extension="org.inkscape.output.svg.inkscape">
  <defs
     id="defs4637">
    <inkscape:perspective
       sodipodi:type="inkscape:persp3d"
       inkscape:vp_x="0 : 240 : 1"
       inkscape:vp_y="0 : 1000 : 0"
       inkscape:vp_z="640 : 240 : 1"
       inkscape:persp3d-origin="320 : 160 : 1"
       id="perspective4643" />
    <inkscape:perspective
       id="perspective4708"
       inkscape:persp3d-origin="372.04724 : 350.78739 : 1"
       inkscape:vp_z="744.09448 : 526.18109 : 1"
       inkscape:vp_y="0 : 1000 : 0"
       inkscape:vp_x="0 : 526.18109 : 1"
       sodipodi:type="inkscape:persp3d" />
    <inkscape:perspective
       id="perspective4775"
       inkscape:persp3d-origin="372.04724 : 350.78739 : 1"
       inkscape:vp_z="744.09448 : 526.18109 : 1"
       inkscape:vp_y="0 : 1000 : 0"
       inkscape:vp_x="0 : 526.18109 : 1"
       sodipodi:type="inkscape:persp3d" />
    <inkscape:perspective
       id="perspective4842"
       inkscape:persp3d-origin="372.04724 : 350.78739 : 1"
       inkscape:vp_z="744.09448 : 526.18109 : 1"
       inkscape:vp_y="0 : 1000 : 0"
       inkscape:vp_x="0 : 526.18109 : 1"
       sodipodi:type="inkscape:persp3d" />
    <inkscape:perspective
       id="perspective4909"
       inkscape:persp3d-origin="372.04724 : 350.78739 : 1"
       inkscape:vp_z="744.09448 : 526.18109 : 1"
       inkscape:vp_y="0 : 1000 : 0"
       inkscape:vp_x="0 : 526.18109 : 1"
       sodipodi:type="inkscape:persp3d" />
  </defs>
  <sodipodi:namedview
     id="base"
     pagecolor="#ffffff"
     bordercolor="#666666"
     borderopacity="1.0"
     inkscape:pageopacity="0.0"
     inkscape:pageshadow="2"
     inkscape:zoom="1.17"
     inkscape:cx="380.96303"
     inkscape:cy="238.99961"
     inkscape:current-layer="layer1"
     inkscape:document-units="px"
     showgrid="false"
     inkscape:window-width="1617"
     inkscape:window-height="967"
     inkscape:window-x="64"
     inkscape:window-y="74" />
  <metadata
     id="metadata4640">
    <rdf:RDF>
      <cc:Work
         rdf:about="">
        <dc:format>image/svg+xml</dc:format>
        <dc:type
           rdf:resource="http://purl.org/dc/dcmitype/StillImage" />
      </cc:Work>
    </rdf:RDF>
  </metadata>
  <g
     inkscape:groupmode="layer"
     id="layer12"
     inkscape:label="Backdrop"
     style="opacity:1"
     sodipodi:insensitive="true">
    <image
       y="-0.14529847"
       x="0.69694453"
       id="image4911"
       height="479.92474"
       width="639.61505"
       sodipodi:absref="/Users/httpd/Desktop/UKPPSW SVG maps/Areas/Bridgwater.jpg"
       xlink:href="/img/maps/bridgwater.jpg" />
  </g>
  <g
     id="layer1"
     inkscape:label="Map"
     inkscape:groupmode="layer">
    <path
       style="opacity:0.75545852;fill:#0087dc;fill-opacity:0.49019608;stroke:#ffffff;stroke-width:0.5;stroke-linecap:round;stroke-linejoin:round;stroke-miterlimit:4;stroke-dasharray:none;stroke-opacity:1;display:inline"
       d="M 93.306445,126.67566 L 95.142532,126.85299 L 97.179967,126.56284 L 98.404018,126.83685 L 100.07093,127.66699 L 101.93926,127.32847 L 103.22774,127.5058 L 105.7161,129.27888 L 109.83118,130.47977 L 116.74061,131.73704 L 118.19823,131.74509 L 120.84764,132.55907 L 121.80595,132.59941 L 122.21666,132.31733 L 123.60178,133.09911 L 125.31705,133.42955 L 126.46055,133.34892 L 126.83904,133.80026 L 127.48332,133.96952 L 130.49513,134.00174 L 132.30704,134.52562 L 132.56471,134.34026 L 134.1673,135.23485 L 135.38329,135.5492 L 137.85554,135.53306 L 139.45002,134.93667 L 140.43252,134.92054 L 141.15728,135.50887 L 142.67927,137.83004 L 143.09805,138.233 L 143.51678,138.20077 L 143.26716,138.60375 L 142.62289,138.79714 L 142.22028,138.04763 L 141.84175,137.90255 L 141.1331,136.22617 L 141.78538,137.99123 L 142.17192,138.15241 L 142.67927,139.14372 L 143.6054,139.28878 L 144.1127,139.10344 L 144.24155,139.998 L 145.35286,141.05378 L 147.11646,141.34396 L 148.566,141.11021 L 152.39115,138.58761 L 155.00031,138.17657 L 157.46455,138.21691 L 162.79562,136.33899 L 165.68665,134.36445 L 168.8434,131.22121 L 170.53455,129.02099 L 170.34127,128.23115 L 170.50233,128.03774 L 171.50089,128.4004 L 172.74911,128.207 L 174.06979,128.70667 L 175.15693,128.37624 L 176.75146,128.8598 L 179.07876,128.87593 L 180.49607,128.24728 L 181.04367,128.3037 L 181.54294,127.86849 L 182.55763,127.97326 L 183.30658,127.3849 L 183.84611,127.32046 L 187.55047,128.23115 L 190.66697,128.26343 L 195.90142,129.92365 L 198.53472,131.4872 L 202.97999,133.13133 L 204.55838,133.98565 L 206.12066,134.32416 L 207.5219,134.28382 L 210.21962,136.30679 L 213.1509,137.13689 L 215.65537,136.25036 L 216.82307,136.50825 L 218.53029,137.57212 L 220.43079,139.6434 L 223.56342,140.66694 L 226.49469,142.93976 L 227.9523,144.85789 L 229.5951,145.47041 L 229.90112,146.02651 L 229.2891,145.54295 L 228.66094,145.90561 L 229.36961,147.82382 L 229.53065,149.6533 L 229.7642,150.08852 L 231.03656,150.967 L 232.81629,151.644 L 234.74898,151.78905 L 239.67745,150.29805 L 240.68402,150.52372 L 242.7859,150.36253 L 245.92654,151.75683 L 247.40828,153.0705 L 249.42958,156.45549 L 250.35566,159.62287 L 251.7247,161.32346 L 251.91795,161.33151 L 251.83744,161.02525 L 252.06292,161.1542 L 251.77302,161.87148 L 251.9502,162.34698 L 255.41294,165.39351 L 257.28928,167.56952 L 259.90651,169.0928 L 261.79089,171.80078 L 263.53036,173.16286 L 265.67248,174.04134 L 270.14184,174.70221 L 276.27018,174.55715 L 279.29809,174.26701 L 283.083,173.29984 L 283.63864,172.94525 L 285.05596,172.90492 L 290.1374,173.42075 L 294.937,174.98429 L 296.79722,175.92725 L 299.8493,176.18514 L 300.63043,176.13679 L 305.69577,174.54101 L 306.91982,174.47654 L 307.10501,174.75863 L 308.44183,174.83117 L 309.19883,174.22671 L 310.23765,173.92042 L 309.31963,174.26701 L 308.86866,174.90367 L 310.60807,175.89505 L 311.17177,175.01652 L 310.45508,174.29922 L 311.30871,175.01652 L 312.02542,175.09711 L 312.04954,174.90367 L 312.54883,175.31473 L 313.70044,175.25832 L 315.31104,175.621 L 315.12581,176.6768 L 315.73783,177.27321 L 319.71598,178.28064 L 322.14804,178.09524 L 324.01631,177.31347 L 324.97462,176.51558 L 325.16787,176.66873 L 326.40804,176.29796 L 327.04419,176.41887 L 327.75288,175.78219 L 328.97694,175.79827 L 329.86279,175.50011 L 332.8021,176.46722 L 334.42878,176.3141 L 335.71726,177.77287 L 336.44204,177.88573 L 337.58558,177.60365 L 338.54385,178.39346 L 339.6713,178.37733 L 343.91522,176.28995 L 345.57413,175.17774 L 347.91756,172.96941 L 350.79247,171.34142 L 351.332,171.29303 L 352.46749,171.72022 L 354.59344,171.73628 L 358.22535,170.59993 L 361.99415,168.52056 L 365.00597,168.48835 L 366.86619,167.81133 L 368.2916,166.86031 L 370.76384,166.86031 L 371.84296,165.93348 L 372.39861,166.10273 L 373.75955,165.82871 L 379.32416,161.01716 L 381.78838,159.54231 L 383.19763,159.47782 L 383.80966,159.05875 L 385.44444,158.73633 L 388.59313,158.57515 L 389.68032,158.84111 L 391.2748,159.6632 L 392.5391,160.72707 L 394.00477,161.26704 L 398.49026,159.29243 L 403.12875,158.82502 L 406.08421,156.27016 L 407.74312,153.87649 L 409.7322,153.36067 L 417.97848,152.86097 L 421.27215,151.8374 L 424.92015,151.78098 L 424.92015,151.49088 L 425.18589,151.96636 L 426.39382,152.54666 L 427.68231,153.98932 L 431.22562,155.38362 L 435.58229,154.77108 L 437.26539,154.19078 L 438.94841,154.22305 L 440.61539,155.0854 L 442.57226,155.69792 L 443.34534,156.37492 L 444.82708,156.72951 L 447.04169,157.94654 L 447.37186,158.56707 L 448.46707,159.31664 L 452.43715,160.69479 L 453.12167,160.72707 L 453.0653,160.49332 L 453.34716,160.34822 L 455.19938,160.34017 L 457.76823,159.70348 L 458.92789,159.67128 L 461.16659,158.80888 L 462.22154,158.76052 L 462.40677,158.3414 L 463.00268,158.22858 L 465.39441,156.71343 L 478.40806,146.11516 L 481.16214,145.44622 L 483.4492,145.24474 L 483.82769,145.55104 L 484.5927,145.53491 L 484.97123,146.05073 L 484.49608,146.31667 L 484.31085,148.2348 L 482.72444,149.75807 L 482.19295,150.67684 L 481.83862,150.88641 L 481.21046,150.73325 L 481.04134,148.9521 L 480.87223,148.96018 L 481.09772,150.02404 L 480.75949,150.153 L 481.12994,150.40281 L 480.58236,150.74938 L 480.96888,150.76551 L 481.18633,151.13624 L 478.57716,154.9645 L 478.42411,155.77046 L 478.69797,154.94034 L 480.89642,151.6037 L 481.3232,151.26522 L 481.90304,151.44252 L 479.68041,161.42823 L 479.12476,162.24222 L 478.54492,161.31538 L 478.82677,162.08102 L 478.03757,161.79894 L 479.25362,162.70967 L 478.8429,163.99921 L 477.14374,167.16659 L 476.5639,167.73077 L 475.42039,168.01281 L 473.35883,167.53731 L 471.90123,166.75555 L 470.94292,166.69913 L 470.03295,166.99735 L 468.25325,169.27817 L 465.17698,171.86526 L 463.60665,174.18638 L 461.68199,180.44056 L 461.60144,181.03697 L 462.52757,184.17214 L 461.5612,184.7121 L 461.35182,185.15536 L 461.64175,185.63086 L 460.64318,185.75984 L 461.74643,185.71954 L 461.57732,184.98613 L 462.06853,184.58314 L 462.44703,184.43808 L 462.3987,184.81687 L 462.87386,184.72016 L 463.57445,186.00162 L 469.83966,193.7629 L 471.66768,195.27004 L 473.62457,195.93091 L 474.44596,195.9712 L 475.67001,195.76165 L 476.67665,195.12498 L 478.03757,193.89994 L 478.73017,192.73938 L 479.18919,190.29731 L 478.79459,186.29981 L 479.0845,185.30042 L 479.93003,184.63955 L 480.7756,184.34137 L 482.40232,183.97868 L 483.95655,183.97868 L 489.06214,186.03384 L 490.84186,187.85529 L 493.12891,192.30412 L 493.06447,193.06981 L 491.91289,194.53661 L 491.73573,195.29424 L 492.03365,196.07601 L 493.0403,197.05925 L 494.01473,197.59116 L 497.12318,197.75235 L 499.77259,196.86581 L 500.39268,196.91416 L 500.44905,197.57508 L 499.20887,202.04807 L 499.51491,203.90178 L 496.3259,204.57071 L 495.6414,205.11873 L 495.20655,205.97301 L 495.31124,206.96439 L 495.69776,207.60105 L 495.41597,207.72195 L 495.97161,207.80258 L 496.47892,208.56014 L 495.29516,211.01024 L 495.27097,211.84038 L 496.18098,212.40453 L 497.93651,212.07409 L 498.70152,212.29171 L 498.91896,213.07348 L 498.68547,214.61283 L 498.34724,215.0319 L 496.33397,215.86207 L 493.37047,218.4975 L 493.16109,219.02946 L 493.37047,220.50431 L 492.61349,222.04365 L 493.75701,223.95379 L 493.86973,226.10566 L 495.52064,229.5954 L 497.02654,235.63199 L 498.48411,237.33254 L 501.52811,238.07403 L 503.21121,237.51791 L 504.61245,238.48502 L 506.0378,238.93636 L 509.00938,242.09573 L 509.68583,245.46457 L 510.74878,246.73797 L 510.97427,248.10807 L 512.05339,249.12358 L 513.31771,249.72803 L 513.32575,252.04114 L 513.66398,252.7181 L 516.91739,256.09507 L 517.60189,257.32012 L 520.27548,259.64929 L 522.94908,260.92268 L 525.11534,260.50357 L 526.25883,263.57425 L 527.87751,265.30704 L 528.30429,266.53209 L 528.92439,267.03985 L 530.83294,267.5879 L 531.2195,270.10246 L 529.34317,270.48932 L 529.39147,271.79493 L 530.21286,273.69698 L 528.49758,274.46263 L 524.20532,274.18861 L 523.93959,275.10741 L 523.01351,275.94555 L 522.91684,276.47751 L 523.27926,276.98527 L 524.04426,277.35599 L 523.64161,278.43599 L 524.23757,280.74096 L 526.9353,281.91765 L 532.22611,286.81786 L 533.45016,285.73786 L 535.06879,287.14021 L 533.20856,288.64734 L 532.34693,289.70315 L 532.10531,290.36402 L 531.42081,290.96041 L 530.00351,291.04908 L 526.09779,290.56549 L 525.53407,290.21895 L 524.03622,291.13773 L 523.64161,291.12966 L 522.90077,292.79797 L 521.48344,293.51525 L 521.24182,295.28032 L 518.95481,296.02983 L 517.4972,299.61634 L 516.41809,299.65661 L 514.67062,298.94739 L 514.34851,299.0441 L 514.32433,300.48673 L 512.11782,299.93064 L 511.43332,300.28528 L 510.98234,301.1476 L 509.106,302.54998 L 508.7114,303.84753 L 507.81751,303.69442 L 506.60152,304.01677 L 506.15053,303.82337 L 505.20835,304.25859 L 504.53995,305.29825 L 503.66219,305.36273 L 501.81804,302.3646 L 500.69868,302.31626 L 500.9,300.7527 L 499.45047,300.15631 L 499.39411,299.9145 L 496.97819,300.17244 L 497.0185,298.14143 L 496.51919,296.23937 L 495.18241,293.6281 L 494.13552,293.46691 L 493.68456,293.91019 L 492.44439,294.28095 L 492.30747,294.65974 L 490.57611,294.07137 L 489.9399,294.0875 L 488.48229,294.69195 L 485.03562,292.73349 L 484.5927,292.58037 L 483.67467,292.77382 L 482.62781,293.13648 L 482.28958,293.66035 L 481.08965,293.56362 L 478.30336,298.23813 L 476.05656,298.62498 L 475.6539,295.98148 L 477.07931,296.00569 L 476.91826,293.14455 L 475.1305,293.02364 L 475.1466,292.75768 L 476.80551,292.70127 L 476.90213,291.96785 L 475.46066,291.77444 L 475.51703,291.27475 L 476.24179,291.59712 L 476.19349,291.04908 L 475.58952,290.83148 L 475.6056,290.39623 L 479.97839,290.5252 L 479.88977,287.98647 L 479.02814,288.38139 L 477.98122,288.01063 L 476.98265,288.35719 L 475.36404,287.77694 L 473.5682,287.86557 L 473.47157,287.48679 L 473.76951,286.8904 L 470.96708,286.60024 L 469.49338,285.56055 L 469.34844,284.71432 L 468.26125,283.02181 L 467.67341,282.69137 L 464.879,282.02242 L 464.78239,282.66723 L 464.1301,283.15077 L 463.19597,282.87677 L 461.78667,283.02988 L 458.70241,282.69944 L 457.09182,282.06272 L 454.03974,280.28157 L 453.75789,280.35412 L 449.94073,278.45207 L 446.34912,277.04975 L 445.24586,278.25866 L 442.96687,277.72672 L 442.74944,279.08878 L 443.35341,281.87739 L 440.50264,282.83643 L 439.8423,280.40247 L 436.95128,280.48309 L 437.08014,280.09623 L 437.76466,279.56427 L 437.79685,279.03237 L 437.32977,276.09066 L 436.2507,275.51842 L 434.98638,275.28467 L 429.33315,275.55068 L 428.80973,276.22763 L 425.49192,277.22702 L 421.11109,276.34854 L 419.95144,276.21156 L 419.88704,276.52586 L 419.54882,276.47751 L 417.87379,275.865 L 416.33568,276.08261 L 415.62698,275.42979 L 415.69948,274.59159 L 413.94395,272.66535 L 413.09836,271.3436 L 412.90507,269.57858 L 411.76158,269.7317 L 410.83549,266.9673 L 410.89988,266.04854 L 409.65975,266.14523 L 407.79949,264.50109 L 409.16852,261.5352 L 409.61144,261.07581 L 405.57686,260.06836 L 403.99045,259.05286 L 404.33674,258.5693 L 406.50299,258.53708 L 408.83031,257.10247 L 408.85443,256.8607 L 407.69482,255.90967 L 407.28414,255.17626 L 407.53376,254.04791 L 408.59675,253.18556 L 409.16852,252.8632 L 411.02068,252.81485 L 413.90365,252.1459 L 414.87808,251.4689 L 415.36126,250.50174 L 414.10501,248.64003 L 413.73454,246.70575 L 413.72652,245.81921 L 414.5318,244.77952 L 414.27411,242.70019 L 411.64882,244.18312 L 411.06898,244.86819 L 408.9591,245.46457 L 407.80755,243.18373 L 407.00228,243.15152 L 406.19695,243.97358 L 405.20644,244.09448 L 405.10176,245.01324 L 404.34476,245.0616 L 403.32204,246.4156 L 402.83889,246.14159 L 402.6134,246.45588 L 400.78538,247.14903 L 399.40023,246.92336 L 399.64182,245.29532 L 399.34385,243.26431 L 395.71198,243.98967 L 393.2075,242.74047 L 391.87072,242.86136 L 391.154,241.45901 L 389.41453,240.13725 L 387.05505,240.02443 L 385.3478,239.4844 L 385.17065,239.33935 L 385.28338,238.00953 L 384.94516,237.12299 L 383.07683,234.32633 L 378.99399,237.17133 L 378.47859,238.3319 L 376.74719,239.5328 L 375.02386,241.36229 L 371.48861,243.21595 L 369.64447,245.10995 L 370.03101,245.73052 L 368.35599,246.18993 L 367.8567,246.57679 L 365.92398,248.84957 L 363.339,252.67781 L 363.12159,253.17749 L 363.77386,253.8545 L 361.47068,255.03926 L 358.71659,254.92643 L 357.84687,255.41806 L 355.71282,253.00826 L 353.98948,252.45213 L 353.55463,251.32381 L 352.67685,251.79127 L 350.84078,253.49181 L 349.27042,256.67533 L 348.71478,259.00451 L 348.55373,261.20477 L 347.44241,262.38948 L 346.34722,263.11485 L 345.18759,263.50171 L 343.17435,263.4292 L 339.90483,261.16446 L 339.61492,259.74599 L 337.43256,257.30398 L 334.35634,256.28039 L 331.15928,260.05223 L 329.03332,261.93816 L 329.29101,262.3734 L 328.44543,262.62323 L 327.75288,263.37278 L 329.27488,265.42796 L 330.04796,268.73231 L 330.44255,268.95798 L 331.63443,270.79556 L 333.32553,272.49614 L 334.97643,273.64057 L 337.39229,274.785 L 337.06211,275.79244 L 337.36811,275.83272 L 337.4084,277.19481 L 337.60166,277.35599 L 337.34398,278.79056 L 338.97871,280.14458 L 340.46049,282.54632 L 341.604,282.88482 L 342.38514,283.66659 L 342.44956,284.38389 L 338.74521,283.60211 L 336.23268,283.97284 L 333.60739,283.71496 L 332.52831,284.27911 L 331.44112,284.11788 L 331.38476,281.11976 L 332.23839,279.68517 L 328.60647,277.10616 L 327.44685,276.58227 L 326.68988,275.50229 L 325.45777,275.16383 L 324.37065,275.25247 L 321.65676,273.8501 L 318.63692,274.73665 L 318.03294,275.33303 L 317.71884,274.81727 L 316.7686,274.48683 L 312.18647,274.47875 L 311.81604,275.22827 L 307.21776,278.13776 L 305.69577,277.95237 L 305.51858,277.58166 L 304.96294,277.40434 L 303.55366,278.08134 L 302.55508,277.67836 L 300.59019,278.12969 L 299.80905,277.97657 L 299.11647,278.35536 L 297.69111,278.41985 L 293.44716,279.90278 L 291.66746,280.08011 L 291.28091,280.64426 L 291.31314,281.04725 L 290.54008,281.94989 L 290.76556,282.48184 L 290.67695,283.31198 L 291.06349,283.51344 L 291.08766,284.52087 L 291.81244,285.70564 L 292.4889,285.84263 L 292.80294,286.61633 L 293.27003,286.90649 L 293.69683,286.5277 L 294.55847,287.27726 L 294.32498,287.55933 L 294.63903,288.09931 L 295.24298,288.35719 L 295.18662,289.18732 L 295.6054,289.54195 L 295.77446,290.89592 L 296.12075,291.23443 L 295.78252,291.52457 L 296.16908,292.05652 L 296.07245,292.97528 L 295.57316,293.13648 L 295.46043,293.45083 L 295.73422,293.80542 L 294.11557,296.63429 L 294.43772,298.2462 L 293.06062,298.899 L 292.85125,298.31069 L 291.82049,298.37516 L 290.66888,297.81905 L 288.22884,298.02052 L 284.52447,299.0441 L 281.38383,300.69628 L 280.2081,300.35778 L 279.6605,300.43839 L 278.3559,299.56794 L 275.84334,296.85188 L 272.21149,294.68388 L 269.41708,301.44583 L 270.78606,303.22698 L 268.50708,304.76634 L 267.50049,304.73407 L 266.80792,304.24245 L 265.9382,304.71798 L 264.7866,306.41045 L 264.17457,306.88599 L 263.60285,308.28029 L 262.4996,308.98144 L 259.82601,309.73903 L 259.48776,310.70618 L 259.71326,312.22139 L 258.67443,313.01122 L 257.49869,312.23745 L 256.98328,311.37512 L 255.55792,310.31126 L 253.89901,310.06144 L 253.26282,309.64231 L 252.45749,309.69067 L 251.05632,310.35153 L 250.17048,310.07751 L 246.81236,310.60948 L 244.84747,311.58466 L 241.88395,312.47928 L 241.32829,313.04343 L 241.27998,314.4458 L 240.82901,314.55864 L 238.98487,314.63921 L 236.85085,313.6076 L 233.75043,314.84073 L 232.57473,314.5425 L 231.52779,314.78431 L 228.84619,312.23745 L 226.6477,311.17366 L 225.02903,310.71424 L 223.36206,308.94924 L 221.13145,307.56299 L 220.60798,306.90208 L 220.06037,306.89407 L 217.62837,308.09492 L 213.61798,309.26353 L 209.43849,309.78742 L 208.25467,310.15814 L 205.54889,312.66464 L 203.64036,313.67208 L 202.6418,313.94611 L 199.97626,314.02668 L 199.7749,313.57534 L 199.5011,313.59148 L 199.42861,315.18724 L 200.02458,316.64601 L 199.06625,318.0806 L 199.40449,319.85368 L 198.60721,320.82892 L 199.21925,321.90886 L 199.179,322.74706 L 200.15338,323.53689 L 197.78582,325.10851 L 197.97908,326.87351 L 197.66502,327.84069 L 195.70014,328.0905 L 195.32965,329.39616 L 195.44241,330.99194 L 195.21692,331.60445 L 190.81997,333.61127 L 191.40788,332.8295 L 190.63479,332.49906 L 186.91431,332.73279 L 183.45957,332.19277 L 182.3724,332.43457 L 179.96458,332.2492 L 176.96888,331.61251 L 174.7865,331.84626 L 171.56532,331.6931 L 170.5426,331.94294 L 167.44218,331.31429 L 167.4341,330.51645 L 166.45167,331.08057 L 158.89799,330.40361 L 152.38314,329.30748 L 148.71097,328.54991 L 148.46937,327.91319 L 148.54186,326.75262 L 148.22777,326.08368 L 147.45468,325.18105 L 146.04543,324.24611 L 146.29507,323.31123 L 146.07764,321.76381 L 147.68823,318.89464 L 148.32443,316.29144 L 148.18752,314.4861 L 148.46937,313.7446 L 153.11593,308.94924 L 153.30116,306.52329 L 155.81369,302.71925 L 155.88615,299.55186 L 156.2727,298.488 L 155.86202,297.55309 L 155.42715,294.24868 L 155.00838,293.26545 L 154.85538,290.43657 L 155.16137,289.46135 L 156.48209,287.8817 L 157.01358,287.71245 L 157.37598,286.68082 L 158.07658,286.65666 L 158.25375,286.43098 L 156.9089,285.75399 L 154.33193,286.16503 L 153.47028,285.79426 L 153.00318,284.62564 L 152.43948,284.18237 L 150.89331,284.36776 L 149.35519,283.77136 L 148.84785,284.08566 L 148.14727,285.29458 L 147.78486,285.38325 L 146.86684,284.94802 L 144.30598,281.85317 L 143.21079,281.20038 L 141.4794,280.63621 L 139.36953,281.90153 L 137.56563,282.09498 L 136.17245,284.31132 L 135.23025,284.93192 L 133.67603,284.60954 L 132.62914,283.51344 L 131.24403,282.83643 L 130.00386,283.40866 L 128.82817,283.21525 L 127.61217,282.71558 L 127.15313,281.98216 L 125.69554,281.77262 L 125.72772,281.00694 L 126.56524,279.7416 L 126.94377,277.75898 L 125.31705,277.14646 L 125.24457,276.91273 L 123.54539,276.75961 L 122.41798,276.27603 L 121.89455,275.72795 L 121.52409,275.80051 L 119.06792,274.80919 L 118.83442,274.39008 L 118.8183,272.78625 L 118.12572,272.10924 L 115.55686,271.66596 L 114.18782,271.02122 L 112.56116,269.56245 L 111.6592,269.78812 L 111.49814,269.57858 L 110.49958,269.65919 L 108.9856,269.07082 L 108.01121,267.76521 L 107.24616,267.41058 L 106.34425,266.45955 L 105.56312,264.39633 L 103.50155,262.42982 L 102.42242,262.36535 L 102.0359,261.93816 L 101.22255,262.02684 L 100.40918,262.49425 L 98.468403,262.1558 L 96.785355,262.43789 L 95.770676,262.20415 L 94.852607,262.40563 L 94.007084,262.13968 L 90.801954,262.48625 L 88.80483,262.22024 L 87.96731,261.87372 L 86.606377,259.97972 L 82.402741,256.39324 L 77.603146,254.57179 L 76.097222,253.49181 L 73.810173,251.02563 L 70.830594,248.63196 L 67.182603,243.69957 L 61.74684,238.86386 L 56.407708,237.70331 L 54.611879,236.96987 L 50.770599,234.66484 L 48.314432,233.52847 L 44.956358,231.02197 L 41.163386,229.48256 L 39.585038,227.44353 L 35.961189,224.55017 L 34.487462,223.05917 L 31.685056,219.65806 L 29.776477,215.41072 L 26.523086,211.59855 L 24.646759,208.72134 L 24.912501,207.10137 L 24.582333,206.02944 L 24.807817,202.91847 L 26.297602,197.28492 L 24.51789,194.61724 L 24.131346,184.80881 L 23.607884,182.71334 L 22.971732,175.8789 L 22.504644,174.33148 L 22.8751,174.11386 L 26.772711,173.63835 L 31.19383,175.04877 L 35.099492,172.97746 L 36.194726,173.03388 L 38.248245,173.86402 L 41.421123,173.72703 L 47.130679,176.85408 L 48.556036,178.49017 L 52.526171,179.32836 L 54.89374,179.07044 L 57.277412,178.12748 L 68.994506,174.86338 L 72.42506,175.14547 L 75.364402,176.62039 L 77.490393,176.29796 L 78.931866,175.31473 L 79.519772,175.37113 L 79.777452,175.13741 L 81.23506,175.51619 L 82.861719,175.40337 L 84.246833,174.6055 L 85.060204,174.54909 L 85.454817,174.01713 L 86.59831,173.85595 L 87.202286,173.28375 L 87.886802,172.26019 L 87.218408,170.80947 L 87.621067,169.43937 L 86.960718,167.58566 L 84.883033,165.43379 L 83.449625,162.99177 L 83.538169,160.61423 L 85.261522,159.75184 L 86.445317,157.24533 L 86.928484,155.49644 L 86.485577,153.87649 L 86.912361,152.52247 L 86.04266,150.8461 L 85.784991,149.77421 L 85.825229,148.62972 L 86.260091,147.40469 L 85.390378,144.6 L 84.625353,143.246 L 84.246833,141.34396 L 84.64949,140.57024 L 85.70443,139.9255 L 85.921859,138.04763 L 83.489864,134.51755 L 85.736674,133.51012 L 86.292336,132.45434 L 87.210342,131.9869 L 86.888246,130.73765 L 87.05735,128.62608 L 89.328297,127.65895 L 89.674583,127.22371 L 89.980558,125.99065 L 90.689221,125.39421 L 92.315944,126.47419 L 93.306445,126.67566 z M 486.9925,154.5857 L 487.12137,154.88392 L 487.07306,154.5293 L 486.8234,154.42453 L 486.77508,154.28748 L 486.84757,153.72337 L 487.19386,153.69915 L 486.81533,153.43321 L 488.20045,150.83802 L 489.8674,146.68741 L 491.78405,144.05999 L 493.68456,143.47167 L 494.64283,142.11764 L 493.82948,140.66694 L 494.53008,139.23234 L 496.18903,139.35327 L 495.75413,141.70665 L 496.76883,142.75437 L 497.56608,142.82692 L 498.13786,142.10156 L 498.68547,142.03708 L 500.05445,143.14124 L 501.41538,143.39104 L 502.5428,144.35821 L 504.31447,144.56775 L 503.77493,147.44501 L 505.82844,148.35571 L 506.06198,147.97693 L 507.37459,148.4766 L 509.87102,148.91989 L 511.24807,148.53304 L 511.55411,146.69546 L 511.86816,146.65518 L 512.35136,147.57394 L 513.14053,148.06557 L 513.51904,149.83864 L 514.50957,149.79029 L 515.36316,151.11209 L 515.90273,151.45861 L 516.10404,151.05567 L 515.80607,150.28192 L 515.98323,150.09657 L 516.75633,150.19329 L 517.03012,149.39538 L 516.9013,148.86347 L 516.20066,148.19452 L 516.32952,147.7996 L 521.7411,148.15425 L 523.2712,148.58137 L 523.90736,147.26769 L 524.47107,146.83249 L 524.56774,146.43757 L 524.95428,146.32473 L 526.76618,147.03397 L 527.27353,146.97754 L 527.53121,147.27577 L 528.04661,147.1468 L 528.25598,147.53365 L 528.95662,147.75125 L 529.64915,148.75064 L 530.58329,149.34702 L 538.17728,151.92609 L 539.24828,153.40902 L 541.41456,154.52122 L 543.51636,157.18085 L 544.87736,157.96263 L 546.24634,159.70348 L 546.43962,159.58259 L 548.44483,162.36312 L 548.91187,163.86217 L 551.47273,166.94092 L 558.98617,166.07853 L 559.01031,165.90123 L 560.60481,166.09468 L 564.6313,164.59561 L 565.71846,164.36188 L 567.06327,164.53919 L 568.35176,164.17648 L 568.98798,164.38606 L 570.11535,165.70782 L 570.46166,165.82065 L 571.62126,165.14365 L 572.38634,164.13621 L 572.82926,164.02336 L 574.21438,164.89382 L 575.18069,164.84543 L 576.06652,165.39351 L 577.18588,165.53049 L 578.50658,166.83615 L 583.0565,168.78656 L 585.35967,170.54351 L 587.01859,171.43812 L 586.31799,173.07418 L 583.75713,187.91978 L 609.38975,202.91847 L 615.46978,206.19067 L 613.83499,215.14473 L 615.63082,215.57997 L 615.2926,217.8447 L 613.16661,218.10257 L 613.45653,218.74736 L 614.98657,218.2799 L 614.69669,220.93953 L 613.69813,221.11683 L 613.81088,222.10815 L 612.95725,222.40637 L 613.02973,222.63204 L 610.99228,223.68783 L 610.80711,224.30842 L 609.30119,225.35615 L 610.12258,226.3152 L 611.21777,226.90355 L 609.16428,228.30592 L 610.18702,228.64442 L 610.99228,229.53097 L 611.37083,230.44972 L 611.04866,231.02197 L 611.73319,232.247 L 612.31302,232.2873 L 613.52095,231.57809 L 613.7625,232.40012 L 613.5129,232.56131 L 613.56927,234.4795 L 613.02973,237.38088 L 613.10216,238.70268 L 613.41626,238.65428 L 613.27129,240.37902 L 614.06048,241.00768 L 614.47929,241.99091 L 615.02687,242.50674 L 614.83357,242.74047 L 612.67538,241.37037 L 610.72655,241.2414 L 608.12545,241.46706 L 605.44379,240.83035 L 601.77163,238.96057 L 601.5542,239.08147 L 597.40694,236.43792 L 596.54525,236.12361 L 596.44863,236.38149 L 593.57371,235.16452 L 593.09054,237.33254 L 594.34679,240.17754 L 594.15355,240.25009 L 595.14405,242.78882 L 595.94932,246.335 L 581.63115,251.48503 L 578.94947,250.40505 L 574.53648,272.96356 L 573.43322,272.93135 L 570.37309,272.15762 L 563.21399,269.84454 L 563.09319,271.77078 L 561.99801,272.63313 L 560.52427,274.99458 L 559.92836,276.79987 L 558.42244,278.82284 L 557.42389,279.72547 L 557.01316,280.69262 L 555.74079,279.37894 L 553.23632,277.75898 L 552.19749,277.12225 L 551.59353,277.04975 L 550.34529,276.04231 L 549.66888,275.96168 L 549.31453,274.88175 L 547.93748,275.17185 L 543.64523,266.12911 L 538.31416,269.07082 L 537.99204,268.07145 L 537.38001,268.09565 L 536.28484,266.06463 L 531.00207,267.62819 L 530.74433,267.27354 L 529.14987,266.98344 L 528.38485,266.42734 L 528.06273,265.29091 L 526.26689,263.21159 L 525.21195,260.35045 L 524.56774,260.26181 L 522.86855,260.73732 L 519.87282,259.1657 L 517.87569,257.34425 L 516.98986,255.90162 L 513.91362,252.75035 L 513.58343,252.11365 L 513.54319,249.68775 L 511.20783,248.10002 L 510.93401,246.70575 L 509.79052,245.15828 L 509.22679,242.00703 L 506.34384,238.93636 L 504.82986,238.37224 L 503.37227,237.3003 L 501.32681,237.8 L 498.6774,237.05045 L 497.99289,236.55882 L 497.17956,235.30962 L 495.73001,229.57124 L 494.80393,227.29849 L 494.14353,226.33133 L 494.09523,223.97794 L 492.99197,221.92277 L 493.70064,220.43982 L 493.61207,218.77152 L 496.48696,216.24893 L 498.57272,215.38652 L 499.08807,214.70953 L 499.38604,212.84781 L 498.95119,211.95321 L 498.12979,211.59855 L 496.2293,211.84844 L 495.66556,211.67918 L 495.63339,211.28426 L 496.7447,209.5434 L 496.91381,208.5118 L 495.65753,206.08587 L 495.97962,205.44111 L 496.55142,204.98978 L 499.38604,204.86889 L 500.6826,203.86144 L 500.16718,201.06482 L 501.56841,199.71888 L 501.95496,198.80012 L 501.81804,197.80877 L 500.92416,196.30163 L 500.55373,195.94705 L 499.85314,195.81 L 497.28424,196.80132 L 494.18384,196.72076 L 494.25629,192.52979 L 491.54244,186.88817 L 490.02046,185.34882 L 489.15876,184.85714 L 485.1806,182.94709 L 483.83573,182.72948 L 481.58092,182.89874 L 479.2375,183.55961 L 478.33555,184.08345 L 477.63496,185.21986 L 477.42554,186.06611 L 477.72352,191.40952 L 477.30479,192.57814 L 476.06461,194.16589 L 475.45258,194.55275 L 474.53458,194.73006 L 473.14941,194.39962 L 471.96565,193.73876 L 470.9993,192.77967 L 469.23571,189.14482 L 464.78239,184.30912 L 464.09787,182.98736 L 463.75968,181.68977 L 464.02543,178.63524 L 464.53277,177.13615 L 465.51522,175.00848 L 466.60236,173.73505 L 469.05046,172.94525 L 475.09825,172.45364 L 476.86989,171.85719 L 479.52742,169.59248 L 481.02528,167.8194 L 483.15123,164.29739 L 483.58611,161.74252 L 483.96462,163.46726 L 484.11761,163.34637 L 483.67467,161.23477 L 483.90823,160.76736 L 483.79549,160.33215 L 485.47853,155.96387 L 485.66376,155.80269 L 486.23555,156.52804 L 486.88782,156.68116 L 486.40465,158.42203 L 485.75237,159.07481 L 485.88924,159.23602 L 485.26917,159.48589 L 485.68795,159.49394 L 486.34828,158.76859 L 486.43685,159.81631 L 486.55765,158.49459 L 487.1133,156.66507 L 487.70922,156.88267 L 487.86225,156.64894 L 486.94419,156.12506 L 486.65429,155.52865 L 486.75896,154.63407 L 486.9925,154.5857 z M 486.92005,132.53494 L 487.17774,134.06622 L 486.46909,133.53432 L 485.8812,133.63909 L 485.34166,133.07491 L 485.34166,132.33342 L 484.72962,131.97076 L 484.89068,131.57585 L 485.36578,131.70479 L 486.1228,131.7693 L 486.92005,132.53494 z M 487.66896,139.79653 L 487.46766,141.74694 L 487.29048,141.11021 L 486.912,140.94902 L 486.9925,140.51382 L 486.61402,139.36132 L 485.63157,138.08793 L 486.01811,137.57212 L 485.66376,137.45927 L 485.36578,136.94345 L 486.97639,136.87901 L 488.35347,138.47479 L 488.30518,139.08732 L 487.66896,139.79653 z"
       id="_A66"
       onmouseout="javascript:popdown(this.id);return true;"
       onmouseover="javascript:popup(this.id);return true;"
       onclick="javascript:respond(this.id);return true;"
       inkscape:label="Bridgwater and West Somerset" />
  </g>
</svg>
