<?xml version="1.0" encoding="UTF-8" standalone="no"?>
<!-- Created with Inkscape (http://www.inkscape.org/) -->
<svg
   xmlns:dc="http://purl.org/dc/elements/1.1/"
   xmlns:cc="http://creativecommons.org/ns#"
   xmlns:rdf="http://www.w3.org/1999/02/22-rdf-syntax-ns#"
   xmlns:svg="http://www.w3.org/2000/svg"
   xmlns="http://www.w3.org/2000/svg"
   xmlns:xlink="http://www.w3.org/1999/xlink"
   xmlns:sodipodi="http://sodipodi.sourceforge.net/DTD/sodipodi-0.dtd"
   xmlns:inkscape="http://www.inkscape.org/namespaces/inkscape"
   width="640px"
   height="480px"
   id="svg12462"
   sodipodi:version="0.32"
   inkscape:version="0.46"
   sodipodi:docname="somerset_edit.svg"
   inkscape:output_extension="org.inkscape.output.svg.inkscape">
  <defs
     id="defs5504">
    <inkscape:perspective
       sodipodi:type="inkscape:persp3d"
       inkscape:vp_x="0 : 240 : 1"
       inkscape:vp_y="0 : 1000 : 0"
       inkscape:vp_z="640 : 240 : 1"
       inkscape:persp3d-origin="320 : 160 : 1"
       id="perspective5506" />
  </defs>
  <sodipodi:namedview
     id="base"
     pagecolor="#ffffff"
     bordercolor="#666666"
     borderopacity="1.0"
     inkscape:pageopacity="0.0"
     inkscape:pageshadow="2"
     inkscape:zoom="1"
     inkscape:cx="372.83238"
     inkscape:cy="201.76757"
     inkscape:current-layer="layer1"
     inkscape:document-units="px"
     showgrid="false"
     inkscape:window-width="1213"
     inkscape:window-height="951"
     inkscape:window-x="97"
     inkscape:window-y="103" />
  <metadata
     id="metadata12467">
    <rdf:RDF>
      <cc:Work
         rdf:about="">
        <dc:format>image/svg+xml</dc:format>
        <dc:type
           rdf:resource="http://purl.org/dc/dcmitype/StillImage" />
      </cc:Work>
    </rdf:RDF>
  </metadata>
  <g
     id="layer1"
     inkscape:label="Backdrop"
     inkscape:groupmode="layer"
     style="opacity:1">
    <g
       style="display:inline"
       id="g5764"
       transform="matrix(1.3970623,0,0,1.3970623,2817.0736,5225.4225)" />
    <image
       y="0.23242569"
       x="0.83238602"
       id="image12979"
       height="480"
       width="640"
       sodipodi:absref="/Users/httpd/Desktop/UKParseParl/Maps/Somerset.jpg"
       xlink:href="/img/maps/somerset.jpg" />
  </g>
  <g
     inkscape:groupmode="layer"
     id="layer61"
     inkscape:label="Map"
     style="opacity:1;display:inline"
     sodipodi:insensitive="true">
    <g
       style="opacity:1;display:inline"
       id="g5526"
       transform="matrix(2.4650527,0,0,2.4145458,-519.53078,-532.60931)">
      <path
         id="Yeovil"
         onclick="javascript:respond(this.id);return true;"
         onmouseover="javascript:popup(this.id);return true;"
         onmouseout="javascript:popdown(this.id);return true;"
         style="fill:#c8c8ff;fill-opacity:0.33000004;stroke:#7ffaff;stroke-width:0.99999952;stroke-opacity:1"
         d="M 331.2797,352.69376 L 331.2797,352.69376 L 330.93338,359.21169 L 333.53082,361.64505 L 333.01133,363.64388 L 336.04169,362.601 L 337.60015,363.73078 L 340.6305,362.94863 L 340.97683,367.03319 L 342.62188,369.11893 L 344.35351,366.68557 L 351.02028,363.9915 L 357.86023,364.51293 L 360.02476,361.64505 L 362.27589,363.73078 L 366.51837,361.12361 L 371.62669,361.73195 L 371.71326,360.34145 L 378.1203,357.38667 L 383.2286,358.60334 L 384.26759,356.69142 L 382.53595,353.4759 L 384.96023,349.91277 L 383.57493,347.04488 L 385.73947,345.7413 L 385.13339,340.44005 L 386.08579,339.48409 L 387.21135,340.35314 L 388.59666,338.52812 L 390.7612,339.91861 L 392.05992,338.87575 L 391.36727,336.70311 L 393.35864,336.18167 L 394.31104,337.57216 L 396.21583,337.13764 L 396.90849,336.26857 L 394.57078,332.70544 L 386.17238,334.61737 L 385.82605,337.05073 L 383.40177,334.96499 L 380.89091,335.83404 L 381.58355,340.09242 L 380.80432,340.78767 L 376.30209,337.91978 L 373.79122,339.83171 L 374.48387,338.44122 L 372.49249,336.52929 L 373.09857,334.87809 L 369.54873,334.53046 L 369.2024,335.92095 L 370.67429,336.96382 L 370.06821,338.61503 L 371.28036,339.48409 L 363.83435,345.7413 L 362.01614,341.39601 L 357.42732,343.39485 L 355.34936,341.91745 L 354.05063,346.43655 L 350.24105,344.52461 L 346.17172,347.04488 L 342.5353,341.74364 L 340.02443,342.17816 L 336.82092,343.56866 L 336.30143,345.48058 L 333.70398,347.47941 L 330.67363,348.17466 L 327.38353,346.78416 L 326.6043,348.6961 L 328.85542,351.56398 L 331.2797,352.69376 z" />
      <path
         id="Wells"
         onclick="javascript:respond(this.id);return true;"
         onmouseover="javascript:popup(this.id);return true;"
         onmouseout="javascript:popdown(this.id);return true;"
         style="fill:#c8c8ff;fill-opacity:0.33000004;stroke:#7ffaff;stroke-width:0.99999952;stroke-opacity:1"
         d="M 338.63913,292.64191 L 338.63913,292.64191 L 342.62188,295.07527 L 344.52667,294.0324 L 347.29728,295.24908 L 350.15447,298.37769 L 354.65671,297.76934 L 357.68706,299.33365 L 356.99441,302.80988 L 363.66119,306.72063 L 362.36246,311.41354 L 363.57461,314.36834 L 359.07236,312.89094 L 359.50528,315.2374 L 362.53563,315.2374 L 362.96853,317.06242 L 368.16342,317.67075 L 369.72189,315.58501 L 372.92541,318.4529 L 371.88643,321.06008 L 373.09857,322.18985 L 372.83882,320.62555 L 374.05097,321.4077 L 376.82158,320.0172 L 378.1203,317.06242 L 379.9385,316.54098 L 381.58355,319.14815 L 382.44937,319.23506 L 382.01647,318.27909 L 383.74809,316.36717 L 383.14203,312.63023 L 381.41039,312.71713 L 379.67876,310.97901 L 382.88228,310.89211 L 388.51007,308.11113 L 391.54043,310.19686 L 392.05992,308.54566 L 393.18548,308.54566 L 393.35864,307.24207 L 392.40624,307.15516 L 393.27206,303.85275 L 395.35001,303.07059 L 394.31104,300.02889 L 396.04267,292.90263 L 398.29379,291.94666 L 396.12925,289.60021 L 399.1596,286.12399 L 399.33277,284.03825 L 397.08164,283.08228 L 398.20721,280.82273 L 391.02094,278.56318 L 388.16375,280.56201 L 386.60528,279.69296 L 382.44937,282.12631 L 381.41039,279.95367 L 374.57046,275.86911 L 368.42317,275.17386 L 367.55735,274.13099 L 366.08547,274.30481 L 360.19792,273.78337 L 361.41007,275.95601 L 361.06374,278.47628 L 353.18483,278.65009 L 352.23243,277.43341 L 350.76054,280.3882 L 346.08514,278.04175 L 343.14137,277.60722 L 341.84265,279.34534 L 339.41837,278.30247 L 340.28418,276.12982 L 339.33178,274.47862 L 334.48322,272.91432 L 337.34041,274.56552 L 335.9551,284.9073 L 338.20622,288.90496 L 338.63913,292.64191 z" />
      <path
         id="Taunton"
         onclick="javascript:respond(this.id);return true;"
         onmouseover="javascript:popup(this.id);return true;"
         onmouseout="javascript:popdown(this.id);return true;"
         style="fill:#c8c8ff;fill-opacity:0.33000004;stroke:#7ffaff;stroke-width:0.99999952;stroke-opacity:1"
         d="M 350.67396,325.14464 L 350.67396,325.14464 L 351.28004,322.53747 L 348.50943,319.40887 L 345.82539,319.75649 L 344.09377,321.66842 L 346.69121,323.92797 L 340.02443,327.75182 L 338.29281,325.23155 L 335.78194,325.05774 L 334.22348,326.36133 L 335.00271,324.10178 L 332.40526,322.972 L 321.58258,321.58151 L 318.98513,317.93147 L 321.32283,316.36717 L 321.14967,314.45524 L 318.03273,315.4112 L 314.56947,312.71713 L 310.50014,316.8017 L 308.33561,316.28026 L 306.60398,318.88743 L 304.26627,317.32314 L 302.88097,318.88743 L 305.9979,323.31963 L 303.66021,323.23272 L 303.83337,322.27675 L 299.59087,321.23389 L 295.2618,322.36366 L 292.14487,323.05891 L 291.19247,322.62438 L 291.71196,319.66959 L 294.13624,319.32197 L 291.5388,317.14932 L 292.66436,315.75883 L 282.53431,313.8469 L 278.8979,312.02188 L 280.02346,308.54566 L 277.33942,304.89561 L 274.82856,306.28611 L 274.30907,304.7218 L 269.98,302.54916 L 262.0145,304.11347 L 259.15731,302.02772 L 258.2915,298.81222 L 255.52089,298.5515 L 255.0014,300.37652 L 252.6637,300.46342 L 251.88447,299.85508 L 244.6982,301.07176 L 242.3605,299.85508 L 238.37775,299.94199 L 238.81065,307.24207 L 242.3605,311.67426 L 246.68958,313.67309 L 252.2308,318.53981 L 255.52089,318.62672 L 260.6292,322.972 L 263.48639,322.53747 L 267.03623,323.75416 L 264.52537,331.74948 L 265.04485,332.70544 L 265.82409,332.79235 L 267.20939,333.05307 L 273.96275,333.74831 L 275.95412,331.57567 L 275.78096,329.48993 L 280.11003,328.09944 L 282.53431,329.75065 L 286.94997,328.70778 L 288.33527,329.40302 L 288.2487,330.18518 L 288.42186,330.88042 L 292.49119,331.22804 L 292.49119,339.04956 L 297.94582,338.09359 L 302.62122,343.48175 L 307.21005,346.08892 L 317.77299,345.13296 L 315.08896,352.17232 L 317.16692,352.69376 L 317.16692,354.08425 L 318.89855,354.17115 L 320.54359,356.25689 L 322.44839,353.91043 L 324.43976,353.82353 L 331.2797,352.69376 L 328.85542,351.56398 L 326.6043,348.6961 L 327.38353,346.78416 L 330.67363,348.17466 L 333.70398,347.47941 L 336.30143,345.48058 L 336.82092,343.56866 L 340.02443,342.17816 L 340.37076,335.92095 L 344.44009,334.96499 L 343.74744,333.40068 L 351.79952,326.96966 L 350.67396,325.14464 z" />
      <path
         id="Somerton_and_Frome"
         onclick="javascript:respond(this.id);return true;"
         onmouseover="javascript:popup(this.id);return true;"
         onmouseout="javascript:popdown(this.id);return true;"
         style="fill:#c8c8ff;fill-opacity:0.33000004;stroke:#7ffaff;stroke-width:0.99999952;stroke-opacity:1"
         d="M 351.79952,326.96966 L 351.79952,326.96966 L 343.74744,333.40068 L 344.44009,334.96499 L 340.37076,335.92095 L 340.02443,342.17816 L 342.5353,341.74364 L 346.17172,347.04488 L 350.24105,344.52461 L 354.05063,346.43655 L 355.34936,341.91745 L 357.42732,343.39485 L 362.01614,341.39601 L 363.83435,345.82821 L 371.28036,339.48409 L 370.06821,338.61503 L 370.67429,336.96382 L 369.2024,335.92095 L 369.54873,334.53046 L 373.09857,334.87809 L 372.49249,336.52929 L 374.48387,338.44122 L 373.79122,339.83171 L 376.30209,337.91978 L 380.71774,340.78767 L 381.58355,340.09242 L 380.89091,335.83404 L 383.40177,334.96499 L 385.82605,337.05073 L 386.17238,334.61737 L 394.57078,332.70544 L 396.90849,336.26857 L 396.21583,337.13764 L 397.2548,337.22454 L 398.64011,341.2222 L 402.36312,345.65439 L 404.18133,344.00319 L 403.74842,342.26507 L 406.08612,341.56983 L 407.64459,343.65556 L 416.04299,340.17933 L 414.83085,337.91978 L 412.14682,337.83287 L 412.06025,333.92212 L 417.8612,328.36016 L 415.52351,323.14581 L 418.20753,321.06008 L 414.22479,317.41004 L 413.79187,313.58618 L 416.21615,312.54332 L 415.95641,311.41354 L 421.41105,303.1575 L 425.56695,295.24908 L 425.91328,292.03357 L 428.07782,288.03591 L 428.1644,284.47277 L 427.12543,281.17036 L 425.74012,279.95367 L 424.00849,280.73583 L 424.35482,278.47628 L 423.40242,277.43341 L 424.96089,276.56435 L 424.26823,274.39171 L 417.77463,277.60722 L 411.28101,280.21439 L 409.80913,278.21556 L 407.38485,279.77986 L 407.1251,281.51798 L 405.13373,281.9525 L 403.40209,284.12515 L 400.97781,283.25609 L 400.45833,284.21205 L 399.33277,284.03825 L 399.1596,286.12399 L 396.12925,289.60021 L 398.29379,291.94666 L 396.04267,292.90263 L 394.31104,300.1158 L 395.35001,303.07059 L 393.27206,303.93966 L 392.40624,307.24207 L 393.35864,307.24207 L 393.27206,308.54566 L 392.05992,308.54566 L 391.54043,310.19686 L 388.51007,308.11113 L 382.88228,310.89211 L 379.67876,310.97901 L 381.41039,312.80404 L 383.14203,312.71713 L 383.74809,316.45407 L 382.01647,318.27909 L 382.44937,319.23506 L 381.58355,319.23506 L 379.9385,316.54098 L 378.1203,317.06242 L 376.82158,320.10411 L 374.13754,321.4077 L 372.83882,320.62555 L 373.09857,322.18985 L 371.97301,321.06008 L 372.92541,318.4529 L 369.72189,315.58501 L 368.16342,317.75766 L 362.96853,317.06242 L 362.6222,315.3243 L 359.59185,315.2374 L 355.95544,316.10645 L 355.00303,320.88627 L 352.66533,320.19102 L 351.36661,322.53747 L 350.67396,325.14464 L 351.79952,326.96966 z" />
      <path
         id="Bridgwater"
         onclick="javascript:respond(this.id);return true;"
         onmouseover="javascript:popup(this.id);return true;"
         onmouseout="javascript:popdown(this.id);return true;"
         style="fill:#c8c8ff;fill-opacity:0.33000004;stroke:#7ffaff;stroke-width:0.99999952;stroke-opacity:1"
         d="M 336.56117,295.77051 L 336.56117,295.77051 L 336.56117,295.77051 L 336.56117,295.85742 L 336.56117,295.77051 L 336.56117,295.77051 L 335.08929,298.81222 L 332.2321,299.85508 L 332.2321,299.85508 L 334.82954,297.76934 L 336.12827,293.94549 L 335.00271,293.85859 L 332.2321,296.72648 L 329.37491,297.0741 L 322.70813,295.16218 L 316.90717,297.16101 L 314.30973,296.81339 L 305.39183,300.81105 L 290.24007,300.02889 L 285.56467,295.16218 L 282.44774,294.98837 L 279.41739,291.94666 L 273.87617,290.20855 L 269.63367,290.12165 L 264.52537,292.98954 L 263.31322,291.59904 L 252.6637,289.5133 L 251.27839,291.51213 L 251.88447,299.85508 L 252.6637,300.46342 L 255.0014,300.28961 L 255.52089,298.46459 L 258.2915,298.81222 L 259.15731,302.02772 L 262.0145,304.11347 L 269.98,302.54916 L 274.30907,304.7218 L 274.82856,306.28611 L 277.33942,304.89561 L 280.02346,308.45875 L 278.8979,312.02188 L 282.53431,313.8469 L 292.66436,315.67192 L 291.5388,317.14932 L 294.13624,319.32197 L 291.71196,319.66959 L 291.19247,322.62438 L 292.14487,323.05891 L 295.2618,322.36366 L 299.59087,321.14698 L 303.83337,322.27675 L 303.66021,323.23272 L 305.9979,323.31963 L 302.88097,318.80053 L 304.26627,317.32314 L 306.60398,318.88743 L 308.33561,316.28026 L 310.50014,316.8017 L 314.56947,312.71713 L 318.03273,315.3243 L 321.14967,314.45524 L 321.32283,316.28026 L 318.98513,317.93147 L 321.58258,321.49461 L 332.40526,322.8851 L 335.00271,324.01487 L 334.22348,326.27442 L 335.78194,325.05774 L 338.29281,325.23155 L 340.02443,327.75182 L 346.69121,323.84106 L 344.09377,321.58151 L 345.82539,319.75649 L 348.50943,319.40887 L 351.28004,322.53747 L 352.66533,320.19102 L 355.00303,320.88627 L 355.95544,316.10645 L 359.50528,315.2374 L 359.07236,312.89094 L 363.57461,314.45524 L 362.36246,311.41354 L 363.66119,306.72063 L 356.99441,302.80988 L 357.68706,299.33365 L 354.65671,297.76934 L 350.15447,298.37769 L 347.38387,295.24908 L 344.52667,294.0324 L 342.62188,295.16218 L 338.63913,292.64191 L 336.56117,295.77051 z" />
    </g>
  </g>
</svg>
