<?xml version="1.0" encoding="UTF-8" standalone="no"?>
<!-- Created with Inkscape (http://www.inkscape.org/) -->
<svg
   xmlns:dc="http://purl.org/dc/elements/1.1/"
   xmlns:cc="http://creativecommons.org/ns#"
   xmlns:rdf="http://www.w3.org/1999/02/22-rdf-syntax-ns#"
   xmlns:svg="http://www.w3.org/2000/svg"
   xmlns="http://www.w3.org/2000/svg"
   xmlns:xlink="http://www.w3.org/1999/xlink"
   xmlns:sodipodi="http://sodipodi.sourceforge.net/DTD/sodipodi-0.dtd"
   xmlns:inkscape="http://www.inkscape.org/namespaces/inkscape"
   width="640px"
   height="480px"
   id="svg4235"
   sodipodi:version="0.32"
   inkscape:version="0.46"
   sodipodi:docname="Yeovil.svg"
   inkscape:output_extension="org.inkscape.output.svg.inkscape">
  <defs
     id="defs4237">
    <inkscape:perspective
       sodipodi:type="inkscape:persp3d"
       inkscape:vp_x="0 : 240 : 1"
       inkscape:vp_y="0 : 1000 : 0"
       inkscape:vp_z="640 : 240 : 1"
       inkscape:persp3d-origin="320 : 160 : 1"
       id="perspective4243" />
    <inkscape:perspective
       id="perspective4309"
       inkscape:persp3d-origin="372.04724 : 350.78739 : 1"
       inkscape:vp_z="744.09448 : 526.18109 : 1"
       inkscape:vp_y="0 : 1000 : 0"
       inkscape:vp_x="0 : 526.18109 : 1"
       sodipodi:type="inkscape:persp3d" />
    <inkscape:perspective
       id="perspective4378"
       inkscape:persp3d-origin="372.04724 : 350.78739 : 1"
       inkscape:vp_z="744.09448 : 526.18109 : 1"
       inkscape:vp_y="0 : 1000 : 0"
       inkscape:vp_x="0 : 526.18109 : 1"
       sodipodi:type="inkscape:persp3d" />
  </defs>
  <sodipodi:namedview
     id="base"
     pagecolor="#ffffff"
     bordercolor="#666666"
     borderopacity="1.0"
     inkscape:pageopacity="0.0"
     inkscape:pageshadow="2"
     inkscape:zoom="1.03"
     inkscape:cx="440.88527"
     inkscape:cy="197.98306"
     inkscape:current-layer="layer1"
     inkscape:document-units="px"
     showgrid="false"
     inkscape:window-width="1487"
     inkscape:window-height="1076"
     inkscape:window-x="55"
     inkscape:window-y="43" />
  <metadata
     id="metadata4240">
    <rdf:RDF>
      <cc:Work
         rdf:about="">
        <dc:format>image/svg+xml</dc:format>
        <dc:type
           rdf:resource="http://purl.org/dc/dcmitype/StillImage" />
      </cc:Work>
    </rdf:RDF>
  </metadata>
  <g
     inkscape:groupmode="layer"
     id="layer3"
     inkscape:label="Backdrop"
     style="opacity:1">
    <image
       y="-12.555879"
       x="-10.973947"
       id="image4380"
       height="494"
       width="661"
       sodipodi:absref="/Users/httpd/Desktop/UKPPSW SVG maps/Areas/Yeovil.jpg"
       xlink:href="/img/maps/yeovil.jpg" />
  </g>
  <g
     id="layer1"
     inkscape:label="Yeovil"
     inkscape:groupmode="layer"
     sodipodi:insensitive="true">
    <path
       style="opacity:0.75545852;fill:#f9b847;fill-opacity:0.49803922;stroke:#ffffff;stroke-width:0.5;stroke-linecap:round;stroke-linejoin:round;stroke-miterlimit:4;stroke-dasharray:none;stroke-opacity:1;display:inline"
       d="M 530.99028,122.44144 L 528.73619,123.98816 L 529.36737,125.32873 L 526.41775,125.2385 L 524.39559,122.5832 L 520.53153,118.84512 L 513.66633,125.96034 L 514.28459,126.3986 L 514.23303,127.0302 L 514.91574,127.98404 L 515.72718,128.43518 L 517.62057,128.56415 L 518.44491,129.9047 L 517.62057,131.33548 L 517.99409,132.81778 L 517.04094,133.99079 L 517.35007,134.99615 L 516.96372,135.7051 L 516.71892,138.79872 L 517.44023,139.89432 L 519.07605,141.19624 L 518.97301,142.52388 L 520.20949,142.80744 L 521.16262,146.24908 L 520.69898,148.15672 L 519.41092,147.70556 L 518.30325,148.4661 L 517.69783,150.94099 L 518.17443,152.64245 L 516.87353,157.60502 L 517.76228,159.43538 L 517.07957,159.93813 L 517.02808,160.54397 L 517.81377,161.05953 L 517.63345,162.90277 L 518.2388,163.53438 L 517.13113,164.81049 L 518.07134,165.21007 L 518.03276,165.80305 L 517.05387,167.10488 L 514.90286,167.4143 L 514.7869,168.3165 L 512.3139,169.48952 L 511.96613,170.2887 L 511.32211,170.39181 L 510.25304,169.57974 L 509.87951,169.77309 L 509.73786,172.24794 L 508.97796,172.24794 L 508.54004,172.78933 L 508.52714,174.83883 L 505.80937,177.71329 L 503.69701,177.57147 L 503.64553,176.05046 L 502.07406,176.23091 L 501.80359,175.88289 L 501.89377,178.3191 L 502.7954,180.29129 L 504.4827,181.79939 L 506.87841,182.72744 L 506.73677,182.99813 L 510.16287,185.16364 L 512.01762,188.70836 L 512.54571,190.97701 L 512.1078,195.64312 L 512.48135,197.07391 L 511.43805,197.24146 L 510.16287,198.33714 L 507.27775,199.07182 L 503.96752,201.54674 L 503.28487,201.4436 L 502.70523,201.97207 L 502.34458,203.14508 L 502.84695,203.51882 L 502.58936,203.87973 L 502.92423,205.02692 L 502.17715,206.7284 L 502.30596,207.3729 L 501.53311,207.70804 L 502.17715,210.00251 L 501.48161,210.17008 L 501.88094,211.42041 L 501.41725,212.37421 L 500.63156,212.82536 L 501.13386,213.6503 L 500.56709,214.77176 L 500.94064,216.13805 L 500.30951,216.22825 L 500.28381,217.5688 L 498.87979,218.61296 L 498.39038,218.41957 L 497.83651,218.79341 L 497.84941,220.13398 L 497.45006,220.89443 L 495.94307,220.75271 L 495.6469,222.71194 L 494.127,223.94937 L 494.38461,224.95473 L 495.65977,226.47575 L 495.77565,227.4554 L 497.77212,228.55104 L 498.37749,229.46626 L 498.69945,231.52859 L 498.05552,231.91529 L 498.91847,233.32029 L 499.88448,233.04957 L 499.98751,235.20222 L 500.42545,235.85965 L 501.14676,236.01428 L 501.13386,237.38066 L 501.63615,238.038 L 501.73919,239.21099 L 500.95355,239.95864 L 501.76502,240.4613 L 501.55889,241.22179 L 502.19003,243.25841 L 501.80359,243.49045 L 502.58936,244.25091 L 502.30596,244.92122 L 504.36681,246.51957 L 506.41471,246.2875 L 507.05875,247.44762 L 507.17471,248.45304 L 506.23449,249.7678 L 506.59503,250.52836 L 506.31176,252.02355 L 505.6935,252.61646 L 505.77077,253.36411 L 505.15251,254.66594 L 505.50029,255.22025 L 505.01079,255.9421 L 505.4745,256.80571 L 504.49561,257.11509 L 503.95463,256.75417 L 503.78716,257.60485 L 502.49917,258.64893 L 502.08696,258.48138 L 501.88094,260.35041 L 501.0308,261.61364 L 499.39506,262.51592 L 497.02502,262.11632 L 496.62581,262.64478 L 495.50516,262.82526 L 495.08013,263.56 L 494.78387,263.41822 L 494.4619,264.51381 L 493.72768,264.96498 L 490.9713,264.02404 L 490.34019,254.83352 L 487.77703,255.52957 L 481.59453,253.81525 L 478.74799,253.76368 L 477.16373,254.15038 L 476.70005,253.37701 L 473.01623,251.75288 L 473.1193,252.50044 L 473.86637,253.15782 L 472.75864,255.96782 L 473.20946,257.77242 L 470.72358,257.77242 L 469.95076,258.9454 L 462.73783,254.16327 L 460.76711,253.42854 L 460.03302,254.4726 L 457.26374,256.26431 L 455.55065,258.44274 L 453.23218,260.04108 L 450.55308,262.68348 L 444.00995,267.06609 L 442.55446,267.56877 L 438.87074,267.7105 L 428.79833,269.06397 L 428.08993,269.78581 L 428.82414,270.94594 L 427.49747,272.64739 L 425.2692,273.57543 L 422.26811,272.9052 L 421.07019,273.96215 L 418.36538,277.89357 L 414.69452,277.42954 L 414.20508,276.23073 L 411.82219,275.85697 L 412.31165,282.30188 L 411.71921,283.99048 L 411.57745,286.23331 L 408.46046,286.02707 L 405.395,284.6994 L 403.86222,282.86909 L 403.01214,283.02373 L 402.13623,283.97758 L 397.66684,284.94433 L 394.73012,284.54475 L 391.17517,285.55019 L 390.11901,284.91858 L 378.5912,285.98844 L 376.40151,285.53729 L 375.52566,284.76386 L 374.80436,282.289 L 374.95889,281.74761 L 373.1686,281.96677 L 372.692,281.5414 L 370.34776,283.10108 L 369.49772,286.83914 L 369.45903,289.54605 L 369.04691,290.10026 L 367.83616,290.47409 L 363.62431,290.34522 L 359.7216,290.91235 L 356.35987,290.28073 L 351.49115,291.00257 L 350.00986,291.80175 L 348.4385,295.70735 L 346.49358,299.02009 L 345.0124,300.24463 L 340.94217,301.39182 L 339.84739,300.76028 L 338.44346,298.7365 L 334.84984,297.56352 L 333.75498,296.50655 L 332.96932,296.50655 L 332.4799,295.61714 L 331.38505,294.94691 L 326.92848,292.84587 L 327.64977,292.48496 L 329.02801,288.257 L 328.20363,288.02505 L 327.16036,286.98096 L 327.48234,286.29775 L 326.79972,285.74348 L 324.8934,287.2516 L 323.75996,286.02707 L 322.3689,287.8961 L 322.85833,289.13354 L 321.44153,292.18846 L 317.92524,297.13816 L 315.40068,299.50996 L 313.86791,300.18018 L 312.95346,301.57226 L 311.79422,302.16527 L 310.05535,304.12451 L 309.29546,304.15026 L 309.05068,303.31244 L 308.43243,303.33826 L 308.09756,302.30702 L 308.07176,302.79689 L 307.68541,302.62923 L 307.2732,304.20186 L 308.05896,306.83137 L 307.63384,306.98601 L 307.00279,307.12785 L 305.79196,305.19441 L 305.26392,305.37486 L 305.37985,305.90332 L 300.18908,306.76693 L 298.65632,307.74657 L 295.01127,308.73911 L 294.75362,306.6896 L 294.21271,306.07088 L 294.47031,305.51661 L 294.09673,304.62721 L 293.34967,304.70453 L 293.19513,303.27375 L 292.77011,303.14489 L 292.95042,302.61641 L 291.90704,302.99017 L 291.67526,303.78934 L 291.01832,303.68627 L 290.76074,302.96444 L 289.91065,303.132 L 289.65307,303.96979 L 289.49852,303.57025 L 287.95287,303.76362 L 286.29133,305.70997 L 285.23517,305.29744 L 284.9131,305.80023 L 284.55244,305.69709 L 284.05015,305.37486 L 283.71528,304.29209 L 283.10993,304.76897 L 281.31956,304.18896 L 281.03618,304.66591 L 279.20713,305.06546 L 277.73883,306.22555 L 276.83718,306.0322 L 276.3349,306.70252 L 275.78101,306.3416 L 275.40748,306.88297 L 274.86649,306.47045 L 274.24826,306.87007 L 274.04223,306.0322 L 273.19209,305.60683 L 272.66399,306.26425 L 272.29045,305.89043 L 270.74489,306.26425 L 271.10552,306.90869 L 270.51299,307.30832 L 269.34093,307.12785 L 269.10904,306.01928 L 268.11727,306.14825 L 267.98848,305.42638 L 267.38313,305.37486 L 266.49439,306.19975 L 264.75552,305.64555 L 264.26611,305.87751 L 264.06002,305.54241 L 263.90546,306.36732 L 263.26144,306.48336 L 263.19704,306.0064 L 262.8235,306.07088 L 262.34689,306.89582 L 263.24853,308.19773 L 262.33402,308.59728 L 262.16658,309.64142 L 260.71115,309.13863 L 260.55655,307.46295 L 259.52614,307.10204 L 259.46176,306.50915 L 258.74048,306.89582 L 258.59874,306.18685 L 258.99803,305.55533 L 258.23816,305.16861 L 258.25097,305.63263 L 257.81304,305.00105 L 256.9372,304.9366 L 256.92432,304.09873 L 255.71359,303.62178 L 255.68782,304.22757 L 254.91505,303.93117 L 252.21014,304.92369 L 252.04273,305.77443 L 250.00763,306.76693 L 250.03343,307.63052 L 249.36359,307.87543 L 249.04163,309.00979 L 248.32032,308.24924 L 247.71497,309.11291 L 247.03234,308.37818 L 246.34965,308.57155 L 245.60259,307.8626 L 244.49489,308.91957 L 243.67062,308.17193 L 243.4774,308.89376 L 242.24087,309.20315 L 242.57575,310.1054 L 241.7256,310.09256 L 240.81116,311.76824 L 241.7256,311.80684 L 241.97041,312.19358 L 240.34748,313.17321 L 237.21755,313.25056 L 236.99862,312.46428 L 235.62039,312.69627 L 235.04084,311.9358 L 233.84292,311.67803 L 233.63689,312.7607 L 233.04434,312.92833 L 233.12161,312.16778 L 232.12983,312.63183 L 231.6919,314.04974 L 231.15093,314.32042 L 231.31842,314.75867 L 230.58423,314.91334 L 230.21072,315.53205 L 227.37704,315.85432 L 227.64754,316.12502 L 227.31269,316.18945 L 227.04217,315.82853 L 226.14057,316.02187 L 225.68974,315.6996 L 225.7284,316.26677 L 224.98132,316.13792 L 224.41458,316.70503 L 224.50475,317.32372 L 223.60309,318.11001 L 223.15236,317.8136 L 222.79173,318.29049 L 220.42168,318.41941 L 220.1899,319.15417 L 219.18521,318.52255 L 218.29648,318.76742 L 218.10323,318.26475 L 217.09864,318.52255 L 217.79417,317.24641 L 216.73799,317.69756 L 215.7333,316.97572 L 215.51437,317.60732 L 215.99089,317.73629 L 215.59165,319.57952 L 215.23099,320.13379 L 214.20052,319.78568 L 213.26029,319.99196 L 213.56941,320.88135 L 211.67605,321.62899 L 211.81772,323.31758 L 208.48174,325.19954 L 206.97475,323.34332 L 205.14574,324.10387 L 204.78509,325.39282 L 204.02519,325.57328 L 202.80159,327.91926 L 203.17503,328.62822 L 202.76289,329.05356 L 202.89172,329.60784 L 202.45381,329.46607 L 202.45381,330.53594 L 203.07205,332.19872 L 202.32497,332.80452 L 202.58257,334.05486 L 201.91285,333.99042 L 202.27348,334.2353 L 201.95142,334.48019 L 201.20442,334.05486 L 200.97252,337.97338 L 199.99363,338.12806 L 200.22551,339.185 L 199.36249,339.24953 L 199.80042,341.49229 L 199.06629,341.93054 L 197.82979,341.55679 L 197.8426,342.97467 L 198.30632,342.53643 L 198.67985,342.85865 L 197.79111,343.55467 L 197.21155,342.80704 L 195.92348,342.57506 L 195.65301,343.30981 L 194.8673,343.2582 L 193.99144,345.11443 L 194.06875,345.37218 L 195.00896,345.04989 L 194.76425,345.70731 L 193.72097,345.52685 L 193.45048,345.01126 L 191.95638,342.18832 L 190.41075,340.47403 L 190.56528,339.72641 L 189.2258,337.89604 L 187.77029,336.77457 L 186.82999,336.56842 L 185.73522,335.45982 L 186.00572,333.96463 L 186.86865,332.55963 L 183.3652,329.62072 L 182.85002,327.08139 L 182.1674,326.63023 L 181.25285,326.77205 L 179.63001,326.19198 L 180.96949,317.15617 L 180.28685,315.45469 L 178.81855,313.88216 L 177.60776,311.61351 L 177.44031,309.16446 L 178.92158,306.6638 L 179.68149,304.21477 L 181.58774,301.67541 L 178.90872,301.49494 L 177.89113,300.72159 L 175.59846,300.07707 L 176.37124,297.8858 L 176.62884,295.28204 L 173.88536,295.47539 L 170.96155,296.53236 L 167.04597,296.24875 L 163.61982,294.86957 L 161.14684,295.1918 L 158.57078,296.21011 L 157.95254,295.77189 L 156.00757,296.54525 L 153.94679,301.75273 L 151.10025,300.59262 L 149.25831,298.25962 L 146.96564,297.51199 L 142.34164,292.63962 L 141.31124,292.98764 L 140.97637,294.66332 L 139.89438,295.64296 L 135.97882,294.63753 L 133.5702,295.01134 L 123.71681,300.29623 L 121.06349,301.37899 L 119.22162,301.15982 L 119.90424,298.60765 L 119.02841,296.39058 L 120.29069,293.74811 L 119.76263,290.8737 L 121.38545,289.75222 L 122.58335,286.73601 L 123.21451,286.05289 L 121.33398,284.87988 L 121.47564,282.6499 L 119.63376,280.92272 L 119.37615,278.64115 L 118.07529,276.4112 L 117.32822,275.85697 L 114.84232,275.5992 L 113.28379,276.64326 L 111.86693,274.51643 L 111.2101,271.2295 L 110.60474,271.91264 L 106.26411,269.86314 L 104.02293,269.43781 L 104.29343,268.49679 L 103.41759,267.27227 L 103.84261,266.93713 L 103.48195,266.27974 L 103.62362,265.50637 L 104.24183,265.10682 L 103.91988,264.13999 L 104.66688,262.68348 L 104.48663,261.52339 L 105.5943,260.89179 L 106.0838,259.22902 L 106.25123,255.65851 L 104.93741,254.56283 L 105.89054,252.53915 L 105.95494,251.21148 L 105.09199,250.03848 L 104.64117,247.12536 L 103.1084,244.61183 L 103.09554,242.61393 L 103.68805,242.24011 L 103.28874,240.56445 L 103.59791,238.55355 L 104.70555,237.29043 L 103.93277,236.45254 L 103.95849,235.7049 L 105.50413,234.11945 L 106.13528,229.76267 L 107.21724,228.87329 L 107.19144,228.09989 L 108.49231,225.47041 L 107.89985,224.27161 L 108.11887,222.29942 L 107.20431,221.73231 L 106.25123,219.05119 L 106.80502,218.4454 L 106.19965,218.18754 L 105.98074,217.31104 L 104.65408,216.65368 L 103.49483,216.62786 L 103.27583,215.79001 L 101.57563,214.87488 L 100.84152,213.46989 L 99.540567,213.1476 L 99.373137,212.42576 L 97.840367,211.74262 L 97.763097,212.06484 L 97.325157,211.89727 L 95.972737,210.93053 L 94.182437,211.26566 L 93.950543,211.62658 L 91.219939,211.43322 L 90.691866,210.59541 L 87.549042,209.80914 L 86.209472,208.64906 L 85.204909,206.98621 L 84.045665,206.18704 L 82.268196,203.54462 L 81.482506,202.83569 L 80.516416,202.9001 L 79.653445,202.25569 L 77.399399,199.3683 L 77.21916,196.70007 L 73.574016,193.81278 L 71.036579,189.62355 L 70.482711,187.80606 L 72.182908,184.7383 L 74.295243,175.87006 L 76.278822,173.56272 L 81.598368,173.34362 L 84.960109,175.28997 L 92.507937,177.76481 L 95.341577,181.01313 L 100.86723,183.38485 L 101.34382,184.02934 L 103.45617,183.50087 L 106.74063,183.88752 L 110.51458,183.04972 L 111.48057,183.73287 L 112.94891,182.43101 L 115.6409,181.30952 L 116.52962,181.60604 L 118.82232,180.23969 L 120.66416,180.35572 L 122.59626,179.35029 L 124.54117,179.02805 L 125.15942,177.39102 L 127.76116,174.95486 L 127.06567,173.87209 L 128.4052,171.48746 L 135.55377,167.36269 L 140.89909,166.8858 L 142.05833,165.23586 L 144.13197,164.02422 L 144.78891,162.88994 L 143.84863,158.84247 L 146.66944,154.43416 L 146.5793,151.50816 L 147.67407,149.58751 L 149.90235,147.83451 L 152.18218,149.62621 L 153.92101,149.03323 L 154.21726,148.50475 L 157.3471,147.20288 L 157.91388,146.45524 L 158.51922,146.5842 L 162.5121,143.78705 L 164.21229,143.33597 L 166.76256,141.44114 L 168.56583,140.98998 L 169.89249,141.90517 L 170.38197,141.37668 L 170.97446,141.49266 L 171.02594,141.13175 L 172.24961,141.47975 L 174.34909,141.22194 L 174.45213,141.87937 L 176.38413,142.43365 L 179.30793,140.88684 L 179.10187,140.30682 L 180.73765,138.59246 L 180.73765,137.9093 L 181.44608,138.11552 L 181.75523,137.67723 L 183.51983,137.59991 L 183.39099,138.20571 L 184.12518,138.01236 L 185.91554,138.74711 L 186.46943,138.46351 L 186.6111,138.90176 L 187.35816,138.18001 L 188.22112,138.30888 L 188.37563,137.35504 L 189.13562,137.17456 L 189.44472,136.28514 L 191.29949,135.44729 L 193.03833,139.80405 L 198.37074,147.42206 L 210.54261,159.44828 L 214.26498,163.75354 L 216.13262,167.89116 L 218.54117,175.6767 L 219.88071,174.83883 L 221.25893,175.54779 L 221.77414,174.81303 L 222.72726,176.21809 L 223.29402,175.12242 L 224.37598,174.69708 L 225.7284,173.11162 L 226.16636,173.52407 L 227.60886,172.80223 L 228.57485,170.62387 L 228.11125,170.01799 L 228.85824,170.0438 L 228.70373,169.63136 L 229.14164,169.68288 L 229.20603,169.29614 L 229.57955,169.57974 L 230.59714,168.40673 L 231.55025,168.83217 L 233.9073,168.11032 L 234.6157,168.61299 L 236.70235,168.25206 L 236.72811,168.75484 L 237.5782,168.40673 L 238.2866,166.09948 L 238.86626,165.88036 L 239.12385,164.93934 L 240.91423,162.86415 L 242.16364,162.50322 L 242.83337,163.9211 L 244.70099,162.01336 L 247.6892,160.90488 L 248.89997,159.79632 L 249.75005,158.18505 L 249.65986,156.36761 L 251.24413,156.59961 L 252.86707,157.6695 L 254.55438,159.71897 L 256.33185,160.80175 L 256.33185,161.44626 L 256.88572,162.06495 L 258.77905,163.07032 L 258.88212,164.35935 L 260.9172,165.48074 L 268.64535,167.47872 L 273.19209,170.85587 L 275.62647,171.19101 L 278.47301,170.84296 L 277.80321,167.02756 L 278.02221,164.12738 L 278.49874,163.72775 L 277.5585,162.58055 L 278.71773,161.23999 L 278.91093,159.47408 L 279.83829,159.40965 L 280.53387,157.25702 L 282.31134,155.46533 L 282.82654,152.79709 L 285.15781,150.69608 L 286.71637,147.538 L 287.01264,146.75174 L 285.05483,145.33384 L 286.31704,143.54212 L 287.92709,137.05851 L 289.53708,137.74167 L 290.41296,138.74711 L 290.95396,140.89975 L 291.41766,141.36379 L 293.43983,141.86647 L 296.13182,144.13512 L 300.88462,146.89349 L 300.87176,147.26733 L 303.64098,148.0923 L 304.45244,146.44243 L 304.05317,146.42952 L 304.20775,145.81081 L 305.2253,144.66361 L 308.67721,143.47773 L 315.2847,146.80335 L 323.4637,143.86447 L 325.67909,143.46481 L 327.99755,141.37668 L 333.20121,139.57211 L 335.58407,136.00157 L 338.46915,132.76618 L 339.01014,133.06269 L 339.42234,135.62776 L 340.11787,135.8598 L 339.53824,137.32923 L 339.91178,138.36039 L 339.73144,139.06943 L 340.89069,139.64942 L 340.51713,140.50013 L 341.57332,140.10056 L 342.80981,141.06729 L 342.88715,141.91799 L 343.67283,142.09846 L 344.2911,142.97505 L 342.95154,143.27146 L 343.7501,144.10932 L 343.13185,143.92889 L 342.89998,144.26399 L 344.04631,145.77211 L 343.86606,146.3006 L 342.92576,146.62289 L 343.59559,147.2287 L 342.74544,149.09775 L 343.63416,149.54889 L 343.68573,150.30935 L 343.40234,150.69608 L 343.00304,150.55424 L 342.50071,151.53387 L 340.81343,152.7713 L 341.57332,152.7842 L 341.76652,153.58338 L 342.79701,154.11185 L 342.08858,154.58881 L 343.60838,156.44496 L 344.89644,156.57389 L 345.56617,157.60502 L 347.54976,158.37842 L 348.05206,158.97141 L 349.01817,159.03585 L 348.87644,160.73732 L 348.41272,161.13685 L 349.21133,162.09075 L 348.54158,163.44415 L 349.13402,163.80506 L 349.49468,165.88036 L 350.75695,166.42173 L 352.13512,166.07373 L 352.08362,165.71281 L 356.54021,163.45704 L 362.74848,159.55139 L 368.32559,155.23332 L 371.4813,151.81748 L 377.43198,147.09977 L 385.54649,139.63652 L 389.25597,137.09723 L 394.18916,132.32791 L 395.45144,131.61898 L 396.54621,130.27843 L 400.25578,127.27511 L 400.71938,126.33416 L 403.25686,123.80772 L 408.84686,118.83221 L 407.12089,117.56901 L 401.72408,115.84179 L 401.00278,113.83091 L 399.66323,111.87166 L 400.25578,110.58268 L 399.54736,108.84261 L 399.66323,107.56645 L 401.26037,105.49115 L 403.16669,101.7789 L 403.93947,99.226717 L 396.19844,94.044954 L 393.31333,91.557197 L 395.74762,80.88435 L 397.96302,81.142167 L 398.95484,80.88435 L 402.02036,81.735138 L 405.76854,82.972554 L 407.35278,84.235707 L 411.48732,81.876921 L 412.19572,80.639467 L 414.23077,80.059412 L 411.93814,77.68769 L 413.89593,75.303062 L 431.63199,85.692297 L 434.15657,80.807024 L 432.46925,79.982077 L 432.85568,79.131374 L 434.25962,79.711391 L 433.88606,77.545908 L 434.94223,77.133392 L 435.70222,76.128038 L 435.68933,74.542496 L 441.56274,71.281395 L 440.18453,69.038534 L 440.49368,68.83234 L 439.97839,66.241479 L 441.42099,65.339164 L 444.76992,64.926731 L 445.28513,63.057682 L 452.11164,59.66763 L 452.42073,64.024416 L 450.78498,70.920453 L 462.77649,45.952752 L 465.66163,45.823904 L 466.64053,45.385564 L 466.47311,44.560672 L 468.84304,42.408042 L 470.4145,42.047123 L 471.59942,42.317815 L 473.78911,41.299468 L 477.51147,40.667931 L 478.20703,40.100742 L 479.97158,40.294097 L 480.83455,39.366011 L 482.5992,39.198457 L 484.46683,37.535673 L 490.54629,35.125246 L 489.2711,39.378899 L 487.40355,39.610896 L 485.93518,47.306201 L 483.97736,52.191481 L 482.00665,59.590304 L 487.24893,59.873799 L 490.19852,63.366988 L 493.34132,64.037321 L 493.6891,64.656009 L 496.23937,65.970769 L 494.87402,68.058892 L 495.06723,68.548749 L 498.75103,70.585359 L 500.19361,69.180353 L 501.00503,68.793635 L 501.68772,69.05144 L 503.70991,72.621954 L 504.84334,72.377069 L 504.61155,71.86146 L 506.00259,71.204056 L 505.03656,69.283504 L 505.9382,68.896785 L 506.60793,70.327553 L 507.4323,74.426574 L 508.23087,74.310529 L 508.69457,77.829444 L 508.19217,78.24196 L 510.08561,79.247333 L 513.61479,82.547141 L 512.93216,83.153028 L 511.11609,82.882332 L 508.38539,83.397911 L 506.6852,86.117644 L 505.44872,86.194979 L 506.35034,87.819146 L 506.23449,89.288633 L 508.6173,92.652878 L 509.46737,93.15555 L 511.74716,93.568 L 514.02698,93.426246 L 514.58088,93.774287 L 514.99302,98.272818 L 516.34545,98.05373 L 517.11826,99.420088 L 519.11472,100.06452 L 519.14043,100.81216 L 520.26106,101.06995 L 520.13222,103.11943 L 523.97055,102.4105 L 524.61457,102.70699 L 528.67184,102.38471 L 529.09688,104.56316 L 529.31587,115.72574 L 530.99028,122.44144 z"
       id="_F36"
       onmouseout="javascript:popdown(this.id);return true;"
       onmouseover="javascript:popup(this.id);return true;"
       onclick="javascript:respond(this.id);return true;"
       inkscape:label="Yeovil" />
  </g>
</svg>
