<?xml version="1.0" encoding="UTF-8" standalone="no"?>
<!-- Created with Inkscape (http://www.inkscape.org/) -->
<svg
   xmlns:dc="http://purl.org/dc/elements/1.1/"
   xmlns:cc="http://web.resource.org/cc/"
   xmlns:rdf="http://www.w3.org/1999/02/22-rdf-syntax-ns#"
   xmlns:svg="http://www.w3.org/2000/svg"
   xmlns="http://www.w3.org/2000/svg"
   xmlns:xlink="http://www.w3.org/1999/xlink"
   xmlns:sodipodi="http://inkscape.sourceforge.net/DTD/sodipodi-0.dtd"
   xmlns:inkscape="http://www.inkscape.org/namespaces/inkscape"
   width="100.00000pt"
   height="100.00000pt"
   id="svg1573"
   sodipodi:version="0.32"
   inkscape:version="0.43"
   sodipodi:docbase="/home/matteo/.icons/glass-icons/scalable/mimetypes"
   sodipodi:docname="foglio.svg">
  <defs
     id="defs1575">
    <linearGradient
       inkscape:collect="always"
       id="linearGradient3985">
      <stop
         style="stop-color:#ffffff;stop-opacity:1;"
         offset="0"
         id="stop3987" />
      <stop
         style="stop-color:#ffffff;stop-opacity:0;"
         offset="1"
         id="stop3989" />
    </linearGradient>
    <linearGradient
       inkscape:collect="always"
       id="linearGradient18671">
      <stop
         style="stop-color:#ffffff;stop-opacity:1;"
         offset="0"
         id="stop18673" />
      <stop
         style="stop-color:#ffffff;stop-opacity:0;"
         offset="1"
         id="stop18675" />
    </linearGradient>
    <linearGradient
       inkscape:collect="always"
       id="linearGradient12835">
      <stop
         style="stop-color:#000000;stop-opacity:1;"
         offset="0"
         id="stop12837" />
      <stop
         style="stop-color:#000000;stop-opacity:0;"
         offset="1"
         id="stop12839" />
    </linearGradient>
    <linearGradient
       inkscape:collect="always"
       id="linearGradient11371">
      <stop
         style="stop-color:#ffffff;stop-opacity:1;"
         offset="0"
         id="stop11373" />
      <stop
         style="stop-color:#ffffff;stop-opacity:0;"
         offset="1"
         id="stop11375" />
    </linearGradient>
    <linearGradient
       id="WhiteTransparent">
      <stop
         id="stopWhiteFull"
         offset="0"
         style="stop-color:#ffffff;stop-opacity:1;" />
      <stop
         id="stopWhiteTransparent"
         offset="1"
         style="stop-color:#ffffff;stop-opacity:0;" />
    </linearGradient>
    <linearGradient
       id="MaterialSoftShadow">
      <stop
         id="stop2619"
         offset="0"
         style="stop-color:#000000;stop-opacity:0.215;" />
      <stop
         id="stop2621"
         offset="0.50000000"
         style="stop-color:#000000;stop-opacity:0.098;" />
      <stop
         id="stop2620"
         offset="1"
         style="stop-color:#000000;stop-opacity:0;" />
    </linearGradient>
    <linearGradient
       id="Basic3DDarkGradient">
      <stop
         id="stop3929"
         offset="0"
         style="stop-color:#807d74;stop-opacity:1;" />
      <stop
         id="stop3930"
         offset="1"
         style="stop-color:#807d74;stop-opacity:0;" />
    </linearGradient>
    <radialGradient
       r="56.143108"
       fy="142.80988"
       fx="25.459438"
       cy="175.83524"
       cx="25.912205"
       gradientUnits="userSpaceOnUse"
       id="radialGradient2970"
       xlink:href="#MaterialSoftShadow"
       inkscape:collect="always"
       gradientTransform="translate(0.362778,-1.479083)" />
    <linearGradient
       id="3DShadowGradient">
      <stop
         id="stop3933"
         offset="0"
         style="stop-color:#565248;stop-opacity:1;" />
      <stop
         id="stop3934"
         offset="1"
         style="stop-color:#565248;stop-opacity:0;" />
    </linearGradient>
    <linearGradient
       inkscape:collect="always"
       xlink:href="#linearGradient11371"
       id="linearGradient11377"
       x1="-66.666664"
       y1="44.722218"
       x2="-66.751205"
       y2="65.458931"
       gradientUnits="userSpaceOnUse"
       gradientTransform="translate(6.521739e-7,4.608696e-6)" />
    <linearGradient
       inkscape:collect="always"
       xlink:href="#linearGradient12835"
       id="linearGradient12841"
       x1="63.152176"
       y1="121.95653"
       x2="63.152176"
       y2="102.17392"
       gradientUnits="userSpaceOnUse"
       gradientTransform="translate(-2.391304e-6,-1.217391e-5)" />
    <linearGradient
       inkscape:collect="always"
       xlink:href="#linearGradient12835"
       id="linearGradient17203"
       gradientUnits="userSpaceOnUse"
       gradientTransform="translate(-1.869565e-6,-1.208696e-5)"
       x1="63.152176"
       y1="121.95653"
       x2="63.152176"
       y2="102.17392" />
    <linearGradient
       inkscape:collect="always"
       xlink:href="#linearGradient11371"
       id="linearGradient17206"
       gradientUnits="userSpaceOnUse"
       gradientTransform="translate(6.521739e-6,3.869565e-6)"
       x1="-66.666664"
       y1="44.722218"
       x2="-66.751205"
       y2="65.458931" />
    <linearGradient
       inkscape:collect="always"
       xlink:href="#linearGradient18671"
       id="linearGradient18677"
       x1="63.260868"
       y1="49.347828"
       x2="63.046619"
       y2="66.304344"
       gradientUnits="userSpaceOnUse" />
    <linearGradient
       inkscape:collect="always"
       xlink:href="#linearGradient3985"
       id="linearGradient3991"
       x1="63.666672"
       y1="5.3333397"
       x2="63.666672"
       y2="93"
       gradientUnits="userSpaceOnUse" />
    <radialGradient
       gradientUnits="userSpaceOnUse"
       gradientTransform="matrix(-6.724118,-6.350426e-2,2.818267e-2,-2.98411,494.0074,-62.45243)"
       r="50.641125"
       fy="-2.6974258"
       fx="63.500008"
       cy="-2.6974258"
       cx="63.500008"
       id="radialGradient10117"
       xlink:href="#linearGradient9236"
       inkscape:collect="always" />
    <radialGradient
       gradientUnits="userSpaceOnUse"
       gradientTransform="matrix(3.139892,2.678407e-2,-2.382675e-2,2.793206,-127.0574,-213.2242)"
       r="52.163277"
       fy="163.16063"
       fx="63.322922"
       cy="163.16063"
       cx="63.322922"
       id="radialGradient5742"
       xlink:href="#linearGradient4855"
       inkscape:collect="always" />
    <linearGradient
       y2="959.51013"
       x2="784.45319"
       y1="509.64545"
       x1="359.22729"
       gradientUnits="userSpaceOnUse"
       id="linearGradient97"
       xlink:href="#linearGradient117"
       inkscape:collect="always" />
    <linearGradient
       y2="412.47470"
       x2="402.35895"
       y1="772.36639"
       x1="409.55676"
       gradientUnits="userSpaceOnUse"
       id="linearGradient96"
       xlink:href="#linearGradient867"
       inkscape:collect="always" />
    <linearGradient
       y2="37.136780"
       x2="56.214989"
       y1="37.136780"
       x1="12.374367"
       gradientUnits="userSpaceOnUse"
       id="linearGradient95"
       xlink:href="#WhiteTransparent"
       inkscape:collect="always" />
    <linearGradient
       y2="443.13931"
       x2="353.24777"
       y1="-47.032909"
       x1="5.0357265"
       gradientTransform="matrix(0.849993,0.000000,0.000000,0.793687,0.596121,16.64240)"
       gradientUnits="userSpaceOnUse"
       id="linearGradient274"
       xlink:href="#TransparentBlack"
       inkscape:collect="always" />
    <linearGradient
       y2="147.51402"
       x2="67.888725"
       y1="171.70207"
       x1="86.836159"
       gradientTransform="matrix(1.362771,0.000000,0.000000,0.733799,1.250000,-4.160534)"
       gradientUnits="userSpaceOnUse"
       id="linearGradient273"
       xlink:href="#MaterialSoftShadow"
       inkscape:collect="always" />
    <linearGradient
       y2="134.36835"
       x2="54.654118"
       y1="157.50468"
       x1="26.374384"
       gradientTransform="matrix(1.362771,0.000000,0.000000,0.733799,1.250000,-4.160534)"
       gradientUnits="userSpaceOnUse"
       id="linearGradient272"
       xlink:href="#MaterialSoftShadow"
       inkscape:collect="always" />
    <linearGradient
       y2="-14.693495"
       x2="47.906109"
       y1="182.05821"
       x1="48.379337"
       gradientTransform="matrix(1.603220,0.000000,0.000000,0.432086,-1.009641,15.45317)"
       gradientUnits="userSpaceOnUse"
       id="linearGradient271"
       xlink:href="#TransparentBlack"
       inkscape:collect="always" />
    <linearGradient
       y2="220.83104"
       x2="44.787067"
       y1="173.81540"
       x1="44.787067"
       gradientTransform="matrix(1.961161,0.000000,0.000000,0.509902,1.250000,-4.160534)"
       gradientUnits="userSpaceOnUse"
       id="linearGradient270"
       xlink:href="#MaterialSoftShadow"
       inkscape:collect="always" />
    <linearGradient
       y2="104.85813"
       x2="48.953148"
       y1="65.609421"
       x1="48.733406"
       gradientTransform="matrix(1.586201,0.000000,0.000000,0.630437,1.250000,-4.160534)"
       gradientUnits="userSpaceOnUse"
       id="linearGradient269"
       xlink:href="#MaterialSoftShadow"
       inkscape:collect="always" />
    <linearGradient
       y2="101.42684"
       x2="66.366432"
       y1="22.893991"
       x1="66.366432"
       gradientTransform="matrix(1.201328,0.000000,0.000000,0.561569,0.596121,16.64240)"
       gradientUnits="userSpaceOnUse"
       id="linearGradient268"
       xlink:href="#WhiteTransparent"
       inkscape:collect="always" />
    <linearGradient
       y2="143.83127"
       x2="43.899635"
       y1="171.10580"
       x1="43.899635"
       gradientTransform="matrix(1.433419,-2.801170e-7,6.968773e-8,0.356607,16.70095,20.05351)"
       gradientUnits="userSpaceOnUse"
       id="linearGradient267"
       xlink:href="#linearGradient6163"
       inkscape:collect="always" />
    <linearGradient
       y2="186.39098"
       x2="97.919456"
       y1="78.300354"
       x1="99.688118"
       gradientTransform="matrix(1.034863,0.000000,0.000000,0.966311,1.250000,-2.754284)"
       gradientUnits="userSpaceOnUse"
       id="linearGradient266"
       xlink:href="#TransparentBlack"
       inkscape:collect="always" />
    <radialGradient
       r="125.20509"
       fy="598.36652"
       fx="-289.09140"
       cy="598.36652"
       cx="-289.09140"
       gradientUnits="userSpaceOnUse"
       id="radialGradient26795"
       xlink:href="#MaterialSoftShadow"
       inkscape:collect="always"
       gradientTransform="matrix(1.864405,0,0,1.864405,246.2716,-275.2481)" />
    <linearGradient
       id="linearGradient1586">
      <stop
         id="stop1588"
         offset="0"
         style="stop-color:#ffffff;stop-opacity:1;" />
      <stop
         id="stop1590"
         offset="1"
         style="stop-color:#ffffff;stop-opacity:0;" />
    </linearGradient>
    <linearGradient
       id="TransparentBlack">
      <stop
         id="stopBlackTransparent1"
         offset="0"
         style="stop-color:#000000;stop-opacity:0;" />
      <stop
         id="stopBlackFull1"
         offset="1"
         style="stop-color:#000000;stop-opacity:1;" />
    </linearGradient>
    <linearGradient
       id="linearGradient1575">
      <stop
         id="stop1577"
         offset="0"
         style="stop-color:#000000;stop-opacity:0.215;" />
      <stop
         id="stop1579"
         offset="0.50000000"
         style="stop-color:#000000;stop-opacity:0.098;" />
      <stop
         id="stop1581"
         offset="1"
         style="stop-color:#000000;stop-opacity:0;" />
    </linearGradient>
    <linearGradient
       id="linearGradient6163">
      <stop
         id="stop6164"
         offset="0.0000000"
         style="stop-color:#ffffff;stop-opacity:1.0000000;" />
      <stop
         id="stop6165"
         offset="1.0000000"
         style="stop-color:#ffffff;stop-opacity:0.0000000;" />
    </linearGradient>
    <linearGradient
       id="linearGradient1693">
      <stop
         id="stop1694"
         offset="0.00000000"
         style="stop-color:#ffffff;stop-opacity:1.0000000;" />
      <stop
         id="stop1695"
         offset="1.0000000"
         style="stop-color:#ffffff;stop-opacity:0.00000000;" />
    </linearGradient>
    <linearGradient
       id="linearGradient1694">
      <stop
         id="stop1696"
         offset="0.0000000"
         style="stop-color:#9db8d2;stop-opacity:1.0000000;" />
      <stop
         id="stop1698"
         offset="0.56999999"
         style="stop-color:#7590ae;stop-opacity:1.0000000;" />
      <stop
         id="stop1697"
         offset="1.0000000"
         style="stop-color:#314e6c;stop-opacity:1.0000000;" />
    </linearGradient>
    <linearGradient
       id="linearGradient2381">
      <stop
         id="stop2382"
         offset="0.0000000"
         style="stop-color:#000000;stop-opacity:0.47058824;" />
      <stop
         id="stop2384"
         offset="0.31578946"
         style="stop-color:#000000;stop-opacity:0.19191919;" />
      <stop
         id="stop2383"
         offset="1.0000000"
         style="stop-color:#6f6f6f;stop-opacity:0.0000000;" />
    </linearGradient>
    <linearGradient
       id="linearGradient117">
      <stop
         id="stop118"
         offset="0.0000000"
         style="stop-color:#ffffff;stop-opacity:1.0000000;" />
      <stop
         id="stop119"
         offset="1"
         style="stop-color:#ffffff;stop-opacity:0;" />
    </linearGradient>
    <linearGradient
       id="linearGradient867"
       inkscape:collect="always">
      <stop
         id="stop868"
         offset="0"
         style="stop-color:#000000;stop-opacity:1;" />
      <stop
         id="stop869"
         offset="1"
         style="stop-color:#000000;stop-opacity:0;" />
    </linearGradient>
    <linearGradient
       id="linearGradient4855"
       inkscape:collect="always">
      <stop
         id="stop4857"
         offset="0"
         style="stop-color:#000000;stop-opacity:1;" />
      <stop
         id="stop4859"
         offset="1"
         style="stop-color:#000000;stop-opacity:0;" />
    </linearGradient>
    <linearGradient
       id="linearGradient9236"
       inkscape:collect="always">
      <stop
         id="stop9238"
         offset="0"
         style="stop-color:#ffffff;stop-opacity:1;" />
      <stop
         id="stop9240"
         offset="1"
         style="stop-color:#ffffff;stop-opacity:0;" />
    </linearGradient>
    <radialGradient
       inkscape:collect="always"
       xlink:href="#linearGradient9236"
       id="radialGradient1618"
       gradientUnits="userSpaceOnUse"
       gradientTransform="matrix(-3.606736,5.433613e-8,-1.578369e-8,-0.924241,290.2156,16.37728)"
       cx="63.931957"
       cy="-23.350697"
       fx="63.931957"
       fy="-23.350697"
       r="50.641125" />
    <radialGradient
       inkscape:collect="always"
       xlink:href="#linearGradient4855"
       id="radialGradient1621"
       gradientUnits="userSpaceOnUse"
       gradientTransform="matrix(1.684166,8.168661e-3,-7.987166e-3,1.646747,-43.3431,-101.955)"
       cx="62.70829"
       cy="158.76106"
       fx="62.70829"
       fy="158.76106"
       r="52.163277" />
    <radialGradient
       inkscape:collect="always"
       xlink:href="#MaterialSoftShadow"
       id="radialGradient1629"
       gradientUnits="userSpaceOnUse"
       gradientTransform="matrix(1.861953,-0.343627,3.557232e-2,2.490692,235.8401,-775.3144)"
       cx="-289.0914"
       cy="598.36652"
       fx="-289.0914"
       fy="598.36652"
       r="125.20509" />
  </defs>
  <sodipodi:namedview
     id="base"
     pagecolor="#ffffff"
     bordercolor="#666666"
     borderopacity="1.0"
     inkscape:pageopacity="0.0"
     inkscape:pageshadow="2"
     inkscape:zoom="4"
     inkscape:cx="63.183071"
     inkscape:cy="67.573529"
     inkscape:current-layer="layer2"
     inkscape:document-units="px"
     inkscape:window-width="1012"
     inkscape:window-height="682"
     inkscape:window-x="0"
     inkscape:window-y="27"
     showguides="true"
     inkscape:guide-bbox="true" />
  <metadata
     id="metadata1578">
    <rdf:RDF>
      <cc:Work
         rdf:about="">
        <dc:format>image/svg+xml</dc:format>
        <dc:type
           rdf:resource="http://purl.org/dc/dcmitype/StillImage" />
      </cc:Work>
    </rdf:RDF>
  </metadata>
  <g
     id="layer1"
     inkscape:label="Layer 1"
     inkscape:groupmode="layer">
    <rect
       style="opacity:1;fill:#9f9f9f;fill-opacity:0.33333334;fill-rule:nonzero;stroke:#666666;stroke-width:3;stroke-linecap:round;stroke-linejoin:round;stroke-miterlimit:4;stroke-dasharray:none;stroke-dashoffset:0;stroke-opacity:1"
       id="rect2225"
       width="98.333336"
       height="112.66666"
       x="14.333333"
       y="6.9999995"
       ry="4" />
    <rect
       style="opacity:1;fill:none;fill-opacity:1;fill-rule:nonzero;stroke:#ffffff;stroke-width:3.00000024;stroke-linecap:round;stroke-linejoin:round;stroke-miterlimit:4;stroke-dasharray:none;stroke-dashoffset:0;stroke-opacity:1"
       id="rect2227"
       width="93.051186"
       height="107.08014"
       x="16.807722"
       y="9.6266155"
       ry="2.4446599"
       rx="2.8333333" />
  </g>
  <g
     inkscape:groupmode="layer"
     id="layer3"
     inkscape:label="2">
    <path
       style="fill:#ffffff;fill-opacity:0.90625;fill-rule:evenodd;stroke:#000000;stroke-width:1.8553468;stroke-linecap:round;stroke-linejoin:round;stroke-miterlimit:4;stroke-opacity:0.66015625"
       d="M 20.699039,9.4509157 L 20.699039,116.74865 L 105.10348,116.74865 L 105.13426,9.5428857 L 20.699039,9.4509157 z "
       id="path10402"
       sodipodi:nodetypes="ccccc" />
    <path
       style="fill:#ffffff;fill-opacity:0.90625;fill-rule:evenodd;stroke:#000000;stroke-width:0.9999994px;stroke-linecap:butt;stroke-linejoin:miter;stroke-opacity:1"
       d="M 36.187972,32.601096 L 91.109438,32.601096"
       id="path10611"
       sodipodi:nodetypes="cc" />
    <path
       style="fill:#ffffff;fill-opacity:0.90625;fill-rule:evenodd;stroke:#000000;stroke-width:0.9999994px;stroke-linecap:butt;stroke-linejoin:miter;stroke-opacity:1"
       d="M 35.859464,25.463014 L 90.780937,25.463014"
       id="path10613"
       sodipodi:nodetypes="cc" />
  </g>
  <g
     inkscape:groupmode="layer"
     id="layer2"
     inkscape:label="1">
    <rect
       style="opacity:1;fill:url(#linearGradient3991);fill-opacity:1;fill-rule:nonzero;stroke:none;stroke-width:3;stroke-linecap:round;stroke-linejoin:round;stroke-miterlimit:4;stroke-dasharray:none;stroke-dashoffset:0;stroke-opacity:1"
       id="rect3109"
       width="96.416672"
       height="109.33332"
       x="15.083336"
       y="5.3333397"
       ry="3.8816569" />
    <g
       id="g1631"
       transform="translate(2,1.25)">
      <path
         transform="matrix(-0.17297,0,0,4.811802e-2,10.22918,65.58074)"
         d="M -163.88631 598.36652 A 125.20509 125.20509 0 1 1  -414.29649,598.36652 A 125.20509 125.20509 0 1 1  -163.88631 598.36652 z"
         sodipodi:ry="125.20509"
         sodipodi:rx="125.20509"
         sodipodi:cy="598.36652"
         sodipodi:cx="-289.0914"
         id="path4284"
         style="fill:url(#radialGradient1629);fill-opacity:1;fill-rule:evenodd;stroke:none;stroke-width:1pt;stroke-linecap:butt;stroke-linejoin:miter;stroke-opacity:1"
         sodipodi:type="arc" />
      <path
         id="path4286"
         style="fill:#bdbdbd;fill-opacity:0.33333333;fill-rule:evenodd;stroke:#666666;stroke-width:2.99999762;stroke-linecap:butt;stroke-linejoin:miter;stroke-miterlimit:4;stroke-dasharray:none;stroke-opacity:1"
         d="M 93.302748,72.381778 C 93.302748,54.88937 79.122315,40.708964 61.629903,40.708964 C 44.13749,40.708964 29.95711,54.88937 29.95711,72.381778 C 29.95711,89.874197 44.13749,104.05461 61.629903,104.05461 C 79.122315,104.05461 93.302748,89.874197 93.302748,72.381778 z " />
      <path
         id="path4288"
         style="fill:#ffffff;fill-opacity:1;fill-rule:evenodd;stroke:none;stroke-width:1pt;stroke-linecap:butt;stroke-linejoin:miter;stroke-opacity:1"
         d="M 59.22126,42.72523 C 56.748901,43.264865 54.105586,43.399079 51.898095,44.752875 C 51.043077,44.822725 47.588893,46.177865 49.89424,46.413177 C 51.322168,46.00791 51.985769,44.523143 53.579993,44.647659 C 55.291509,44.13846 57.051823,43.532614 58.917667,43.176156 C 59.110259,43.086644 59.114196,42.874427 59.22126,42.72523 z M 62.860978,43.204305 C 61.625946,44.624702 58.778073,44.534397 58.60789,46.848041 C 59.189952,47.648038 62.054045,43.882743 62.896271,46.208736 C 63.062157,47.768211 62.022839,49.736672 60.222319,48.720448 C 59.348684,48.64752 58.260718,48.827097 58.297035,48.045279 C 57.843614,49.192209 54.231165,51.411644 55.500058,48.938711 C 56.159008,48.443487 54.578032,48.353443 55.664105,47.502739 C 56.625264,46.526752 53.575031,46.61875 54.729957,47.671548 C 54.060827,48.594138 53.759235,49.575434 52.444199,49.735976 C 53.566642,49.610724 54.733384,49.429183 53.872279,50.627276 C 54.522223,53.069098 50.441881,51.794144 49.941198,53.596584 C 48.457465,55.98398 52.163321,55.857731 53.221208,54.681445 C 53.042583,52.473712 55.314529,53.12533 56.506641,52.907379 C 57.759008,51.977756 59.08136,54.853569 59.701177,55.881593 C 60.513736,56.310385 61.405377,54.630073 60.16784,54.195535 C 60.314649,53.370255 57.657217,51.973542 59.339115,51.91336 C 60.463297,52.511238 61.09575,53.749874 61.307727,54.556428 C 63.548264,54.454946 60.386827,57.044324 62.537282,56.256752 C 63.899888,56.012841 62.390474,53.740246 64.199281,54.631474 C 66.485447,55.509356 63.414296,51.681583 66.024206,51.665398 C 67.236726,50.949405 66.586165,54.153709 67.332789,52.587409 C 67.756694,50.050039 71.150719,53.533713 69.603915,54.549656 C 67.637305,54.002722 65.656416,53.843171 64.804621,56.057748 C 64.685844,57.100607 67.668864,54.553139 67.320925,56.413259 C 67.949796,58.385914 64.852299,58.745181 63.683867,58.061724 C 62.609611,56.76857 61.609169,57.973732 60.8096,58.562126 C 59.563219,58.38793 55.416782,58.058533 57.16963,56.200807 C 57.633279,54.261246 54.748472,56.024258 53.698513,55.587302 C 52.372841,56.30548 50.330317,55.669464 49.270536,56.74039 C 49.118971,57.982259 47.132765,57.29757 46.807588,58.791995 C 46.057025,60.493184 43.569625,61.061316 43.506962,62.884825 C 43.435605,64.922869 42.475623,66.777424 43.541695,68.785303 C 43.798072,70.838923 45.743459,72.109423 47.733911,71.627033 C 48.886432,71.602254 49.967644,73.044313 50.778261,71.305349 C 52.084599,69.153337 53.420446,72.504828 55.058051,71.634598 C 56.406636,73.187935 53.930083,75.035758 56.043963,76.123253 C 57.816405,78.000949 57.289786,80.608935 56.515438,82.789205 C 56.527409,84.544871 58.83209,85.4588 58.789889,87.198906 C 58.613876,89.68941 60.85518,91.874407 63.300635,90.670802 C 64.885548,90.224001 65.527356,88.341784 67.152169,87.90715 C 68.385361,86.86629 67.849329,83.825531 70.100454,83.751529 C 73.172533,82.724159 70.96857,79.051501 71.805781,76.972167 C 73.033802,75.521606 73.555051,73.374765 75.436139,72.571336 C 76.89005,71.298249 75.930221,68.73232 77.404949,67.290389 C 76.155805,68.253327 74.053736,69.09576 72.686276,67.926133 C 70.569987,66.090245 68.82962,63.793782 67.750402,61.203535 C 67.245373,60.058304 67.277394,57.755217 68.529407,57.766005 C 68.726649,60.169362 70.426708,62.105295 71.61299,64.100668 C 72.748119,65.397505 73.539808,67.430793 75.646324,66.751065 C 77.426028,66.147745 79.865755,64.968416 79.904834,62.858349 C 79.73869,60.468881 75.477621,62.700391 74.637032,60.262214 C 72.955745,59.260537 75.781262,57.606102 76.290744,59.463353 C 77.38188,60.576522 79.338981,59.98819 80.141365,61.492333 C 81.765558,60.766303 83.064986,61.277292 83.734116,62.981264 C 85.165671,64.398867 85.553146,66.547089 85.499853,68.489723 C 87.378489,70.321173 86.801072,65.82487 87.297767,64.719303 C 87.3726,63.670709 87.478489,62.379268 87.920147,64.094346 C 89.294762,64.753109 88.336886,61.952419 88.02306,61.321897 C 85.612334,55.814354 84.837529,54.805357 82.193142,51.634722 C 77.828955,47.354268 74.282645,45.527581 69.451073,43.934591 C 69.099808,45.650399 66.954315,44.140036 65.931002,45.576909 C 64.857308,46.388446 64.851939,46.284891 65.604753,45.207228 C 65.058032,44.226862 63.816457,43.758063 62.860978,43.204305 z M 55.248492,45.120571 C 54.17541,44.61264 51.516954,46.289168 53.897397,46.176049 C 54.570512,46.316279 54.795125,45.442152 55.248492,45.120571 z M 53.729515,47.632754 C 52.872861,47.960341 50.838262,48.537158 52.636587,48.921335 C 53.151486,48.679552 53.486944,48.124704 53.729515,47.632754 z M 58.636993,54.935613 C 57.334288,55.589164 58.551722,56.8882 59.239319,55.652251 C 59.076039,55.381387 58.820017,55.190398 58.636993,54.935613 z M 88.023725,68.840262 C 86.110461,70.144321 90.290195,71.125721 88.023725,68.840262 z M 33.339914,72.170365 C 33.228913,74.56077 33.84254,77.080662 34.376266,79.658719 C 35.064986,80.878536 35.528174,83.376642 36.320732,83.7294 C 37.146592,81.835295 35.448068,79.716788 36.438537,77.757176 C 35.246219,76.819322 36.850572,74.740495 34.912347,74.173866 C 34.302351,73.577376 33.847962,72.849841 33.339914,72.170365 z M 75.287539,79.882185 C 75.089836,82.089176 72.08477,82.60749 72.645094,84.844369 C 73.18046,86.017019 72.382683,86.103558 72.259561,87.054047 C 73.364455,87.901702 74.303617,85.142359 75.15045,84.393234 C 75.34795,83.302675 77.923334,79.626606 75.287539,79.882185 z " />
      <path
         id="path4291"
         style="fill:none;fill-opacity:1;fill-rule:evenodd;stroke:none;stroke-width:3.75;stroke-linecap:butt;stroke-linejoin:miter;stroke-miterlimit:4;stroke-opacity:1"
         d="M 91.911892,72.113599 C 91.911892,55.438711 78.394193,41.921036 61.7193,41.921036 C 45.044407,41.921036 31.526758,55.438711 31.526758,72.113599 C 31.526758,88.788496 45.044407,102.30617 61.7193,102.30617 C 78.394193,102.30617 91.911892,88.788496 91.911892,72.113599 z " />
      <path
         id="path4292"
         style="fill:none;fill-opacity:0.94117647;fill-rule:evenodd;stroke:none;stroke-width:5.80402803;stroke-linecap:butt;stroke-linejoin:miter;stroke-miterlimit:4;stroke-opacity:1"
         d="M 91.911892,72.113599 C 91.911892,55.438711 78.394193,41.921036 61.7193,41.921036 C 45.044407,41.921036 31.526758,55.438711 31.526758,72.113599 C 31.526758,88.788496 45.044407,102.30617 61.7193,102.30617 C 78.394193,102.30617 91.911892,88.788496 91.911892,72.113599 z " />
      <path
         id="path2234"
         style="fill:none;fill-opacity:0.33333333;fill-rule:evenodd;stroke:#ffffff;stroke-width:2.99999809;stroke-linecap:butt;stroke-linejoin:miter;stroke-miterlimit:4;stroke-dasharray:none;stroke-opacity:1"
         d="M 91.752806,72.373065 C 91.752806,55.698178 78.235108,42.180502 61.560213,42.180502 C 44.885321,42.180502 31.367672,55.698178 31.367672,72.373065 C 31.367672,89.04796 44.885321,102.56564 61.560213,102.56564 C 78.235108,102.56564 91.752806,89.04796 91.752806,72.373065 z " />
      <path
         id="path4861"
         style="fill:url(#radialGradient1621);fill-opacity:1;fill-rule:evenodd;stroke:none;stroke-width:1.25;stroke-linecap:butt;stroke-linejoin:miter;stroke-miterlimit:4;stroke-opacity:1"
         d="M 89.00238,76.842772 C 89.00238,61.390681 76.475965,48.864288 61.023876,48.864288 C 45.571787,48.864288 33.045372,61.390681 33.045372,76.842772 C 33.045372,92.294863 45.571787,104.82125 61.023876,104.82125 C 76.475965,104.82125 89.00238,92.294863 89.00238,76.842772 z " />
      <path
         id="path4289"
         style="fill:url(#radialGradient1618);fill-opacity:1;fill-rule:evenodd;stroke:none;stroke-width:2.33903122;stroke-linecap:butt;stroke-linejoin:miter;stroke-miterlimit:4;stroke-opacity:1"
         d="M 88.811713,62.092762 C 88.811713,49.831514 76.650871,39.891807 61.649665,39.891807 C 46.648458,39.891807 34.487562,49.831514 34.487562,62.092762 C 34.487562,74.354014 46.648458,84.293715 61.649665,84.293715 C 76.650871,84.293715 88.811713,74.354014 88.811713,62.092762 z " />
    </g>
  </g>
  <g
     inkscape:groupmode="layer"
     id="layer4"
     inkscape:label="3" />
</svg>
