<?xml version="1.0" encoding="UTF-8" standalone="no"?>
<!-- Created with Inkscape (http://www.inkscape.org/) -->
<svg
   xmlns:dc="http://purl.org/dc/elements/1.1/"
   xmlns:cc="http://creativecommons.org/ns#"
   xmlns:rdf="http://www.w3.org/1999/02/22-rdf-syntax-ns#"
   xmlns:svg="http://www.w3.org/2000/svg"
   xmlns="http://www.w3.org/2000/svg"
   xmlns:xlink="http://www.w3.org/1999/xlink"
   xmlns:sodipodi="http://sodipodi.sourceforge.net/DTD/sodipodi-0.dtd"
   xmlns:inkscape="http://www.inkscape.org/namespaces/inkscape"
   width="640px"
   height="480px"
   id="svg12462"
   sodipodi:version="0.32"
   inkscape:version="0.46"
   sodipodi:docname="avon_edit.svg"
   inkscape:output_extension="org.inkscape.output.svg.inkscape">
  <defs
     id="defs12464">
    <inkscape:perspective
       sodipodi:type="inkscape:persp3d"
       inkscape:vp_x="0 : 240 : 1"
       inkscape:vp_y="0 : 1000 : 0"
       inkscape:vp_z="640 : 240 : 1"
       inkscape:persp3d-origin="320 : 160 : 1"
       id="perspective12470" />
    <inkscape:perspective
       id="perspective12641"
       inkscape:persp3d-origin="372.04724 : 350.78739 : 1"
       inkscape:vp_z="744.09448 : 526.18109 : 1"
       inkscape:vp_y="0 : 1000 : 0"
       inkscape:vp_x="0 : 526.18109 : 1"
       sodipodi:type="inkscape:persp3d" />
    <inkscape:perspective
       id="perspective12691"
       inkscape:persp3d-origin="372.04724 : 350.78739 : 1"
       inkscape:vp_z="744.09448 : 526.18109 : 1"
       inkscape:vp_y="0 : 1000 : 0"
       inkscape:vp_x="0 : 526.18109 : 1"
       sodipodi:type="inkscape:persp3d" />
  </defs>
  <sodipodi:namedview
     id="base"
     pagecolor="#ffffff"
     bordercolor="#666666"
     borderopacity="1.0"
     inkscape:pageopacity="0.0"
     inkscape:pageshadow="2"
     inkscape:zoom="1"
     inkscape:cx="339.68224"
     inkscape:cy="200.13189"
     inkscape:current-layer="layer1"
     inkscape:document-units="px"
     showgrid="false"
     inkscape:window-width="1032"
     inkscape:window-height="965"
     inkscape:window-x="199"
     inkscape:window-y="157" />
  <metadata
     id="metadata12467">
    <rdf:RDF>
      <cc:Work
         rdf:about="">
        <dc:format>image/svg+xml</dc:format>
        <dc:type
           rdf:resource="http://purl.org/dc/dcmitype/StillImage" />
      </cc:Work>
    </rdf:RDF>
  </metadata>
  <g
     inkscape:groupmode="layer"
     id="layer61"
     inkscape:label="Map"
     style="opacity:1"
     sodipodi:insensitive="true">
    <image
       y="0.96197003"
       x="0.19977361"
       id="image12693"
       height="480"
       width="640"
       sodipodi:absref="/Users/httpd/Desktop/UKParseParl/Maps/Avon.jpg"
       xlink:href="/img/maps/avon.jpg" />
  </g>
  <g
     id="layer1"
     inkscape:label="Layer 1"
     inkscape:groupmode="layer"
     style="opacity:1"
     sodipodi:insensitive="true">
    <g
       style="display:inline"
       id="g5764"
       transform="matrix(1.3970623,0,0,1.3970623,2817.0736,5225.4225)" />
    <g
       style="display:inline"
       id="g12534"
       transform="matrix(1.7968079,-4.1470677e-2,3.9210215e-2,1.7162296,108.6181,90.088326)">
      <path
         id="Woodspring" onclick="javascript:respond(this.id);return true;" onmouseover="javascript:popup(this.id);return true;" onmouseout="javascript:popdown(this.id);return true;"
         style="fill:#c8c8ff;fill-opacity:0.33000004;fill-rule:evenodd;stroke:#7ffaff;stroke-width:1;stroke-opacity:1;display:inline"
         d="M 75.43524,75.942391 C 76.48385,76.768689 77.10772,78.019836 78.50577,78.320875 C 79.46013,78.76756 80.14367,79.310757 80.95138,80.293619 C 81.69997,81.043293 82.12997,81.84717 82.68249,82.278257 C 83.92673,83.460967 83.90214,84.311053 84.90713,84.302474 C 86.00464,85.277537 87.61462,84.70334 88.5045,83.721647 C 88.3908,85.087243 89.26704,82.068075 89.97105,81.984236 C 90.97923,82.564478 91.55874,83.987591 92.43307,84.866338 C 93.25269,85.883126 92.53543,87.436286 93.65989,88.22554 C 94.77636,89.82257 97.74477,89.351708 97.8493,91.706796 C 98.52956,92.925577 97.59029,94.377351 98.77945,95.333892 C 98.97493,96.294137 99.73637,97.492056 99.52628,98.383476 C 99.47313,100.37279 97.21865,97.911639 97.06352,99.845779 C 96.90423,100.78886 94.83705,101.82456 96.91141,102.09674 C 98.16382,101.89436 99.40512,102.81366 97.89189,103.55612 C 97.22038,104.49784 97.74762,106.15258 97.46334,107.35089 C 97.42819,108.49695 95.87183,109.36185 97.43986,110.14643 C 98.90847,110.737 97.17489,112.2769 98.748,112.42781 C 98.25927,113.36622 97.82434,114.57096 97.98868,115.36392 C 96.54269,116.0202 97.37192,117.03621 98.06099,117.98612 C 99.15279,118.89997 99.34834,116.89798 100.39157,117.44741 C 101.56729,116.43784 101.08358,119.10644 102.18967,118.06626 C 103.16063,117.84613 103.5118,119.13861 104.66786,118.50495 C 105.34128,120.12011 105.95126,119.00759 106.95332,119.14836 C 106.90845,119.6319 108.45165,120.5937 108.67183,120.00001 C 109.9292,120.38567 109.70043,122.3898 108.50735,121.0556 C 108.09263,120.93198 108.56292,122.25332 107.13485,122.08174 C 106.81273,122.23967 104.88903,120.99437 105.28349,122.5799 C 105.599,123.92873 105.58394,124.00808 104.33627,123.0531 C 104.53939,124.21885 103.29692,123.46411 102.47993,123.90572 C 103.02024,122.05172 101.04128,123.53508 100.35247,123.5961 C 99.95384,124.64038 100.8764,125.18221 102.13915,125.24441 C 103.11321,125.51075 102.91614,126.03776 102.2993,126.44896 C 103.49132,126.59538 102.45986,127.70595 101.89736,126.84982 C 100.76569,127.54101 101.86788,125.60726 100.83063,126.09879 C 100.65152,125.91064 98.79457,123.66239 99.13658,125.19235 C 98.29141,125.01239 98.67921,126.60825 98.44296,126.3039 C 97.37104,125.89543 98.49761,126.6297 99.01954,127.33355 C 97.24251,126.87751 98.78539,128.89646 97.08635,128.46518 C 98.37718,128.53791 98.43561,130.81481 97.21841,129.63892 C 97.39351,129.46364 95.34274,131.05736 95.7854,129.79412 C 95.48427,129.58648 94.5759,129.45779 94.21711,130.30788 C 92.99413,131.57872 92.55899,133.3756 93.01488,135.09721 C 92.58284,136.36864 93.25481,137.93935 92.64666,138.97076 C 92.37569,140.07899 92.08128,141.31785 92.5278,142.48652 C 91.83396,143.26349 90.94628,143.98665 89.86063,143.92972 C 90.53546,143.12604 87.2767,142.89811 87.34114,143.86538 C 86.69371,144.51425 86.44083,142.82851 85.7002,143.45203 C 85.69346,140.53094 85.76073,144.29062 86.5878,142.45143 C 88.06745,141.86397 86.2896,141.77272 85.6806,141.10533 C 86.55317,140.24901 84.86871,139.24411 85.84352,138.74225 C 87.00349,138.53558 86.27039,137.40921 87.82364,136.91495 C 88.45825,135.10267 87.12735,135.5049 86.15104,135.1947 C 85.23063,135.72932 84.68144,136.29611 84.79949,134.51483 C 84.30017,133.67546 84.98121,131.72807 83.6691,132.1574 C 83.1436,131.48104 83.34128,129.74128 82.96354,128.80561 C 83.01369,127.07326 81.2146,127.20078 80.15699,127.72038 C 79.14807,128.50769 79.82336,130.22716 78.67443,131.0597 C 77.87194,132.00259 77.51555,133.04862 76.75615,133.77139 C 77.14655,134.69342 75.58803,136.67163 77.0875,136.57083 C 78.38592,136.41192 79.15999,137.89275 78.68778,139.09398 C 78.3748,140.23263 77.03653,141.17455 75.94268,141.20652 C 75.0969,140.83256 73.99997,140.43852 72.75629,140.63447 C 71.40119,139.99651 70.46457,139.87173 69.278,140.86395 C 68.86361,142.11724 68.02073,139.79179 68.41536,140.98542 C 69.60692,142.63763 67.23273,143.07027 67.98868,141.35587 C 67.07339,141.63702 67.95014,143.25199 66.81974,143.83204 C 67.07267,144.2097 68.46123,143.70121 67.93146,144.54623 C 67.42355,145.96817 66.1998,145.22961 66.2754,143.90106 C 66.98471,143.36157 64.92425,144.04573 65.49287,144.80691 C 64.93495,141.99792 64.62563,145.5556 64.36906,145.05803 C 63.45521,144.47253 65.15895,142.59649 63.99071,143.16913 C 62.31959,144.05119 63.07537,141.78637 61.76007,142.34322 C 60.09973,143.19272 60.71382,142.12972 60.22654,141.02422 C 60.69638,139.93841 59.6567,139.82533 59.77453,138.62624 C 59.98086,138.3757 60.48902,136.61547 59.29626,136.37585 C 58.47034,136.09139 57.86346,135.67492 57.44626,134.96073 C 57.85553,133.7051 58.34805,132.64912 58.85818,131.50073 C 58.92857,130.1866 58.34584,128.19358 60.16613,129.73544 C 61.15835,128.99512 63.4919,129.65979 63.55737,128.30335 C 63.44627,127.11382 61.19689,127.90541 60.27716,127.77848 C 58.97506,127.34759 57.9993,126.74688 56.66709,127.08243 C 55.1877,127.56284 54.57755,125.80769 53.27086,126.2649 C 52.05748,126.54801 51.21415,126.42049 49.94715,126.61586 C 49.06865,127.13449 48.3458,127.22515 47.2079,126.61625 C 46.12703,126.27426 45.09138,127.32712 43.79299,127.28423 C 42.52582,127.71219 42.03911,127.28364 41.32191,126.63555 C 40.42492,126.15045 39.5019,125.17013 38.57089,125.75797 C 37.76894,126.59051 37.60729,126.3735 36.74923,125.93345 C 36.50239,126.90188 35.95935,125.61974 34.56014,126.22961 C 33.50813,125.59283 33.31372,126.50823 32.35967,127.35695 C 31.00482,127.06644 32.50986,124.76322 31.41541,124.51072 C 30.1873,125.23466 29.82115,123.31456 28.76492,123.3598 C 27.60657,123.73765 26.51069,122.56898 26.47841,121.37399 C 28.13978,121.01719 26.07822,121.60152 25.27165,121.58553 C 24.70453,120.81734 22.12848,120.49563 23.1955,119.40397 C 24.22696,118.26299 25.51784,117.36026 26.55166,116.18476 C 27.72625,115.60101 27.75801,114.18609 28.57857,113.25704 C 30.00176,111.31705 29.14161,112.65496 29.83613,113.00728 C 29.15714,113.12056 29.96235,111.84796 29.92531,110.78828 C 30.38254,109.64339 30.69488,108.37334 31.11472,107.24775 C 31.46425,105.90848 33.14804,106.85956 33.17792,105.89015 C 32.51917,105.08686 33.08271,106.77241 32.22001,105.14769 C 31.64782,104.29234 34.09937,103.78346 34.6329,102.97939 C 35.58993,102.42001 36.45195,101.28975 36.7434,100.23592 C 36.57662,99.101759 37.92931,97.930357 38.67452,97.042837 C 39.48195,96.081421 39.47006,94.860301 40.90729,94.172044 C 42.44758,93.174948 43.58326,91.8269 45.10166,90.779696 C 46.25402,90.098068 47.26797,89.554091 48.11085,88.424998 C 48.2668,87.509791 49.14029,86.508601 50.03097,85.806696 C 50.8926,84.930874 51.50743,83.949181 52.57356,83.234213 C 53.21261,81.722192 54.69224,81.936858 55.98841,81.652586 C 57.07026,81.675983 58.73713,80.91422 59.07793,80.226938 C 59.84777,79.630124 60.83748,78.996069 60.69424,78.203891 C 62.04291,78.462816 63.65903,77.631643 64.78555,78.315416 C 65.20898,79.574946 65.66633,79.122607 66.93865,79.071719 C 68.09923,79.153608 69.62847,78.722911 70.46309,78.613531 C 71.0744,79.594443 71.63869,79.390501 70.73387,78.788812 C 70.84726,78.451312 72.0244,77.531426 72.83113,76.682706 C 72.67627,76.462581 71.90187,74.544234 72.04683,75.100299 C 72.37128,77.064659 73.5658,74.988969 74.78405,75.532361 C 74.99973,75.6162 75.37599,75.659094 75.44296,75.922698" />
      <path
         id="Weston-super-Mare" onclick="javascript:respond(this.id);return true;" onmouseover="javascript:popup(this.id);return true;" onmouseout="javascript:popdown(this.id);return true;"
         style="fill:#c8c8ff;fill-opacity:0.33000004;fill-rule:evenodd;stroke:#7ffaff;stroke-width:1;stroke-opacity:1;display:inline"
         d="M 4.34068,126.59636 C 4.23105,125.93111 4.07097,122.38512 4.54724,123.73648 C 4.61797,124.69361 4.63283,125.67101 4.34271,126.59636 M 9.54661,120.84463 C 11.69783,120.27804 13.54621,118.68783 15.77545,118.52445 C 13.62765,119.04698 11.82377,120.67345 9.54661,120.84463 z M 5.91882,122.75518 C 7.25115,122.64054 8.07732,121.2999 9.58043,121.38335 C 10.69784,121.45315 11.7715,121.44164 12.48504,120.52156 C 13.56618,119.76565 14.89576,118.92044 16.25671,118.99238 C 16.68713,119.89336 15.66324,121.61478 15.88306,121.78304 C 16.71604,120.43363 17.18563,121.61205 17.87,122.46019 C 18.13768,121.80371 16.2719,120.92789 16.52836,120.57674 C 17.40242,120.21857 19.01556,120.7645 20.23979,120.22423 C 21.69795,119.76818 22.85814,120.2679 23.85389,121.20884 C 24.73999,122.0913 26.59833,121.52061 26.85539,123.05369 C 27.77856,123.95641 28.56103,123.53469 29.24626,123.3945 C 29.63826,125.06874 31.58285,124.02992 31.90845,125.10033 C 31.42439,126.27563 31.9505,128.15868 33.1628,126.77963 C 33.55674,125.25552 34.43397,126.52363 35.7263,126.40119 C 36.34191,125.71625 36.67581,126.83832 37.15454,125.95587 C 37.87867,127.2854 38.10191,125.50977 39.26654,125.54818 C 40.38288,125.72775 41.1751,126.88726 42.02923,127.20078 C 42.60666,127.86934 44.41482,126.97363 45.69781,127.01438 C 46.717,125.80243 48.07397,127.27604 49.01157,127.20331 C 49.54558,126.26763 51.15139,126.73323 52.12152,126.37292 C 53.43265,126.13973 54.48377,126.26763 55.56815,127.02179 C 56.96904,127.36553 58.2842,126.63652 59.5105,127.55992 C 60.821,128.14484 62.22551,127.38035 63.59711,127.86349 C 63.99408,129.76507 61.45915,128.91869 60.37528,129.69644 C 58.43327,128.4527 58.87891,129.93392 58.86149,131.5563 C 58.40209,132.68987 57.45945,134.24167 57.62165,135.2257 C 58.27644,136.17444 59.12239,136.03055 59.94071,136.92763 C 60.46525,138.30726 59.46763,138.32988 59.84078,139.6596 C 60.64612,140.20046 60.21861,141.29816 60.51301,142.48652 C 60.61956,143.18277 63.29773,141.15056 62.59228,143.2516 C 63.58203,143.42142 65.10944,142.47327 64.12312,144.03247 C 64.53813,146.16607 64.38913,144.7024 65.05062,143.53958 C 65.78828,145.60552 65.11382,143.9342 66.33494,143.82755 C 66.02028,143.0459 66.89276,146.95298 67.55892,144.89191 C 68.86681,144.11085 67.22301,143.99601 66.83139,143.85153 C 67.7449,143.469 67.43418,140.99809 67.89191,141.61694 C 67.78812,143.62809 69.47325,141.76824 68.19353,140.64383 C 68.79511,141.39253 68.91384,141.24708 70.30138,140.4005 C 71.30389,139.58142 72.83387,141.05093 74.14763,140.75438 C 75.37819,140.72806 76.37519,141.94177 77.5763,140.53425 C 78.70111,140.05559 79.52324,137.83114 78.21157,137.26142 C 78.15805,135.98766 75.29467,137.18324 76.72077,135.26099 C 76.16127,133.73025 77.54717,133.3054 77.86724,132.16422 C 78.84834,130.99594 79.75784,129.73173 79.71373,128.11696 C 81.22372,126.46222 81.36716,128.45329 80.94234,129.63093 C 80.7744,131.02636 80.97434,132.1691 80.49855,133.0381 C 81.88272,132.93417 80.49029,135.11691 80.64277,135.29394 C 80.75067,136.05356 81.49921,137.37373 81.78936,137.04208 C 81.60863,137.74905 82.72906,139.59194 81.84734,140.62024 C 81.26625,141.61558 80.59318,143.93206 79.0287,142.82188 C 78.18827,143.44872 77.47506,143.84764 77.43087,144.99993 C 77.67956,145.75194 79.25768,146.03583 80.04884,146.42519 C 80.50457,147.66386 82.87,148.07934 82.63986,149.13123 C 81.77484,150.69979 81.0692,152.51714 80.53257,154.01668 C 80.138,154.70455 79.46843,154.50295 77.79057,154.29199 C 76.24793,154.21673 74.40723,154.9508 74.05474,152.87063 C 73.93542,151.91565 72.4625,155.00286 71.39825,153.81469 C 70.0933,153.69361 69.75842,152.8369 68.11187,153.16172 C 66.87712,153.09134 65.30914,153.50624 64.61367,152.46606 C 65.22034,150.10493 63.92133,151.66862 62.61958,151.92013 C 61.44269,151.33911 60.2002,151.3083 58.78975,151.3627 C 57.03328,151.28198 55.64909,150.59646 53.9179,150.53894 C 53.26208,149.86491 52.20232,149.97468 50.79076,150.16868 C 49.88029,149.65766 47.5057,149.22735 47.5993,150.77193 C 47.83579,151.77312 47.10454,153.20657 48.63016,153.26877 C 49.68169,153.86714 50.49148,154.74199 50.64282,156.10875 C 49.51131,156.25108 48.88606,157.46655 49.81884,158.67792 C 50.40887,160.52023 49.28646,161.12387 47.5842,160.88717 C 44.37015,160.58047 41.03438,161.48242 37.8272,161.25606 C 36.31494,161.37928 35.00512,160.67504 33.89017,160.35879 C 32.1261,161.75773 31.70166,160.1915 30.75226,159.58591 C 30.26808,157.59601 28.77735,158.6904 28.55359,160.14549 C 27.96488,161.82226 27.42206,163.51931 26.48936,165.04518 C 24.62368,164.43491 22.59111,163.90575 20.88893,163.13833 C 20.04643,161.62456 18.71029,161.72614 17.38981,161.35374 C 16.97542,159.66995 15.58358,159.54887 14.09469,159.76178 C 12.34941,160.24629 11.60989,158.65179 9.99562,158.82961 C 7.99299,158.28524 9.64067,160.73977 8.71087,161.53565 C 7.70404,162.21572 5.98647,163.28671 5.07333,161.8866 C 3.72649,161.61267 2.30706,161.5957 1.13767,160.75595 C 0.68673,159.92478 0.02256,158.31274 1.02077,157.4607 C 3.22029,157.06412 1.94521,157.73152 2.50736,156.60301 C 3.32219,155.65953 3.16033,154.75544 2.58144,153.50273 C 3.12206,152.86088 3.04156,150.68946 2.76255,152.35239 C 2.59213,154.13016 2.69799,154.54233 1.35076,152.99697 C 1.02087,151.38824 1.49289,151.12893 1.93251,149.5317 C 3.00949,146.30079 3.63235,142.89714 3.88286,139.50362 C 3.74944,137.59073 1.12123,139.68339 2.30967,138.26281 C 1.80854,137.93896 -0.38448,137.0372 1.3274,136.08417 C 1.97309,135.32202 3.39325,135.27678 4.25114,134.70727 C 5.27798,134.67548 6.86158,133.93887 7.60804,133.86888 C 9.5192,132.41905 9.43838,129.58979 9.50922,127.39419 C 10.16179,125.68037 8.41352,125.08492 8.10015,124.37483 C 6.75382,123.90787 6.50632,122.51751 4.68947,123.04784 C 4.69594,122.85384 5.71185,123.00026 5.94415,122.73607" />
      <path
         id="Wansdyke" onclick="javascript:respond(this.id);return true;" onmouseover="javascript:popup(this.id);return true;" onmouseout="javascript:popdown(this.id);return true;"
         style="fill:#c8c8ff;fill-opacity:0.33000004;fill-rule:evenodd;stroke:#7ffaff;stroke-width:1;stroke-opacity:1;display:inline"
         d="M 159.08663,105.98764 C 158.82468,107.10679 157.12562,108.69972 155.95569,108.21034 C 154.65797,108.94734 153.36701,109.52719 151.85596,109.10663 C 150.80508,109.74322 148.53605,109.22966 148.09263,110.13161 C 149.54581,112.17474 146.54597,110.72023 148.69621,112.48026 C 150.65094,113.35706 148.84882,115.25825 147.64325,115.84512 C 146.67071,116.70027 145.5664,118.51879 147.00952,119.50984 C 147.49495,121.02265 149.01102,121.80468 150.30642,122.69903 C 151.80548,123.76612 152.32974,123.89617 153.37211,122.83337 C 154.54918,122.08642 156.28032,122.17884 157.42859,122.97004 C 158.47996,124.69595 157.82388,124.75035 157.07031,126.1602 C 157.97305,127.46419 156.23415,128.15556 155.9985,129.54046 C 157.40601,130.48355 158.20061,130.7571 157.46676,132.61325 C 158.02665,133.47016 161.33407,132.67798 159.45873,134.02486 C 159.24435,134.22861 161.58178,136.11693 161.96823,135.2142 C 162.52911,134.24635 163.11967,136.32106 163.80548,137.3979 C 164.49001,138.12633 164.10759,139.66857 164.74785,140.85869 C 164.651,142.57758 168.09792,140.48609 167.44005,143.03381 C 168.77938,143.62868 168.2194,145.52616 170.16667,145.02138 C 171.23437,143.2091 172.48119,146.23626 172.98812,144.32142 C 173.47622,143.3253 174.89588,143.58247 175.52268,143.24712 C 177.0284,142.99365 177.88933,144.74685 178.98862,145.59577 C 179.89299,147.02668 182.16595,145.77885 182.74898,147.0881 C 184.10473,147.85084 184.51563,147.08732 185.55259,148.72861 C 186.6938,149.30807 187.82418,149.39912 189.06815,149.62276 C 190.49421,150.1137 189.25838,152.15761 188.0768,152.58265 C 186.50495,152.88116 185.2995,154.26918 183.54394,154.30213 C 182.40703,155.38404 181.31661,156.00054 180.01671,156.40511 C 179.28593,157.11189 178.49376,158.59311 177.16013,158.83682 C 175.99417,158.73329 175.64519,157.61941 173.8931,158.67383 C 172.47622,159.33323 171.2673,159.64987 169.98415,160.69317 C 168.61596,162.03439 166.75798,161.81193 165.0446,161.9839 C 163.28499,162.38574 164.3499,164.63944 162.50821,164.53883 C 161.06748,164.09878 161.08998,161.99228 160.25189,160.88912 C 159.3193,158.78594 158.44447,162.3986 157.33762,161.81134 C 156.07536,161.46039 155.75018,162.98996 154.60538,163.19312 C 153.4977,163.6244 156.15105,165.86212 153.86311,166.02005 C 154.55356,167.91987 152.31456,167.60752 151.35374,167.98928 C 152.29477,169.29502 149.01279,167.28757 149.12084,169.04233 C 147.24581,169.45919 147.70803,171.24632 147.14004,171.88564 C 144.82475,170.95912 146.4295,173.91278 144.30066,173.31655 C 142.69004,173.16291 141.06375,172.46549 139.78257,171.51831 C 139.33952,173.33819 137.96956,173.95216 136.72762,172.92212 C 135.56289,173.39649 134.6732,172.17283 134.04664,172.2982 C 132.98194,172.12838 129.84653,171.17262 132.05385,170.08954 C 132.94135,169.10044 132.95515,168.09145 133.74079,167.30687 C 134.04978,165.42479 132.6207,166.0103 131.38719,166.3708 C 130.8703,165.30293 129.04566,165.21597 127.8126,164.9475 C 126.47665,164.70963 124.94517,165.41036 123.81919,164.09215 C 122.11327,163.81879 121.58432,162.10634 119.77053,161.87978 C 118.42461,163.15588 119.02375,162.09386 117.9489,161.07103 C 116.52191,160.41104 116.25084,163.11728 114.62823,163.12956 C 113.70587,164.447 111.76745,164.04087 110.77197,165.35714 C 110.15704,164.85137 108.91434,163.50606 107.74249,163.44035 C 107.1902,164.04418 107.50495,165.87713 106.02072,166.433 C 104.76736,167.09747 103.65902,167.72802 102.52476,168.6132 C 101.33262,167.5348 99.57022,167.98987 99.33626,168.86588 C 98.60995,170.08174 97.35002,167.58081 96.6271,167.65783 C 96.10202,166.67847 94.69369,165.39262 95.68029,163.99232 C 94.33329,163.26448 93.3134,162.17283 91.88167,161.63782 C 91.14832,160.23245 87.86095,161.04939 88.534,160.00706 C 90.02248,158.5274 88.21687,158.89142 88.08941,157.58958 C 86.88365,155.87615 85.89464,157.95476 84.98588,156.21287 C 83.37142,155.46475 83.02255,154.39123 81.21936,154.0237 C 80.05874,153.31263 81.83834,151.21959 82.18378,150.0437 C 83.79012,148.34665 81.36153,148.28368 80.58264,147.02961 C 79.57222,146.1686 78.71492,145.76871 77.36266,145.43258 C 77.36151,144.02838 78.01539,143.47465 79.01034,142.81817 C 80.80201,144.01317 81.3104,141.1687 82.06928,140.20709 C 82.34904,139.24333 81.68432,136.47119 81.60164,137.26142 C 81.07393,136.43493 80.38056,135.48326 80.62381,134.74782 C 82.24028,133.6897 79.60562,132.85658 80.91002,132.38708 C 80.70675,131.01544 80.83817,129.40846 81.20584,128.07816 C 81.54305,126.12199 83.63232,128.66873 83.04921,129.73544 C 83.08769,131.88853 84.02939,131.62356 84.52224,132.97219 C 84.92217,133.36819 84.28205,136.10971 85.49116,135.82291 C 85.41251,135.13718 87.99104,134.91862 87.92035,136.08612 C 88.23567,137.74418 85.66388,137.54842 86.43029,138.7091 C 84.38455,138.73503 86.64373,140.35234 85.75742,141.33637 C 87.6667,141.49235 87.26351,142.77274 85.76907,143.07164 C 86.06767,140.65942 85.10455,144.55636 86.61971,143.51891 C 87.02192,144.88431 88.17874,142.54404 89.78506,143.34753 C 89.87453,144.56397 91.45066,143.51462 92.29117,142.84391 C 92.53218,141.7039 92.08707,140.13631 92.67164,138.9382 C 93.18629,137.84927 92.70241,136.17444 92.98057,134.84609 C 92.53479,133.01041 93.2056,131.0324 94.73334,129.89141 C 95.01205,129.03606 95.80231,130.36676 96.23727,130.05461 C 97.12185,129.19497 97.88153,130.62335 98.17639,129.35875 C 96.37541,128.2628 98.35639,128.55058 98.24925,127.41739 C 100.14835,127.28169 97.0227,126.09664 98.16635,126.12842 C 98.98167,126.94127 98.08571,125.06562 99.14431,125.19235 C 99.03244,123.67897 100.64848,126.15474 101.18624,126.40119 C 101.24562,126.15026 101.4334,127.16042 102.45066,127.33726 C 103.01946,126.47041 102.43307,126.36122 102.65874,125.62675 C 102.61405,124.8956 100.07236,125.41657 100.30328,124.10654 C 100.0748,123.54638 103.16946,122.03963 102.50506,123.87667 C 103.75092,123.95602 104.11508,123.383 104.79557,123.28512 C 106.18358,124.79792 104.78375,122.58731 105.44659,121.9283 C 106.60409,121.7267 107.10202,122.33092 108.55875,121.76296 C 106.73383,119.93762 111.04189,122.60115 109.16857,120.61671 C 108.60753,119.90311 110.88228,118.88047 110.75054,119.26496 C 111.61955,118.78786 112.60953,119.31097 113.51322,118.81691 C 114.17256,120.25542 115.69728,118.09336 115.08757,117.49109 C 115.94846,116.94048 116.21881,115.9391 116.64228,114.97593 C 117.43842,112.85325 118.03897,115.93793 118.96078,115.11241 C 119.90296,114.80181 121.58181,116.72269 122.04801,115.33331 C 123.40046,114.51423 124.01665,113.93106 124.00364,112.28431 C 123.53723,111.4742 126.09527,110.47632 124.83109,109.32188 C 125.94639,107.90384 127.6472,108.76952 126.87302,106.51407 C 125.59702,106.05841 125.7885,103.3358 126.79329,105.35261 C 127.32934,106.15278 131.18198,107.21324 129.82577,106.68603 C 128.26451,106.03677 126.10688,105.50917 126.02218,103.43387 C 126.29234,101.87389 125.5487,100.12888 127.55203,99.897642 C 128.68979,98.5028 130.2369,100.96687 131.05684,99.607326 C 132.9636,101.0628 134.87556,102.60894 136.08666,104.72011 C 137.3722,104.17107 139.01561,107.56107 139.36487,105.88684 C 139.19601,104.40484 139.4971,102.95872 138.87531,101.56524 C 139.2558,100.26751 139.81355,99.098639 139.9989,98.188697 C 140.18286,96.592837 141.13348,96.467079 142.47808,96.211469 C 143.80725,96.628517 143.56846,98.212094 145.21184,97.094895 C 145.91441,97.856657 146.79922,98.235491 148.25511,98.24095 C 148.79323,98.926673 147.33076,101.37651 149.09361,100.62586 C 150.53798,101.07878 152.21496,101.3266 153.6449,102.02948 C 154.54504,103.50543 156.58062,101.68164 157.39486,103.4678 C 158.76939,103.41437 159.51425,102.4709 158.85685,104.95506 C 158.88826,105.36158 159.22761,105.64312 159.09639,105.98764" />
      <path
         id="Northavon" onclick="javascript:respond(this.id);return true;" onmouseover="javascript:popup(this.id);return true;" onmouseout="javascript:popdown(this.id);return true;"
         style="fill:#c8c8ff;fill-opacity:0.33000004;fill-rule:evenodd;stroke:#7ffaff;stroke-width:1;stroke-opacity:1;display:inline"
         d="M 124.71028,0.7603287 C 126.65921,2.5412187 129.55851,3.3246237 131.37116,5.0988837 C 132.47533,5.7986447 133.7269,6.1901517 135.1478,6.2281717 C 137.495,6.1271757 135.78887,7.3438117 135.85934,8.9888047 C 136.65381,10.432391 134.7277,12.970168 137.30459,13.079549 C 137.71589,13.513755 135.22698,15.824779 138.34108,14.172376 C 139.95868,13.929439 141.93095,14.171012 142.71895,12.385442 C 143.98726,11.275067 145.10564,11.736765 146.42995,11.947531 C 148.07672,14.549261 148.80732,10.231178 149.79483,12.416053 C 151.0214,12.013237 151.71769,13.988321 152.82769,13.874652 C 154.06946,13.521359 155.53024,16.164033 156.34526,14.895924 C 157.25037,16.107881 158.89285,16.726922 159.60471,15.798457 C 160.20827,13.410224 162.41178,15.537387 161.32733,16.821679 C 161.5502,18.616217 163.40703,15.551231 164.29011,17.211822 C 164.01035,18.731642 161.91498,18.59984 160.90832,18.659112 C 159.47977,19.361407 161.44232,19.825055 162.04176,20.448386 C 162.83044,21.682959 163.35444,22.565995 163.44504,23.572254 C 163.00289,24.355464 163.39304,25.703902 163.01243,26.477168 C 162.47427,27.248484 162.92437,28.57996 162.56042,29.265487 C 161.50425,30.202726 161.42922,31.364964 161.89269,32.614941 C 161.07478,33.545355 161.31786,35.607787 163.08965,35.25352 C 164.4963,35.534867 165.94359,35.390197 167.17523,35.094227 C 169.13702,35.759282 168.67986,32.104889 170.04484,32.735824 C 170.09392,33.903132 172.43226,33.522543 172.53586,34.334804 C 172.58195,35.733545 175.82167,35.40404 175.37069,36.128562 C 177.36021,37.442685 177.3649,34.722022 178.66182,36.335819 C 178.67439,38.474486 179.00451,36.834757 180.56294,37.025441 C 182.46498,35.765716 181.40908,39.630875 183.29876,37.99641 C 184.99157,37.18064 184.74869,37.318682 186.42743,37.571368 C 187.80217,38.079079 187.85771,35.038269 189.60322,37.044939 C 189.69882,37.934409 187.59436,39.746884 189.41616,39.521105 C 192.02191,40.208387 190.0178,41.325587 190.89691,41.314863 C 192.84496,41.629746 190.75446,44.636435 192.88545,43.123244 C 194.98648,42.013844 192.98471,46.146897 194.45527,45.956602 C 195.98728,45.973175 198.43089,46.873564 196.35567,48.175013 C 195.73304,49.446632 195.11646,50.957288 195.45021,52.05811 C 195.25535,53.717141 195.60214,54.787937 195.58785,56.195062 C 197.0567,57.54662 197.3327,59.051817 196.18465,60.851035 C 195.03315,62.263229 198.1004,61.860609 197.44206,63.543232 C 197.24553,65.329776 201.00771,64.304019 198.80711,65.959346 C 199.19251,67.734192 196.85025,68.499854 195.82343,68.969545 C 192.65227,68.93523 190.48102,71.564256 187.72897,72.725129 C 188.1592,74.46293 186.03796,74.886413 184.53391,75.39237 C 183.05376,75.712517 181.02285,77.435109 180.4899,78.125316 C 181.72512,79.372563 183.02551,80.665044 183.68225,82.259344 C 184.96897,82.079968 186.1744,83.276522 187.71658,82.095956 C 189.74831,82.073729 189.13963,83.377323 189.42933,85.322186 C 189.64762,86.842396 188.6599,88.5219 188.45965,90.257751 C 188.16111,91.30515 188.04337,93.109827 187.81471,94.581683 C 189.16897,95.723644 191.72284,94.118231 189.88214,96.261967 C 189.78979,100.01151 188.7659,103.64386 188.06408,107.31346 C 186.33601,107.2575 185.86711,109.22089 184.16191,109.52212 C 181.87167,111.10492 184.08176,106.68564 181.90729,106.65074 C 180.5569,105.9348 180.50675,103.6889 179.00792,103.74544 C 177.69197,103.63859 176.03334,103.26775 175.02192,102.80957 C 173.34839,103.04607 172.26299,103.27536 170.93441,104.25237 C 169.69325,102.64345 167.92493,104.35181 166.50315,105.04124 C 165.14856,104.87122 163.61145,106.10969 161.78616,105.80592 C 160.49753,105.83224 158.61465,106.59693 158.85726,104.46411 C 159.81689,101.86336 158.16979,104.16346 157.17922,103.297 C 156.01114,101.86979 154.06244,103.21921 152.81353,101.59507 C 151.24715,101.3264 149.67384,100.47534 148.17012,100.74284 C 148.21766,99.710077 149.00919,97.900136 147.25444,98.013221 C 145.47584,98.507479 145.77397,96.774748 146.83943,96.433739 C 145.84452,95.349295 146.21669,94.096004 145.16779,93.822456 C 144.37994,93.110607 145.7086,91.04759 147.52795,92.066327 C 149.05641,91.952853 150.15422,91.026727 150.6404,89.659767 C 150.22424,88.166073 151.95634,86.324156 150.91603,85.211051 C 149.32801,85.162698 146.94501,84.769436 145.9258,85.688932 C 144.93204,86.227644 142.98656,85.830483 142.48964,84.962265 C 140.86033,85.090168 140.45738,85.801822 141.21389,83.165972 C 141.02434,81.703864 142.41266,80.987141 141.80297,79.256749 C 142.34947,77.702613 142.31168,76.461606 140.44161,76.185328 C 139.46811,75.121746 137.29627,75.841979 138.18494,74.694364 C 137.13425,74.898891 137.21324,73.107083 135.88874,73.137889 C 136.13727,71.285638 133.34723,72.916983 132.23863,72.920103 C 130.70914,71.97643 129.57872,73.771163 129.96914,75.13169 C 130.20816,76.590093 129.95307,78.659934 128.61085,79.549209 C 126.56349,80.057116 126.06783,79.368274 125.35718,78.047912 C 123.83965,77.357705 122.29478,79.628174 123.02457,76.915699 C 123.55178,74.634507 121.40845,74.874325 122.00992,73.212564 C 122.7444,71.714386 124.2681,71.835269 125.46099,70.826085 C 127.84225,69.906004 125.04001,69.750025 126.84375,68.006765 C 127.24365,66.774921 125.54186,64.912727 124.81594,63.434047 C 123.86881,61.763122 123.18209,60.461867 121.35339,59.993345 C 120.21403,59.259464 118.6479,58.529678 117.49816,58.32632 C 115.11233,60.727031 116.28402,55.234037 114.5653,56.738259 C 112.37398,57.936178 110.31066,58.887259 109.38671,61.338469 C 107.09596,62.517475 109.17087,64.505232 110.17968,65.803367 C 110.28393,67.610774 111.28202,67.820565 111.91178,68.962136 C 108.65394,68.807912 105.98409,71.501669 102.64378,70.312719 C 99.62339,69.103102 96.82986,72.0125 93.73081,70.943264 C 91.73572,70.936635 92.32309,68.64199 93.08506,67.733802 C 92.80395,65.724013 90.7472,64.446935 89.4631,62.976443 C 89.53326,61.576532 90.49092,60.177206 88.74746,58.9594 C 86.98383,57.10559 87.59346,57.270342 88.0741,55.492182 C 89.31602,53.080552 88.86323,50.34858 89.42218,47.78799 C 89.27738,46.498239 89.87219,44.616548 91.3861,44.024803 C 92.14657,44.668996 91.50426,44.070622 92.80475,42.641854 C 95.05596,39.950827 97.42382,37.142815 98.59796,33.860043 C 99.3084,32.074084 99.87942,30.679827 101.89414,30.140139 C 104.06785,29.154352 105.74577,27.180828 107.68977,26.087416 C 107.92823,27.265252 108.27314,24.08601 109.6872,23.592532 C 111.13356,20.817666 111.10624,23.20083 111.42661,21.291062 C 112.08327,18.771612 112.82658,20.374296 114.3143,20.601245 C 116.73217,21.764263 115.29269,20.749815 113.81921,20.367276 C 112.37074,20.214612 112.48482,18.07809 113.17846,16.775666 C 114.41403,14.903333 113.96387,12.885355 115.05149,11.096081 C 116.1642,9.0880467 117.47285,7.1275857 118.64216,5.1339797 C 119.64827,3.9926037 121.81754,2.7523757 122.73793,2.5476527 C 122.73029,2.7334627 123.51153,1.3848297 124.52193,0.9358057 L 124.7337,0.7603287" />
      <path
         id="Kingswood" onclick="javascript:respond(this.id);return true;" onmouseover="javascript:popup(this.id);return true;" onmouseout="javascript:popdown(this.id);return true;"
         style="fill:#c8c8ff;fill-opacity:0.33000004;fill-rule:evenodd;stroke:#7ffaff;stroke-width:1;stroke-opacity:1;display:inline"
         d="M 128.59134,79.549209 C 129.27649,79.412143 129.38324,78.679432 129.70191,78.164896 C 129.50061,77.560088 130.04125,77.13563 129.98615,76.606276 C 130.24832,76.083747 130.12483,75.562192 129.92262,75.038882 C 130.03408,74.547354 129.93403,74.025019 130.02751,73.525106 C 130.52134,73.323309 130.41763,72.710896 131.10059,72.649479 C 131.60747,72.627252 132.11246,72.944085 132.66138,72.920103 C 133.12366,72.490966 133.63858,72.569345 134.17673,72.49701 C 134.70689,72.27396 135.26949,72.535615 135.80598,72.218783 C 135.87779,72.418241 135.61269,73.509119 136.19469,73.514773 C 136.79012,73.563516 137.12285,73.508534 137.18481,73.925972 C 137.52409,74.130695 137.41744,75.200516 137.72169,74.729849 C 138.45578,74.588493 138.33717,75.20773 137.91417,75.24029 C 137.97626,75.61659 138.65091,75.458466 139.13187,75.474064 C 139.69003,75.643106 140.0717,76.147308 140.60798,76.219838 C 141.15529,76.365484 141.28323,76.748802 141.84197,76.722091 C 141.87833,77.230192 142.52566,77.485608 142.08343,77.98435 C 141.64428,78.271742 141.94771,78.995094 141.84885,79.428911 C 141.73265,79.926094 142.04665,80.450573 141.86997,80.883805 C 141.64708,81.36461 141.63516,81.9973 141.17551,82.011338 C 141.43602,82.497017 141.01713,83.063026 141.23774,83.570153 C 140.82545,84.047448 141.0015,84.678773 140.62359,85.138911 C 140.70514,85.801042 141.50148,85.637264 141.49071,84.955051 C 141.68258,84.158778 142.33876,84.879791 142.70929,85.131307 C 143.43721,84.986247 142.66865,86.161158 143.56429,85.760682 C 144.11483,85.47992 144.51114,86.134252 145.00824,85.971254 C 145.61769,85.897554 145.95836,85.92914 146.202,85.541337 C 146.2041,84.967334 147.15231,85.26155 147.56682,85.213391 C 148.78501,85.176346 150.01285,84.966359 151.2114,85.281437 C 151.10785,86.005179 151.45595,86.879831 150.86861,87.442331 C 150.71666,87.925086 150.56228,88.537888 150.66748,89.03858 C 150.84301,89.676924 150.32271,90.181711 150.05271,90.67636 C 150.17528,91.349799 149.27141,91.078395 149.08213,91.543213 C 148.48581,92.120725 147.59924,92.221331 146.85611,91.882077 C 146.30686,91.723759 145.62578,91.911518 145.21727,92.26832 C 144.95141,92.855776 144.48126,93.211603 145.3771,93.404042 C 144.98116,93.646979 145.42625,94.218447 145.52217,94.20168 C 145.88212,94.142797 146.35568,94.836904 145.93434,95.143013 C 146.22138,95.432354 146.47133,96.030338 146.79785,96.407807 C 146.69278,96.949834 146.14189,96.711186 145.98659,97.225722 C 145.56786,97.331008 144.84314,96.663613 144.59833,97.424205 C 144.31563,97.461055 143.14305,97.614889 143.49445,97.01944 C 143.73208,96.61292 142.94827,96.31461 142.56488,96.214588 C 142.02408,95.933046 141.51908,96.581334 140.97306,96.375442 C 141.61032,97.148707 140.44498,96.734193 140.16698,97.153387 C 139.76463,97.46515 140.18325,98.400244 139.74844,98.319135 C 139.42833,98.826846 139.83087,99.329683 139.82592,99.786897 C 139.27807,100.15559 138.67413,100.68786 138.86084,101.42038 C 138.76925,102.02031 139.27801,102.45881 139.31649,102.99245 C 139.12871,103.57445 139.50996,104.09561 139.30775,104.67722 C 139.12273,105.26604 139.35938,105.82873 139.50205,106.39728 C 138.91921,106.15219 138.10838,106.23291 137.82474,105.56045 C 137.5442,104.99717 137.12163,104.67839 136.47533,104.74429 C 135.8167,104.80961 135.78412,103.933 135.36301,103.58771 C 134.47381,102.56936 133.62752,101.50578 132.49799,100.73914 C 131.94784,100.29851 131.3977,99.857672 130.84755,99.417032 C 130.5621,99.982065 130.23825,100.41315 129.64397,99.899397 C 129.14972,99.873465 128.73427,98.958063 128.32505,99.384276 C 127.8735,99.927863 127.0862,99.90778 126.60021,100.4114 C 125.97262,100.69976 125.7854,99.902126 125.19814,99.847923 C 124.5542,99.732889 123.83328,100.225 123.20272,100.14175 C 122.56792,99.941511 122.82243,99.162006 123.39863,99.119502 C 123.92921,98.925113 124.14953,99.658799 124.82135,99.417032 C 125.06328,98.891577 125.39046,98.483497 126.01182,98.481158 C 126.45997,98.244655 127.00449,98.250699 127.47478,97.876934 C 127.74098,97.364933 128.42318,96.958413 128.18027,96.316949 C 128.65724,95.835169 128.15913,95.131314 128.2302,94.601961 C 128.32996,94.135388 128.64401,93.589657 129.21483,93.684804 C 129.42831,93.131469 129.7166,92.875468 130.05259,92.670941 C 130.03928,92.180777 130.65188,91.347069 129.87247,91.277269 C 130.01101,90.59915 129.71454,90.48548 128.98867,90.692932 C 127.6414,90.947958 126.25637,90.582187 124.91438,90.717109 C 124.05938,91.037451 123.10721,90.812061 122.24372,91.111151 C 121.97113,90.499129 122.12937,90.134723 122.25718,89.538883 C 122.62732,88.93388 120.94249,89.215812 121.6856,88.576688 C 122.46317,87.961936 123.05819,87.153185 123.75371,86.451279 C 122.97504,86.121774 124.57452,86.013953 124.23878,85.476411 C 124.11206,84.793808 123.62373,84.217465 122.90227,84.170087 C 122.36362,83.698445 121.53476,83.686747 120.87618,83.405205 C 119.97121,83.304403 121.02476,82.646367 120.92649,82.234583 C 121.12727,81.655316 120.05602,81.172171 120.68903,80.870741 C 121.93407,79.944811 123.24151,79.091411 124.26803,77.911235 C 124.741,78.520333 125.10715,78.150273 125.61163,78.159632 C 126.19664,78.554844 125.70398,78.957269 126.00775,79.35794 C 126.06055,79.989655 126.85889,79.100575 127.2237,79.783178 C 127.68415,79.705188 128.14459,79.627199 128.60502,79.549209" />
      <path
         id="Bristol_West" onclick="javascript:respond(this.id);return true;" onmouseover="javascript:popup(this.id);return true;" onmouseout="javascript:popdown(this.id);return true;"
         style="fill:#c8c8ff;fill-opacity:0.33000004;fill-rule:evenodd;stroke:#7ffaff;stroke-width:1;stroke-opacity:1;display:inline"
         d="M 91.02375,82.824768 C 91.21942,83.266383 91.52614,83.543441 91.83355,83.884645 C 92.31765,84.476 92.91629,85.056437 92.93899,85.870063 C 92.96691,86.388693 92.99481,86.907323 93.02273,87.426148 C 93.50611,87.390663 93.44448,88.197464 93.86051,88.245037 C 94.21762,88.682168 94.59409,89.093563 95.15005,89.26553 C 95.81306,89.697982 96.74848,89.592891 97.25364,90.262625 C 97.81596,90.645359 97.74703,91.409071 97.98395,91.988338 C 98.27606,92.718124 98.21631,93.500359 98.24425,94.269725 C 98.60854,94.993858 99.14476,95.658718 99.16352,96.502564 C 99.17841,96.833435 99.65253,97.363763 99.50096,97.545284 C 99.18926,96.888027 99.0801,96.159801 98.87223,95.477783 C 98.5711,94.929516 97.79781,94.399773 98.16405,93.710346 C 98.27776,92.655343 97.77316,91.661562 97.56034,90.643214 C 97.1584,90.253462 96.78653,89.814186 96.20139,89.725863 C 95.48193,89.470642 94.73774,89.170383 94.14652,88.687433 C 93.73389,88.392048 93.49107,87.909683 93.14427,87.579982 C 92.85926,87.324177 93.01562,86.708839 92.90491,86.311093 C 92.88068,85.642138 92.63686,85.007694 92.15958,84.533323 C 91.74525,84.002799 91.33094,83.472276 90.91661,82.941752 C 90.95232,82.902757 90.98803,82.863763 91.02375,82.824768 z M 117.21117,86.997206 C 117.0326,87.40665 116.85402,87.816095 116.67546,88.22554 C 116.37633,87.763257 116.06257,87.693652 115.72851,88.167048 C 115.2591,88.643759 116.36511,88.738321 116.01517,89.004655 C 115.41029,89.679459 114.64795,90.154025 113.82854,90.524085 C 113.26468,90.920272 112.93825,91.602875 112.47097,92.115656 C 112.10936,92.622197 111.72725,93.106317 111.15094,93.377526 C 110.88035,93.656728 110.06071,93.773322 110.4599,94.250813 C 110.67371,94.803563 111.09878,95.321219 110.90591,95.941625 C 111.00847,96.593227 110.66356,96.563786 110.24257,96.207569 C 109.97516,95.901655 109.57427,95.439373 109.20982,95.900681 C 108.52925,96.369787 108.76669,97.269591 108.70674,97.974226 C 109.29163,98.034668 109.12384,98.626803 109.03482,99.023965 C 109.11688,99.722945 108.66616,99.447057 108.21309,99.411572 C 107.7303,99.582759 107.4966,99.255983 107.07161,99.453882 C 106.4784,99.506914 105.90598,99.085576 105.28756,99.149723 C 104.04161,99.044242 102.80674,99.370238 101.56585,99.461096 C 100.95462,99.42834 100.26717,99.046776 100.09909,98.422666 C 100.85943,98.49968 99.81937,98.079707 100.17307,97.896042 C 99.55142,97.295133 99.48135,96.386945 99.33652,95.590672 C 99.0575,94.971631 98.46698,94.434478 98.60278,93.706446 C 98.64486,92.673475 98.17804,91.705431 97.98348,90.702486 C 97.95959,90.136087 97.41233,89.857275 97.01875,89.545512 C 96.30404,89.235699 95.49975,89.065292 94.84091,88.66852 C 94.34235,88.087109 93.57284,87.640424 93.39094,86.866378 C 93.52602,86.33488 93.48086,85.81742 93.26724,85.313218 C 92.81975,84.824808 93.71988,84.634514 93.72954,84.425307 C 93.37795,84.33094 92.93969,84.872772 92.80719,84.198358 C 92.46693,83.668419 91.75616,83.359776 91.6414,82.707784 C 91.02907,82.580271 91.75766,82.084063 91.99016,81.852434 C 92.38056,81.648881 92.8414,81.533847 92.99855,81.06786 C 93.37251,80.369074 93.93001,79.595808 94.81365,79.630708 C 95.27837,79.425401 95.55437,80.045418 95.995,79.883979 C 96.60921,79.724296 96.52109,79.416042 96.47133,78.979106 C 96.66156,78.632638 97.21734,78.181469 96.64948,77.896807 C 96.2399,77.64997 96.01273,77.195682 96.59623,77.008897 C 96.35955,76.712342 96.53782,76.118452 97.07591,76.230172 C 97.59487,76.24148 98.08598,76.135415 98.55804,75.932837 C 99.03203,75.902421 99.58904,75.658314 99.97245,76.05918 C 100.44502,76.289054 100.32896,75.916459 100.46487,75.581884 C 100.52429,75.186478 100.93903,75.088991 101.35572,74.934182 C 101.81358,74.750321 102.27144,74.566266 102.72929,74.382406 C 102.56793,75.249454 102.16319,76.100709 102.38183,76.992324 C 102.65358,77.24462 102.57372,77.900707 102.7765,78.050252 C 103.36542,77.704953 103.95432,77.359655 104.54324,77.014551 C 104.66969,77.32027 104.63959,78.236646 105.01271,77.579975 C 105.47977,77.482293 105.85258,77.255344 106.07545,76.822697 C 106.67413,76.376987 105.99188,77.364919 106.1993,77.576075 C 106.48086,77.930148 106.97817,78.292994 106.38782,78.612166 C 106.21255,78.820983 105.50289,79.439634 105.974,79.518989 C 106.59976,79.733655 107.36604,79.65898 107.87481,80.114633 C 108.01618,80.946586 108.86695,81.256399 109.46472,81.713418 C 109.87819,81.771715 110.46976,81.538916 110.57326,82.103365 C 110.90264,81.946411 111.23838,81.274922 111.56377,81.44065 C 112.32474,82.001589 112.10951,83.046648 112.26688,83.867097 C 112.54124,84.387092 113.08775,84.783474 113.46678,85.255895 C 114.15611,86.134447 115.12658,86.795213 116.24277,86.965425 C 116.57169,87.004225 116.91013,87.227275 117.20343,86.977708" />
      <path
         id="Bristol_South" onclick="javascript:respond(this.id);return true;" onmouseover="javascript:popup(this.id);return true;" onmouseout="javascript:popdown(this.id);return true;"
         style="fill:#c8c8ff;fill-opacity:0.33000004;fill-rule:evenodd;stroke:#7ffaff;stroke-width:1;stroke-opacity:1;display:inline"
         d="M 99.50285,97.545284 C 99.74744,97.671042 99.70046,98.260837 99.83289,98.565191 C 99.89136,99.01987 100.4358,99.173314 100.71278,99.492486 C 101.00399,99.676737 101.41162,99.650025 101.74919,99.701303 C 102.88395,99.565602 104.02053,99.374917 105.15414,99.273336 C 106.06331,99.408063 106.95747,99.776758 107.88544,99.618244 C 108.57922,99.472599 109.23166,99.780853 109.89912,99.923963 C 110.48741,99.748487 110.95262,99.373552 111.39576,98.962743 C 111.68918,98.545499 112.38292,98.570066 112.61898,99.027084 C 112.59615,99.526022 112.28556,100.18698 112.84475,100.49971 C 113.09307,100.70911 113.83633,100.55255 113.66993,101.01054 C 114.19584,100.98461 114.74825,100.93411 115.28437,100.89882 C 115.33672,101.38431 114.55199,101.04447 114.676,101.6175 C 114.66007,102.07822 114.47418,102.35937 113.98312,102.31745 C 113.44618,102.28411 114.07686,102.8275 114.26715,102.96106 C 114.81381,103.34048 115.07278,104.00008 115.46089,104.52358 C 115.81848,105.20735 116.05795,105.95976 116.15531,106.72191 C 116.08554,107.78841 116.50098,108.79097 116.71345,109.82043 C 117.16242,111.3149 117.02602,112.91193 117.45864,114.4105 C 117.2229,114.36839 116.88777,113.93048 116.78717,114.55186 C 116.75719,114.9149 116.34194,115.28203 116.3518,115.54954 C 116.79282,115.70883 116.06723,116.09254 115.97008,116.24735 C 115.89157,116.55794 115.63273,116.72815 115.79859,117.02022 C 115.35732,117.05084 115.19779,117.33062 115.16428,117.57375 C 115.11679,117.89936 115.44735,117.9676 115.1542,118.35872 C 115.09357,118.71455 114.64047,118.72878 114.47942,119.14349 C 114.27229,119.66621 113.86242,119.34119 113.84888,118.96431 C 113.4529,118.62876 113.32675,119.27627 112.92415,118.79098 C 112.58822,118.51723 112.49308,119.2554 112.26639,119.44082 C 111.92021,119.21992 111.57405,118.99901 111.2279,118.77791 C 111.16946,119.08344 110.72509,119.57458 110.73499,118.99238 C 110.36126,118.95241 110.53417,119.37044 110.14755,119.38058 C 109.84906,119.64964 109.51226,119.86138 109.10225,119.92826 C 109.19546,120.57986 108.29518,119.51062 108.57034,120.12323 C 108.28267,120.38684 108.15651,119.90116 107.75101,120.05928 C 107.46622,119.96355 106.97425,119.68474 107.13169,119.33144 C 107.34151,118.89392 106.80814,119.17722 106.49366,119.03001 C 106.0003,118.86058 106.23338,119.53363 105.72146,119.58452 C 105.28119,119.62078 105.21898,119.10956 105.02699,118.82783 C 104.76074,118.32011 104.52629,118.82003 104.17306,118.52445 C 103.85321,118.67711 103.43332,118.58703 103.08782,118.52445 C 103.29569,118.09102 102.82235,117.83794 102.54545,118.07347 C 102.18448,118.07055 101.67404,117.9559 101.72639,118.31953 C 101.15542,118.40922 101.33721,117.87616 101.33141,117.4985 C 101.37065,117.09451 100.58212,117.0832 100.50953,117.3934 C 100.34489,117.38424 99.85428,117.26823 99.50678,117.43259 C 99.69082,117.87012 99.01648,117.85276 98.9632,118.25148 C 98.60899,117.99022 98.22262,118.2665 97.94828,117.88162 C 97.52208,117.70731 97.51222,117.34271 97.58082,116.94204 C 97.55615,116.58056 96.94376,116.52987 96.98081,116.06232 C 97.31098,115.94514 97.70055,115.83147 97.90956,115.4889 C 98.03053,115.23914 98.44884,114.60567 97.90356,114.66085 C 97.79165,114.46217 98.27721,114.03849 98.25629,113.6969 C 98.42856,113.4136 98.31721,112.75576 98.70206,112.75303 C 98.94101,112.23167 98.67849,112.12326 98.18184,112.2073 C 97.99915,111.963 97.60496,111.48979 98.07529,111.28527 C 98.55089,111.05637 98.06348,110.69937 97.88367,110.43869 C 97.63054,110.17567 97.23628,110.093 97.09089,109.77013 C 96.80377,109.65899 96.46082,109.14056 96.77262,108.91965 C 97.00474,108.65429 97.03673,108.40239 97.35314,108.10525 C 97.7059,107.6182 97.28409,107.00189 97.54731,106.47683 C 97.64054,105.56903 97.57548,104.64154 97.6072,103.72614 C 97.96244,103.51147 98.31768,103.297 98.67294,103.08253 C 98.27193,102.76277 98.64414,102.52471 98.45661,102.10766 C 97.927,102.16479 97.3861,102.34475 96.8871,102.06925 C 96.57848,101.92029 96.07083,101.8965 95.87761,101.67501 C 95.79115,101.22053 96.27322,101.16594 96.50932,100.99027 C 96.88211,100.74187 96.68447,100.31313 96.84083,100.03666 C 97.14625,99.816728 97.15725,99.436919 97.47885,99.188132 C 97.68792,98.661703 98.07755,99.023575 98.42865,99.196126 C 98.70654,99.411182 99.25445,99.216794 99.40823,98.98263 C 99.38224,98.563437 99.80813,98.282869 99.62481,97.90579 C 99.58935,97.779252 99.55389,97.652519 99.51843,97.525786" />
      <path
         id="Bristol_North_West" onclick="javascript:respond(this.id);return true;" onmouseover="javascript:popup(this.id);return true;" onmouseout="javascript:popdown(this.id);return true;"
         style="fill:#c8c8ff;fill-opacity:0.33000004;fill-rule:evenodd;stroke:#7ffaff;stroke-width:1;stroke-opacity:1;display:inline"
         d="M 58.85103,65.218836 C 58.40817,65.107896 59.10439,65.110431 58.85103,65.218836 z M 78.21739,70.736397 C 78.42121,70.049505 79.64694,69.82275 79.5111,68.962136 C 80.4326,68.958432 80.42968,67.591276 81.07006,67.07869 C 81.85512,65.919182 82.64017,64.759868 83.42523,63.600359 C 83.8841,63.330711 84.05293,62.061822 84.65131,61.51882 C 85.41401,60.535372 85.2628,61.616697 85.37494,60.352292 C 86.00252,59.309767 86.63009,58.267243 87.25767,57.224719 C 88.14739,58.290445 89.03713,59.356366 89.92686,60.422288 C 89.92846,61.311368 89.17219,61.77365 89.63778,62.70426 C 89.2314,63.339094 90.57442,63.939029 90.95635,64.507182 C 91.91125,65.255686 92.52324,66.383219 93.1338,67.421649 C 92.76399,68.007155 92.28285,68.523836 92.63507,69.391079 C 91.77757,70.228686 92.76255,70.763889 93.6617,70.955548 C 95.36127,71.377861 97.11476,71.131999 98.7007,70.426194 C 99.48272,69.901715 100.36313,70.234535 101.17363,69.981069 C 102.6429,70.325783 104.10733,70.784751 105.63485,70.509253 C 106.56054,70.56911 107.4759,69.771667 108.27817,69.761529 C 109.11497,69.201759 110.32395,69.066252 111.36383,69.019849 C 112.44987,69.185771 111.41345,67.608434 110.73499,68.04576 C 110.37971,67.175592 110.62331,66.054883 109.77271,65.394702 C 109.38252,64.621632 108.67455,64.1496 108.43041,63.264614 C 107.61515,62.357597 109.05991,61.937818 109.43594,61.227919 C 109.91494,60.376274 110.35723,59.497527 111.10314,58.843 C 111.50978,58.359466 112.66481,57.908686 113.35872,57.437825 C 114.03571,57.268003 115.02552,56.02602 115.49664,56.561808 C 115.79021,57.257864 115.3151,58.689166 116.22993,58.84339 C 117.15198,59.069755 117.58593,57.627339 118.39974,58.492048 C 119.04803,59.175236 119.94157,59.150474 120.75358,59.511175 C 121.36843,60.002314 122.09833,60.54902 122.85946,60.714748 C 123.47317,60.819254 123.84388,62.181145 124.36521,62.763727 C 125.35905,64.272239 126.19255,65.874143 127.05222,67.460839 C 126.56538,67.733022 126.54698,68.789585 125.97692,69.335511 C 126.42233,69.93798 127.45896,70.222642 125.78778,70.307455 C 125.53594,71.119326 124.49547,71.205504 123.86087,71.672271 C 123.43278,72.332452 122.25985,71.910724 122.04746,73.116247 C 121.43473,74.154482 121.84242,74.674282 122.80836,74.655369 C 122.84339,75.42805 122.75572,76.192737 123.0006,76.976921 C 122.82034,77.755256 122.79603,79.472585 123.31861,77.846504 C 124.77933,77.519338 123.74607,78.523843 123.08233,79.078348 C 121.41753,80.413723 119.51378,81.501091 117.98915,82.983672 C 116.96936,84.055637 117.31443,85.633364 117.20737,86.977708 C 116.35607,87.236828 115.32071,86.768696 114.57471,86.310313 C 113.72345,85.592615 112.87213,84.720692 112.26639,83.825958 C 112.12068,82.977627 112.31113,81.88441 111.45979,81.362465 C 110.73366,82.361315 110.32136,81.706009 109.34466,81.628994 C 108.41299,81.306508 108.12462,80.329104 107.44606,79.847714 C 106.6421,79.670873 105.10023,79.598928 106.33005,78.677092 C 107.02775,78.153588 105.90329,77.252419 106.19926,76.682901 C 105.8361,77.253199 104.48801,78.43435 104.57765,77.142844 C 104.1481,76.803395 102.71336,78.737534 102.63137,77.645291 C 102.19399,76.792086 102.29756,75.80123 102.61462,74.881734 C 102.97026,73.819712 101.23058,75.190962 100.64606,75.220793 C 100.39132,75.904371 100.40812,76.439379 99.5092,75.83418 C 98.55157,75.845684 97.68985,76.335848 96.71676,76.254154 C 96.46648,76.98745 95.90462,77.527332 96.91938,78.145204 C 96.30757,78.798171 96.87703,79.857073 95.78865,79.900552 C 94.91765,79.272542 93.60049,79.779668 93.19944,80.778129 C 92.88668,81.563483 91.76596,82.082503 91.28145,82.328365 C 90.86196,81.305143 89.10457,81.047193 88.88053,82.328755 C 88.61487,83.380248 87.53934,83.955616 86.64395,84.423552 C 85.07145,84.583626 84.09053,82.986596 83.20451,81.926329 C 82.54186,80.846955 81.52733,80.002718 80.8732,78.954735 C 80.43406,78.378587 79.46354,78.015351 78.75324,77.579 C 77.79137,77.368233 77.34113,76.587754 77.46524,75.636282 C 77.46651,74.736673 76.53279,74.094235 75.83023,73.698438 C 74.197,73.144518 77.61641,74.109248 75.86974,73.121706 C 74.48183,72.025369 76.40257,73.738213 76.47004,72.45704 C 77.10934,71.939775 77.32555,70.809318 78.2193,70.736397" />
      <path
         id="Bristol_East" onclick="javascript:respond(this.id);return true;" onmouseover="javascript:popup(this.id);return true;" onmouseout="javascript:popdown(this.id);return true;"
         style="fill:#c8c8ff;fill-opacity:0.33000004;fill-rule:evenodd;stroke:#7ffaff;stroke-width:1;stroke-opacity:1;display:inline"
         d="M 117.21117,86.997206 C 117.30278,85.867918 117.07956,84.684232 117.55343,83.620651 C 118.1118,82.489413 119.31429,81.930813 120.25619,81.159497 C 120.69146,81.069615 120.8818,81.892989 120.92448,82.304578 C 120.92832,82.668399 120.01861,83.272623 120.81078,83.389802 C 121.45285,83.618896 122.15978,83.745434 122.76322,84.03575 C 123.10926,84.344783 123.69089,84.264454 123.9417,84.748769 C 124.02947,85.107325 124.548,85.721103 123.99405,85.912567 C 123.17077,86.205612 123.99292,86.400976 123.40268,86.81393 C 122.76706,87.473916 122.20264,88.209357 121.45661,88.751969 C 121.47192,89.376665 122.59954,88.883186 122.23053,89.606929 C 122.11324,90.150321 121.95322,90.442781 122.20407,91.013859 C 122.50588,91.136108 123.15242,90.829609 123.60326,90.907014 C 124.13842,90.925731 124.65167,90.799388 125.15687,90.666416 C 126.62229,90.71321 128.093,90.906429 129.54655,90.624887 C 130.26605,90.369861 129.38992,91.503048 130.24084,91.405561 C 130.19267,91.745791 130.22671,92.49293 129.88162,92.705841 C 129.77449,92.983679 129.29882,93.148042 129.19926,93.684804 C 128.66815,93.597456 128.30032,94.100488 128.23897,94.564136 C 128.07724,95.014135 128.54499,95.532765 128.32343,96.021759 C 128.0886,96.450116 128.3199,96.97713 127.84223,97.340561 C 127.59349,97.880834 127.06226,98.095305 126.56121,98.344676 C 126.13041,98.189867 125.74844,98.662678 125.27728,98.656634 C 125.03282,99.148943 124.76845,99.603621 124.14994,99.385836 C 123.82689,99.115407 123.45363,98.883973 123.00458,99.306286 C 122.46902,99.593678 123.12335,100.40145 123.5836,100.12303 C 124.22172,100.06473 124.8956,99.582954 125.49549,99.977776 C 126.35239,100.3026 126.18386,101.34609 126.11432,102.07958 C 126.12139,102.82926 125.79526,103.64074 126.27535,104.30248 C 126.60888,105.0853 127.21803,105.81177 128.10257,105.94104 C 128.89795,106.12061 129.5159,106.73361 130.35072,106.78703 C 130.44664,107.23391 129.51799,106.55852 129.18075,106.53103 C 128.24513,106.11105 127.02953,105.97301 126.54128,104.9457 C 126.52842,104.09776 125.47866,104.79147 126.00114,104.82267 C 126.64532,105.00263 126.23527,105.5041 125.89885,105.81216 C 126.21035,106.15551 126.96792,106.26508 126.86795,106.82407 C 126.76814,107.36454 127.03389,107.79738 127.042,108.30997 C 126.58506,108.3593 125.9921,108.10525 125.61459,108.53731 C 125.25191,108.81671 124.71008,109.17331 124.84668,109.69214 C 125.3709,109.99123 125.4847,110.43499 124.85254,110.68553 C 124.46196,110.94874 124.12664,111.33577 123.968,111.77816 C 124.66093,112.06204 123.68935,112.16947 123.99795,112.78832 C 123.9267,113.20673 123.94289,113.58498 123.53816,113.9217 C 123.19035,114.25589 123.72364,114.67352 122.84187,114.66397 C 122.51227,115.01609 121.80316,115.22296 121.83844,115.77532 C 121.45897,116.44622 121.14036,115.47545 120.7021,115.4308 C 120.15733,115.41481 120.04653,115.21867 119.48112,115.29198 C 118.97828,115.3844 118.70025,114.91392 118.18816,115.32181 C 117.95247,115.45225 118.50801,114.12136 117.84439,114.391 C 117.2026,114.56395 117.36325,113.67818 117.20862,113.27185 C 117.06582,111.82612 116.92059,110.38078 116.49925,108.98438 C 116.27985,108.18051 116.08289,107.3737 116.13961,106.53356 C 115.92823,105.42943 115.4732,104.39587 114.77753,103.51108 C 114.52896,103.02014 113.92937,102.86162 113.71002,102.34163 C 114.25941,102.32369 114.72319,102.21509 114.67357,101.56232 C 114.56144,101.12343 115.82741,100.9852 114.94593,100.91871 C 114.57664,100.82025 113.61109,101.26576 113.69697,100.7522 C 114.18152,100.93489 114.64475,100.77034 115.07637,100.49659 C 115.82252,100.01638 116.90127,100.30787 117.50098,99.583539 C 118.21271,99.295368 117.58478,98.747687 117.6835,98.27897 C 118.04073,97.957068 118.48179,97.690149 118.87112,97.3895 C 118.32353,97.376047 117.9859,97.901111 117.54045,98.149702 C 117.22253,98.601651 117.99334,99.155572 117.44545,99.442183 C 116.79247,100.26556 115.62094,99.877754 114.83078,100.45097 C 114.32422,100.86119 113.6844,100.58726 113.12627,100.44395 C 112.40899,100.30065 112.73578,99.458561 112.74371,98.949095 C 112.50122,98.420521 111.94083,98.490906 111.49678,98.671452 C 110.88027,99.205095 110.15639,100.04465 109.25116,99.638522 C 108.64151,99.571256 109.2001,98.756461 109.14502,98.334342 C 108.83116,97.977151 108.56759,97.755271 108.71911,97.150462 C 108.62633,96.518357 109.02399,95.707267 109.71408,95.692839 C 110.00813,95.988809 110.52938,96.554232 110.85575,96.449337 C 110.90938,95.868315 111.06761,95.270135 110.69111,94.759499 C 110.4827,94.296437 110.07051,93.772347 110.79289,93.587317 C 111.40798,93.222716 112.00849,92.842323 112.37971,92.210413 C 112.9857,91.56544 113.34444,90.622157 114.21902,90.301425 C 114.97726,89.981473 115.60464,89.441006 116.16685,88.849651 C 115.71213,88.772831 115.39903,88.311718 115.91039,88.001905 C 116.25875,87.26198 116.69739,88.772051 116.83594,87.847096 C 116.96038,87.55717 117.08482,87.267439 117.20926,86.977708" />
      <path
         id="Bath" onclick="javascript:respond(this.id);return true;" onmouseover="javascript:popup(this.id);return true;" onmouseout="javascript:popdown(this.id);return true;"
         style="fill:#c8c8ff;fill-opacity:0.33000004;fill-rule:evenodd;stroke:#7ffaff;stroke-width:1;stroke-opacity:1;display:inline"
         d="M 166.03624,105.46121 C 166.49055,104.84665 167.36118,104.81507 167.89323,104.24789 C 168.51168,103.59434 169.38446,103.63177 170.21353,103.55047 C 170.30434,104.39139 171.42065,104.41576 171.80586,103.7585 C 172.49194,103.44109 172.77926,102.85129 173.60615,103.12094 C 174.35908,103.28355 175.0015,102.38491 175.60447,102.88171 C 176.30468,103.56762 177.36488,103.6887 178.23571,103.47618 C 178.78071,104.00456 180.02411,103.34574 180.04658,104.27148 C 180.2216,104.8369 180.55568,105.4733 181.07625,105.73866 C 181.72658,106.18924 181.9648,106.91142 182.75693,107.16898 C 182.84617,107.71569 183.19878,108.41213 182.98144,109.12028 C 182.56025,110.10568 183.83118,110.15169 184.20725,109.46675 C 184.61743,108.71005 185.65811,109.16317 186.20921,108.54179 C 186.31168,107.92763 186.88563,107.04556 187.67379,107.31346 C 188.47177,107.30722 187.29013,108.82782 188.63408,108.55447 C 189.39823,108.73092 189.88635,109.56287 190.57518,109.63365 C 191.30713,110.19712 191.65605,111.26207 191.8615,112.15622 C 192.63121,112.66646 191.89813,113.56763 191.97314,113.85561 C 191.49249,114.17478 190.93784,114.33076 191.37807,114.94024 C 191.39073,115.47018 190.60421,115.74022 190.36928,116.29219 C 189.88011,116.38968 188.84871,117.00814 189.23097,117.50337 C 189.74915,118.07971 190.06402,118.74028 190.19755,119.49503 C 190.13205,120.26147 191.42907,120.72063 191.1966,120.95401 C 190.47636,120.9505 189.82028,121.45451 189.07251,121.39563 C 188.63094,121.72962 187.26733,121.26831 187.46062,122.1726 C 187.72678,123.47113 187.69957,124.82736 187.20491,126.06993 C 187.74461,126.94829 188.37378,127.78804 188.51418,128.83836 C 188.92304,129.28388 188.93823,130.1441 189.05568,130.81481 C 189.18298,131.49078 188.67731,132.07337 188.57187,132.75109 C 188.07205,133.57817 187.90412,134.3879 187.25377,135.13952 C 186.7498,135.88725 186.01495,135.87613 185.3974,135.26002 C 184.83151,134.59243 184.17754,134.42475 183.90915,135.40722 C 183.43141,136.12278 183.72638,136.95648 183.7505,137.74886 C 183.19819,137.98127 182.6216,137.89957 181.89484,138.04522 C 181.21442,138.60616 180.55601,137.44899 180.20961,138.3987 C 179.94618,139.21233 179.15687,139.06824 178.62011,139.41861 C 178.11058,140.05579 177.54341,140.26051 176.85076,140.24257 C 176.32484,140.34688 176.1862,140.91153 175.67671,141.34729 C 175.29876,141.537 174.85939,142.01079 174.72893,142.55593 C 174.66146,143.02602 175.10246,143.95351 174.25823,143.61757 C 173.74884,143.52866 172.58102,143.79675 173.02685,144.61193 C 172.66811,145.37759 171.70082,145.05842 171.54028,144.26098 C 170.84393,144.43841 170.45372,145.13544 169.67431,145.07265 C 169.24844,145.07363 167.99848,144.68856 168.53204,144.1245 C 168.41115,143.35884 167.0329,143.40407 167.45123,142.39781 C 167.39483,141.5641 166.48591,141.37088 165.80261,141.61324 C 164.81308,142.03652 164.88721,141.15992 164.59907,140.53796 C 164.0263,139.92301 164.67952,139.16729 164.25165,138.68473 C 164.29494,137.627 163.75017,137.87832 163.63876,136.94732 C 163.44385,136.21051 162.41927,135.71684 162.63058,134.92193 C 162.19476,134.94767 162.19143,135.25651 161.47873,135.77787 C 161.19168,135.08473 160.50603,134.77765 159.91309,134.80085 C 159.11272,134.00146 159.33573,134.14496 159.93955,133.5462 C 160.43199,132.71093 159.02703,133.45982 158.46214,133.01743 C 157.43613,133.06676 157.42919,132.59765 157.51825,131.76297 C 158.02951,130.9821 157.84867,130.27103 156.82541,130.342 C 156.19124,130.00235 155.6719,129.20589 156.46666,128.68297 C 156.34787,127.88221 157.39176,127.63342 157.41462,127.01614 C 156.88113,126.51603 157.02889,125.8886 157.41099,125.36802 C 157.66356,124.61933 158.78729,124.96794 157.91164,124.16153 C 157.45625,123.59766 157.56729,122.54714 156.59907,122.54208 C 155.83529,122.23714 155.07053,122.42607 154.28979,122.34593 C 153.85004,122.91389 152.60732,122.61188 152.61848,123.39567 C 152.38125,124.40193 151.79679,123.06538 151.11447,123.25646 C 149.97698,122.37791 148.62291,121.72338 147.62739,120.69821 C 147.41871,119.97856 147.03156,119.45311 146.47913,118.93428 C 145.77259,118.26494 146.77173,117.63517 146.79057,117.0288 C 146.72423,116.28966 147.68697,115.91472 148.16322,115.47252 C 148.89727,115.03091 149.61005,114.27987 149.64111,113.39664 C 149.18574,112.71053 148.41972,112.33949 148.06107,111.56389 C 146.81646,111.16165 148.9311,111.87584 148.70996,111.08815 C 148.155,110.84931 147.65134,109.43633 148.66535,109.77403 C 149.38215,109.68005 150.1097,109.35873 150.87968,109.3755 C 151.58211,109.35893 152.18239,108.8674 152.90335,109.18365 C 154.06371,109.60966 154.91852,108.44723 155.96532,108.21034 C 156.9057,108.83854 157.65138,107.59227 158.38344,107.14851 C 159.18403,106.82134 158.85207,105.69908 159.83582,105.85388 C 160.67171,106.14206 160.84325,105.75874 161.81078,105.81898 C 162.75206,105.79968 163.76026,106.02975 164.51709,105.32336 C 165.17482,104.73279 165.38953,105.0502 166.04409,105.44152" />
    </g>
  </g>
</svg>
