<?xml version="1.0" encoding="UTF-8" standalone="no"?>
<!-- Created with Inkscape (http://www.inkscape.org/) -->
<svg
   xmlns:dc="http://purl.org/dc/elements/1.1/"
   xmlns:cc="http://creativecommons.org/ns#"
   xmlns:rdf="http://www.w3.org/1999/02/22-rdf-syntax-ns#"
   xmlns:svg="http://www.w3.org/2000/svg"
   xmlns="http://www.w3.org/2000/svg"
   xmlns:xlink="http://www.w3.org/1999/xlink"
   xmlns:sodipodi="http://sodipodi.sourceforge.net/DTD/sodipodi-0.dtd"
   xmlns:inkscape="http://www.inkscape.org/namespaces/inkscape"
   width="640px"
   height="480px"
   id="svg12462"
   sodipodi:version="0.32"
   inkscape:version="0.46"
   sodipodi:docname="dorset_edit.svg"
   inkscape:output_extension="org.inkscape.output.svg.inkscape">
  <defs
     id="defs4563">
    <inkscape:perspective
       sodipodi:type="inkscape:persp3d"
       inkscape:vp_x="0 : 240 : 1"
       inkscape:vp_y="0 : 1000 : 0"
       inkscape:vp_z="640 : 240 : 1"
       inkscape:persp3d-origin="320 : 160 : 1"
       id="perspective4565" />
  </defs>
  <sodipodi:namedview
     id="base"
     pagecolor="#ffffff"
     bordercolor="#666666"
     borderopacity="1.0"
     inkscape:pageopacity="0.0"
     inkscape:pageshadow="2"
     inkscape:zoom="1"
     inkscape:cx="372.83238"
     inkscape:cy="201.76757"
     inkscape:current-layer="layer1"
     inkscape:document-units="px"
     showgrid="false"
     inkscape:window-width="1213"
     inkscape:window-height="951"
     inkscape:window-x="195"
     inkscape:window-y="41" />
  <metadata
     id="metadata12467">
    <rdf:RDF>
      <cc:Work
         rdf:about="">
        <dc:format>image/svg+xml</dc:format>
        <dc:type
           rdf:resource="http://purl.org/dc/dcmitype/StillImage" />
      </cc:Work>
    </rdf:RDF>
  </metadata>
  <g
     id="layer1"
     inkscape:label="Backdrop"
     inkscape:groupmode="layer"
     style="opacity:1">
    <image
       y="0.23242569"
       x="0.83238602"
       id="image13425"
       height="480"
       width="640"
       sodipodi:absref="/Users/httpd/Desktop/UKParseParl/Maps/Dorset.jpg"
       xlink:href="/img/maps/dorset.jpg" />
  </g>
  <g
     inkscape:groupmode="layer"
     id="layer61"
     inkscape:label="Map"
     style="opacity:1;display:inline">
    <g
       style="display:inline"
       id="g5638"
       transform="matrix(2.535519,0,0,2.535519,-790.44541,-538.76055)">
      <path
         id="West_Dorset" onclick="javascript:respond(this.id);return true;" onmouseover="javascript:popup(this.id);return true;" onmouseout="javascript:popdown(this.id);return true;"
         style="fill:#c8c8ff;fill-opacity:0.33000004;stroke:#7ffaff;stroke-width:0.99999982;stroke-opacity:1"
         d="M 415.72222,289.86908 L 415.72222,289.86908 L 411.34242,291.78549 L 407.74874,288.0654 L 411.00551,283.78167 L 415.94682,286.03626 L 419.76511,284.00712 L 418.86669,277.01787 L 413.70077,276.22876 L 412.91466,273.86143 L 415.60992,272.6214 L 416.50834,267.88674 L 417.96827,267.43582 L 415.94682,264.7303 L 413.02696,265.63214 L 413.47617,267.88674 L 411.11782,270.02861 L 406.28881,264.27938 L 404.49197,259.09381 L 403.14434,258.98108 L 400.78599,259.54473 L 399.43836,257.74105 L 396.8554,258.41743 L 397.75382,261.23568 L 396.06928,262.58843 L 393.26172,260.78476 L 391.46488,263.26481 L 390.00495,262.13751 L 388.76962,263.26481 L 389.55574,270.14134 L 386.74817,271.94502 L 388.54501,275.55238 L 385.40054,280.17431 L 387.64659,284.34531 L 386.29896,286.82537 L 379.67312,285.24715 L 371.36273,289.07997 L 371.25043,290.88365 L 364.62458,290.09454 L 359.12176,293.47644 L 356.20189,290.88365 L 353.39433,294.49101 L 344.52243,293.81463 L 335.87514,297.42199 L 333.62909,300.4657 L 332.84297,302.38211 L 343.39941,305.08763 L 344.29783,307.56768 L 342.61329,309.70955 L 336.99817,310.83685 L 333.74139,314.10602 L 333.966,315.68424 L 336.66126,317.48792 L 333.8537,323.8008 L 334.63981,326.28086 L 340.47954,322.56077 L 363.61386,328.42273 L 384.38982,341.27394 L 386.86048,342.73943 L 394.83395,346.45952 L 395.17086,348.48866 L 397.19231,348.48866 L 396.63079,349.95415 L 401.4598,351.75782 L 406.0642,358.29616 L 407.41183,350.5178 L 405.8396,340.03391 L 404.60427,339.69572 L 405.16578,336.76474 L 409.99479,338.56842 L 409.43328,343.30308 L 412.57775,344.54311 L 414.7115,344.8813 L 415.27301,342.17578 L 417.51906,340.82302 L 424.0326,339.2448 L 426.72786,333.04465 L 427.06477,327.85908 L 431.33227,327.1827 L 429.19852,327.1827 L 430.09694,323.01169 L 430.88306,323.91353 L 432.45529,322.22258 L 435.48746,324.36445 L 437.95811,319.62979 L 441.55179,318.05157 L 438.63193,315.79697 L 434.70134,316.02243 L 436.49818,313.54237 L 434.47674,311.96415 L 435.71206,309.82228 L 432.9045,307.11676 L 435.03825,305.98947 L 433.91522,303.73487 L 430.43385,304.07306 L 431.89378,302.04392 L 427.28938,300.24024 L 426.16635,295.50558 L 423.35879,295.28012 L 420.21432,297.87291 L 420.77583,291.56003 L 416.62064,292.80006 L 415.72222,289.86908 z" />
      <path
         id="South_Dorset" onclick="javascript:respond(this.id);return true;" onmouseover="javascript:popup(this.id);return true;" onmouseout="javascript:popdown(this.id);return true;"
         style="fill:#c8c8ff;fill-opacity:0.33000004;stroke:#7ffaff;stroke-width:0.99999982;stroke-opacity:1"
         d="M 480.85767,335.97563 L 480.85767,335.97563 L 480.85767,335.97563 L 480.74537,335.8629 L 480.63306,335.75017 L 480.40846,335.8629 L 480.63306,335.97563 L 480.74537,335.97563 L 480.74537,335.8629 L 480.74537,335.97563 L 480.85767,335.97563 z M 479.39774,335.52471 L 479.39774,335.52471 L 480.40846,334.7356 L 478.83622,333.27011 L 479.39774,335.52471 z M 489.16805,334.05922 L 489.16805,334.05922 L 486.24819,332.481 L 484.11444,333.6083 L 487.37121,335.18652 L 489.16805,334.05922 z M 410.3317,363.25628 L 410.3317,363.25628 L 403.93046,356.83067 L 412.12854,366.07453 L 410.66861,377.57298 L 415.0484,372.04922 L 417.29445,368.78005 L 415.27301,364.49631 L 416.28373,363.81993 L 410.3317,363.25628 z M 404.60427,339.69572 L 404.60427,339.69572 L 405.8396,340.03391 L 407.29953,350.5178 L 406.0642,358.40889 L 408.53486,360.21257 L 411.90393,355.92883 L 414.7115,357.16886 L 411.79163,355.25245 L 413.36387,353.78696 L 411.56703,352.99785 L 413.13926,349.95415 L 415.72222,347.58682 L 418.19287,348.03774 L 429.42312,348.37593 L 431.66917,350.06688 L 445.37008,352.4342 L 451.32211,350.74326 L 453.00665,352.77239 L 457.61105,352.54693 L 459.40789,354.35061 L 461.20473,353.33604 L 464.3492,356.60521 L 472.32268,358.0707 L 473.67031,362.24171 L 478.16241,359.08527 L 489.84187,357.84524 L 490.96489,354.57607 L 489.05575,354.12515 L 489.05575,351.98328 L 494.10936,346.0086 L 490.17878,345.10676 L 491.3018,338.1175 L 490.06647,336.65201 L 486.24819,340.3721 L 484.56365,339.2448 L 485.68668,337.44112 L 482.99142,339.92118 L 482.54221,337.55385 L 481.64379,337.21566 L 480.52076,335.97563 L 478.83622,336.20109 L 478.16241,337.21566 L 478.38701,335.52471 L 474.90564,338.1175 L 474.11952,337.21566 L 478.49932,334.84833 L 477.15169,331.24097 L 479.51004,331.3537 L 478.16241,329.88821 L 473.78261,331.80462 L 471.98577,335.07379 L 469.51512,334.96106 L 468.16749,334.51014 L 466.93216,336.65201 L 465.13532,335.63744 L 463.33848,336.76474 L 455.4773,331.12824 L 452.22053,331.69189 L 445.25778,327.29543 L 446.83001,321.20801 L 441.55179,316.69881 L 441.55179,318.05157 L 437.95811,319.62979 L 435.48746,324.36445 L 432.45529,322.22258 L 430.88306,323.91353 L 430.09694,323.01169 L 429.19852,327.1827 L 431.33227,327.1827 L 427.06477,327.85908 L 426.72786,333.04465 L 424.0326,339.2448 L 417.51906,340.82302 L 415.27301,342.17578 L 414.7115,344.8813 L 412.57775,344.54311 L 409.43328,343.30308 L 409.99479,338.56842 L 405.16578,336.76474 L 404.60427,339.69572 z" />
      <path
         id="Poole" onclick="javascript:respond(this.id);return true;" onmouseover="javascript:popup(this.id);return true;" onmouseout="javascript:popdown(this.id);return true;"
         style="fill:#c8c8ff;fill-opacity:0.33000004;stroke:#7ffaff;stroke-width:0.99999982;stroke-opacity:1"
         d="M 484.33905,329.77548 L 484.33905,329.77548 L 480.52076,325.26629 L 480.63306,323.57534 L 478.72392,322.78623 L 478.38701,324.58991 L 476.14096,327.1827 L 484.33905,329.77548 z M 484.78826,326.95724 L 484.78826,326.95724 L 483.55293,328.64819 L 488.71884,327.97181 L 490.40338,329.55002 L 489.72957,330.67732 L 492.64943,332.14281 L 490.51569,336.08836 L 497.70304,329.43729 L 496.91693,325.94267 L 499.27528,321.43347 L 496.69232,320.4189 L 494.67088,323.23715 L 489.95417,319.06614 L 488.38194,322.10985 L 482.87911,322.56077 L 484.78826,326.95724 z" />
      <path
         id="North_Dorset" onclick="javascript:respond(this.id);return true;" onmouseover="javascript:popup(this.id);return true;" onmouseout="javascript:popdown(this.id);return true;"
         style="fill:#c8c8ff;fill-opacity:0.33000004;stroke:#7ffaff;stroke-width:0.99999982;stroke-opacity:1"
         d="M 417.96827,267.43582 L 417.96827,267.43582 L 416.50834,267.88674 L 415.49761,272.50867 L 412.91466,273.86143 L 413.58847,276.22876 L 418.75439,276.90514 L 419.76511,283.8944 L 415.94682,286.03626 L 411.00551,283.66894 L 407.74874,288.0654 L 411.34242,291.67276 L 415.72222,289.86908 L 416.62064,292.80006 L 420.77583,291.56003 L 420.21432,297.87291 L 423.24649,295.28012 L 426.05405,295.50558 L 427.28938,300.12751 L 431.89378,302.04392 L 430.43385,304.07306 L 433.91522,303.62214 L 435.03825,305.98947 L 432.9045,307.11676 L 435.71206,309.82228 L 434.47674,311.96415 L 436.49818,313.54237 L 434.70134,316.02243 L 438.63193,315.79697 L 441.55179,318.05157 L 440.54107,315.57151 L 442.11331,312.5278 L 446.1562,311.73869 L 451.65902,315.45878 L 457.16184,313.42964 L 458.84638,315.23332 L 461.31703,313.54237 L 462.10315,311.06231 L 465.58453,308.80771 L 466.59525,310.61139 L 471.53656,310.38593 L 468.50439,312.18961 L 468.6167,313.54237 L 470.97505,314.33148 L 472.32268,312.30234 L 472.54728,316.58608 L 473.67031,317.82611 L 474.34412,316.47335 L 474.56873,310.49866 L 477.8255,308.58225 L 481.41918,309.37136 L 488.83115,309.70955 L 492.20022,307.79314 L 492.08792,311.4005 L 494.89548,311.85142 L 494.44627,313.54237 L 498.82607,311.96415 L 498.93837,308.69498 L 496.58002,308.35679 L 495.45699,305.76401 L 497.59074,301.93119 L 497.81535,297.19653 L 500.73521,290.77092 L 498.93837,290.20727 L 499.83679,288.51632 L 498.48916,287.83994 L 498.60146,285.47261 L 501.07212,284.57077 L 500.95982,282.99256 L 505.78882,284.90896 L 506.79955,283.21802 L 509.49481,283.55621 L 510.73013,281.52707 L 511.62855,275.77784 L 506.79955,274.65054 L 501.85824,278.2579 L 494.55857,267.32309 L 489.16805,263.15208 L 488.94345,260.33384 L 487.59582,259.77019 L 483.32832,263.71573 L 476.59017,264.7303 L 473.2211,266.75944 L 471.87347,269.69042 L 466.37065,271.26864 L 463.56309,267.32309 L 463.67539,263.26481 L 455.58961,257.51559 L 453.00665,251.5409 L 452.44514,248.60992 L 444.47166,239.92971 L 440.76568,240.83155 L 431.66917,238.12604 L 428.1878,240.83155 L 431.21996,247.59535 L 423.6957,254.81007 L 423.808,259.88292 L 427.28938,259.99565 L 428.86161,262.92662 L 417.96827,267.43582 z" />
      <path
         id="Mid_Dorset_and_North_Poole" onclick="javascript:respond(this.id);return true;" onmouseover="javascript:popup(this.id);return true;" onmouseout="javascript:popdown(this.id);return true;"
         style="fill:#c8c8ff;fill-opacity:0.33000004;stroke:#7ffaff;stroke-width:0.99999982;stroke-opacity:1"
         d="M 441.55179,318.05157 L 441.55179,318.05157 L 441.55179,316.69881 L 446.83001,321.20801 L 445.25778,327.29543 L 452.22053,331.69189 L 455.4773,331.12824 L 463.33848,336.76474 L 465.13532,335.63744 L 466.81986,336.65201 L 468.16749,334.51014 L 469.51512,334.96106 L 470.97505,330.56459 L 473.3334,330.33913 L 471.08735,329.77548 L 472.43498,327.74635 L 475.80406,328.31 L 475.69175,325.26629 L 474.79334,326.16813 L 474.00722,324.70264 L 478.38701,324.58991 L 478.72392,322.78623 L 480.63306,323.57534 L 482.87911,322.56077 L 488.38194,322.10985 L 489.95417,319.06614 L 494.67088,323.23715 L 496.69232,320.4189 L 491.97562,318.05157 L 494.44627,313.54237 L 494.89548,311.85142 L 492.08792,311.4005 L 492.20022,307.79314 L 488.83115,309.82228 L 481.41918,309.37136 L 477.8255,308.58225 L 474.68103,310.49866 L 474.34412,316.47335 L 473.67031,317.82611 L 472.54728,316.69881 L 472.32268,312.30234 L 470.97505,314.33148 L 468.6167,313.54237 L 468.50439,312.18961 L 471.53656,310.49866 L 466.59525,310.61139 L 465.58453,308.80771 L 462.10315,311.17504 L 461.31703,313.54237 L 458.84638,315.23332 L 457.16184,313.42964 L 451.65902,315.45878 L 446.1562,311.73869 L 442.11331,312.5278 L 440.54107,315.57151 L 441.55179,318.05157 z" />
      <path
         id="Christchurch" onclick="javascript:respond(this.id);return true;" onmouseover="javascript:popup(this.id);return true;" onmouseout="javascript:popdown(this.id);return true;"
         style="fill:#c8c8ff;fill-opacity:0.33000004;stroke:#7ffaff;stroke-width:0.99999982;stroke-opacity:1"
         d="M 505.78882,285.02169 L 505.78882,285.02169 L 500.95982,282.99256 L 501.07212,284.57077 L 498.60146,285.47261 L 498.48916,287.95267 L 499.83679,288.51632 L 498.93837,290.32 L 500.73521,290.88365 L 497.81535,297.30926 L 497.59074,301.93119 L 495.45699,305.76401 L 496.58002,308.35679 L 498.93837,308.80771 L 498.82607,312.07688 L 502.08284,316.13516 L 505.45192,313.6551 L 506.79955,316.58608 L 510.73013,317.71338 L 510.95474,321.09528 L 514.43612,322.78623 L 514.32381,324.13899 L 518.1421,324.25172 L 519.04052,325.94267 L 520.16354,324.25172 L 522.40959,325.94267 L 522.40959,326.39359 L 522.6342,326.39359 L 522.8588,325.60448 L 527.46321,322.6735 L 530.15847,322.56077 L 531.843,318.95341 L 522.07269,319.96798 L 522.8588,316.02243 L 521.39887,312.18961 L 515.67144,315.79697 L 515.33454,312.30234 L 512.52697,308.92044 L 512.97618,307.90587 L 511.51625,304.9749 L 512.86388,303.73487 L 512.75158,299.67659 L 514.77302,298.09837 L 512.97618,296.52015 L 512.07776,291.22184 L 508.70869,293.47644 L 505.45192,292.68733 L 505.00271,290.77092 L 506.46264,285.69807 L 505.78882,285.02169 z" />
      <path
         id="Bournemouth_West" onclick="javascript:respond(this.id);return true;" onmouseover="javascript:popup(this.id);return true;" onmouseout="javascript:popdown(this.id);return true;"
         style="fill:#c8c8ff;fill-opacity:0.33000004;stroke:#7ffaff;stroke-width:0.99999982;stroke-opacity:1"
         d="M 494.44627,313.54237 L 494.44627,313.54237 L 491.97562,318.05157 L 496.69232,320.4189 L 499.27528,321.43347 L 496.91693,325.94267 L 497.70304,329.43729 L 506.57494,326.95724 L 505.56422,323.68807 L 501.18442,321.32074 L 502.08284,316.13516 L 498.82607,312.07688 L 494.44627,313.54237 z" />
      <path
         id="Bournemouth_East" onclick="javascript:respond(this.id);return true;" onmouseover="javascript:popup(this.id);return true;" onmouseout="javascript:popdown(this.id);return true;"
         style="fill:#c8c8ff;fill-opacity:0.33000004;stroke:#7ffaff;stroke-width:0.99999982;stroke-opacity:1"
         d="M 514.43612,322.78623 L 514.43612,322.78623 L 510.95474,321.09528 L 510.73013,317.71338 L 506.79955,316.58608 L 505.45192,313.6551 L 502.08284,316.13516 L 501.18442,321.32074 L 505.56422,323.68807 L 506.68724,326.95724 L 508.59639,326.61905 L 521.39887,328.98638 L 522.6342,326.39359 L 522.40959,326.39359 L 521.84808,327.85908 L 519.15282,327.1827 L 518.1421,324.25172 L 514.32381,324.13899 L 514.43612,322.78623 z" />
    </g>
  </g>
</svg>
