<?xml version="1.0" encoding="UTF-8" standalone="no"?>
<!-- Created with Inkscape (http://www.inkscape.org/) -->
<svg
   xmlns:svg="http://www.w3.org/2000/svg"
   xmlns="http://www.w3.org/2000/svg"
   xmlns:xlink="http://www.w3.org/1999/xlink"
   version="1.0"
   width="640"
   height="480"
   id="svg12462">
  <defs
     id="defs5504" />
  <g
     id="layer1"
     style="opacity:1">
    <g
       transform="matrix(1.3970623,0,0,1.3970623,2817.0736,5225.4225)"
       id="g5764"
       style="display:inline" />
    <image
       xlink:href="/img/maps/somerset.jpg"
       x="0.83238602"
       y="0.23242569"
       width="640"
       height="480"
       id="image12979" />
  </g>
  <g
     id="layer61"
     style="opacity:1;display:inline">
    <g
       id="g4310">
      <path
         d="M 297.09114,318.98593 L 297.09114,318.98593 L 296.23744,334.72377 L 302.64027,340.59923 L 301.3597,345.42549 L 308.8297,342.90741 L 312.67138,345.63532 L 320.14135,343.74678 L 320.99508,353.60914 L 325.05021,358.64525 L 329.31877,352.76979 L 345.75271,346.26484 L 362.61355,347.52385 L 367.94923,340.59923 L 373.49838,345.63532 L 383.95632,339.34019 L 396.5486,340.80905 L 396.762,337.45162 L 412.55569,330.31717 L 425.14792,333.25488 L 427.70908,328.63846 L 423.4405,320.87444 L 429.41647,312.2711 L 426.00164,305.34645 L 431.33734,302.19889 L 429.84332,289.39878 L 432.19104,287.09057 L 434.9656,289.18893 L 438.38047,284.78234 L 443.71617,288.13974 L 446.91758,285.62171 L 445.21017,280.37577 L 450.119,279.11673 L 452.46671,282.47413 L 457.16212,281.42496 L 458.86956,279.32655 L 453.10699,270.72321 L 432.40449,275.33966 L 431.55077,281.21511 L 425.57479,276.179 L 419.38539,278.27736 L 421.09278,288.55941 L 419.17194,290.23813 L 408.0737,283.31348 L 401.88428,287.92992 L 403.59169,284.57252 L 398.68284,279.95607 L 400.17686,275.96918 L 391.42631,275.12981 L 390.57259,278.48721 L 394.20088,281.00527 L 392.70686,284.99219 L 395.69487,287.09057 L 377.34007,302.19889 L 372.85808,291.70699 L 361.5464,296.53328 L 356.42412,292.96603 L 353.22268,303.87761 L 343.83187,299.26114 L 333.80075,305.34645 L 324.83679,292.54636 L 318.64736,293.59553 L 310.75054,296.95296 L 309.46997,301.56937 L 303.06712,306.39564 L 295.59714,308.07435 L 287.48687,304.71693 L 285.56603,309.33339 L 291.11516,316.25802 L 297.09114,318.98593 z"
         id="Yeovil"
         style="opacity:1;fill:#c8c8ff;fill-opacity:0.33000004;stroke:#7ffaff;stroke-width:2.43966746;stroke-opacity:1" />
      <path
         d="M 315.23252,173.98798 L 315.23252,173.98798 L 325.05021,179.86344 L 329.74562,177.34539 L 336.57532,180.28312 L 343.61844,187.83729 L 354.7167,186.3684 L 362.18667,190.1455 L 360.47925,198.53901 L 376.91322,207.9817 L 373.71178,219.31295 L 376.69979,226.44744 L 365.60151,222.8802 L 366.66868,228.54583 L 374.13865,228.54583 L 375.20577,232.95242 L 388.01145,234.42127 L 391.85316,229.38515 L 399.75001,236.3098 L 397.18887,242.60496 L 400.17686,245.33284 L 399.53656,241.55577 L 402.52457,243.4443 L 409.35427,240.08688 L 412.55569,232.95242 L 417.03765,231.69338 L 421.09278,237.98852 L 423.22707,238.19836 L 422.15995,235.89013 L 426.42849,231.27371 L 424.93452,222.2507 L 420.66593,222.46052 L 416.39737,218.26375 L 424.29422,218.05393 L 438.16702,211.33912 L 445.63701,216.37522 L 446.91758,212.38832 L 449.69215,212.38832 L 450.119,209.24074 L 447.77128,209.03089 L 449.90557,201.05707 L 455.02783,199.16851 L 452.46671,191.82419 L 456.73527,174.61751 L 462.2844,172.30927 L 456.9487,166.64366 L 464.41867,158.25017 L 464.84554,153.21405 L 459.29639,150.90582 L 462.07098,145.45003 L 444.35644,139.99425 L 437.31332,144.82051 L 433.47161,142.72215 L 423.22707,148.59759 L 420.66593,143.35165 L 403.80514,133.48929 L 388.65175,131.81058 L 386.51746,129.29252 L 382.8892,129.71222 L 368.37608,128.45318 L 371.36409,133.69911 L 370.51037,139.78442 L 351.08844,140.20409 L 348.74072,137.26636 L 345.11244,144.40084 L 333.58733,138.73523 L 326.33078,137.68604 L 323.12937,141.88281 L 317.15339,139.36475 L 319.28766,134.11879 L 316.93994,130.13189 L 304.98798,126.35482 L 312.03111,130.34171 L 308.61625,155.31241 L 314.16538,164.96495 L 315.23252,173.98798 z"
         id="Wells"
         style="opacity:1;fill:#c8c8ff;fill-opacity:0.33000004;stroke:#7ffaff;stroke-width:2.43966746;stroke-opacity:1" />
      <path
         d="M 344.89901,252.46731 L 344.89901,252.46731 L 346.39303,246.17218 L 339.56333,238.61804 L 332.94703,239.45738 L 328.6785,244.07382 L 335.08132,249.52961 L 318.64736,258.76247 L 314.37882,252.67716 L 308.1894,252.25749 L 304.34771,255.40507 L 306.26855,249.94928 L 299.8657,247.22138 L 273.18723,243.86397 L 266.78438,235.05079 L 272.54693,231.27371 L 272.12008,226.65727 L 264.43666,228.96548 L 255.89954,222.46052 L 245.86843,232.3229 L 240.53275,231.06386 L 236.26419,237.35899 L 230.50161,233.58194 L 227.08677,237.35899 L 234.77017,248.06074 L 229.00764,247.8509 L 229.43449,245.54266 L 218.9765,243.02463 L 208.30512,245.75251 L 200.62172,247.43122 L 198.274,246.38203 L 199.55457,239.24756 L 205.53055,238.40821 L 199.12773,233.16225 L 201.90229,229.80485 L 176.93118,225.1884 L 167.96724,220.78181 L 170.74181,212.38832 L 164.12551,203.5751 L 157.9361,206.93253 L 156.65553,203.15543 L 145.98415,197.90949 L 126.34877,201.68659 L 119.30565,196.65045 L 117.17138,188.88648 L 110.34168,188.25696 L 109.06111,192.66355 L 103.29856,192.87338 L 101.37771,191.40451 L 83.663179,194.34224 L 77.900625,191.40451 L 68.082936,191.61436 L 69.150058,209.24074 L 77.900625,219.94247 L 88.572035,224.76873 L 102.23143,236.51965 L 110.34168,236.7295 L 122.93393,247.22138 L 129.97706,246.17218 L 138.7276,249.10994 L 132.5382,268.415 L 133.81874,270.72321 L 135.73961,270.93306 L 139.15445,271.56258 L 155.80184,273.24127 L 160.71067,267.99533 L 160.28382,262.95922 L 170.95521,259.60181 L 176.93118,263.58874 L 187.81602,261.07068 L 191.23086,262.74937 L 191.01746,264.63793 L 191.4443,266.31662 L 201.47542,267.15596 L 201.47542,286.04138 L 214.92137,283.73315 L 226.44648,296.74311 L 237.75818,303.03824 L 263.79639,300.73003 L 257.18011,317.72689 L 262.30239,318.98593 L 262.30239,322.34333 L 266.57095,322.55315 L 270.62606,327.58927 L 275.32149,321.92363 L 280.23033,321.71381 L 297.09114,318.98593 L 291.11516,316.25802 L 285.56603,309.33339 L 287.48687,304.71693 L 295.59714,308.07435 L 303.06712,306.39564 L 309.46997,301.56937 L 310.75054,296.95296 L 318.64736,293.59553 L 319.50108,278.48721 L 329.53219,276.179 L 327.82478,272.4019 L 347.67358,256.87391 L 344.89901,252.46731 z"
         id="Taunton"
         style="opacity:1;fill:#c8c8ff;fill-opacity:0.33000004;stroke:#7ffaff;stroke-width:2.43966746;stroke-opacity:1" />
      <path
         d="M 347.67358,256.87391 L 347.67358,256.87391 L 327.82478,272.4019 L 329.53219,276.179 L 319.50108,278.48721 L 318.64736,293.59553 L 324.83679,292.54636 L 333.80075,305.34645 L 343.83187,299.26114 L 353.22268,303.87761 L 356.42412,292.96603 L 361.5464,296.53328 L 372.85808,291.70699 L 377.34007,302.40874 L 395.69487,287.09057 L 392.70686,284.99219 L 394.20088,281.00527 L 390.57259,278.48721 L 391.42631,275.12981 L 400.17686,275.96918 L 398.68284,279.95607 L 403.59169,284.57252 L 401.88428,287.92992 L 408.0737,283.31348 L 418.95851,290.23813 L 421.09278,288.55941 L 419.38539,278.27736 L 425.57479,276.179 L 431.55077,281.21511 L 432.40449,275.33966 L 453.10699,270.72321 L 458.86956,279.32655 L 457.16212,281.42496 L 459.72324,281.63479 L 463.1381,291.28732 L 472.31552,301.98905 L 476.7975,298.00215 L 475.73035,293.80538 L 481.49291,292.12669 L 485.33462,297.16278 L 506.03712,288.76926 L 503.04913,283.31348 L 496.43285,283.10363 L 496.21945,273.66094 L 510.5191,260.23134 L 504.75657,247.64105 L 511.37282,242.60496 L 501.55516,233.79177 L 500.48799,224.55888 L 506.46396,222.04085 L 505.82369,219.31295 L 519.26967,199.37836 L 529.51418,180.28312 L 530.3679,172.51912 L 535.70361,162.86659 L 535.91703,154.26322 L 533.35591,146.2894 L 529.94105,143.35165 L 525.67249,145.24021 L 526.52621,139.78442 L 524.1785,137.26636 L 528.02021,135.16798 L 526.31277,129.92204 L 510.3057,137.68604 L 494.29858,143.98117 L 490.67032,139.1549 L 484.69434,142.93198 L 484.05405,147.12875 L 479.14521,148.17791 L 474.87663,153.42388 L 468.90065,151.32549 L 467.62011,153.6337 L 464.84554,153.21405 L 464.41867,158.25017 L 456.9487,166.64366 L 462.2844,172.30927 L 456.73527,174.61751 L 452.46671,192.03403 L 455.02783,199.16851 L 449.90557,201.26692 L 447.77128,209.24074 L 450.119,209.24074 L 449.90557,212.38832 L 446.91758,212.38832 L 445.63701,216.37522 L 438.16702,211.33912 L 424.29422,218.05393 L 416.39737,218.26375 L 420.66593,222.67037 L 424.93452,222.46052 L 426.42849,231.48354 L 422.15995,235.89013 L 423.22707,238.19836 L 421.09278,238.19836 L 417.03765,231.69338 L 412.55569,232.95242 L 409.35427,240.29672 L 402.73797,243.4443 L 399.53656,241.55577 L 400.17686,245.33284 L 397.40229,242.60496 L 399.75001,236.3098 L 391.85316,229.38515 L 388.01145,234.63111 L 375.20577,232.95242 L 374.35205,228.75565 L 366.88208,228.54583 L 357.91814,230.64419 L 355.5704,242.18529 L 349.80784,240.50657 L 346.60643,246.17218 L 344.89901,252.46731 L 347.67358,256.87391 z"
         id="Somerton_and_Frome"
         style="opacity:1;fill:#c8c8ff;fill-opacity:0.33000004;stroke:#7ffaff;stroke-width:2.43966746;stroke-opacity:1" />
      <path
         d="M 310.11024,181.54213 L 310.11024,181.54213 L 310.11024,181.54213 L 310.11024,181.75198 L 310.11024,181.54213 L 310.11024,181.54213 L 306.48198,188.88648 L 299.43886,191.40451 L 299.43886,191.40451 L 305.84168,186.3684 L 309.04312,177.13554 L 306.26855,176.92571 L 299.43886,183.85037 L 292.39573,184.68971 L 275.96177,180.07329 L 261.6621,184.89956 L 255.25927,184.06021 L 233.27618,193.71275 L 195.92629,191.82419 L 184.40118,180.07329 L 176.71778,179.65362 L 169.24781,172.30927 L 155.58841,168.11253 L 145.13043,167.9027 L 132.5382,174.82735 L 129.55018,171.46993 L 103.29856,166.43381 L 99.883694,171.26008 L 101.37771,191.40451 L 103.29856,192.87338 L 109.06111,192.45371 L 110.34168,188.04711 L 117.17138,188.88648 L 119.30565,196.65045 L 126.34877,201.68659 L 145.98415,197.90949 L 156.65553,203.15543 L 157.9361,206.93253 L 164.12551,203.5751 L 170.74181,212.17847 L 167.96724,220.78181 L 176.93118,225.1884 L 201.90229,229.595 L 199.12773,233.16225 L 205.53055,238.40821 L 199.55457,239.24756 L 198.274,246.38203 L 200.62172,247.43122 L 208.30512,245.75251 L 218.9765,242.81478 L 229.43449,245.54266 L 229.00764,247.8509 L 234.77017,248.06074 L 227.08677,237.14917 L 230.50161,233.58194 L 236.26419,237.35899 L 240.53275,231.06386 L 245.86843,232.3229 L 255.89954,222.46052 L 264.43666,228.75565 L 272.12008,226.65727 L 272.54693,231.06386 L 266.78438,235.05079 L 273.18723,243.65415 L 299.8657,247.01155 L 306.26855,249.73943 L 304.34771,255.19522 L 308.1894,252.25749 L 314.37882,252.67716 L 318.64736,258.76247 L 335.08132,249.31976 L 328.6785,243.86397 L 332.94703,239.45738 L 339.56333,238.61804 L 346.39303,246.17218 L 349.80784,240.50657 L 355.5704,242.18529 L 357.91814,230.64419 L 366.66868,228.54583 L 365.60151,222.8802 L 376.69979,226.65727 L 373.71178,219.31295 L 376.91322,207.9817 L 360.47925,198.53901 L 362.18667,190.1455 L 354.7167,186.3684 L 343.61844,187.83729 L 336.78877,180.28312 L 329.74562,177.34539 L 325.05021,180.07329 L 315.23252,173.98798 L 310.11024,181.54213 z"
         id="Bridgwater"
         style="opacity:1;fill:#c8c8ff;fill-opacity:0.33000004;stroke:#7ffaff;stroke-width:2.43966746;stroke-opacity:1" />
    </g>
  </g>
</svg>
