<?xml version="1.0" encoding="UTF-8" standalone="no"?>
<!-- Created with Inkscape (http://www.inkscape.org/) -->
<svg
   xmlns:dc="http://purl.org/dc/elements/1.1/"
   xmlns:cc="http://creativecommons.org/ns#"
   xmlns:rdf="http://www.w3.org/1999/02/22-rdf-syntax-ns#"
   xmlns:svg="http://www.w3.org/2000/svg"
   xmlns="http://www.w3.org/2000/svg"
   xmlns:xlink="http://www.w3.org/1999/xlink"
   xmlns:sodipodi="http://sodipodi.sourceforge.net/DTD/sodipodi-0.dtd"
   xmlns:inkscape="http://www.inkscape.org/namespaces/inkscape"
   width="640"
   height="480"
   id="svg12462"
   sodipodi:version="0.32"
   inkscape:version="0.46"
   sodipodi:docname="southwest_edit.svg"
   inkscape:output_extension="org.inkscape.output.svg.inkscape"
   version="1.0"
   style="display:inline;enable-background:new">
  <defs
     id="defs12464">
    <inkscape:perspective
       sodipodi:type="inkscape:persp3d"
       inkscape:vp_x="0 : 240 : 1"
       inkscape:vp_y="0 : 1000 : 0"
       inkscape:vp_z="640 : 240 : 1"
       inkscape:persp3d-origin="320 : 160 : 1"
       id="perspective12470" />
    <inkscape:perspective
       id="perspective12641"
       inkscape:persp3d-origin="372.04724 : 350.78739 : 1"
       inkscape:vp_z="744.09448 : 526.18109 : 1"
       inkscape:vp_y="0 : 1000 : 0"
       inkscape:vp_x="0 : 526.18109 : 1"
       sodipodi:type="inkscape:persp3d" />
    <inkscape:perspective
       id="perspective12691"
       inkscape:persp3d-origin="372.04724 : 350.78739 : 1"
       inkscape:vp_z="744.09448 : 526.18109 : 1"
       inkscape:vp_y="0 : 1000 : 0"
       inkscape:vp_x="0 : 526.18109 : 1"
       sodipodi:type="inkscape:persp3d" />
    <inkscape:perspective
       id="perspective12927"
       inkscape:persp3d-origin="372.04724 : 350.78739 : 1"
       inkscape:vp_z="744.09448 : 526.18109 : 1"
       inkscape:vp_y="0 : 1000 : 0"
       inkscape:vp_x="0 : 526.18109 : 1"
       sodipodi:type="inkscape:persp3d" />
    <inkscape:perspective
       id="perspective12977"
       inkscape:persp3d-origin="372.04724 : 350.78739 : 1"
       inkscape:vp_z="744.09448 : 526.18109 : 1"
       inkscape:vp_y="0 : 1000 : 0"
       inkscape:vp_x="0 : 526.18109 : 1"
       sodipodi:type="inkscape:persp3d" />
    <inkscape:perspective
       id="perspective13123"
       inkscape:persp3d-origin="372.04724 : 350.78739 : 1"
       inkscape:vp_z="744.09448 : 526.18109 : 1"
       inkscape:vp_y="0 : 1000 : 0"
       inkscape:vp_x="0 : 526.18109 : 1"
       sodipodi:type="inkscape:persp3d" />
    <inkscape:perspective
       id="perspective13225"
       inkscape:persp3d-origin="372.04724 : 350.78739 : 1"
       inkscape:vp_z="744.09448 : 526.18109 : 1"
       inkscape:vp_y="0 : 1000 : 0"
       inkscape:vp_x="0 : 526.18109 : 1"
       sodipodi:type="inkscape:persp3d" />
    <inkscape:perspective
       id="perspective13275"
       inkscape:persp3d-origin="372.04724 : 350.78739 : 1"
       inkscape:vp_z="744.09448 : 526.18109 : 1"
       inkscape:vp_y="0 : 1000 : 0"
       inkscape:vp_x="0 : 526.18109 : 1"
       sodipodi:type="inkscape:persp3d" />
    <inkscape:perspective
       id="perspective13373"
       inkscape:persp3d-origin="372.04724 : 350.78739 : 1"
       inkscape:vp_z="744.09448 : 526.18109 : 1"
       inkscape:vp_y="0 : 1000 : 0"
       inkscape:vp_x="0 : 526.18109 : 1"
       sodipodi:type="inkscape:persp3d" />
    <inkscape:perspective
       id="perspective13423"
       inkscape:persp3d-origin="372.04724 : 350.78739 : 1"
       inkscape:vp_z="744.09448 : 526.18109 : 1"
       inkscape:vp_y="0 : 1000 : 0"
       inkscape:vp_x="0 : 526.18109 : 1"
       sodipodi:type="inkscape:persp3d" />
    <inkscape:perspective
       id="perspective13713"
       inkscape:persp3d-origin="372.04724 : 350.78739 : 1"
       inkscape:vp_z="744.09448 : 526.18109 : 1"
       inkscape:vp_y="0 : 1000 : 0"
       inkscape:vp_x="0 : 526.18109 : 1"
       sodipodi:type="inkscape:persp3d" />
    <inkscape:perspective
       id="perspective13763"
       inkscape:persp3d-origin="372.04724 : 350.78739 : 1"
       inkscape:vp_z="744.09448 : 526.18109 : 1"
       inkscape:vp_y="0 : 1000 : 0"
       inkscape:vp_x="0 : 526.18109 : 1"
       sodipodi:type="inkscape:persp3d" />
    <inkscape:perspective
       id="perspective13852"
       inkscape:persp3d-origin="372.04724 : 350.78739 : 1"
       inkscape:vp_z="744.09448 : 526.18109 : 1"
       inkscape:vp_y="0 : 1000 : 0"
       inkscape:vp_x="0 : 526.18109 : 1"
       sodipodi:type="inkscape:persp3d" />
    <inkscape:perspective
       id="perspective13927"
       inkscape:persp3d-origin="372.04724 : 350.78739 : 1"
       inkscape:vp_z="744.09448 : 526.18109 : 1"
       inkscape:vp_y="0 : 1000 : 0"
       inkscape:vp_x="0 : 526.18109 : 1"
       sodipodi:type="inkscape:persp3d" />
    <inkscape:perspective
       id="perspective14748"
       inkscape:persp3d-origin="372.04724 : 350.78739 : 1"
       inkscape:vp_z="744.09448 : 526.18109 : 1"
       inkscape:vp_y="0 : 1000 : 0"
       inkscape:vp_x="0 : 526.18109 : 1"
       sodipodi:type="inkscape:persp3d" />
  </defs>
  <sodipodi:namedview
     id="base"
     pagecolor="#ffffff"
     bordercolor="#666666"
     borderopacity="1.0"
     inkscape:pageopacity="0.0"
     inkscape:pageshadow="2"
     inkscape:zoom="1"
     inkscape:cx="256.84256"
     inkscape:cy="246.85083"
     inkscape:current-layer="layer2"
     inkscape:document-units="px"
     showgrid="false"
     inkscape:window-width="1420"
     inkscape:window-height="1131"
     inkscape:window-x="60"
     inkscape:window-y="24" />
  <metadata
     id="metadata12467">
    <rdf:RDF>
      <cc:Work
         rdf:about="">
        <dc:format>image/svg+xml</dc:format>
        <dc:type
           rdf:resource="http://purl.org/dc/dcmitype/StillImage" />
      </cc:Work>
    </rdf:RDF>
  </metadata>
  <g
     id="layer1"
     inkscape:label="Backdrop"
     inkscape:groupmode="layer"
     style="opacity:1;display:inline"
     sodipodi:insensitive="true">
    <g
       style="display:inline"
       id="g5764"
       transform="matrix(1.3970623,0,0,1.3970623,2817.0736,5225.4225)" />
    <image
       style="opacity:1;display:inline"
       y="-1.0361118"
       x="0.43169403"
       id="image14750"
       height="480"
       width="640"
       sodipodi:absref="/Users/httpd/Desktop/UKParseParl/Maps/swregion.jpg"
       xlink:href="/img/maps/swregion.jpg" />
  </g>
  <g
     inkscape:groupmode="layer"
     id="layer2"
     inkscape:label="Counties"
     style="opacity:1;display:inline">
    <path
       style="fill:#ffc8c8;fill-opacity:0.33000004;fill-rule:evenodd;stroke:#000000;stroke-width:0.64747703;stroke-opacity:1;display:inline;enable-background:new"
       d="M 500.0125,38.823466 C 500.01357,38.826421 500.01157,38.830606 500.01266,38.833552 C 500.02215,38.829061 500.03327,38.827435 500.04276,38.82296 L 500.0125,38.823466 z M 500.01266,38.833552 C 499.30109,39.17065 498.59803,39.556748 497.90264,39.94828 C 497.58726,41.197589 496.2697,41.251695 495.47835,42.783294 C 495.00252,43.523283 494.80154,46.775376 494.20749,44.610364 C 493.58738,43.638448 493.03959,47.630617 491.81661,46.425888 C 490.41093,44.315901 490.46093,47.380543 489.03398,46.532927 C 487.50614,46.132208 486.86744,48.386702 488.57482,48.033689 C 489.50178,48.860072 488.26952,50.94621 489.53812,50.741466 C 490.15554,52.152614 492.1918,51.837512 492.56275,53.041518 C 492.71303,54.191628 493.88064,54.828972 492.78073,55.822281 C 491.96711,56.781136 492.56569,58.878771 492.11929,59.707294 C 492.13847,59.711223 492.16066,59.71242 492.17997,59.716369 C 492.15331,59.716291 492.12577,59.71734 492.09929,59.717717 C 491.59227,59.223671 491.08906,59.403437 490.42691,59.251336 C 489.89997,58.773387 489.23531,58.582649 488.89383,58.066347 C 489.30725,57.254942 487.83937,57.348787 487.75491,56.319907 C 486.46881,55.392609 485.26302,54.28216 483.96224,53.33659 C 483.4029,52.560578 482.62254,52.149848 482.34399,53.09125 C 482.1676,54.108633 481.37782,53.797902 481.07411,54.373528 C 480.99088,55.632153 480.21683,54.891232 479.42664,54.794512 C 478.68831,55.260299 478.53956,54.152373 478.30994,53.774067 C 477.11288,54.158056 475.70325,54.164877 474.39271,54.202722 C 473.90992,54.670176 473.38387,55.774407 473.04922,55.909945 C 472.67378,54.695036 471.93061,56.619236 471.2789,56.827316 C 470.88864,57.235287 469.49445,57.670591 469.97018,58.201039 C 468.79071,58.459834 469.64903,59.142572 468.85964,59.359593 C 467.42386,58.979923 468.69752,60.334217 467.62724,60.469742 C 466.41029,60.999248 466.87719,59.971497 466.3517,59.603278 C 465.1719,59.936578 465.65385,58.31746 464.91193,58.568057 C 464.33179,58.779542 464.01065,59.17707 463.44684,59.036435 C 463.09694,59.268168 462.36115,59.334732 461.77465,59.185444 C 461.31413,59.050261 460.89605,59.295632 460.8002,58.828459 C 460.17723,58.772081 459.45704,58.490544 458.94863,58.50631 C 458.2398,58.536139 458.36874,59.03273 457.80193,59.312373 C 457.6282,59.994166 456.74493,60.047965 456.7662,60.721889 C 456.95929,61.311005 455.52148,61.846369 455.86996,61.422881 C 456.02713,60.559332 455.619,60.711342 454.87497,60.440757 C 454.03678,59.975008 454.92555,59.011432 455.17476,58.458413 C 455.73348,57.648563 455.32301,56.406815 456.13881,55.778954 C 457.03551,55.676716 458.23895,55.456086 458.58957,54.527381 C 458.63052,53.836028 458.34432,53.028436 457.48596,53.083004 C 456.81841,52.481886 456.08454,52.475507 455.24727,52.535292 C 454.4045,52.489053 453.92369,51.862361 453.19547,51.701979 C 452.42299,51.858304 452.04125,52.333411 451.37439,52.600022 C 450.83295,53.186268 450.69248,54.024141 450.96653,54.755675 C 451.12851,55.491292 451.14273,56.205425 451.31475,56.878513 C 451.37907,57.800635 449.50001,57.521473 450.34359,58.529071 C 450.44101,58.675538 450.48218,58.865949 450.66314,58.937356 C 451.53156,59.713872 453.21124,60.249749 452.99894,61.672635 C 453.14696,62.599911 452.01001,62.641369 451.50613,62.292803 C 451.50077,62.446625 451.52614,62.606585 451.54448,62.776407 C 451.51515,62.664129 451.47804,62.55091 451.43806,62.445267 C 451.36711,61.295429 450.8887,61.88016 450.86404,63.110609 C 449.95264,63.856196 449.33045,62.464725 448.60248,62.401864 C 448.29021,62.589562 446.9381,61.808603 446.63093,62.747557 C 445.55249,62.338355 445.51724,63.876128 444.70817,64.202162 C 444.26238,65.168682 443.70146,66.169384 443.32287,67.0299 C 442.71367,68.02183 442.52449,68.202509 441.31083,67.971487 C 440.14499,67.866871 438.85434,67.024501 437.58183,67.589922 C 436.88733,68.696752 435.89019,67.479062 435.64738,67.138009 C 436.03345,65.997448 434.11343,66.609761 433.49541,66.346725 C 434.29716,65.710418 433.77314,64.26003 434.20093,63.288226 C 433.88359,62.232325 433.58166,61.875863 433.59534,60.856947 C 432.99317,59.874633 431.65433,60.77205 431.28014,59.957419 C 430.1295,59.420269 430.63168,58.767117 430.49841,57.851914 C 430.17391,57.750241 429.01597,58.526618 428.22951,58.515318 C 427.29236,58.983544 426.22139,59.517861 425.36188,59.57209 C 425.38396,60.623271 425.03228,61.501484 424.78377,62.406514 C 424.24845,62.847826 422.87168,63.086536 421.95881,62.998503 C 420.94569,62.504853 420.08396,62.847996 420.29194,61.654337 C 420.55079,61.167418 420.55254,60.297289 420.52179,59.713516 C 420.68636,58.868179 419.51935,59.109717 418.94403,58.872281 C 417.98306,58.881434 416.74805,59.549721 417.01967,58.4202 C 417.40357,57.629307 416.80541,57.317891 416.16403,57.324773 C 415.95022,57.327068 415.72736,57.358511 415.54023,57.425995 C 415.15627,57.990652 415.04942,59.390299 414.12651,59.759874 L 414.14634,59.739366 C 413.97572,59.724058 413.70469,59.914552 413.70813,60.079608 C 413.72325,60.8222 414.24109,62.122855 415.2414,61.879988 C 415.94242,62.454946 416.49165,63.288007 415.24837,63.504108 C 414.91639,64.414869 413.62061,64.289171 413.78824,65.475581 C 412.74526,65.81961 413.27535,67.444252 413.64262,68.232156 C 414.25789,69.126377 411.73892,69.171852 413.18262,69.682491 C 413.37344,71.012271 414.44901,70.10761 415.28534,70.545216 C 416.01092,70.086638 416.54544,71.144341 416.8764,71.577909 C 417.18718,72.313432 416.90076,73.102321 417.14208,73.591156 C 416.7969,74.034075 416.70323,74.852303 416.9188,75.925315 C 417.55773,76.912594 418.58271,77.564218 419.12412,78.097822 C 419.6345,78.776241 419.92936,79.678081 419.64379,80.217796 C 420.75133,80.784895 418.69621,81.575556 420.04964,81.562862 C 420.49879,81.898608 419.00083,82.638648 418.18082,82.623118 C 417.05306,82.426449 416.21523,83.391367 415.9777,84.20347 C 414.88753,83.811558 414.50846,84.676718 414.06752,85.203886 C 413.60289,84.324153 412.94755,85.358367 412.77047,84.257075 C 412.05335,83.591679 411.45143,84.975551 411.17952,85.645603 C 410.47025,86.678804 410.82783,88.727143 409.22205,88.644319 C 408.86631,89.776844 407.2631,88.919218 406.49775,88.619233 C 405.56073,88.255763 404.75538,88.781718 403.75665,88.796197 C 402.15889,88.937348 403.28974,89.826808 403.50831,90.838211 C 402.67465,92.078022 402.15109,90.305718 401.41618,90.005572 C 399.87724,89.629044 400.46886,92.124687 399.08095,92.132908 C 398.1901,92.470237 397.655,94.331148 396.80214,92.806567 C 396.83027,92.862256 395.79844,94.146993 395.53632,94.936205 C 395.42812,96.161851 394.32261,96.355564 393.77109,96.761449 C 393.56225,97.409815 394.55983,99.11304 393.17345,99.031247 C 392.19877,99.216546 391.2616,100.18229 391.80863,101.27351 C 392.95094,101.90559 392.3509,102.67851 391.97548,103.40947 C 392.20647,104.33642 392.0953,105.49676 391.58145,106.39214 C 391.19285,107.33875 392.0425,108.61484 392.82833,109.1658 C 394.30288,109.70444 392.96225,111.17015 392.75652,112.11282 C 392.705,113.13636 392.18978,113.98381 391.00525,114.16986 C 390.06804,114.92634 392.04355,115.62448 391.44073,116.6847 C 391.21259,118.12946 393.45968,118.43889 392.90716,119.91875 C 392.64109,121.39011 390.90101,118.93891 391.23029,120.39067 C 392.36868,120.6342 393.29685,121.55817 392.94428,122.74289 C 392.03539,123.7812 392.93496,124.72308 394.07901,124.84249 C 395.22009,125.73457 393.29499,126.70019 392.46135,126.44333 C 391.41706,125.99538 390.88282,126.96275 390.96991,127.74949 C 391.90263,128.92205 392.4529,127.11764 393.24907,127.096 C 393.79838,128.39508 392.23099,129.44851 391.71252,130.53158 C 391.88771,131.41251 393.67866,130.19448 393.43185,131.99593 C 392.87973,133.10214 393.30606,133.87579 394.1931,134.6869 C 395.44945,135.49901 393.68018,136.37663 394.35863,137.34748 C 394.77047,138.95782 396.32568,136.85856 395.3478,136.17078 C 394.96184,134.85746 395.26781,133.55182 396.40211,132.85424 C 396.62555,131.76131 397.46292,130.99525 397.86792,130.01507 C 399.01503,129.34252 397.43859,128.02859 398.74255,127.41782 C 399.30046,126.98036 400.20548,125.92128 400.14639,125.69949 C 401.09322,125.05721 401.92662,124.13837 402.84035,123.90916 C 403.78559,123.58495 404.36469,123.03744 404.80142,122.33286 C 404.75073,122.55763 404.8289,122.70671 405.24755,122.46664 C 406.48034,121.28696 406.21673,122.06715 407.1757,121.33478 C 407.5241,120.44899 408.38992,120.33235 409.45296,119.96504 C 410.4545,119.43541 411.20442,118.44095 412.42125,118.29119 C 413.254,117.42334 413.16832,115.71789 413.95444,114.65391 C 414.60327,113.85018 416.16211,113.55105 415.98659,112.50138 C 416.54712,111.18499 418.11003,111.1158 419.03503,110.19061 C 419.44802,109.6446 420.73525,108.9699 420.5103,108.52154 C 420.35741,108.49071 420.27319,108.42883 420.34624,108.36286 C 420.42752,108.41165 420.48188,108.46489 420.5103,108.52154 C 420.83083,108.58619 421.49567,108.49703 421.92125,107.83213 C 422.87569,107.12435 425.03607,106.85416 424.57096,105.2052 C 423.74695,104.34042 422.14654,104.10576 420.99573,104.36708 C 420.23815,104.59022 419.2275,103.6848 419.11168,103.30902 C 419.02924,102.35106 418.2928,101.11597 419.38572,100.38889 C 419.59913,99.237742 420.14065,98.032487 421.28234,97.37101 C 422.45448,96.364267 423.80646,97.529755 424.17025,98.735123 C 424.62995,100.43033 426.65961,100.01656 427.75984,101.03582 C 428.7514,102.24398 430.85135,101.81036 431.39147,100.42026 C 431.32634,100.17497 431.03182,100.08195 430.70815,99.977699 L 430.63755,99.978879 C 430.49029,99.922097 430.37983,99.867099 430.28185,99.823409 C 430.42426,99.879788 430.56669,99.932135 430.70815,99.977699 L 430.78867,99.96627 C 431.44827,99.786381 429.84612,99.437256 429.91523,99.617681 C 429.64518,99.411328 429.47907,99.084324 429.62405,98.492644 C 429.89197,97.405168 428.89163,95.745481 430.1833,95.133937 C 432.04773,94.985494 429.53784,94.064617 430.24842,92.994101 C 430.1779,91.673204 431.18661,91.444595 432.18393,91.095391 C 433.2834,90.163917 434.25792,91.706858 435.45588,91.292916 C 437.19148,91.127489 436.3741,93.302674 437.22823,94.118319 C 438.58589,94.55581 437.7605,92.29725 439.15265,92.159265 C 439.93819,91.324456 438.47743,90.118928 438.35607,89.166226 C 441.5021,87.665391 440.44695,87.682571 438.49474,89.012582 C 438.46953,89.358738 438.75988,89.654201 438.87401,89.974732 C 439.09319,90.501581 439.45417,90.977655 439.54595,91.547385 C 439.68754,91.786051 439.49416,92.084768 439.41571,92.20531 C 439.13292,92.371609 438.83436,92.501176 438.59729,92.733499 C 438.36107,92.870673 438.20614,93.10383 438.26516,93.38471 C 438.31619,93.725691 438.18952,94.110808 437.84564,94.23915 C 437.64712,94.447714 437.38956,94.305906 437.1605,94.290955 C 437.10828,94.289613 437.07025,94.295849 437.03964,94.303064 C 437.18092,94.008819 436.39491,93.203795 436.54704,92.596263 C 436.72838,91.710692 435.88642,91.297119 435.12508,91.419505 C 434.25703,91.684879 433.67099,90.789184 432.86705,90.922559 C 432.19834,91.262728 431.33508,91.475135 430.76425,91.865663 C 430.47165,92.618182 429.92787,93.91472 430.86708,94.396142 C 431.81691,95.068807 430.42164,95.258501 429.88647,95.481904 C 429.35795,96.43776 430.14563,97.446915 429.9767,98.466572 C 430.71923,99.023653 431.97484,99.476287 431.63724,100.6381 C 431.35249,101.66518 430.14506,102.05645 429.18145,102.19241 C 427.82578,102.42358 427.01747,101.0254 425.86741,100.68409 C 424.98553,100.65472 424.3276,100.13134 423.61105,99.682695 C 422.7752,99.300973 422.88645,97.906223 421.91557,97.834582 C 420.87908,98.439463 420.39968,99.645641 419.86462,100.67344 C 419.35114,101.43125 419.19671,102.65996 420.24715,103.03783 C 421.07757,103.40335 421.64161,103.35528 422.44196,103.37442 C 423.30917,103.34096 423.83843,103.50428 424.48199,104.10705 C 425.46521,104.23871 426.27007,105.2393 427.11624,105.38461 C 427.30769,106.30929 428.01236,107.34855 427.48853,108.34438 C 427.45329,108.85414 426.91439,108.78241 426.32285,109.22138 C 425.74767,109.84433 425.0346,110.61806 424.10643,110.61028 C 423.7203,111.37046 422.95606,111.98966 422.2005,112.46814 C 421.55425,112.93646 421.18137,113.2834 420.36057,112.84189 C 419.61191,112.32992 418.86452,112.38305 418.30799,113.16877 C 417.49217,113.88645 417.00116,115.50095 415.67944,115.25056 C 415.01505,115.17326 415.41064,116.45368 415.29105,116.76022 C 415.09626,117.72079 415.20681,118.76572 414.70386,119.65533 C 414.33236,120.72177 414.88867,120.09072 415.12245,120.55629 C 415.41621,120.87852 414.3901,120.43869 414.46066,120.19408 C 413.67083,121.5788 412.54567,122.82753 411.18904,123.63848 C 410.39925,123.68703 409.69958,124.16163 409.10826,124.69218 C 409.79096,125.26638 410.64712,125.59546 411.40113,126.06624 C 412.06226,126.6401 412.6271,126.79787 413.22499,127.14549 C 413.48245,126.98422 414.96151,127.10996 414.32955,127.43977 C 414.18535,128.23446 414.42631,129.02169 414.24695,129.74131 C 414.93833,130.35037 415.23976,130.2684 414.55984,130.95678 C 415.25343,130.85528 415.8791,130.47388 416.63073,130.51864 C 417.24255,130.32681 417.62272,129.22866 418.24858,129.53319 C 418.73449,129.15109 419.53962,130.3052 419.99828,129.79652 C 420.38592,129.01752 420.78799,130.21888 421.54577,130.03295 C 421.48377,130.82644 422.50421,130.26953 422.91005,130.77686 C 423.58198,131.15239 423.82098,130.97525 424.57724,131.5359 C 425.09353,131.65935 425.29081,130.23824 425.85859,130.93945 C 426.12933,131.26223 425.62206,132.52824 426.5473,131.70474 C 428.21381,132.04848 425.9124,132.54365 425.41524,132.78295 C 425.92165,133.05893 426.70292,133.74676 426.83521,134.44398 C 426.75026,134.95644 426.96171,135.74433 426.64283,136.21268 C 426.75555,136.97871 426.33911,137.41558 426.21159,138.17704 C 426.27035,138.79427 425.5893,140.26217 427.01046,140.10067 C 427.97094,140.10737 429.2501,140.24571 429.57737,139.15989 C 430.10676,138.35975 430.97891,140.03971 431.66917,139.97236 C 432.5768,141.11336 433.69728,139.5065 433.89377,140.88349 C 434.17986,140.85852 435.53469,140.36732 435.70735,141.34751 C 436.70353,140.4369 437.07611,141.26842 438.04769,140.73335 C 439.30489,139.68117 438.31204,141.74639 438.76332,141.90174 C 439.89967,142.16126 439.18724,142.57837 439.86288,143.10406 C 440.08731,143.91828 441.27519,143.46862 441.74282,142.70946 C 442.92719,142.05321 444.33294,143.55849 444.46776,142.16958 C 444.40471,140.4301 445.93403,140.45773 447.17245,139.81413 C 448.9157,137.56231 448.54261,139.86781 449.88918,139.99066 C 451.09192,140.74831 451.88251,140.31279 452.21607,139.17497 C 452.63989,140.50351 454.65002,139.94658 455.50541,141.01662 C 458.55388,135.78569 462.20279,131.12394 465.78096,126.257 C 466.47956,124.23062 467.62329,125.42672 468.40845,126.52583 C 469.21373,127.65037 470.91673,127.86128 471.34044,128.71646 C 472.241,129.7953 473.70864,128.89781 474.50617,129.19822 C 474.90679,130.12713 476.63948,130.20804 476.55616,131.13121 C 476.85023,131.49878 478.62126,130.89495 479.56841,131.4844 C 479.75934,131.15125 478.77051,128.49734 478.27527,127.75312 C 478.7071,127.20998 479.16329,125.87194 479.7939,125.65961 C 480.97083,124.05992 481.40661,126.69461 482.69895,126.84185 C 482.98316,127.93639 484.75026,127.83232 485.59206,127.9133 C 486.63501,128.99463 487.88219,129.18064 488.6265,128.38719 C 488.06845,127.57802 487.06359,126.9894 487.08363,126.01193 C 487.01032,125.79055 485.13334,123.0504 486.13328,123.47544 C 487.10499,124.18991 488.84749,121.29872 489.15897,123.42487 C 489.99948,124.38832 490.41116,125.308 490.93502,126.47215 C 491.69973,126.9851 492.21305,128.25934 493.62321,127.35536 C 494.63661,126.56971 496.64683,126.48615 495.712,124.96984 C 494.90667,124.44402 494.96736,123.42603 495.84806,122.849 C 496.93016,121.52655 494.95497,120.60173 495.44463,119.234 C 496.30005,117.33894 496.6667,119.82512 497.00512,120.85232 C 497.515,121.90899 498.3169,123.03121 498.39943,123.99679 C 498.55385,125.76397 499.97942,124.87139 501.03049,125.08272 C 501.70313,125.97803 502.49087,126.37519 503.69079,126.10763 C 504.63273,125.94166 505.39687,124.68807 506.55086,125.20231 C 507.13391,124.50624 508.6934,124.75813 508.60001,123.46312 C 508.5943,122.624 509.06649,121.51608 509.69353,121.28592 C 509.91528,120.52582 510.89744,119.65767 511.86173,120.63429 C 513.23584,120.48899 512.51766,122.21852 513.14637,122.04538 C 514.0755,122.58117 514.7787,122.45594 515.88814,121.90875 C 515.79712,121.33476 515.36764,119.38113 514.33215,119.35212 C 513.13306,118.67803 512.28048,117.18395 511.17538,116.38844 C 511.22566,115.94417 511.10558,115.82902 510.97479,115.2518 C 509.62379,114.36456 510.76658,113.8099 511.3976,112.78316 C 511.08566,111.75569 511.11009,110.68656 510.59934,109.68926 C 509.95036,108.83661 510.25772,107.70165 509.62795,106.49737 C 509.7385,104.82018 508.316,103.61054 507.09207,102.65571 C 508.28944,101.53304 509.88937,100.91142 510.96633,99.655224 C 511.42634,98.822579 512.63084,96.112635 511.64392,96.133125 C 511.27703,94.942342 510.54042,93.186708 511.14665,91.73279 C 512.03308,90.326891 511.80452,89.272279 511.46585,87.893852 C 510.06046,86.960131 510.99915,86.051966 512.01573,85.180961 C 513.19027,84.464638 512.65307,83.933945 513.03898,83.025112 C 513.79225,82.203329 513.23028,80.951239 514.07414,80.374729 C 514.95298,80.477321 515.76437,81.228221 516.24255,80.338487 C 517.4559,80.121556 516.62497,79.066648 516.62369,78.395138 C 516.77665,77.921415 516.79053,77.068311 516.42563,77.409782 C 516.0942,77.113346 515.33132,77.366412 515.63002,76.888393 C 515.37283,76.290691 515.7119,76.226589 515.8821,75.673568 C 514.89618,75.29825 517.11812,74.217688 517.4367,73.317157 C 519.50602,72.452298 518.51646,71.521086 517.60127,69.88434 C 516.91459,68.5042 515.19513,68.48618 514.09024,68.661791 C 514.99693,67.431918 512.34231,67.540187 512.60902,65.750814 C 512.44361,64.332995 513.22861,63.060238 512.1997,61.782813 C 512.71622,60.683832 513.80412,60.204134 514.44682,59.213059 C 516.07747,58.614987 514.89736,56.575292 516.50699,55.718293 C 517.05816,54.927526 518.97036,54.883248 518.07436,53.523084 C 517.4415,53.745551 517.54224,52.154973 516.77749,53.191665 C 516.08582,53.2678 515.70781,53.007994 515.15725,53.430601 C 515.0725,53.838871 514.39152,53.694798 514.13004,53.538566 C 513.62863,54.243994 512.57574,54.865167 512.30184,53.407707 C 511.36931,53.377142 511.24905,53.347727 510.46289,53.236674 C 509.98086,53.226129 508.92035,53.01336 509.00261,52.181618 C 509.6245,50.876874 510.1056,49.601515 508.22657,49.813719 C 506.7034,48.998273 509.15043,46.230486 507.31317,46.469537 C 506.7819,47.289824 506.5413,47.954229 505.02963,46.860798 C 504.39382,46.04992 504.81441,44.640456 504.8412,43.433881 C 504.31388,43.102096 504.97135,40.786964 504.52796,41.592934 C 504.10319,43.206725 502.39775,42.991195 501.72399,41.62971 C 501.66052,40.504398 500.41518,39.924426 500.01266,38.833552 z M 436.95021,94.385265 C 437.05828,94.769745 436.96292,94.798901 436.90012,94.406279 C 436.91958,94.401518 436.93472,94.392084 436.95021,94.385265 z M 405.14346,121.6714 C 405.14492,121.69102 405.09691,121.79496 404.97773,122.01718 C 404.92535,122.11483 404.86755,122.20997 404.811,122.30243 C 404.88714,122.01806 405.14005,121.62561 405.14346,121.6714 z"
       id="Gloucestershire"
       sodipodi:nodetypes="cscccccccccccccscccccccccccccccccccccccccccccccccccccccccccccccccccccccccccccscccscccccccccccccccccccccccccccccccccccccccccccccccccccccccccccccccccccccccccscccsccccccccccccccscccccccccccccccccccccccccccccccccccccccccccccccccccccccccccccccccccccccccccccccccccccccccccccccccccccccccccccccccccccccccccccccccccccccscc"
       onclick="javascript:respond(this.id);" />
    <path
       style="fill:#ffc8c8;fill-opacity:0.33000004;fill-rule:evenodd;stroke:#000000;stroke-width:0.4067499;stroke-opacity:1;display:inline;enable-background:new"
       d="M 414.59925,126.98759 L 414.51844,127.05263 C 414.11056,127.24211 413.80903,127.80435 413.81087,127.72874 C 413.43795,127.81825 412.55592,128.33184 412.15449,128.80287 C 411.69249,129.6216 411.17844,130.43189 410.73956,131.25611 C 410.30939,131.99119 410.5038,132.80968 410.01402,133.57954 C 409.74078,134.11393 409.71206,134.97842 410.30217,135.03065 C 410.90402,135.17622 411.4952,135.58394 410.50398,135.12738 C 409.89739,135.0452 409.58495,134.39079 409.33502,135.4199 C 409.2177,136.19877 409.21046,135.2304 408.6411,136.36877 C 408.06938,136.57906 407.95348,137.87855 407.84849,137.40117 C 407.06532,137.85906 406.39721,138.67143 405.51987,139.08711 C 404.70417,139.32029 404.47555,139.88856 404.19875,140.61972 C 403.74355,141.96278 402.79962,143.12452 401.90237,144.23425 C 401.38317,144.82417 401.65233,145.06466 401.33867,144.80784 C 400.727,145.05879 400.49603,145.82597 400.56368,146.34953 C 400.35376,147.39471 400.55885,148.49881 400.07016,149.48804 C 399.92976,150.04422 399.7451,150.14364 399.99591,150.49024 C 399.91244,150.39439 399.82821,150.2991 399.74543,150.20324 C 399.49728,150.63149 399.25072,151.06135 399.00256,151.4896 C 398.96556,152.00458 399.02286,151.56237 398.71936,151.96752 C 398.4797,152.19241 398.41795,152.70911 398.23316,152.8219 C 397.92176,153.2988 397.61294,153.77101 397.30154,154.24791 C 397.04459,154.46072 397.05241,155.02403 396.67767,155.03181 C 396.73877,155.38089 396.24028,155.47855 396.16206,155.75929 C 395.79906,155.79502 395.72067,156.25691 395.46419,156.47162 C 395.44546,156.99313 394.65123,156.3122 395.22313,156.74863 C 395.76094,157.04095 395.11029,156.9037 395.03467,156.90648 C 395.04265,156.91407 395.09259,156.93606 395.21784,156.97622 C 395.50625,157.13241 395.88955,157.39069 395.89515,157.75656 C 395.85114,158.14436 396.03428,158.46016 396.42691,158.53934 C 402.46849,163.4993 402.61877,162.35335 396.33186,158.84122 C 395.76124,158.72828 395.50152,158.22668 395.06944,157.89775 L 395.06929,157.88866 C 395.04027,157.78191 394.89102,157.76195 394.80274,157.72933 C 394.4393,157.57444 394.08757,157.99112 393.86863,157.91783 C 393.92526,158.0392 393.98835,158.18589 394.01011,158.21575 C 393.68778,158.5664 393.22219,158.94698 393.17838,159.08501 C 393.55044,159.32357 393.32327,159.40884 393.06799,159.01407 C 392.7293,159.06421 392.1064,159.25454 391.63384,159.22912 C 391.11675,159.25847 390.93613,159.44379 390.75536,158.93442 C 390.29256,158.66399 389.6401,159.01289 389.08983,158.91675 C 389.15348,159.23796 388.75757,159.49849 388.44853,159.74644 C 388.3146,160.02827 387.63391,160.35194 387.19377,160.34979 C 386.66856,160.47421 386.07143,160.39951 385.82181,161.01879 C 385.39309,161.31681 385.1467,161.72023 384.80223,162.08229 C 384.44477,162.37379 384.09488,162.78645 384.03768,163.15972 C 383.70256,163.62463 383.29866,163.85024 382.83464,164.13528 C 382.22423,164.57149 381.76715,165.13064 381.1475,165.54662 C 380.56766,165.83631 380.57909,166.32975 380.25725,166.72625 C 379.96022,167.09226 379.42112,167.58008 379.49665,168.04021 C 379.38529,168.47077 379.04549,168.93034 378.66007,169.16434 C 378.44856,169.49498 377.45382,169.71919 377.69234,170.06317 C 378.05425,170.71807 377.81532,170.04372 378.08869,170.36593 C 378.08312,170.76039 377.38483,170.37885 377.25178,170.9259 C 377.08868,171.38651 376.97199,171.91166 376.79381,172.38039 C 376.80856,172.66558 376.68312,172.98313 376.67029,173.15592 C 376.68924,173.2041 376.71369,173.25301 376.77248,173.28161 C 376.67944,173.29873 376.66373,173.24409 376.67029,173.15592 C 376.59735,172.97067 376.71361,172.75635 376.26472,173.39018 C 375.93731,173.77361 375.93053,174.35035 375.45681,174.59574 C 375.04435,175.08083 374.52587,175.45748 374.11414,175.92852 C 373.68761,176.37975 374.73904,176.48824 374.97491,176.7968 C 375.10381,176.7972 375.30201,176.76244 375.46509,176.72491 C 375.46471,176.71897 375.46504,176.71265 375.46478,176.70672 C 375.87354,176.61175 375.71712,176.6669 375.46509,176.72491 C 375.49646,177.20421 375.94342,177.6604 376.40621,177.50084 C 376.45693,177.49782 376.50798,177.50939 376.55222,177.5257 C 376.2876,177.5947 375.9881,177.72427 375.63084,177.38641 C 375.51588,176.76466 374.76559,177.00459 374.39921,176.65173 C 373.98785,176.27582 373.50871,176.08071 372.91879,176.27609 C 372.42458,176.50414 371.76416,176.29527 371.41112,176.44688 C 371.3092,176.59143 372.07412,176.93311 371.96971,177.20191 C 371.68562,176.86163 371.49421,176.38792 371.16461,176.94238 C 371.07407,176.87544 371.47233,176.16631 371.29116,175.80282 C 370.73718,175.7828 370.2079,176.14128 369.77334,176.45605 C 369.48941,176.8351 369.05142,176.8423 368.5965,176.82151 C 367.98462,176.79778 367.65507,177.35478 367.11402,177.41046 C 367.06757,177.45222 366.96712,177.46861 366.86946,177.47824 C 367.39065,177.43586 367.53459,177.89239 368.01647,178.05055 C 368.14875,178.33721 368.86386,178.56763 368.61011,179.26907 C 368.59623,180.16249 368.6482,181.30842 367.8808,181.91105 C 367.5777,181.94458 366.93941,182.25963 366.52202,182.27954 C 366.17699,182.51699 365.597,182.54003 365.33959,182.85438 C 364.64985,183.2536 365.54874,183.6109 365.75475,183.7392 C 365.28108,184.32502 366.33264,183.45185 366.39991,184.2289 C 366.3211,185.61072 366.09276,187.0054 365.67674,188.3267 C 365.5088,188.97927 365.31867,189.08869 365.46379,189.7407 C 365.84083,190.15888 365.94261,190.20591 365.98642,189.97765 C 365.97891,189.96166 365.97533,189.94876 365.96746,189.93247 C 365.97624,189.92169 365.98622,189.90833 365.99414,189.89563 C 365.99042,189.92788 365.99127,189.95238 365.98642,189.97765 C 366.21155,190.4584 366.2758,190.82072 365.96131,191.19743 C 365.74035,191.66019 366.24941,191.37706 365.35758,191.5533 C 364.9574,191.90661 365.23637,192.55485 365.42541,192.8898 C 365.90671,193.22338 366.48464,193.22474 367.03425,193.327 C 367.41513,193.8902 368.10979,193.44008 368.51465,193.15666 C 368.88737,192.82666 368.19662,191.83948 369.01477,192.04724 C 369.67008,191.96396 369.98852,192.61026 370.69502,192.40135 C 371.2991,192.30464 371.86311,192.34292 372.04308,193.02489 C 372.58264,193.16737 373.12145,193.11902 373.47439,193.72893 C 374.17187,194.02947 375.00777,194.22851 375.77068,194.46402 C 376.13962,193.83712 376.34627,193.14371 376.5743,192.45777 C 376.65542,191.86448 377.25158,191.40946 377.46202,192.21544 C 377.85225,192.45528 378.0421,193.09334 378.75002,192.51241 C 379.20561,192.63345 379.743,192.90993 380.35718,192.84953 C 381.66307,192.91979 383.01171,192.52571 384.32092,192.62858 C 385.01483,192.71328 385.46805,192.45802 385.21557,191.71278 C 384.82799,191.22646 385.07562,190.73566 385.53483,190.67009 C 385.46399,190.11527 385.12851,189.76464 384.69678,189.52845 C 384.0759,189.51351 384.35517,188.92228 384.2522,188.51672 C 384.20363,187.88918 385.17521,188.04771 385.54896,188.24936 C 386.12172,188.16087 386.55384,188.11306 386.82514,188.38271 C 387.5296,188.39434 388.09888,188.65618 388.81377,188.67707 C 389.38702,188.64535 389.89059,188.65019 390.37317,188.8785 C 390.90088,188.76736 391.4173,188.12801 391.18661,189.09239 C 391.47653,189.5107 392.10782,189.33046 392.61046,189.35068 C 393.27789,189.20739 393.42061,189.55177 393.95215,189.59215 C 394.39304,190.06813 394.97329,188.8044 395.02831,189.19198 C 395.1858,190.03557 395.92921,189.71958 396.55709,189.7397 C 397.2409,189.81409 397.51842,189.89427 397.67421,189.61183 C 397.79082,189.21957 397.76407,189.2981 397.94712,189.60727 C 398.68296,189.74449 398.83775,190.1798 399.49942,190.47309 C 399.88085,191.17532 400.27132,190.32732 400.77334,191.01597 C 400.83403,191.54456 401.55791,191.38368 400.96261,191.99556 C 400.69596,192.42405 402.03046,192.07028 402.33827,192.63684 C 402.92418,192.8447 403.34797,193.27933 403.90073,193.56618 C 403.50901,194.14238 404.08754,194.65699 404.30774,195.05171 C 404.60123,195.01548 405.12959,196.02398 405.41669,195.52456 C 405.50589,195.1667 406.22373,194.97228 406.71591,195.40275 C 407.17118,195.03505 407.61494,194.76627 408.12015,194.48752 C 408.72,194.25135 408.57972,193.50614 408.80025,193.25681 C 409.27728,193.27556 409.797,193.81696 410.05052,194.01848 C 410.44644,193.47639 411.23385,193.62468 411.60002,193.08262 C 412.25984,193.06659 412.34755,191.96447 412.93239,192.22318 C 413.37647,192.63186 413.14527,193.07544 413.68397,192.5473 C 414.42317,192.62713 414.64995,193.32083 415.34559,193.4204 C 415.81248,193.94885 416.4257,193.65136 416.97065,193.73902 C 417.47396,193.83983 418.21828,193.85703 418.43575,194.28781 C 418.93497,194.13281 419.5102,193.88639 419.39733,194.65392 C 419.08316,194.97835 419.08828,195.39416 418.73406,195.80246 C 417.84373,196.25794 419.12443,196.61861 419.5586,196.68044 C 419.81256,196.62519 420.18403,197.11775 420.6545,196.91691 C 421.16659,197.32737 421.72356,197.0752 421.89137,196.33205 C 422.41886,196.70856 423.08507,196.97758 423.74114,197.02911 C 424.61098,197.25712 423.93883,196.06652 424.88674,196.42759 C 425.11339,196.16372 424.90825,195.44117 425.66797,195.25889 C 425.6121,194.54598 426.96212,195.34076 426.57054,194.81612 C 426.9587,194.65432 427.86974,194.7665 427.57602,193.99855 C 428.50543,193.91877 427.40936,193.02113 427.85691,192.83821 C 428.32112,192.7478 428.44174,192.13059 428.95748,192.26474 C 429.41162,192.49605 429.74924,191.01373 430.14281,191.86274 C 430.49116,192.30569 430.49746,193.16103 431.08639,193.3302 C 431.83609,193.3586 431.38415,192.45135 432.09703,192.27595 C 432.79269,192.19438 433.5515,192.27859 434.09882,191.72382 C 434.61356,191.29079 435.10521,191.14719 435.67697,190.86938 C 436.38236,190.42865 436.53147,190.88578 437.00635,190.91996 C 437.54707,190.81178 437.85271,190.20148 438.14511,189.90906 C 438.67102,189.7357 439.11314,189.47766 439.56814,189.02992 C 440.28189,189.0046 440.76591,188.43067 441.40315,188.29858 C 441.8808,188.11769 442.36664,187.28105 441.78334,187.09108 C 441.27591,187.00859 440.81709,186.97897 440.34903,186.75108 C 439.91614,186.09062 439.74811,186.39803 439.19154,186.09705 C 438.94553,185.56855 438.03072,186.09798 437.6532,185.52219 C 437.20035,185.1844 436.83783,184.47725 436.22719,184.59056 C 435.59729,184.81615 436.03037,184.04925 436.27794,183.81625 C 436.48219,183.63556 436.53932,183.39933 436.75249,183.35334 C 437.03431,183.35593 437.26263,183.26733 437.46553,183.00473 C 437.68145,182.8586 438.00297,182.91725 438.10458,182.58457 C 438.23901,182.19597 438.51152,182.66038 438.78443,182.42761 C 439.07901,182.36344 439.31446,182.395 439.53751,182.29673 C 439.52231,181.97464 439.3958,181.63474 439.58522,181.34048 C 439.68769,180.93908 439.95914,181.00804 440.19381,181.27571 C 440.44916,181.52208 440.74808,181.51602 440.94796,181.2085 C 441.20734,180.8984 441.27076,180.56591 441.46841,180.22616 C 441.50669,179.94981 441.70275,179.71465 441.64638,179.4406 C 441.59406,179.16864 441.58382,178.81304 441.41452,178.63462 C 441.35028,178.20841 441.09366,177.87805 440.86818,177.5245 C 441.06091,177.0158 441.05872,176.45713 440.94165,175.93084 C 440.85689,175.56439 441.41413,175.74943 441.59147,175.6106 C 441.89598,175.62946 442.1597,175.41768 442.45265,175.41421 C 442.54559,175.31772 442.01197,175.14189 442.03339,174.82973 C 441.97395,174.52369 441.84335,174.25752 441.62868,174.02664 C 441.46986,173.82783 441.88614,173.57062 442.08443,173.52765 C 442.17622,173.30157 442.49326,173.18132 442.48452,172.96589 C 442.30134,172.721 442.52955,172.65819 442.72284,172.52512 C 442.69037,172.40851 442.98231,172.03679 442.6658,171.8345 C 442.57617,171.47225 442.4225,171.03954 442.12099,170.81535 C 441.84036,170.79125 441.64332,170.45833 441.33135,170.39177 C 440.82068,170.50455 441.20417,169.9594 440.98639,169.89706 C 441.01855,169.89385 441.05173,169.88576 441.08631,169.88629 C 441.34679,168.38912 441.73598,166.90557 441.74805,165.38002 C 442.48209,164.49568 441.45826,165.16696 440.89972,164.71174 C 440.98272,164.11159 441.01991,163.37959 441.1342,162.95159 C 441.20383,162.24428 441.59087,161.55138 441.49177,160.93461 C 441.36073,160.14561 441.60464,159.61333 440.7785,159.63618 C 440.15933,160.12679 439.65508,159.64569 439.133,159.72738 C 438.85506,159.08345 438.31482,158.56502 437.80399,158.06616 C 438.01604,157.78184 438.83222,157.06907 439.432,156.92881 C 440.04025,156.71281 440.90156,156.52835 440.71479,155.82452 C 441.82614,155.3337 442.69247,154.24877 443.98237,154.24117 C 444.39679,154.04317 445.34058,153.71204 445.17177,152.99284 C 446.05547,152.30468 444.53264,152.74755 444.60042,152.01963 C 444.85673,151.33085 443.61403,151.51866 444.07274,150.93651 C 444.52742,150.19697 444.40206,149.5881 443.79549,149.04842 C 443.79174,148.47605 443.64481,148.04242 443.71279,147.36637 C 443.56956,146.92095 443.81474,146.29864 444.05931,145.77726 C 444.89444,145.23385 443.89417,144.8859 443.27101,144.88957 C 442.67423,144.97695 443.46182,143.27941 442.6149,143.74489 C 441.75853,144.37477 442.5875,143.14548 441.7931,143.03065 C 441.43564,143.04098 442.24478,142.56562 441.18038,142.30383 C 440.441,142.40803 441.28136,141.66302 441.23643,141.30193 C 440.5129,140.4977 440.5107,141.7299 439.94815,141.53276 C 439.26369,141.4414 439.36036,141.38361 438.67744,141.72689 C 437.92004,142.40446 438.32604,140.82901 437.56107,141.35426 C 436.92596,141.2873 436.80275,141.95488 436.7831,141.08517 C 436.24468,140.43767 436.26253,141.54657 435.44447,141.02565 C 435.62296,140.72793 434.30523,140.88575 434.27698,140.31719 C 434.22931,139.98757 433.27505,140.15364 433.24715,139.67924 C 432.68774,139.43192 432.90122,140.92013 432.09885,140.66299 C 431.59996,140.79173 431.01824,140.85921 430.44425,140.75434 C 429.72609,140.91046 429.60874,140.07305 429.93507,139.6891 C 429.73809,139.1839 429.762,138.70833 430.18517,138.31998 C 430.32852,138.0387 430.13449,137.49715 430.34811,137.1798 C 430.49765,136.86273 430.3267,136.31583 430.50118,135.99429 C 430.4575,135.58568 430.24518,135.23596 429.91604,134.73924 C 429.66801,134.4898 428.86372,134.31455 429.43992,134.01922 C 429.84892,133.98828 430.70024,134.02496 430.80369,133.40495 C 430.43326,132.73561 429.70313,133.99869 429.60029,133.27037 C 430.03261,132.7407 429.12206,131.88824 428.89283,132.86362 C 428.60964,133.24606 427.93492,133.00867 427.55857,132.52194 C 427.23573,133.0432 426.62595,131.97522 426.12335,132.12733 C 425.67268,132.18111 425.37237,131.38455 424.87626,131.55671 C 424.4598,130.67485 424.19592,132.43539 423.50851,131.38848 C 422.96849,131.31177 422.50956,131.12636 422.00129,131.58656 C 421.69295,132.3181 420.88664,132.23433 420.23043,132.34413 C 418.97518,133.03731 419.97473,132.07916 419.80451,131.90536 C 418.75576,131.87839 419.5183,130.83218 419.18538,130.25048 C 419.14554,129.58196 419.82947,129.07939 418.87557,129.13641 C 418.29745,129.13061 417.79348,128.98419 417.33966,128.7071 C 416.59205,127.99941 415.41296,127.6951 414.60834,126.98744 L 414.59925,126.98759 z M 366.86946,177.47824 C 366.74064,177.49096 366.61638,177.49351 366.61565,177.53709 C 366.70756,177.50858 366.795,177.4843 366.86946,177.47824 z M 393.86863,157.91783 C 393.77842,157.72447 393.6936,157.53799 393.68031,157.53879 C 393.67722,157.53898 393.67307,157.54703 393.68091,157.57519 C 393.72042,157.79177 393.78689,157.89047 393.86863,157.91783 z M 400.13511,150.65171 C 400.19776,150.72241 400.27541,150.80078 400.36664,150.89352 C 401.04639,151.59395 400.5316,151.10364 400.13511,150.65171 z M 371.09693,175.61497 C 370.19142,175.69657 369.44569,176.35843 368.57466,176.60348 C 369.49961,176.51839 370.22699,175.84208 371.09693,175.61497 z M 366.48177,177.69402 C 366.39644,177.76541 366.46331,178.75749 366.50322,178.9767 C 366.61491,178.5984 366.6009,178.19969 366.56563,177.81091 C 366.52759,177.70847 366.50147,177.67754 366.48177,177.69402 z M 376.62561,177.56088 C 376.77154,177.64825 376.89623,177.80157 377.03181,177.90897 C 376.85777,177.87109 376.70307,177.79292 376.62561,177.56088 z M 366.0919,189.21153 C 366.13531,189.18765 366.12803,189.66269 365.99399,189.88653 C 366.00601,189.77941 366.01848,189.64454 366.03248,189.46731 C 366.05802,189.29776 366.07645,189.22002 366.0919,189.21153 z"
       id="Avon"
       sodipodi:nodetypes="cccccccccccccccccccccccccccscccccccccccccccccccccscccccccccccccccccccccccccccccccccccccccsscccccccccccccccccccccccccccccccccccccccccccccccccccccccccccccccccccccccccccccccccccccccccccccccccccccccccccccccccccccccccccccccccccccccccccccccccccccccccccsscccccccccccccccccc"
       onclick="javascript:respond(this.id);" />
    <path
       style="fill:#ffc8c8;fill-opacity:0.33000004;fill-rule:evenodd;stroke:#000000;stroke-width:0.57279253;stroke-opacity:1;display:inline;enable-background:new"
       d="M 495.10607,119.003 C 495.03249,119.00699 494.94403,119.03867 494.83521,119.1015 C 494.39519,119.16913 494.56065,119.82067 494.60822,120.13898 C 494.34468,120.69053 494.89343,121.12431 495.02776,121.62609 C 495.5812,121.89513 495.14799,122.45999 495.02029,122.86663 C 495.11503,123.31985 494.57106,123.26831 494.46042,123.66534 C 494.32288,123.81417 493.98051,124.50675 494.41756,124.47421 C 494.55128,124.87591 494.83973,124.87514 494.92099,125.35853 C 494.79721,125.75851 495.40683,126.35138 494.70151,126.28311 C 493.8998,126.66425 493.19326,127.26024 492.32602,127.52563 C 491.94441,127.35441 491.23235,127.7478 491.11052,127.32982 C 490.84414,127.00009 490.92556,126.39236 490.38211,126.47746 C 490.03183,126.18204 489.91199,125.75435 490.02476,125.33699 C 489.56335,125.0994 489.46059,124.75074 489.33061,124.28672 C 488.97666,124.11051 488.71946,123.68664 488.56194,123.27529 C 488.62335,122.60919 487.98762,122.91009 487.648,123.1308 C 487.20147,123.23755 486.8189,123.66146 486.35395,123.85722 C 485.97395,124.12057 485.54375,122.94262 485.56308,123.76707 C 485.98165,124.15576 485.80757,124.84578 486.29154,125.18325 C 486.29302,125.58734 487.02101,125.88017 486.78541,126.05833 C 486.91625,126.35915 486.90156,126.68773 487.01609,126.9284 C 487.20987,127.19305 487.62377,127.54513 487.90547,127.85324 C 488.29473,128.08255 488.43422,128.57885 487.85695,128.3239 C 487.65515,128.54643 487.20463,128.89475 486.95637,128.97796 C 486.928,129.01727 486.89535,129.12568 486.85758,129.25213 C 486.86499,129.20197 486.8653,129.14352 486.86415,129.08287 C 486.9352,128.72005 485.88213,128.11027 485.415,127.83849 C 484.64408,127.52114 484.16492,128.07071 483.23875,127.50837 C 482.77652,126.83966 482.35654,126.84862 481.72196,126.15235 C 481.19503,125.69992 480.93971,124.76706 480.16965,125.48292 C 479.42453,125.71295 479.69505,126.41197 478.98068,126.87476 C 478.48858,127.41248 478.61531,127.70639 479.0672,128.67755 C 479.29277,129.47736 479.86731,130.61029 479.87994,131.20118 C 479.39948,131.00382 478.4731,130.93823 477.81438,130.74706 C 476.6082,131.74263 477.37717,130.09101 476.62142,130.21257 L 476.5743,130.20396 C 475.87798,130.20183 475.59609,129.43667 475.23834,128.98588 C 474.72464,128.41712 474.11253,129.34583 473.32438,129.16821 C 472.60886,129.14389 472.10828,128.12086 471.59858,128.23855 C 471.03336,127.45728 470.01311,127.3972 469.42837,126.58336 C 469.01651,125.95831 468.39796,125.58031 467.86115,125.02144 C 466.5087,126.84835 465.16109,128.67498 463.80863,130.50189 C 461.7103,133.31652 459.64124,136.17082 457.82789,139.24717 C 457.44018,140.55936 456.91643,139.33163 456.07334,139.40806 C 455.44809,139.0459 454.57816,139.12922 454.36569,138.44051 C 453.77229,138.2997 454.21639,139.53962 453.12723,139.68282 C 453.06681,138.59463 451.43724,139.4576 451.2804,138.82096 C 451.60255,137.45932 450.59923,137.79699 449.96923,138.52338 C 449.40694,139.48256 448.2294,139.16715 447.4248,139.77813 C 447.3532,140.29705 446.99208,141.15322 446.92245,141.76931 C 446.20932,141.41836 445.56014,141.48352 444.61688,141.57292 C 443.9842,141.65448 443.83043,142.68248 443.7248,143.2981 C 444.1648,143.54783 445.85551,143.58069 444.80584,144.44527 C 444.37235,145.1617 444.43073,145.73132 444.39838,146.49125 C 444.71949,147.10237 444.2079,147.70304 444.90748,148.27758 C 445.80249,148.63062 444.24609,149.9414 444.92887,150.11906 C 445.5631,150.19511 445.13416,151.4573 445.98266,151.32306 C 446.55244,151.45099 445.8532,152.71158 445.24763,152.88587 C 444.70403,153.36237 443.63873,153.15223 442.99753,153.75981 C 442.53625,154.36713 441.27847,154.44194 441.30205,155.20711 C 441.14585,155.87289 439.84861,155.7834 439.34633,156.26408 C 438.45865,156.84339 437.97426,157.10519 438.96859,157.83971 C 439.55419,158.56251 439.64424,158.82321 440.49228,159.04525 C 440.79698,158.91393 442.05359,158.5909 441.99602,159.05771 C 442.26298,159.94053 442.15749,160.61884 441.96074,161.44517 C 441.75263,162.29461 441.62337,162.83226 441.56691,163.74463 C 441.35298,164.72898 443.37926,163.71955 442.48369,164.62203 C 442.34202,166.01438 442.14759,167.44443 441.8399,168.83329 C 441.34317,169.81206 442.08225,170.09488 442.85254,170.38568 C 443.24427,170.90106 443.73211,171.88193 443.35272,172.20035 C 442.99762,172.43345 443.23305,173.15547 442.4971,173.29532 C 442.08935,173.70129 442.74686,174.96568 443.37368,175.1413 C 443.7462,175.12336 444.11849,175.09824 444.49085,175.07563 C 443.53274,175.13994 442.59099,175.2374 441.69741,175.4888 C 441.64507,176.24362 441.32105,177.4597 441.96842,178.20944 C 442.49161,179.02753 442.28348,180.08668 441.778,180.87199 C 441.40865,182.24886 439.95974,180.18628 440.05556,181.83109 C 440.37972,182.76745 439.06371,182.33603 438.63891,182.53136 C 438.2989,183.22297 437.25541,183.24679 436.91038,183.6879 C 436.4576,183.91447 435.9474,184.85468 436.89931,184.71237 C 437.76118,184.90384 438.11807,186.13158 439.12994,186.04707 C 439.88092,186.23026 440.23628,186.41996 440.73829,186.69677 C 441.23956,187.46129 442.2183,186.96351 442.77303,187.55548 C 442.07064,188.40601 443.88669,188.38409 443.78718,188.07417 C 444.40214,187.98152 444.59261,189.46429 444.12716,189.2995 C 444.90478,189.82582 444.18525,191.00913 443.46476,190.71074 C 442.67835,191.15032 443.62488,191.4139 443.83042,191.7853 C 444.11938,192.39918 443.20463,192.99573 443.71292,193.75125 C 443.49604,194.34647 444.7229,193.5266 445.12584,193.38934 C 445.58882,193.7096 445.68054,194.29547 446.46084,194.55106 C 447.10875,194.66704 447.03141,196.12476 447.44658,196.74289 C 447.6695,197.55232 447.75226,198.43983 447.7899,199.29317 C 446.72765,199.75228 447.7479,200.51135 447.56798,201.19509 C 446.89257,201.83451 446.9566,202.71149 446.27711,203.23703 C 445.69697,203.97545 445.83189,204.69654 445.51596,205.48626 C 445.32127,206.21873 444.91634,207.08556 445.23249,207.64293 C 445.53661,208.23901 444.55783,208.93864 444.49372,209.5441 C 443.91984,210.01179 444.05046,210.87434 443.55388,211.22308 C 443.22147,211.66638 443.14024,212.73919 442.67949,212.88219 C 442.63552,213.79913 441.73231,214.28985 441.86369,215.2357 C 441.17313,215.84816 440.32353,216.43895 440.27519,217.46117 C 439.48524,218.34895 438.97422,219.4609 438.24894,220.48331 C 438.21232,221.4191 438.23028,222.38327 436.96858,222.59085 C 435.76448,222.99152 437.62186,224.2606 436.40125,224.63012 C 435.68877,224.91394 435.18409,225.23951 434.47103,225.52691 C 434.21742,226.27255 434.97964,226.4829 434.83345,227.53183 C 434.42494,228.37975 434.8424,229.19394 435.66621,229.56647 C 435.91016,230.43309 436.52313,231.09958 437.28291,231.27792 C 438.07569,231.13357 438.86334,231.83213 438.9007,232.49128 C 439.63368,232.23217 440.44019,232.62129 441.16634,232.54739 C 442.55706,232.87663 443.97175,233.18416 445.0933,234.17323 C 445.87896,234.72474 447.06884,234.10426 447.88735,233.79764 C 448.82959,233.74041 449.03048,234.97026 449.7192,235.4491 C 450.15811,236.31698 451.05691,236.57381 451.5451,237.30739 C 452.14281,237.88999 452.53828,239.04367 453.2091,239.03684 C 454.16911,239.42415 454.44202,240.54302 454.63967,241.41858 C 454.36455,241.95119 454.66857,242.15172 455.08642,242.28504 C 454.71526,242.2614 454.50885,242.46794 454.75452,243.23029 C 455.07832,243.82474 455.9172,243.92391 456.14247,244.74823 C 455.80024,245.61994 456.64749,246.42808 457.18411,246.91093 C 457.68381,247.74121 458.1624,248.05354 459.03773,248.74058 C 459.95372,249.42215 460.89836,250.27806 462.07442,250.51286 C 463.37581,250.32101 461.79534,252.12358 462.63364,252.4863 C 462.30371,253.45362 462.98434,254.28926 463.83529,254.66513 C 464.43312,255.08026 464.55203,256.92592 465.2533,256.29532 C 465.78389,255.40008 466.69945,255.83967 467.27699,255.36877 C 468.46775,255.67407 469.16938,255.06081 469.31098,253.93461 C 469.89182,253.79966 469.6665,252.48543 470.7168,252.58612 C 471.84551,252.7658 471.8903,251.01434 472.93745,251.63749 C 473.7608,251.40071 474.61662,251.54687 475.29323,250.90273 C 476.07001,251.04469 477.1861,251.00337 477.62145,250.20603 C 477.41888,249.4003 478.28405,249.13262 478.95354,248.94335 C 479.60601,248.50196 480.19745,247.30819 481.12878,248.08944 C 481.99022,248.8999 482.10431,250.05948 483.00535,248.48095 C 483.74894,247.77822 484.19979,246.41011 485.41933,246.73034 C 486.39591,246.02503 487.57504,246.62481 488.5973,246.27314 C 489.45159,246.4076 490.01663,245.44929 490.62504,245.02703 C 490.67176,246.18807 490.52928,247.69186 490.75675,248.9716 C 491.53514,247.81101 492.19564,246.59075 492.96225,245.42963 C 493.55433,244.91397 495.15628,243.71312 495.37238,245.13562 C 495.78717,246.39945 496.73704,247.28413 497.3352,248.43878 C 497.82563,248.30055 498.46328,246.89054 499.47491,247.70764 C 500.37036,247.7813 501.19279,248.49723 502.01006,248.70834 C 502.73108,249.11325 504.394,248.90529 504.42622,249.89898 C 505.4169,249.62937 506.25896,250.45331 507.22733,249.94613 C 508.31543,249.72322 508.68773,250.4953 509.55659,250.99726 C 510.62374,252.79792 512.09879,254.42061 514.10856,255.15926 C 514.97145,255.68285 515.95567,255.51442 516.70643,254.85273 C 517.6208,254.59611 517.48832,252.60761 518.56739,253.18653 C 519.53549,254.29508 520.00324,253.04261 520.24001,252.05912 C 520.54302,251.23299 520.77177,250.52104 521.49331,250.01779 C 522.105,248.93619 520.70317,249.31951 520.23738,249.08969 C 519.40306,248.60973 520.24556,247.55723 519.1181,247.34173 C 519.3251,246.54946 518.23212,245.96073 519.0012,245.40789 C 519.67543,244.37042 520.54021,245.41364 521.33651,245.13393 C 520.44649,244.05375 520.37344,244.70498 520.88159,243.77896 C 521.16511,244.75789 522.88315,244.08848 521.96302,243.26284 C 520.4666,242.65017 522.04534,241.6187 521.67216,241.04059 C 520.71638,240.92275 519.9819,240.06604 519.43981,239.60256 C 518.10675,240.12434 518.14056,239.24265 517.80996,238.22963 C 518.22562,236.69039 517.94185,234.91975 518.45185,233.34182 C 518.28233,232.54685 518.77247,231.21597 518.03368,230.81159 C 517.81886,230.12596 517.10869,229.23253 517.57261,228.52641 C 517.88294,227.64524 518.90509,226.98314 518.22635,226.03465 C 517.42061,225.26861 519.26261,224.34165 517.88945,223.86956 C 517.08625,222.8802 515.84291,222.70843 514.63736,222.7023 C 513.70866,222.58736 514.76845,221.25879 514.75312,220.63299 C 514.39702,219.63147 515.22024,218.6745 515.18199,217.61877 C 514.68406,216.31485 513.54732,215.20489 513.25688,213.76054 C 512.96497,213.03935 513.5602,212.17224 513.37436,211.23076 C 512.4899,211.12937 511.90832,210.16915 511.27023,209.59326 C 509.93125,209.0792 511.02374,207.98926 510.90653,206.94935 L 510.91593,206.9492 L 510.90464,206.83662 L 510.89244,206.66768 C 510.89529,206.65164 510.89854,206.63642 510.90104,206.62056 C 511.05708,207.17734 512.68525,206.84824 512.93728,206.44557 C 513.91702,206.75982 514.55814,205.5629 515.5508,205.95082 C 516.62042,206.482 517.66898,206.43377 517.61269,205.06122 C 518.04422,204.12997 518.48144,203.20422 518.75899,202.24173 C 519.62379,201.94323 519.86013,201.28951 520.18169,200.21638 C 520.52685,199.97018 521.00388,199.80202 522.11944,199.77051 C 523.10218,199.3372 523.72911,199.14072 524.70307,199.73673 C 525.57108,200.305 526.66023,200.35107 527.31025,201.11211 C 528.41848,200.57851 528.66239,199.40518 528.87963,198.30435 C 528.46917,197.62677 527.13158,198.76358 527.84288,196.99669 C 527.93064,196.11363 528.54319,194.99526 527.33547,194.74987 C 527.59099,193.49512 528.84777,193.6685 529.56676,193.31241 C 529.00096,192.39312 530.63828,191.47837 529.1051,191.55347 C 528.88733,190.78693 529.33197,189.74783 528.88091,188.82267 C 527.85902,188.22597 528.45972,187.08459 528.3741,186.04959 C 529.33056,185.55811 528.0943,183.79896 529.64853,184.14888 C 530.43752,183.9021 530.88027,185.32546 531.82325,185.51271 C 532.42017,185.85991 532.53755,183.92451 533.11176,183.32984 C 534.14859,182.29974 532.72704,181.66291 532.04132,181.13001 C 531.36576,180.42743 532.31066,179.27722 532.31629,178.46604 C 531.4968,178.74581 530.31427,178.29858 530.19591,177.54298 C 530.30239,176.29287 528.49946,177.38374 528.71577,176.69378 C 527.83613,176.12374 527.47622,175.51991 526.92997,174.98517 C 526.29571,174.61773 526.07725,174.15439 525.32,173.6777 C 525.4761,173.11384 525.92191,171.12548 525.27355,171.46076 C 524.26395,172.2569 524.7895,170.35658 523.73564,170.52796 C 523.29689,169.82405 524.22743,168.8948 524.99554,169.44504 C 525.18411,168.91007 526.32619,169.42728 526.70216,168.66475 C 527.24006,167.87057 528.28583,169.05411 528.66388,168.52858 C 527.63685,167.85356 528.16266,166.86611 528.68535,165.87825 C 528.935,164.89447 528.63208,163.88141 528.14943,163.04929 C 527.11197,162.86413 525.7436,162.60482 525.63946,161.3058 C 524.3313,161.21495 524.85395,159.47105 523.98937,159.28481 C 523.54073,158.73196 523.59062,157.39543 522.57963,157.02489 C 521.48012,156.32295 522.38872,155.38506 521.55538,154.7773 C 521.24962,153.53458 521.2644,152.18653 521.50916,150.88768 C 521.4652,150.80506 521.4158,150.75877 521.36589,150.74912 C 521.01649,150.68161 520.50867,152.16704 519.57144,151.89736 L 519.58052,151.87841 C 519.53779,151.91689 519.48933,151.94794 519.44118,151.97472 C 519.65787,151.78818 519.34393,151.48362 519.33372,151.16837 C 519.0713,150.51907 518.87651,149.84772 518.48422,149.25615 C 518.30111,148.80869 518.16134,148.54523 517.91284,148.24143 C 517.64939,147.97308 517.12798,147.63601 517.18236,147.26694 C 516.86249,146.98304 516.80428,146.71638 516.50937,146.35728 C 516.35794,146.08202 516.24743,145.62561 515.9535,145.70877 C 515.8339,145.35638 515.41444,144.95952 515.36128,144.57223 C 515.03493,144.1129 514.67197,143.67641 514.52886,143.12019 C 514.41753,142.73709 514.47363,142.31245 514.02324,142.10436 C 513.65763,141.87746 513.43739,141.19899 513.13607,141.87487 C 512.67508,142.05927 512.16598,142.23995 511.70845,142.48134 C 511.35583,142.62222 510.9042,143.08136 510.73111,142.47888 C 510.56496,142.29531 510.43965,142.27308 510.20047,142.21524 C 510.11825,141.9475 510.0667,141.71005 509.81965,141.35707 C 509.68434,140.97205 509.43108,140.50853 509.43331,140.17011 L 509.42377,140.16086 L 509.41343,140.10465 L 509.40341,140.06723 C 509.51184,140.12534 509.68011,139.6279 509.98741,139.58761 C 509.98018,139.41666 510.0034,139.05812 510.01306,138.87301 C 510.02704,138.59112 509.9058,138.49141 509.7016,138.22982 C 509.81851,137.94875 509.48184,137.44158 509.70688,137.42158 C 509.69623,136.91187 509.2072,137.22184 509.3948,136.74081 C 509.11926,136.38014 509.65138,136.12298 509.8031,135.86945 C 510.28087,135.75725 510.32502,135.31282 510.25807,134.97852 C 510.52345,134.70027 510.80257,134.94942 510.91913,135.17421 C 511.36141,135.15223 511.56458,134.66907 511.86512,134.42542 C 512.21523,134.03493 511.60558,133.86681 511.40163,133.6814 C 511.1817,133.36351 511.16594,133.16514 511.45326,132.83481 C 511.83653,132.65508 511.58148,132.11941 511.91026,132.06599 C 512.23001,131.76235 512.44668,131.58211 512.58051,131.12449 C 512.75562,130.7704 512.30776,130.33886 512.26199,130.05854 C 511.86679,129.95499 511.41463,129.85328 511.03709,129.86289 C 510.94149,129.6868 510.51636,129.39078 510.38445,129.04685 C 510.28362,128.69886 510.03428,128.49159 509.9006,128.2092 C 509.63815,128.23964 509.76225,127.68696 509.24657,127.87244 C 508.76735,127.99226 509.05569,127.5256 509.27505,127.32692 C 509.42172,126.96152 509.20168,126.65209 509.21033,126.26614 C 509.01091,125.85853 509.11282,125.63057 508.69703,125.35381 C 508.90472,124.77366 508.23678,124.96625 508.02749,124.65081 C 507.98002,124.23226 508.2422,123.8523 508.21375,123.42608 C 508.8424,123.21068 508.27761,122.90466 508.39565,122.50213 C 508.78572,122.26276 508.75536,121.82751 509.00954,121.56155 C 509.3357,121.29596 509.82705,121.35132 509.82684,120.98408 C 509.53775,120.74871 509.11641,120.71967 508.7308,120.6265 C 508.19454,120.54535 508.23823,121.08804 508.07619,121.37982 C 508.00445,121.57932 507.71971,121.85324 507.5578,121.84894 C 507.31542,122.20069 507.04355,122.3399 506.94297,122.73314 C 506.94458,123.09912 506.97719,123.47716 506.77282,123.79786 C 506.88825,124.40599 506.63466,124.46593 506.08111,124.57998 C 505.76009,125.10727 505.5903,124.71216 505.26194,125.04474 C 504.99504,125.34965 504.69981,125.1822 504.2879,125.23956 C 503.83968,125.19428 503.46887,125.34351 503.30807,125.6506 C 502.97489,125.83526 502.64803,126.15872 502.30038,126.08092 C 502.00844,126.34025 501.62411,126.06345 501.21046,126.08975 C 501.06415,126.4055 500.25956,126.19693 500.35868,125.7281 C 500.31139,125.1598 499.82829,125.31284 499.50235,125.09401 C 499.14294,124.91532 498.71668,125.19456 498.36986,125.36665 C 497.86003,125.66205 497.8212,124.85264 497.47437,124.63926 L 497.46497,124.63942 C 497.19211,124.45559 497.36638,124.16581 497.36803,123.89867 C 497.45336,123.58557 496.86854,123.50447 496.8361,122.99604 C 496.77575,122.48097 496.53938,122.24125 496.38511,121.87593 C 496.26845,121.46999 495.87331,121.10231 495.89592,120.71886 C 495.59087,120.31937 495.30808,119.9107 495.83152,119.67686 C 495.47633,119.44544 495.42492,118.98569 495.10607,119.003 z M 486.76773,129.49795 C 486.40315,129.92374 486.35271,129.9202 486.76773,129.49795 z M 508.35253,137.91407 C 507.7328,138.06898 507.72873,138.03454 508.35253,137.91407 z M 508.59805,137.98514 C 508.66422,138.03952 508.71119,138.12873 508.70641,138.28404 C 508.68378,138.16794 508.65223,138.05479 508.59805,137.98514 z M 508.83655,138.76112 C 508.95338,138.86435 509.08189,138.90128 509.14939,138.92504 C 509.14434,138.92714 509.13684,138.93081 509.13076,138.93474 C 509.15343,138.9379 509.16864,138.93733 509.17773,138.93396 C 509.21011,138.94839 509.19723,138.95422 509.08442,138.9731 C 509.10097,138.95427 509.11793,138.94303 509.13076,138.93474 C 509.08542,138.92841 509.00719,138.90693 508.89417,138.83533 C 508.87112,138.81447 508.85357,138.78882 508.83655,138.76112 z M 509.01146,139.10588 C 508.99508,139.20417 508.9926,139.32669 509.01711,139.44408 C 508.98937,139.37347 508.98154,139.28451 508.98422,139.16273 C 508.9943,139.13842 509.00165,139.12583 509.01146,139.10588 z M 509.30382,139.7306 C 509.31199,139.79752 509.32546,139.83481 509.33451,139.88044 C 509.30391,139.82047 509.26339,139.78378 509.22881,139.74126 C 509.25223,139.74476 509.27629,139.73741 509.30382,139.7306 z M 447.38151,174.85817 C 446.62869,174.95403 445.86747,174.99304 445.11041,175.03709 C 445.86752,174.98645 446.62479,174.922 447.38151,174.85817 z"
       id="Wiltshire"
       sodipodi:nodetypes="ccccccccccccccccccccccccccccccccccccccccccccccccccccccccccccccccccccccccccccccccccccccccccccccccccccccccccccccccccccccccccccccccccccccccccccccccccccccccccccccccccccccccccccccccccccccccccccccccccccccccccccccccccccsccccccccccccccccccccccsccccccccccccccccccccccccccccccccccccccccccccccccccccccssscssccccccsscccc"
       onclick="javascript:respond(this.id);" />
    <path
       style="fill:#ffc8c8;fill-opacity:0.33000004;stroke:#000000;stroke-width:0.74728721;stroke-opacity:1;display:inline;enable-background:new"
       d="M 437.83575,231.75226 L 435.26768,233.81719 L 437.61376,238.83301 L 432.07988,244.32087 L 432.23334,248.11208 L 434.83654,248.14865 L 436.04401,250.32065 L 427.96455,253.82904 L 426.41968,251.83285 L 424.24933,252.53979 L 424.60766,254.21547 L 422.87316,255.84606 L 419.19883,251.6132 L 417.79314,247.76284 L 416.78108,247.69967 L 415.02685,248.14941 L 413.99354,246.81534 L 412.07052,247.34797 L 412.7863,249.44811 L 411.54229,250.47991 L 409.41821,249.16407 L 408.10819,251.0378 L 407.00336,250.21543 L 406.09675,251.07142 L 406.76314,256.2054 L 404.69405,257.58132 L 406.08017,260.26084 L 403.78619,263.75262 L 405.51941,266.83675 L 404.53963,268.70496 L 399.57652,267.61675 L 393.40991,270.58267 L 393.35243,271.93497 L 388.38902,271.42734 L 384.31822,274.01789 L 382.10438,272.12297 L 380.04787,274.85002 L 373.4146,274.45038 L 366.99513,277.26036 L 365.3619,279.55991 L 364.7954,281.00081 L 372.71483,282.89046 L 373.41625,284.73057 L 372.18211,286.35279 L 368.00315,287.26348 L 365.61222,289.74587 L 365.80208,290.92387 L 367.8361,292.24122 L 365.81338,296.98972 L 366.43474,298.83117 L 370.75153,295.98626 L 388.10699,300.07054 L 403.79868,309.41784 L 405.65823,310.47784 L 411.66899,313.16015 L 411.94459,314.67706 L 413.45568,314.6518 L 413.05361,315.74961 L 416.67876,317.04036 L 420.20285,321.86632 L 420.31106,321.1538 L 420.20419,321.94638 L 422.06808,323.26657 L 424.53637,320.02213 L 426.65343,320.91767 L 424.44795,319.52311 L 425.60039,318.40275 L 424.24956,317.83474 L 425.38243,315.54355 L 427.28421,313.74 L 429.14122,314.0493 L 437.5314,314.15932 L 439.23368,315.39212 L 449.50061,316.99229 L 453.92272,315.65712 L 455.20888,317.14713 L 458.64866,316.92948 L 460.01204,318.24802 L 461.34045,317.47508 L 463.73295,319.87752 L 469.70544,320.86878 L 470.76818,323.96412 L 474.08127,321.5564 L 482.79196,320.47989 L 483.59175,318.02409 L 482.16505,317.7076 L 482.13829,316.10645 L 485.83639,311.5802 L 482.88308,310.95889 L 483.63638,305.72111 L 482.69749,304.64571 L 479.89194,307.47537 L 478.61682,306.64584 L 479.43501,305.29083 L 477.45451,307.17577 L 477.08467,305.41019 L 476.41,305.17122 L 475.55385,304.2546 L 474.3058,304.44563 L 473.80814,305.21471 L 473.95719,303.95096 L 471.38761,305.92583 L 470.78598,305.26522 L 474.02872,303.43926 L 472.98301,300.76405 L 474.74561,300.81468 L 473.71665,299.74079 L 470.46823,301.2265 L 469.16808,303.69066 L 467.32542,303.64138 L 468.36118,300.33079 L 470.11959,300.13124 L 468.43137,299.73903 L 469.41683,298.21106 L 471.93566,298.58938 L 471.81763,296.31909 L 471.15836,297.00078 L 470.5497,295.91986 L 473.82054,295.77511 L 472.17179,297.7446 L 478.32845,299.57362 L 475.42021,296.25888 L 475.48903,294.98646 L 477.14769,294.208 L 478.63357,297.46643 L 477.73399,298.74272 L 481.57838,298.17797 L 482.85902,299.33774 L 482.37271,300.1867 L 484.5725,301.24102 L 483.0307,304.21973 L 488.31142,299.15652 L 494.91522,297.1943 L 494.99528,297.19296 L 496.42212,296.91887 L 506.0084,298.5204 L 506.90679,296.57346 L 507.05703,295.98036 L 510.46287,293.73126 L 512.47297,293.61758 L 513.68871,290.89457 L 506.4062,291.77705 L 506.93728,288.81523 L 505.79866,285.97141 L 501.57076,288.74477 L 501.27693,286.13708 L 499.13311,283.64039 L 499.46064,282.87416 L 498.3334,280.71083 L 499.31856,279.76344 L 499.18782,276.73261 L 500.67917,275.5265 L 499.31847,274.36807 L 498.57192,270.42662 L 496.08822,272.1498 L 493.64661,271.60002 L 493.28245,270.17468 L 494.30984,266.36374 L 493.80112,265.87174 L 493.79962,265.78168 L 494.52908,264.50823 L 496.55471,264.72463 L 497.45011,263.19816 L 498.04884,258.89388 L 494.42203,258.10365 L 490.77455,260.8673 L 485.184,252.7826 L 481.1091,249.73761 L 480.90386,247.63895 L 479.89595,247.22537 L 476.753,250.23084 L 471.73211,251.07551 L 469.23556,252.62874 L 468.27148,254.83704 L 464.17827,256.08662 L 462.02742,253.16963 L 462.06681,250.13596 L 455.95073,245.94391 L 453.94475,241.51299 L 453.48782,239.32845 L 447.42518,232.94333 L 444.6644,233.66014 L 437.83575,231.75226 z M 503.51762,295.02851 L 504.20917,296.27821 L 505.0287,295.00326 L 506.73098,296.23606 L 506.73666,296.5763 L 506.33459,297.67411 L 504.31479,297.20737 L 503.51762,295.02851 z M 479.79326,301.57115 L 478.21634,302.44835 L 480.66765,303.57854 L 481.99456,302.71553 L 479.79326,301.57115 z M 474.26917,302.25406 L 474.70773,303.93842 L 475.4584,303.33528 L 474.26917,302.25406 z M 475.64107,304.08297 L 475.47245,304.17588 L 475.64391,304.2531 L 475.72397,304.25176 L 475.80403,304.25042 L 475.72263,304.1717 L 475.64107,304.08297 z M 418.59331,320.79213 L 424.83327,327.60471 L 423.88599,336.20909 L 427.08943,332.03145 L 428.72982,329.5616 L 427.16522,326.38456 L 427.90722,325.86165 L 423.45702,325.51562 L 418.59331,320.79213 z"
       id="Dorset"
       sodipodi:nodetypes="cccccccccccccccccccccccccccccccccccccccccccccccccccccccccccccccccccccccccccccccccccccccccccccccccccccccccccccccccccccccccccccccccccccccccccccccccccccccccccccccccccccccccccccccccccccccccccccccccccccccccccccccccccccccc"
       onclick="javascript:respond(this.id);" />
    <path
       style="fill:#ffc8c8;fill-opacity:0.33000004;stroke:#000000;stroke-width:0.95099998;stroke-miterlimit:4;stroke-dasharray:none;stroke-opacity:1;display:inline;enable-background:new"
       d="M 186.29635,256.28441 L 185.27095,256.73392 L 183.44881,260.93276 L 184.77316,273.55915 L 185.92082,274.92924 L 184.46176,275.12875 L 183.91472,284.06098 L 175.31976,289.92781 L 175.09152,291.57835 L 172.85548,291.79091 L 172.66315,296.21965 L 169.42751,298.43536 L 169.4535,299.99928 L 163.98778,302.17018 L 162.90198,304.52468 L 162.02595,303.49994 L 159.37778,304.75891 L 158.99591,307.62647 L 159.94228,307.96048 L 158.40152,313.70866 L 155.29687,318.2687 L 150.91649,319.28923 L 148.92183,318.02601 L 146.43585,318.58242 L 146.71159,319.79222 L 144.49281,321.04398 L 141.72394,320.57597 L 140.57643,318.59865 L 138.53435,320.02239 L 140.89097,322.14404 L 138.95234,324.25561 L 139.44376,327.98327 L 138.39667,327.12609 L 136.646,325.77642 L 136.77947,323.34531 L 132.55741,328.35641 L 126.24264,326.81593 L 125.82624,327.60512 L 127.65732,328.87109 L 126.87339,333.3921 L 127.92459,334.49622 L 126.54304,334.43713 L 124.76801,336.54593 L 126.16117,337.30469 L 125.95018,339.9944 L 125.10875,346.59533 L 123.44298,349.74179 L 122.15636,349.85605 L 123.53349,350.26514 L 119.95484,352.14699 L 118.10923,350.00646 L 117.80042,352.3479 L 114.87942,352.572 L 116.87438,353.23829 L 114.81337,354.13746 L 113.76491,353.19796 L 113.6244,354.58972 L 112.23125,353.83098 L 112.63062,356.94268 L 110.99213,356.80558 L 112.23288,359.47088 L 111.21062,365.03537 L 107.87167,365.95605 L 105.42877,369.72278 L 101.21961,369.96855 L 101.18518,373.43747 L 99.094294,376.84836 L 98.572897,376.85713 L 95.845849,378.2924 L 94.42268,380.6526 L 92.782654,380.42289 L 88.720034,384.56679 L 84.245057,384.81703 L 83.447909,383.616 L 81.474637,384.2564 L 81.276634,387.72809 L 76.550571,393.17991 L 76.28049,392.92717 L 72.384092,391.68564 L 71.71905,387.97118 L 70.535891,388.77327 L 68.964664,387.76022 L 64.064573,388.27491 L 57.603567,393.32367 L 56.473316,392.38553 L 52.850165,397.12926 L 47.595298,397.21766 L 42.80747,404.49218 L 45.246271,411.56282 L 41.700606,415.43044 L 42.339845,417.59127 L 44.501129,418.41943 L 45.329887,421.52392 L 46.803463,422.19898 L 49.873836,420.50064 L 51.174809,421.25064 L 53.380772,419.22721 L 58.464744,419.31665 L 60.241151,417.29016 L 61.283804,417.87984 L 64.036735,412.46119 L 62.169596,409.02424 L 64.386836,407.6799 L 65.382158,405.41952 L 72.71652,406.16067 L 76.733321,409.72613 L 76.677507,411.29142 L 78.386506,410.74809 L 78.027289,410.05428 L 82.177879,410.59168 L 84.620721,412.97947 L 87.547682,412.49798 L 89.645973,414.45931 L 90.240444,413.92442 L 94.544616,419.39931 L 94.248933,421.9155 L 96.684599,423.87114 L 96.012613,424.66464 L 97.243417,426.11566 L 95.847587,430.12208 L 97.322531,430.87945 L 98.248968,434.93944 L 101.45458,435.84266 L 101.82784,437.99766 L 105.52019,437.42097 L 105.46979,434.38573 L 108.48549,429.39492 L 113.38557,428.88023 L 115.90895,429.9596 L 117.16123,427.77725 L 116.60515,425.69736 L 119.94424,424.16946 L 121.4333,420.85102 L 120.27143,418.00944 L 118.887,417.77542 L 119.35508,414.55649 L 114.86439,413.86014 L 113.981,412.39298 L 115.16449,410.99396 L 116.54878,411.8352 L 118.75901,410.06899 L 117.06123,406.36161 L 120.54236,403.53455 L 122.25715,402.72352 L 123.73345,403.56322 L 125.90764,399.62603 L 126.64592,402.82467 L 127.62695,404.62982 L 131.03483,402.31859 L 132.21791,395.9692 L 134.23128,392.8169 L 137.14221,391.98576 L 138.9045,394.03508 L 145.83926,386.72443 L 151.46188,387.84429 L 152.78883,390.15821 L 153.52993,387.98447 L 155.65533,386.65195 L 155.11818,385.09661 L 157.32246,383.58781 L 155.14819,381.97769 L 155.12222,380.41377 L 156.20923,378.74879 L 155.83735,376.67608 L 157.95266,374.73651 L 159.33848,375.05284 L 157.71548,370.92223 L 158.98224,368.99693 L 162.66435,367.8029 L 162.72415,367.70926 L 165.0699,367.33018 L 165.20768,365.7738 L 166.41696,365.92841 L 168.00254,367.80574 L 167.53719,371.18928 L 169.01931,372.37879 L 169.6858,370.63856 L 171.40334,370.60966 L 174.02553,367.78676 L 174.21231,368.5658 L 175.16447,368.63211 L 173.1941,369.44744 L 173.81454,370.47648 L 176.99282,369.73347 L 177.94927,370.67451 L 180.41782,369.06863 L 185.18153,370.81016 L 189.64063,369.60306 L 190.14049,368.29787 L 192.99851,369.20694 L 195.87783,366.47234 L 194.29071,364.50241 L 194.87082,363.10327 L 195.86774,365.8653 L 197.55504,364.01525 L 203.57528,363.21414 L 216.09129,365.00023 L 222.89303,370.00087 L 223.03667,373.7241 L 224.73405,372.48111 L 227.40529,372.61113 L 225.89447,369.69308 L 229.6585,367.89045 L 229.51625,364.86704 L 224.9911,367.02211 L 226.4141,364.65163 L 225.3658,363.72242 L 226.72137,362.21759 L 226.34079,360.23767 L 225.04391,359.7346 L 225.89414,359.20571 L 222.09848,358.48737 L 222.95298,358.2157 L 225.48469,355.48694 L 224.34726,354.11668 L 224.99909,352.1091 L 223.53714,352.13369 L 226.34902,350.26474 L 226.39919,348.3599 L 227.0655,346.60938 L 224.19177,344.75372 L 222.58489,346.52007 L 221.52771,345.05583 L 224.41285,342.67105 L 222.72668,339.66333 L 223.91288,338.42894 L 226.60291,339.69075 L 228.8058,337.48212 L 228.18537,336.45308 L 226.13612,337.44469 L 225.61171,331.73125 L 223.30106,332.37733 L 221.5316,329.89589 L 220.14853,329.74419 L 217.92976,330.99595 L 219.45639,329.32357 L 217.06081,324.85604 L 218.05152,322.31787 L 216.31657,321.91481 L 216.34682,323.73595 L 215.71494,322.01755 L 213.83932,322.99595 L 213.30814,321.80074 L 213.85083,318.14831 L 214.79267,312.66749 L 211.67924,311.77301 L 210.60912,310.14431 L 209.10229,301.9259 L 206.64649,299.37367 L 207.62866,296.32105 L 204.95002,290.81882 L 205.48127,286.47701 L 203.99487,285.03028 L 201.51043,285.67928 L 202.1524,288.00474 L 200.33431,287.52072 L 197.16894,283.4984 L 194.58375,283.62422 L 192.1539,282.0184 L 197.78333,279.23753 L 198.76994,276.45244 L 198.43951,271.95018 L 199.50496,268.37127 L 201.04581,268.17039 L 196.16283,259.24717 L 197.0661,256.37085 L 186.29635,256.28441 z"
       id="Cornwall"
       sodipodi:nodetypes="ccccccccccccccccccccccccccccccccccccccccccccccccccccccccccccccccccccccccccccccccccccccccccccccccccccccccccccccccccccccccccccccccccccccccccccccccccccccccccccccccccccccccccccccccccccccccccccccccccccccccccccccccccccccccccccccccccccccccccccccccccccccccccccccccccccccccccc"
       onclick="javascript:respond(this.id);" />
    <path
       style="fill:#ffc8c8;fill-opacity:0.33000004;stroke:#000000;stroke-width:0.95545185;stroke-opacity:1;display:inline;enable-background:new"
       d="M 357.8329,186.64768 L 360.55406,188.23585 L 359.23705,198.14237 L 361.37718,201.97717 L 361.79358,205.56019 L 365.58965,207.89398 L 367.40051,206.89655 L 365.58965,207.98115 L 361.79358,205.56019 L 359.81807,208.56218 L 358.41391,211.47702 L 355.69277,212.47444 L 358.16216,210.47957 L 359.40167,206.80939 L 358.32676,206.73193 L 355.69277,209.47247 L 352.97161,209.81138 L 346.61902,207.98115 L 341.09925,209.88886 L 338.62019,209.5596 L 330.12749,213.3944 L 315.69859,212.63906 L 311.25372,207.98115 L 308.28078,207.80684 L 305.395,204.892 L 300.11733,203.22638 L 296.07916,203.14891 L 291.21788,205.89913 L 290.05582,204.56276 L 279.91686,202.55822 L 278.59986,204.47558 L 279.18089,212.47444 L 272.33441,213.64618 L 270.10715,212.47444 L 266.31109,212.56159 L 266.72749,219.55331 L 270.10715,223.80453 L 274.23247,225.72191 L 279.51014,230.3895 L 282.63801,230.46698 L 287.49928,234.6407 L 290.22045,234.2243 L 293.6098,235.38637 L 291.21788,243.04627 L 291.71174,243.96623 L 292.44772,244.05337 L 293.7744,244.30517 L 300.20446,244.96367 L 302.09281,242.88165 L 301.9282,240.88677 L 306.0535,239.55041 L 308.36793,241.13854 L 312.57071,240.13144 L 313.8877,240.79962 L 313.81026,241.55496 L 313.97486,242.21346 L 317.84839,242.55239 L 317.84839,250.04767 L 323.03894,249.12771 L 327.49349,254.29888 L 331.86088,256.7973 L 341.92238,255.87733 L 339.36585,262.62695 L 341.34136,263.13052 L 341.34136,264.45719 L 342.99727,264.54436 L 344.55638,266.53922 L 346.37695,264.29258 L 348.27496,264.21511 L 354.78248,263.13052 L 354.45324,269.37657 L 356.93229,271.71038 L 356.42874,273.62778 L 359.31453,272.62066 L 360.80582,273.70524 L 363.6916,272.95959 L 364.02088,276.87186 L 365.58965,278.87641 L 367.2359,276.54261 L 373.5788,273.95703 L 380.096,274.46058 L 382.15865,271.71038 L 384.29879,273.70524 L 388.34664,271.20683 L 393.2079,271.78787 L 393.28539,270.46117 L 399.38618,267.6238 L 404.25714,268.79554 L 405.24489,266.95561 L 403.59863,263.87615 L 405.9034,260.45778 L 404.58639,257.71725 L 406.64905,256.46804 L 406.06802,251.38405 L 406.97831,250.46409 L 408.04352,251.29689 L 409.3702,249.54411 L 411.43285,250.88047 L 412.66272,249.88304 L 412.00422,247.80104 L 413.90224,247.29746 L 414.81252,248.63382 L 416.6234,248.21743 L 417.61115,248.2949 L 418.92813,252.1297 L 422.47243,256.38089 L 424.20582,254.79274 L 423.79908,253.12711 L 426.02639,252.46864 L 427.50802,254.4635 L 435.50683,251.13226 L 434.35446,248.96308 L 431.79795,248.88563 L 431.71079,245.13797 L 437.24024,239.80218 L 435.01298,234.80533 L 437.56948,232.8008 L 433.77344,229.30492 L 433.35704,225.63476 L 435.67147,224.63732 L 435.41968,223.55272 L 440.61988,215.64105 L 444.57089,208.05861 L 444.90014,204.97918 L 446.96279,201.14435 L 447.04996,197.72597 L 446.06221,194.56906 L 444.73551,193.3973 L 443.08927,194.15263 L 443.41852,191.98347 L 442.50824,190.98603 L 443.99956,190.15321 L 443.34103,188.07121 L 437.15308,191.15065 L 430.96515,193.64909 L 429.57067,191.73169 L 427.25621,193.2327 L 427.01413,194.89832 L 425.11609,195.31471 L 423.46985,197.39672 L 421.15541,196.56391 L 420.66154,197.48388 L 419.58665,197.30956 L 417.44651,196.3993 L 418.52141,194.2301 L 411.67496,192.06093 L 408.95381,193.97833 L 407.47218,193.14554 L 403.51148,195.47934 L 402.52374,193.3973 L 396.00653,189.48504 L 390.15752,188.81686 L 389.33439,187.81943 L 387.93022,187.98406 L 382.3233,187.48049 L 383.47565,189.56251 L 383.14641,191.98347 L 375.64145,192.1481 L 374.74087,190.98603 L 373.33671,193.81371 L 368.88214,191.56706 L 366.08353,191.15065 L 364.84398,192.81628 L 362.53924,191.81885 L 363.36235,189.73683 L 362.45209,188.14868 L 357.8329,186.64768 z M 279.91686,213.05546 L 279.91686,213.05546 z"
       id="Somerset"
       sodipodi:nodetypes="ccccccccccccccccccccccccccccccccccccccccccccccccccccccccccccccccccccccccccccccccccccccccccccccccccccccccccccccccccccccccccccccccccccccccccccccccccccccccccccccccccccccccc"
       onclick="javascript:respond(this.id);" />
    <path
       sodipodi:nodetypes="ccccccccccccccccccccccccccccccccccccccccccccccccccccccccccccccccccccccccccccccccccccccccccccccccccccccccccccccccccccccccccccccccccccccccccccccccccccccccccccccccccccccccccccccccccccccccccccccccccccccccccccccccccccccccccccccccccccccccccccccccccccccccccccccccc"
       id="Devon"
       d="M 272.82046,199.9867 L 269.75415,202.63174 L 265.70819,201.80884 L 260.81975,203.70936 L 257.01871,202.14193 L 253.28624,204.37552 L 245.2629,204.69881 L 244.1069,206.35443 L 238.5621,204.28735 L 237.48448,205.44333 L 234.67289,205.03188 L 228.217,207.59857 L 225.57194,206.93241 L 224.32778,208.84272 L 222.17257,209.17581 L 224.32778,210.98817 L 223.58326,215.78845 L 222.83871,217.0326 L 218.37152,217.19915 L 220.92839,219.02129 L 220.68347,221.33326 L 222.67218,221.91125 L 223.32853,229.53293 L 226.06176,231.51183 L 227.13936,231.26691 L 227.21776,234.49976 L 225.08212,237.19382 L 225.9834,233.42214 L 223.74979,233.8336 L 223.9947,232.09963 L 222.91707,231.43346 L 220.51694,235.65574 L 218.20497,236.23374 L 213.14997,243.10109 L 208.68276,244.67832 L 204.62702,244.42362 L 199.00383,239.95642 L 193.87045,238.38897 L 187.58111,238.05589 L 186.42512,240.45604 L 186.42512,248.31282 L 184.19152,252.94656 L 184.68134,254.93526 L 195.02644,255.18018 L 194.11537,257.91339 L 198.67075,266.6029 L 197.18168,266.76941 L 196.10406,270.08065 L 196.35878,274.38131 L 195.35954,277.03618 L 189.90288,279.59306 L 192.13648,281.17029 L 194.70316,281.08212 L 197.68129,285.0595 L 199.41528,285.47095 L 198.83728,283.32552 L 201.23743,282.65935 L 202.64813,284.07005 L 202.06034,288.20418 L 204.54864,293.50408 L 203.54939,296.48223 L 205.87117,298.88237 L 207.19371,306.73915 L 208.19295,308.31638 L 211.17109,309.22747 L 210.17185,314.43922 L 209.59385,317.91696 L 210.09346,319.07296 L 211.91561,318.24024 L 212.4936,319.81748 L 212.4936,318.08349 L 214.14922,318.49495 L 213.14997,320.8951 L 215.38359,325.19576 L 213.89449,326.77299 L 216.04973,325.6072 L 217.37227,325.77375 L 219.02787,328.1739 L 221.26148,327.5959 L 221.67294,333.06236 L 223.66162,332.15127 L 224.23962,333.21911 L 222.09417,335.20777 L 219.52748,333.96363 L 218.37152,335.20777 L 219.93894,338.01938 L 217.12734,340.26278 L 218.20497,341.66369 L 219.69404,340.00808 L 222.42726,341.83022 L 221.7611,343.48584 L 223.32853,345.64108 L 225.07231,347.70812 L 225.72867,346.87544 L 226.72791,345.30798 L 225.81684,346.87544 L 225.07231,347.87468 L 225.48377,348.28612 L 222.33908,347.45342 L 220.77165,351.84223 L 222.00601,353.16478 L 223.4167,355.98616 L 223.08363,356.88744 L 222.91707,357.72015 L 224.90577,358.38631 L 224.98416,359.13083 L 226.63975,358.05323 L 228.87335,358.63121 L 229.12806,357.30869 L 230.95022,358.87615 L 232.85074,355.07509 L 234.75125,354.48731 L 231.77314,358.13159 L 231.36167,359.70883 L 232.60582,360.28683 L 228.71661,359.28759 L 229.6179,362.0208 L 230.36241,366.57617 L 240.21771,367.97707 L 235.49579,368.97631 L 238.15064,371.37647 L 241.61861,371.37647 L 242.45131,369.96577 L 245.01799,369.14287 L 248.65249,369.79924 L 250.3081,368.39831 L 250.06319,369.79924 L 250.56281,371.37647 L 252.96296,371.28829 L 256.18599,374.10968 L 257.8416,374.18805 L 257.59671,375.59875 L 260.32012,377.99889 L 260.0752,381.31012 L 258.66451,381.38849 L 264.20932,386.02222 L 267.94179,387.34476 L 269.09779,386.35532 L 269.00963,383.867 L 271.40976,382.71102 L 270.42032,385.35608 L 274.06462,386.68839 L 275.88676,389.00036 L 280.68705,385.44423 L 283.49863,386.35532 L 285.39916,385.61078 L 283.24394,382.95593 L 285.64409,372.94391 L 289.04347,368.23178 L 292.93267,366.98763 L 294.75482,365.25367 L 293.75557,362.85352 L 296.98842,365.33203 L 300.04493,363.34333 L 299.71185,361.1979 L 301.36745,357.47523 L 302.69978,357.14216 L 301.86708,355.73146 L 304.34559,353.74278 L 300.78945,352.67495 L 301.70054,353.74278 L 300.95601,354.48731 L 300.04493,353.16478 L 295.98918,352.42023 L 294.50011,352.84149 L 294.16703,346.55213 L 300.45639,333.64037 L 300.37801,332.39618 L 301.70054,332.64111 L 303.27779,328.84006 L 301.70054,327.92899 L 303.27779,328.1739 L 306.50083,324.37284 L 307.07882,321.14001 L 311.80073,315.76172 L 309.56712,317.41735 L 308.82261,309.1393 L 306.91228,306.08278 L 306.91228,302.84996 L 307.00044,302.84996 L 308.32298,304.17247 L 309.06751,302.4385 L 309.23406,303.40836 L 309.14589,304.50555 L 312.87836,312.45051 L 311.54602,314.51758 L 319.00115,316.75118 L 320.49023,314.27267 L 326.11343,312.28398 L 329.01318,306.82734 L 331.41332,304.75047 L 339.76974,302.84996 L 349.78176,302.93811 L 351.68228,299.95998 L 358.97087,300.61635 L 366.24968,297.97128 L 366.91585,297.22676 L 366.33785,295.40462 L 368.40491,290.77086 L 366.41622,289.44833 L 366.24968,288.28256 L 368.64982,285.88241 L 372.78395,285.0595 L 374.0281,283.48227 L 373.37174,281.66992 L 365.59332,279.59306 L 366.17131,278.27053 L 364.59407,276.29162 L 364.26099,272.31425 L 361.37103,273.14696 L 359.88196,271.98117 L 356.9822,273.05878 L 357.48183,271.15826 L 354.9935,268.8365 L 355.3266,262.6353 L 348.79231,263.71292 L 346.882,263.7913 L 345.06966,266.0249 L 343.49242,264.03623 L 341.8368,263.95784 L 341.8368,262.6353 L 339.84812,262.13567 L 342.41479,255.43489 L 332.32441,256.25778 L 327.93557,253.85765 L 323.46837,248.72428 L 318.335,249.63535 L 318.25663,242.19002 L 314.36741,241.85694 L 314.20087,241.20057 L 314.27926,240.45604 L 312.95672,239.71148 L 308.73443,240.78912 L 306.42247,239.21187 L 302.27854,240.5344 L 302.44507,242.52308 L 300.54455,244.59017 L 294.08867,243.93379 L 292.76613,243.67908 L 292.0216,243.51255 L 291.52197,242.68963 L 293.92212,235.07775 L 290.53253,233.8336 L 287.7993,234.24506 L 282.92064,230.1893 L 279.77596,230.11091 L 274.47607,225.47717 L 270.34193,223.56688 L 266.94255,219.35439 L 266.5311,212.39886 L 270.34193,212.32047 L 272.57554,213.38831 L 279.4429,212.32047 L 278.86489,204.37552 L 280.18741,202.4652 L 274.72098,201.55413 L 272.82046,199.9867 z"
       style="fill:#ffc8c8;fill-opacity:0.33000004;stroke:#000000;stroke-width:0.95397335;stroke-opacity:1"
       onclick="javascript:respond(this.id);" />
    <g
       style="display:inline;enable-background:new"
       id="g2712"
       transform="matrix(0.3217563,3.4588393e-3,-3.5388706e-3,0.3144799,121.43096,228.31754)" />
  </g>
</svg>
