<?xml version="1.0" encoding="UTF-8" standalone="no"?>
<!-- Created with Inkscape (http://www.inkscape.org/) -->
<svg
   xmlns:dc="http://purl.org/dc/elements/1.1/"
   xmlns:cc="http://web.resource.org/cc/"
   xmlns:rdf="http://www.w3.org/1999/02/22-rdf-syntax-ns#"
   xmlns:svg="http://www.w3.org/2000/svg"
   xmlns="http://www.w3.org/2000/svg"
   xmlns:xlink="http://www.w3.org/1999/xlink"
   xmlns:sodipodi="http://sodipodi.sourceforge.net/DTD/sodipodi-0.dtd"
   xmlns:inkscape="http://www.inkscape.org/namespaces/inkscape"
   width="233.3"
   height="253.42999"
   id="svg2"
   sodipodi:version="0.32"
   inkscape:version="0.45"
   sodipodi:docbase="/home/joey/projects/gasket/gasket"
   sodipodi:docname="logo.svg"
   inkscape:output_extension="org.inkscape.output.svg.inkscape"
   version="1.0"
   inkscape:export-filename="/home/joey/projects/joey101/static/gasket/header.png"
   inkscape:export-xdpi="53.26915"
   inkscape:export-ydpi="53.26915"
   sodipodi:modified="TRUE">
  <defs
     id="defs4">
    <linearGradient
       id="linearGradient6147">
      <stop
         style="stop-color:#da8b00;stop-opacity:1;"
         offset="0"
         id="stop6149" />
      <stop
         style="stop-color:#da8b00;stop-opacity:0;"
         offset="1"
         id="stop6151" />
    </linearGradient>
    <radialGradient
       inkscape:collect="always"
       xlink:href="#linearGradient6147"
       id="radialGradient6153"
       cx="325.85782"
       cy="470.48032"
       fx="325.85782"
       fy="470.48032"
       r="48.247974"
       gradientTransform="matrix(0.6148902,-0.1903904,0.2752081,0.8888199,-3.98899,114.34826)"
       gradientUnits="userSpaceOnUse" />
    <filter
       inkscape:collect="always"
       x="-0.13588497"
       width="1.2717699"
       y="-0.27176994"
       height="1.5435399"
       id="filter6384">
      <feGaussianBlur
         inkscape:collect="always"
         stdDeviation="14.604949"
         id="feGaussianBlur6386" />
    </filter>
    <filter
       inkscape:collect="always"
       id="filter3246">
      <feGaussianBlur
         inkscape:collect="always"
         stdDeviation="0.83406821"
         id="feGaussianBlur3248" />
    </filter>
    <filter
       inkscape:collect="always"
       x="-0.11585999"
       width="1.23172"
       y="-0.12444682"
       height="1.2488936"
       id="filter4271">
      <feGaussianBlur
         inkscape:collect="always"
         stdDeviation="2.3171998"
         id="feGaussianBlur4273" />
    </filter>
    <filter
       inkscape:collect="always"
       x="-0.18730044"
       width="1.3746009"
       y="-0.19759003"
       height="1.3951801"
       id="filter4280">
      <feGaussianBlur
         inkscape:collect="always"
         stdDeviation="4.9634617"
         id="feGaussianBlur4282" />
    </filter>
  </defs>
  <sodipodi:namedview
     id="base"
     pagecolor="#ffffff"
     bordercolor="#666666"
     borderopacity="1.0"
     gridtolerance="10000"
     guidetolerance="10"
     objecttolerance="10"
     inkscape:pageopacity="0.0"
     inkscape:pageshadow="2"
     inkscape:zoom="1.4142136"
     inkscape:cx="176.35513"
     inkscape:cy="115.52835"
     inkscape:document-units="px"
     inkscape:current-layer="g4170"
     inkscape:window-width="910"
     inkscape:window-height="626"
     inkscape:window-x="51"
     inkscape:window-y="45"
     width="233.3px"
     height="253.43px" />
  <metadata
     id="metadata7">
    <rdf:RDF>
      <cc:Work
         rdf:about="">
        <dc:format>image/svg+xml</dc:format>
        <dc:type
           rdf:resource="http://purl.org/dc/dcmitype/StillImage" />
      </cc:Work>
    </rdf:RDF>
  </metadata>
  <g
     inkscape:label="Layer 1"
     inkscape:groupmode="layer"
     id="layer1"
     transform="translate(-245.68201,-269.12345)">
    <g
       id="g4170"
       transform="matrix(2.2089785,0,0,2.2089785,-367.55219,-651.73377)">
      <path
         sodipodi:type="arc"
         style="opacity:0.25274725;fill:#000000;fill-opacity:1;stroke:none;stroke-width:6.78000021;stroke-linecap:round;stroke-miterlimit:4;stroke-dasharray:none;stroke-opacity:1;filter:url(#filter6384)"
         id="path6168"
         sodipodi:cx="82.731491"
         sodipodi:cy="150.58038"
         sodipodi:rx="107.48023"
         sodipodi:ry="53.740116"
         d="M 190.21172 150.58038 A 107.48023 53.740116 0 1 1  -24.748741,150.58038 A 107.48023 53.740116 0 1 1  190.21172 150.58038 z"
         transform="matrix(0.3737736,0,0,0.2114576,302.17044,483.86677)" />
      <path
         style="fill:#ffcc00;fill-opacity:1;fill-rule:evenodd;stroke:#8b4000;stroke-width:3.05525827;stroke-linecap:butt;stroke-linejoin:miter;stroke-miterlimit:4;stroke-dasharray:none;stroke-opacity:1"
         d="M 326.7391,418.40646 C 326.7391,418.40646 259.52164,416.22409 284.83731,481.25916 C 310.15297,546.29425 373.62555,524.81369 371.92898,494.73193 C 370.73592,473.8981 334.79943,476.60431 337.41828,487.51625 C 340.03714,498.42817 361.22079,487.36985 354.67363,491.7346 C 348.12648,496.09938 318.22329,509.79643 317.40735,470.32601 C 317.10063,455.03606 327.17558,459.43532 334.59568,454.19759 C 342.0158,448.95986 361.65727,423.20772 326.7391,418.40646 z "
         id="path7357"
         sodipodi:nodetypes="cssssssc" />
      <path
         style="fill:none;fill-rule:evenodd;stroke:none;stroke-width:1px;stroke-linecap:butt;stroke-linejoin:miter;stroke-opacity:1"
         d="M 115,75.847412 C 115,75.847412 63,88.847412 70,115.84741 C 77,142.84741 74,142.84741 74,142.84741 L 53,122.84741 C 53,122.84741 42,97.847412 49,76.847412 C 56,55.847412 116,41.847412 116,41.847412 L 115,75.847412 z "
         id="path5143"
         transform="matrix(0.4526979,0,0,0.4526979,277.60985,416.87016)" />
      <path
         sodipodi:nodetypes="cssssssc"
         id="path6137"
         d="M 326.7391,418.40646 C 326.7391,418.40646 259.52164,416.22409 284.83731,481.25916 C 310.15297,546.29425 373.62555,524.81369 371.92898,494.73193 C 370.73592,473.8981 334.79943,476.60431 337.41828,487.51625 C 340.03714,498.42817 361.22079,487.36985 354.67363,491.7346 C 348.12648,496.09938 318.22329,509.79643 317.40735,470.32601 C 317.10063,455.03606 327.17558,459.43532 334.59568,454.19759 C 342.0158,448.95986 361.65727,423.20772 326.7391,418.40646 z "
         style="fill:url(#radialGradient6153);fill-opacity:1;fill-rule:evenodd;stroke:#8b4000;stroke-width:3.05525827;stroke-linecap:butt;stroke-linejoin:miter;stroke-miterlimit:4;stroke-dasharray:none;stroke-opacity:1" />
      <path
         style="fill:none;fill-rule:evenodd;stroke:#8b4000;stroke-width:3.06929207;stroke-linecap:round;stroke-linejoin:miter;stroke-miterlimit:4;stroke-dasharray:none;stroke-opacity:1"
         d="M 327.1531,425.17001 L 310.00492,434.68864"
         id="path6162" />
      <path
         sodipodi:type="arc"
         style="opacity:1;fill:#ffffff;fill-opacity:1;stroke:none;stroke-width:6.78000021;stroke-linecap:round;stroke-miterlimit:4;stroke-dasharray:none;stroke-opacity:1"
         id="path6164"
         sodipodi:cx="106"
         sodipodi:cy="38.847412"
         sodipodi:rx="8"
         sodipodi:ry="7"
         d="M 114 38.847412 A 8 7 0 1 1  98,38.847412 A 8 7 0 1 1  114 38.847412 z"
         transform="matrix(0.9224976,-0.4338906,0.2938519,0.6247602,213.32057,457.28503)" />
      <path
         sodipodi:type="arc"
         style="opacity:1;fill:#1900c3;fill-opacity:1;stroke:none;stroke-width:6.78000021;stroke-linecap:round;stroke-miterlimit:4;stroke-dasharray:none;stroke-opacity:1"
         id="path6166"
         sodipodi:cx="101.82338"
         sodipodi:cy="39.564621"
         sodipodi:rx="7.0710678"
         sodipodi:ry="1.4142135"
         d="M 108.89445 39.564621 A 7.0710678 1.4142135 0 1 1  94.752312,39.564621 A 7.0710678 1.4142135 0 1 1  108.89445 39.564621 z"
         transform="matrix(0.4583301,-0.2927483,0.6547575,1.2807735,252.25149,412.95596)" />
      <g
         id="g4284"
         transform="translate(-1.2804231,1.2804231)">
        <path
           sodipodi:nodetypes="cccccc"
           transform="matrix(0.4526979,0,0,0.4526979,277.60985,416.87016)"
           id="path2171"
           d="M 107,166.42999 L 166,76.429993 L 207,68.429993 L 209,108.42999 L 151,171.42999 C 151,171.42999 129,183.42999 107,166.42999 z "
           style="fill:#e58000;fill-opacity:1;fill-rule:evenodd;stroke:#8b4000;stroke-width:6.00000048;stroke-linecap:butt;stroke-linejoin:bevel;stroke-miterlimit:4;stroke-dasharray:none;stroke-opacity:1" />
        <path
           sodipodi:nodetypes="ccccccc"
           transform="matrix(0.4526979,0,0,0.4526979,277.60985,416.87016)"
           id="path3144"
           d="M 201,76.429993 L 173,81.429993 L 177,91.429993 L 187.88909,94.248012 L 192,103.42999 L 203,105.42999 L 201,76.429993 z "
           style="fill:#ffcc8a;fill-opacity:1;fill-rule:evenodd;stroke:none;stroke-width:1px;stroke-linecap:butt;stroke-linejoin:miter;stroke-opacity:1" />
        <path
           sodipodi:nodetypes="cc"
           id="path3148"
           d="M 369.18009,464.41401 L 341.00412,494.87897"
           style="opacity:0.54395602;fill:none;fill-rule:evenodd;stroke:#8b4000;stroke-width:7.24316692;stroke-linecap:round;stroke-linejoin:miter;stroke-miterlimit:4;stroke-dasharray:none;stroke-opacity:1;filter:url(#filter3246)" />
        <path
           sodipodi:nodetypes="ccccccc"
           id="path3146"
           d="M 363.25002,448.05116 L 366.8574,449.25891 L 367.90393,451.90714 L 371.03116,453.11489 L 373.19806,456.72344 L 373.4857,445.801 L 363.25002,448.05116 z "
           style="fill:#000000;fill-opacity:1;fill-rule:evenodd;stroke:none;stroke-width:1px;stroke-linecap:butt;stroke-linejoin:miter;stroke-opacity:1" />
      </g>
    </g>
  </g>
</svg>
