<?xml version="1.0" encoding="UTF-8" standalone="no"?>
<!-- Created with Inkscape (http://www.inkscape.org/) -->
<svg
   xmlns:dc="http://purl.org/dc/elements/1.1/"
   xmlns:cc="http://creativecommons.org/ns#"
   xmlns:rdf="http://www.w3.org/1999/02/22-rdf-syntax-ns#"
   xmlns:svg="http://www.w3.org/2000/svg"
   xmlns="http://www.w3.org/2000/svg"
   xmlns:xlink="http://www.w3.org/1999/xlink"
   xmlns:sodipodi="http://sodipodi.sourceforge.net/DTD/sodipodi-0.dtd"
   xmlns:inkscape="http://www.inkscape.org/namespaces/inkscape"
   version="1.0"
   width="640"
   height="480"
   id="svg12462"
   sodipodi:version="0.32"
   inkscape:version="0.46"
   sodipodi:docname="avon_plain.svg"
   inkscape:output_extension="org.inkscape.output.svg.inkscape">
  <metadata
     id="metadata4557">
    <rdf:RDF>
      <cc:Work
         rdf:about="">
        <dc:format>image/svg+xml</dc:format>
        <dc:type
           rdf:resource="http://purl.org/dc/dcmitype/StillImage" />
      </cc:Work>
    </rdf:RDF>
  </metadata>
  <sodipodi:namedview
     inkscape:window-height="936"
     inkscape:window-width="1215"
     inkscape:pageshadow="2"
     inkscape:pageopacity="0.0"
     guidetolerance="10.0"
     gridtolerance="10.0"
     objecttolerance="10.0"
     borderopacity="1.0"
     bordercolor="#666666"
     pagecolor="#ffffff"
     id="base"
     showgrid="false"
     inkscape:zoom="3.39375"
     inkscape:cx="320"
     inkscape:cy="256.41618"
     inkscape:window-x="219"
     inkscape:window-y="177"
     inkscape:current-layer="svg12462" />
  <defs
     id="defs12464">
    <inkscape:perspective
       sodipodi:type="inkscape:persp3d"
       inkscape:vp_x="0 : 240 : 1"
       inkscape:vp_y="0 : 1000 : 0"
       inkscape:vp_z="640 : 240 : 1"
       inkscape:persp3d-origin="320 : 160 : 1"
       id="perspective4559" />
  </defs>
  <g
     id="layer61"
     style="opacity:1">
    <image
       xlink:href="/img/maps/avon.jpg"
       x="0.19977361"
       y="0.96197003"
       width="640"
       height="480"
       id="image12693" />
  </g>
  <g
     style="opacity:1;display:inline"
     id="g5764"
     transform="matrix(1.3970623,0,0,1.3970623,2817.0736,5225.4225)" />
  <path
     d="M 247.13845,217.29455 C 249.055,218.66919 250.22503,220.79057 252.74887,221.24924 C 254.48118,221.97628 255.73067,222.88018 257.22051,224.5335 C 258.59498,225.78907 259.39912,227.15088 260.4088,227.86781 C 262.69083,229.84601 262.67998,231.30597 264.48542,231.24957 C 266.49567,232.87749 269.36598,231.82527 270.92643,230.10355 C 270.77568,232.45194 272.23173,227.23402 273.49341,227.06094 C 275.32767,228.01496 276.42474,230.43331 278.0302,231.90519 C 279.54277,233.61624 278.31489,236.31156 280.36627,237.61947 C 282.43497,240.31404 287.75017,239.38283 288.03034,243.42037 C 289.30042,245.48386 287.66966,248.01439 289.84386,249.60672 C 290.23275,251.24662 291.64788,253.27094 291.30534,254.80954 C 291.28784,258.22586 287.14047,254.09546 286.93757,257.42132 C 286.68834,259.04647 283.01462,260.90969 286.75252,261.29079 C 288.99493,260.89152 291.26135,262.41777 288.57148,263.75476 C 287.40183,265.39882 288.41406,268.21687 287.95025,270.28523 C 287.93203,272.25359 285.16946,273.8025 288.01768,275.08399 C 290.67964,276.03664 287.62511,278.75136 290.45761,278.94511 C 289.61625,280.57591 288.882,282.66156 289.20838,284.01564 C 286.63595,285.20194 288.16575,286.91125 289.44112,288.51294 C 291.43871,290.03604 291.71158,286.59206 293.6076,287.49174 C 295.68056,285.71033 294.91606,290.31032 296.86271,288.47926 C 298.59871,288.0612 299.28037,290.26483 301.33274,289.12938 C 302.60608,291.87344 303.65847,289.9388 305.4645,290.13884 C 305.40284,290.97057 308.21339,292.55724 308.58573,291.5292 C 310.8601,292.13894 310.52763,295.58797 308.33158,293.34766 C 307.58156,293.1527 308.47839,295.40091 305.9057,295.16567 C 305.3331,295.45007 301.82775,293.39263 302.59869,296.0974 C 303.21849,298.39922 303.19454,298.53603 300.91527,296.9488 C 301.32595,298.94107 299.06388,297.69729 297.61322,298.48908 C 298.51136,295.28478 295.01371,297.91264 293.77844,298.04593 C 293.10313,299.85468 294.78203,300.74633 297.05339,300.80071 C 298.81403,301.21742 298.4806,302.13006 297.38838,302.86135 C 299.53595,303.06321 297.72616,305.01198 296.68189,303.56599 C 294.6756,304.79916 296.5802,301.43469 294.73573,302.32129 C 294.40653,302.00581 290.98179,298.2243 291.65631,300.83588 C 290.13064,300.56208 290.89002,303.28486 290.45359,302.77232 C 288.51154,302.11575 290.56456,303.3292 291.52997,304.51553 C 288.3191,303.80655 291.17053,307.20755 288.10077,306.53783 C 290.42299,306.60912 290.61726,310.51438 288.38408,308.54676 C 288.69183,308.23868 285.06948,311.05892 285.81532,308.87255 C 285.2661,308.52868 283.62889,308.34549 283.01755,309.81932 C 280.86992,312.05109 280.15851,315.15299 281.04516,318.08877 C 280.31872,320.28875 281.58771,322.95658 280.53542,324.75194 C 280.092,326.66515 279.61157,328.80353 280.45971,330.79072 C 279.24348,332.15295 277.67684,333.43087 275.72391,333.37819 C 276.90493,331.97091 271.04063,331.71487 271.19434,333.37225 C 270.05648,334.51271 269.536,331.63008 268.22968,332.7309 C 268.10303,327.71792 268.37132,334.1676 269.78529,330.97683 C 272.42091,329.90725 269.22287,329.82438 268.10245,328.70424 C 269.63671,327.19841 266.57066,325.54363 268.30253,324.64189 C 270.37867,324.2391 269.01726,322.33639 271.78877,321.42371 C 272.85799,318.2871 270.48239,319.03262 268.71598,318.54073 C 267.08315,319.49643 266.11858,320.49195 266.26085,317.42997 C 265.33075,316.01012 266.4781,312.63971 264.13732,313.43095 C 263.16658,312.29196 263.45355,309.29793 262.73814,307.70777 C 262.76032,304.73258 259.5327,305.02605 257.65276,305.96166 C 255.87079,307.3547 257.15158,310.2777 255.11982,311.75418 C 253.71487,313.40568 253.11552,315.21568 251.77936,316.48762 C 252.51699,318.05384 249.79419,321.51354 252.4845,321.27836 C 254.81128,320.95178 256.2602,323.46113 255.45883,325.5423 C 254.94111,327.50946 252.57343,329.18151 250.60925,329.28174 C 249.07488,328.67501 247.08846,328.04424 244.86148,328.43211 C 242.40162,327.39342 240.7138,327.21812 238.62066,328.9702 C 237.92523,331.13832 236.31955,327.18227 237.07543,329.21445 C 239.28122,332.0006 235.03222,332.84157 236.32329,329.86792 C 234.68972,330.38839 236.32839,333.12369 234.32002,334.16607 C 234.7893,334.80373 237.26433,333.87346 236.34557,335.34568 C 235.48871,337.80712 233.26091,336.59033 233.34465,334.3071 C 234.59799,333.35179 230.92257,334.61142 231.97412,335.8942 C 230.8615,331.09646 230.44521,337.21509 229.96469,336.37178 C 228.29972,335.40483 231.28746,332.11446 229.21081,333.14569 C 226.24271,334.72881 227.5119,330.81051 225.17039,331.82074 C 222.22039,333.34753 223.28211,331.49772 222.36321,329.62063 C 223.16485,327.73765 221.29231,327.58669 221.45701,325.52389 C 221.81792,325.08535 222.66197,322.04332 220.50941,321.68154 C 219.01424,321.22759 217.90746,320.538 217.12983,319.32959 C 217.81598,317.15767 218.65954,315.32494 219.53111,313.33288 C 219.60606,311.07461 218.48086,307.6783 221.81203,310.249 C 223.56583,308.93729 227.78484,309.98124 227.84929,307.65057 C 227.60302,305.61367 223.59235,307.0655 221.9348,306.8858 C 219.57828,306.20029 217.80147,305.2098 215.4209,305.84093 C 212.78156,306.72678 211.61642,303.73984 209.28648,304.57871 C 207.11737,305.11491 205.59706,304.93103 203.32817,305.31887 C 201.77001,306.24539 200.47474,306.43096 198.40628,305.43314 C 196.45075,304.89103 194.63117,306.74093 192.29653,306.72116 C 190.03645,307.50819 189.14512,306.79289 187.83104,305.71036 C 186.2003,304.91501 184.50337,303.27084 182.85358,304.31832 C 181.44527,305.7804 181.14631,305.41467 179.58728,304.69503 C 179.18173,306.36731 178.15572,304.18938 175.66552,305.29409 C 173.75029,304.24485 173.43687,305.82395 171.7559,307.32012 C 169.31011,306.87772 171.92407,302.86245 169.94765,302.47449 C 167.76936,303.76787 167.03617,300.48772 165.1401,300.60917 C 163.07358,301.30568 161.05867,299.34542 160.95382,297.29588 C 163.92499,296.61463 160.24367,297.70297 158.7938,297.70898 C 157.74467,296.41411 153.10339,295.96881 154.97781,294.05102 C 156.78641,292.05006 159.07048,290.44724 160.88196,288.38693 C 162.96959,287.33637 162.97117,284.90673 164.40913,283.27824 C 166.89026,279.88975 165.3972,282.22158 166.65893,282.79744 C 165.44336,283.02001 166.84027,280.80255 166.73217,278.98543 C 167.50883,277.00157 168.02024,274.80892 168.73048,272.85974 C 169.30601,270.54675 172.36875,272.10919 172.38442,270.44422 C 171.16928,269.09291 172.24794,271.96233 170.63413,269.20972 C 169.57248,267.76547 173.95749,266.79045 174.88461,265.38835 C 176.58228,264.38864 178.08684,262.41311 178.5692,260.59241 C 178.22506,258.65284 180.60965,256.58635 181.91385,255.03226 C 183.32695,253.34876 183.25771,251.25353 185.81315,250.01272 C 188.54166,248.2376 190.5294,245.87694 193.21661,244.01673 C 195.26045,242.79911 197.061,241.82347 198.53122,239.85074 C 198.77555,238.27356 200.30578,236.51907 201.87864,235.2775 C 203.39248,233.73866 204.45872,232.02835 206.34632,230.75708 C 207.43528,228.13561 210.10231,228.44266 212.42013,227.90103 C 214.36493,227.89632 217.3301,226.51984 217.91551,225.32617 C 219.27536,224.26997 221.02882,223.14075 220.74038,221.78713 C 223.17383,222.17557 226.0451,220.68207 228.09605,221.80886 C 228.90626,223.95294 229.71029,223.15766 231.99441,223.01756 C 234.08296,223.10997 236.81383,222.30738 238.30919,222.08504 C 239.44606,223.74316 240.45198,223.36975 238.8026,222.37464 C 238.99311,221.79071 241.07213,220.16315 242.4884,218.6731 C 242.20151,218.30174 240.73484,215.04153 241.01711,215.98985 C 241.67711,219.34769 243.74204,215.73579 245.95231,216.61785 C 246.34313,216.7528 247.02088,216.81081 247.15155,217.26044"
     id="Woodspring"
     style="opacity:1;fill:#c8c8ff;fill-opacity:0.33000004;fill-rule:evenodd;stroke:#7ffaff;stroke-width:1.75651956;stroke-opacity:1;display:inline" />
  <path
     d="M 121.38134,307.17674 C 121.15827,306.03956 120.7316,299.96047 121.64035,302.25996 C 121.80497,303.89968 121.86999,305.57651 121.38499,307.17665 M 130.50987,297.08955 C 134.35298,296.02794 137.61181,293.22212 141.61092,292.84928 C 137.77223,293.83513 134.59478,296.70133 130.50987,297.08955 z M 124.06634,300.51894 C 126.45579,300.26694 127.88769,297.93183 130.59176,298.01272 C 132.60227,298.08617 134.53098,298.02189 135.77699,296.41323 C 137.68996,295.07108 140.04582,293.56537 142.494,293.63239 C 143.30271,295.16083 141.53048,298.15765 141.93205,298.4373 C 143.37584,296.08686 144.26581,298.08983 145.52875,299.51705 C 145.98398,298.37928 142.59719,296.95354 143.04423,296.34025 C 144.6007,295.6893 147.52061,296.55935 149.69913,295.58135 C 152.30128,294.73819 154.40552,295.54771 156.23158,297.12129 C 157.85834,298.59904 161.17504,297.54254 161.69704,300.163 C 163.39119,301.67399 164.78061,300.91777 166.00634,300.64876 C 166.77633,303.50588 170.22965,301.64238 170.85667,303.46595 C 170.03299,305.50311 171.05214,308.71304 173.17634,306.296 C 173.82441,303.66394 175.45035,305.80392 177.76762,305.5402 C 178.84689,304.33915 179.49084,306.25103 180.31643,304.71669 C 181.66968,306.96844 182.00118,303.9118 184.0953,303.92942 C 186.10819,304.19131 187.57712,306.14844 189.12412,306.65109 C 190.18787,307.77455 193.40166,306.16232 195.70855,306.17905 C 197.49231,304.05679 199.98831,306.52957 201.67015,306.36587 C 202.59297,304.73788 205.49656,305.47036 207.22557,304.81176 C 209.57227,304.35718 211.46595,304.53309 213.44394,305.78243 C 215.97455,306.31427 218.30906,305.00858 220.54869,306.5425 C 222.92634,307.49201 225.42,306.12172 227.90344,306.89402 C 228.69128,310.1411 224.10332,308.79365 222.18631,310.17339 C 218.64812,308.11938 219.50693,310.64302 219.53924,313.42812 C 218.75824,315.39263 217.12534,318.09497 217.45536,319.77707 C 218.6691,321.37817 220.18346,321.09614 221.689,322.6018 C 222.6856,324.9478 220.89395,325.028 221.61657,327.29463 C 223.08482,328.18947 222.35971,330.0911 222.93528,332.11839 C 223.15403,333.3089 227.88651,329.7101 226.70133,333.34522 C 228.48638,333.59562 231.19366,331.90504 229.48257,334.62189 C 230.31192,338.26642 229.98681,335.76061 231.12979,333.73751 C 232.53622,337.25254 231.25882,334.41215 233.44875,334.17847 C 232.85272,332.85003 234.5736,339.51929 235.68974,335.9544 C 238.00915,334.55968 235.05105,334.43076 234.34172,334.19904 C 235.96812,333.50464 235.31293,329.27688 236.15965,330.31999 C 236.05202,333.77589 239.00695,330.51407 236.66345,328.6374 C 237.77373,329.89739 237.98136,329.64284 240.44131,328.13237 C 242.21051,326.68507 245.01721,329.14364 247.36616,328.58021 C 249.5762,328.484 251.41521,330.52566 253.51819,328.06022 C 255.52049,327.19209 256.91047,323.34033 254.53132,322.41695 C 254.38521,320.23311 249.28714,322.40374 251.7742,319.04558 C 250.70886,316.44168 253.1824,315.65507 253.71276,313.68327 C 255.4298,311.63754 257.01443,309.43015 256.87185,306.66066 C 259.52013,303.75813 259.85594,307.16931 259.13879,309.20803 C 258.89175,311.60987 259.29581,313.56279 258.47498,315.07392 C 260.958,314.83815 258.54165,318.64198 258.82257,318.93948 C 259.04623,320.23869 260.44298,322.47336 260.95132,321.89214 C 260.6543,323.11296 262.73976,326.22932 261.1958,328.03068 C 260.19072,329.76301 259.07217,333.76653 256.21757,331.92609 C 254.73206,333.03674 253.4662,333.75096 253.43198,335.73039 C 253.90831,337.0107 256.75502,337.43247 258.19185,338.06789 C 259.05928,340.17483 263.32579,340.7898 262.95352,342.60463 C 261.46075,345.33251 260.26411,348.48076 259.35869,351.07657 C 258.67669,352.27348 257.4657,351.95525 254.44263,351.66278 C 251.66785,351.59759 248.38925,352.93376 247.67433,349.37833 C 247.42249,347.74431 244.89699,353.10375 242.93815,351.10872 C 240.58865,350.95503 239.95335,349.49861 237.00755,350.12436 C 234.78618,350.05478 231.98509,350.83186 230.69468,349.07552 C 231.69217,344.99812 229.41941,347.73564 227.09028,348.22127 C 224.95285,347.27292 222.71913,347.27157 220.18695,347.42342 C 217.02775,347.35773 214.51374,346.23862 211.40087,346.2117 C 210.19606,345.08211 208.29618,345.31445 205.76749,345.70593 C 204.11151,344.86666 199.82795,344.22663 200.0567,346.8736 C 200.52088,348.58206 199.26317,351.07252 202.00686,351.116 C 203.91972,352.09933 205.40906,353.56719 205.73458,355.90659 C 203.70705,356.19779 202.63126,358.30974 204.35478,360.35005 C 205.48719,363.48741 203.4941,364.56994 200.42619,364.2343 C 194.63913,363.84122 188.68076,365.52751 182.9092,365.27203 C 180.19679,365.54622 177.81568,364.3919 175.79993,363.89538 C 172.68509,366.36944 171.86104,363.69903 170.1314,362.69907 C 169.1834,359.30403 166.54775,361.24407 166.20276,363.75062 C 165.2107,366.65276 164.3019,369.58779 162.68585,372.24522 C 159.30965,371.27523 155.63676,370.45136 152.54818,369.20488 C 150.97502,366.64184 148.57821,366.87159 146.19096,366.28722 C 145.38036,363.41464 142.87475,363.26456 140.20784,363.69171 C 137.09091,364.59561 135.69961,361.88975 132.80605,362.26188 C 129.18637,361.41067 132.24317,365.55487 130.60371,366.95934 C 128.82129,368.16825 125.77714,370.07755 124.08151,367.71251 C 121.65075,367.29823 119.09965,367.32797 116.96555,365.93527 C 116.12271,364.52749 114.86611,361.7884 116.6263,360.28471 C 120.56286,359.51287 118.29796,360.71116 119.26378,358.75107 C 120.69088,357.09805 120.3646,355.55313 119.27533,353.4272 C 120.22155,352.30322 119.99177,348.5799 119.55564,351.44544 C 119.31914,354.50357 119.52551,355.20656 117.0442,352.61024 C 116.38837,349.86297 117.22633,349.39836 117.95362,346.63891 C 119.76206,341.04927 120.74776,335.18199 121.06482,329.34754 C 120.75009,326.07012 116.10975,329.7706 118.18945,327.28327 C 117.27632,326.74825 113.30052,325.29157 116.33907,323.58496 C 117.46937,322.25016 120.01935,322.11362 121.53848,321.10063 C 123.38227,321.00349 126.19881,319.67362 127.53731,319.52255 C 130.91445,316.95505 130.6583,312.10274 130.6995,308.33165 C 131.80484,305.36328 128.64019,304.41385 128.04928,303.20817 C 125.61187,302.46259 125.11265,300.08668 121.86891,301.0722 C 121.87293,300.73898 123.70406,300.94814 124.1111,300.48509"
     id="Weston-super-Mare"
     style="opacity:1;fill:#c8c8ff;fill-opacity:0.33000004;fill-rule:evenodd;stroke:#7ffaff;stroke-width:1.75651956;stroke-opacity:1;display:inline" />
  <path
     d="M 398.62201,265.39002 C 398.19522,267.3216 395.20479,270.1259 393.08347,269.33453 C 390.78061,270.65321 388.48374,271.7019 385.75218,271.04278 C 383.88891,272.1789 379.79177,271.39161 379.03039,272.95795 C 381.72159,276.40417 376.27442,274.0323 380.207,276.96375 C 383.75365,278.38747 380.59014,281.72508 378.44697,282.78228 C 376.73303,284.29025 374.8201,287.45704 377.45197,289.09807 C 378.38352,291.67426 381.13827,292.95354 383.50092,294.43472 C 386.23628,296.20393 387.18338,296.40538 389.01464,294.53815 C 391.10032,293.20739 394.21447,293.29422 396.30872,294.60448 C 398.2655,297.52294 397.08878,297.64351 395.79004,300.09438 C 397.46322,302.29489 394.36586,303.55356 393.99675,305.94013 C 396.56275,307.50032 398.00122,307.93685 396.75541,311.15286 C 397.79503,312.60029 403.70676,311.10357 400.38995,313.4929 C 400.01274,313.85147 404.28669,316.99532 404.94567,315.43001 C 405.91552,313.74569 407.05799,317.28188 408.33248,319.10154 C 409.59101,320.32331 408.96435,322.98601 410.16144,325.00197 C 410.05482,327.956 416.16626,324.22358 415.08409,328.62333 C 417.51393,329.58872 416.58216,332.86846 420.06124,331.92138 C 421.90863,328.76682 424.26762,333.91041 425.10339,330.60308 C 425.94136,328.87327 428.5023,329.25576 429.61539,328.65423 C 432.31094,328.15677 433.92661,331.12996 435.93511,332.54132 C 437.61619,334.95958 441.65134,332.72376 442.75027,334.94655 C 445.2162,336.19937 445.92457,334.87195 447.85214,337.64578 C 449.9254,338.59294 451.96004,338.70232 454.20399,339.03455 C 456.78559,339.81798 454.64518,343.37705 452.53878,344.15551 C 449.72617,344.73301 447.61463,347.16516 444.46152,347.29452 C 442.46113,349.19847 440.52603,350.30175 438.20622,351.04999 C 436.92087,352.29329 435.55557,354.86826 433.16885,355.34183 C 431.06978,355.2125 430.39906,353.3153 427.29223,355.19759 C 424.77222,356.38803 422.61244,356.98159 420.34778,358.82534 C 417.94199,361.18392 414.59484,360.87918 411.52296,361.24538 C 408.37704,362.008 410.37885,365.8317 407.06574,365.73541 C 404.45977,365.03993 404.4176,361.42376 402.86846,359.56524 C 401.11031,355.99438 399.68006,362.23081 397.66824,361.26884 C 395.38644,360.71888 394.86213,363.35745 392.81311,363.7536 C 390.83973,364.53971 395.69503,368.27012 391.59023,368.63604 C 392.90533,371.86794 388.87003,371.42473 387.15859,372.11976 C 388.90064,374.32168 382.92484,371.01254 383.18779,374.01963 C 379.83507,374.81282 380.73566,377.86078 379.74016,378.98155 C 375.5437,377.48745 378.54294,382.49006 374.69445,381.55507 C 371.79445,381.35819 368.84497,380.2287 366.5058,378.65625 C 365.78108,381.79795 363.3436,382.90848 361.07168,381.1922 C 358.99749,382.05463 357.3509,379.99144 356.23001,380.23259 C 354.31029,379.9853 348.63909,378.47502 352.56275,376.52467 C 354.11863,374.79034 354.10387,373.05811 355.48475,371.67901 C 355.96615,368.43611 353.42132,369.50025 351.21908,370.1701 C 350.24845,368.35883 346.96652,368.28525 344.74042,367.87563 C 342.33064,367.5228 339.60634,368.78892 337.53149,366.57327 C 334.45556,366.17486 333.43799,363.25784 330.17008,362.94423 C 327.80175,365.19013 328.83665,363.34261 326.86525,361.63177 C 324.27534,360.55826 323.89439,365.21403 320.97935,365.3024 C 319.37371,367.60168 315.87481,366.98505 314.13774,369.28536 C 313.013,368.44284 310.72735,366.18551 308.61919,366.12134 C 307.65051,367.18055 308.28792,370.31326 305.64284,371.32882 C 303.41685,372.52118 301.4501,373.64931 299.44676,375.21552 C 297.26243,373.41418 294.11358,374.26827 293.72754,375.78141 C 292.47018,377.89822 290.10826,373.6583 288.81234,373.82047 C 287.83047,372.16143 285.24955,370.01302 286.96738,367.56887 C 284.51854,366.37559 282.64319,364.54437 280.04966,363.68554 C 278.67687,361.30402 272.80213,362.8424 273.9706,361.02561 C 276.5871,358.42445 273.35704,359.12407 273.07697,356.8951 C 270.84327,354.00446 269.14771,357.61285 267.44654,354.66106 C 264.51633,353.44406 263.84739,351.61612 260.59299,351.06014 C 258.4797,349.88791 261.59523,346.22197 262.16981,344.18955 C 264.98955,341.2104 260.62337,341.20305 259.17469,339.08308 C 257.3254,337.64729 255.76931,336.99654 253.32638,336.47574 C 253.26926,334.06586 254.42244,333.08842 256.18443,331.92048 C 259.45058,333.89708 260.25252,328.99423 261.57838,327.31242 C 262.04327,325.64678 260.7402,320.91672 260.62262,322.27636 C 259.64202,320.8798 258.35885,319.27527 258.76709,318.003 C 261.63009,316.11999 256.86344,314.79942 259.18879,313.93956 C 258.76977,311.59394 258.9429,308.83054 259.55137,306.53219 C 260.08057,303.16097 263.93444,307.44512 262.92853,309.30002 C 263.0821,312.99362 264.76376,312.49982 265.7022,314.79394 C 266.43632,315.45698 265.39364,320.18861 267.55494,319.64625 C 267.38673,318.47264 272.01128,317.99061 271.93005,319.99724 C 272.56163,322.82977 267.93294,322.60046 269.35554,324.56067 C 265.68076,324.69001 269.80348,327.37199 268.24954,329.09757 C 271.68626,329.28609 271.01201,331.50025 268.33851,332.07521 C 268.78046,327.9229 267.20271,334.65089 269.88449,332.80755 C 270.66072,335.13421 272.64754,331.06979 275.56529,332.38215 C 275.77375,334.46613 278.56461,332.59984 280.04854,331.4139 C 280.43689,329.44738 279.57565,326.7755 280.57903,324.69502 C 281.46106,322.80482 280.52595,319.9505 280.97367,317.65921 C 280.10071,314.52725 281.22847,311.10471 283.92878,309.08315 C 284.39603,307.60362 285.86816,309.85463 286.63746,309.30087 C 288.19317,307.78885 289.61418,310.20877 290.0944,308.0262 C 286.81541,306.21999 290.38613,306.63173 290.14919,304.69136 C 293.55619,304.37971 287.89353,302.47551 289.9497,302.48263 C 291.44654,303.84385 289.76313,300.66196 291.6702,300.83556 C 291.40985,298.24289 294.41064,302.42486 295.38655,302.82553 C 295.48341,302.39241 295.86042,304.11829 297.69518,304.3796 C 298.68321,302.8683 297.6253,302.70522 298.00199,301.43535 C 297.89302,300.18238 293.34652,301.18189 293.71007,298.924 C 293.27757,297.97211 298.779,295.25784 297.65723,298.43818 C 299.89891,298.5227 300.53077,297.52416 301.74964,297.32795 C 304.30295,299.86671 301.70104,296.13084 302.8662,294.97234 C 304.9381,294.57835 305.85648,295.59468 308.45167,294.55952 C 305.10107,291.5025 312.94626,295.89507 309.50246,292.567 C 308.46639,291.36556 312.51359,289.51614 312.29195,290.18148 C 313.83469,289.32663 315.634,290.18335 317.23839,289.29795 C 318.4795,291.73942 321.13435,287.9656 320.01521,286.95725 C 321.54047,285.97658 321.98697,284.24677 322.7101,282.57619 C 324.05738,278.90016 325.2574,284.16928 326.88135,282.71427 C 328.56209,282.14213 331.65398,285.36918 332.43717,282.96535 C 334.83515,281.50354 335.91946,280.47713 335.83151,277.65147 C 334.9617,276.28048 339.51888,274.4618 337.20212,272.53294 C 339.1505,270.05301 342.24047,271.46818 340.76098,267.62942 C 338.45039,266.90032 338.68769,262.21975 340.57218,265.63939 C 341.56674,266.99044 348.53077,268.65066 346.07325,267.80209 C 343.24251,266.75255 339.34498,265.93655 339.11141,262.37837 C 339.53567,259.68988 338.13107,256.72588 341.7216,256.24595 C 343.71125,253.80489 346.58772,257.96964 348.00769,255.60235 C 351.49084,258.0212 354.98689,260.59545 357.24578,264.16847 C 359.53412,263.17288 362.61994,268.92275 363.18185,266.0349 C 362.82033,263.49845 363.30462,261.00409 362.13275,258.63834 C 362.76553,256.39536 363.72187,254.36618 364.01923,252.79683 C 364.2872,250.05033 365.99035,249.79508 368.39631,249.30063 C 370.80093,249.96126 370.43396,252.68895 373.34299,250.70343 C 374.63525,251.98165 376.23993,252.59512 378.8561,252.54411 C 379.84989,253.69865 377.31817,257.96379 380.45624,256.60239 C 383.06925,257.31981 386.09218,257.67558 388.68907,258.82258 C 390.36432,261.31832 393.95035,258.10386 395.48342,261.13556 C 397.95109,260.98685 399.25247,259.33675 398.16865,263.62741 C 398.24103,264.32378 398.86182,264.7929 398.63955,265.38962"
     id="Wansdyke"
     style="opacity:1;fill:#c8c8ff;fill-opacity:0.33000004;fill-rule:evenodd;stroke:#7ffaff;stroke-width:1.75651956;stroke-opacity:1;display:inline" />
  <path
     d="M 332.72833,86.221405 C 336.30001,89.196998 341.54021,90.421264 344.86677,93.39113 C 346.87819,94.54629 349.14237,95.166302 351.69694,95.172628 C 355.91045,94.901956 352.89257,97.060737 353.08369,99.881 C 354.5678,102.32558 351.20646,106.76086 355.84092,106.84172 C 356.59698,107.56986 352.2155,111.63933 357.74615,108.67428 C 360.64314,108.19026 364.1964,108.52306 365.54227,105.42594 C 367.77764,103.46768 369.80526,104.21368 372.19306,104.52048 C 375.254,108.91736 376.39743,101.47624 378.25747,105.18503 C 380.44559,104.44284 381.77413,107.80366 383.76413,107.56255 C 385.9815,106.90472 388.70986,111.37957 390.12457,109.16941 C 391.7984,111.21187 394.77389,112.20617 396.01656,110.58319 C 397.0074,106.4594 401.05009,110.01872 399.1519,112.26784 C 399.62272,115.33843 402.83891,110.00121 404.49075,112.81454 C 404.04766,115.4345 400.27752,115.2952 398.47107,115.43867 C 395.93178,116.70321 399.47628,117.41755 400.5778,118.46247 C 402.04331,120.54857 403.01947,122.04234 403.22171,123.76555 C 402.45796,125.12805 403.21186,127.4261 402.5583,128.76899 C 401.62157,130.11506 402.48252,132.38152 401.85545,133.57313 C 399.99447,135.22545 399.90522,137.22323 400.787,139.34925 C 399.35386,140.97998 399.87149,144.5095 403.04117,143.82802 C 405.57968,144.25254 408.17451,143.94424 410.37593,143.38521 C 413.92696,144.44524 412.96224,138.19242 415.43959,139.21864 C 415.57355,141.21997 419.76017,140.46982 419.97817,141.85955 C 420.11583,144.2582 425.92407,143.55834 425.14215,144.82049 C 428.76846,146.99332 428.67021,142.32385 431.0638,145.03971 C 431.17025,148.70963 431.69912,145.88179 434.50679,146.14442 C 437.875,143.90356 436.1293,150.58085 439.46061,147.69737 C 442.47028,146.22712 442.03928,146.4741 445.06556,146.83815 C 447.55561,147.65249 447.53618,142.43145 450.7512,145.80297 C 450.95785,147.32554 447.24761,150.52344 450.51218,150.0604 C 455.22116,151.13187 451.66397,153.13235 453.24314,153.07749 C 456.75576,153.53712 453.11742,158.78398 456.88707,156.09862 C 460.61872,154.10751 457.18398,161.28379 459.81883,160.89621 C 462.57221,160.86112 466.99821,162.30506 463.32047,164.62471 C 462.25159,166.83292 461.20294,169.45112 461.84579,171.32654 C 461.56072,174.1819 462.22582,176.00525 462.25531,178.42079 C 464.94755,180.67946 465.50249,183.25128 463.51021,186.38676 C 461.49656,188.85817 466.99203,188.03998 465.8751,190.95505 C 465.59202,194.02932 472.31172,192.11286 468.42257,195.04504 C 469.18465,198.0751 465.00608,199.48629 463.1795,200.33497 C 457.48019,200.40759 453.68195,205.00964 448.78256,207.1161 C 449.62374,210.08072 445.82889,210.89548 443.14624,211.8262 C 440.49925,212.43703 436.91763,215.47761 435.98709,216.68427 C 438.25545,218.7736 440.64268,220.93787 441.88522,223.64682 C 444.19018,223.28561 446.40302,225.28918 449.12773,223.1991 C 452.77749,223.0767 451.73492,225.33921 452.33172,228.66502 C 452.78355,231.265 451.07466,234.18838 450.78291,237.1758 C 450.28756,238.98576 450.14677,242.08788 449.79362,244.62341 C 452.27174,246.52711 456.79761,243.66594 453.57428,247.42142 C 453.55537,253.86033 451.85806,260.13674 450.74091,266.46372 C 447.6337,266.43934 446.86817,269.82842 443.81606,270.41611 C 439.763,273.22754 443.56083,265.55138 439.65235,265.58166 C 437.19789,264.40895 437.01972,260.55655 434.32883,260.71574 C 431.96013,260.58694 428.96535,260.01927 427.13005,259.27488 C 424.13232,259.75017 422.19105,260.18869 419.84216,261.92056 C 417.54894,259.21076 414.4386,262.21603 411.91096,263.45821 C 409.47036,263.2226 406.75703,265.41184 403.46542,264.9662 C 401.15103,265.06481 397.79784,266.45528 398.15014,262.78481 C 399.77243,258.28152 396.9031,262.29733 395.08926,260.85137 C 392.93449,258.45039 389.48596,260.84712 387.17822,258.11151 C 384.3532,257.71537 381.4929,256.32 378.80149,256.84145 C 378.84642,255.06702 380.19768,251.92793 377.04916,252.19478 C 373.87274,253.1168 374.34048,250.13067 376.24154,249.50123 C 374.41135,247.68134 375.03093,245.51497 373.13553,245.089 C 371.692,243.89997 373.99846,240.30426 377.30743,241.9772 C 380.04933,241.71906 381.98557,240.08409 382.80554,237.71791 C 381.99921,235.17165 385.03924,231.93867 383.12636,230.07146 C 380.2711,230.05434 375.97388,229.47823 374.17861,231.09857 C 372.41414,232.06433 368.90291,231.46339 367.976,229.99394 C 365.05346,230.28102 364.35734,231.51909 365.61329,226.96399 C 365.21537,224.46254 367.68182,223.17491 366.51847,220.23044 C 367.43949,217.54052 367.32293,215.41224 363.95194,215.01563 C 362.16104,213.23065 358.2869,214.55681 359.83867,212.55038 C 357.95881,212.94497 358.03048,209.86654 355.65181,209.97434 C 356.02575,206.78514 351.07655,209.70061 349.08473,209.75194 C 346.29953,208.19581 344.33875,211.32286 345.09361,213.64165 C 345.58026,216.13469 345.20308,219.69759 342.82623,221.27945 C 339.16744,222.23604 338.24982,221.07439 336.92115,218.83782 C 334.16737,217.71619 331.48056,221.67691 332.6855,216.99141 C 333.54335,213.0545 329.7016,213.55497 330.71717,210.67806 C 331.97814,208.07638 334.72068,208.22066 336.8245,206.4392 C 341.06709,204.76137 336.02589,204.60989 339.19851,201.54325 C 339.86875,199.41254 336.73795,196.28716 335.37563,193.77951 C 333.6083,190.9511 332.32338,188.74633 329.01918,188.01807 C 326.9432,186.80581 324.10055,185.61828 322.02671,185.31695 C 317.83396,189.53607 319.72388,180.06024 316.69466,182.7131 C 312.80425,184.85988 309.13415,186.57773 307.5701,190.82288 C 303.50029,192.94133 307.30645,196.26672 309.16998,198.45279 C 309.42817,201.55039 311.22977,201.86905 312.40609,203.80213 C 306.54633,203.67255 301.85475,208.40637 295.80623,206.50439 C 290.33174,204.55367 285.42638,209.66271 279.81606,207.95618 C 276.23101,208.02754 277.19642,204.06504 278.52993,202.47478 C 277.94602,199.03718 274.20036,196.93072 271.83542,194.46027 C 271.9066,192.05479 273.57246,189.61351 270.39205,187.59578 C 267.15046,184.48735 268.2523,184.74482 269.0462,181.67316 C 271.18313,177.48274 270.26243,172.81283 271.16636,168.39509 C 270.85561,166.18759 271.85059,162.93351 274.54759,161.85515 C 275.93927,162.9292 274.7617,161.92889 277.0424,159.42286 C 280.98188,154.71108 285.12637,149.79369 287.10735,144.11101 C 288.31385,141.01643 289.28519,138.59989 292.8841,137.59011 C 296.75118,135.80812 299.6887,132.35152 303.13882,130.39435 C 303.61347,132.4059 304.10855,126.93529 306.63,126.02973 C 309.12002,121.20744 309.16438,125.29863 309.66514,122.00774 C 323.2289,115.20794 307.6943,126.97536 312.63583,114.18563 C 314.7825,110.92104 313.89452,107.47639 315.77861,104.36049 C 317.6992,100.86809 319.97372,97.449221 321.99657,93.979243 C 323.75961,91.978656 327.60874,89.760179 329.25448,89.370658 C 329.24803,89.689867 330.59889,87.342905 332.39678,86.530375 L 332.77041,86.220434"
     id="Northavon"
     style="opacity:1;fill:#c8c8ff;fill-opacity:0.33000004;fill-rule:evenodd;stroke:#7ffaff;stroke-width:1.75651956;stroke-opacity:1;display:inline"
     sodipodi:nodetypes="cccccccccccccccccccccccccccccccccccccccccccccccccccccccccccccccccccccccccccccccccccccccccccccccccccccccccccccc" />
  <path
     d="M 342.79118,221.28026 C 344.01689,221.01661 344.17997,219.75469 344.73238,218.85841 C 344.34697,217.82877 345.30175,217.07788 345.18199,216.17167 C 345.63257,215.26402 345.39023,214.37403 345.00638,213.4843 C 345.18738,212.6361 344.98713,211.7438 345.13549,210.88196 C 346.0149,210.51515 345.80454,209.46841 347.02928,209.33468 C 347.93917,209.27551 348.85897,209.79833 349.84433,209.73441 C 350.65813,208.97874 351.58642,209.0919 352.55053,208.94544 C 353.49438,208.54065 354.51553,208.96638 355.46707,208.40037 C 355.60392,208.73971 355.17036,210.6229 356.21632,210.60847 C 357.28811,210.66743 357.88381,210.55927 358.0115,211.27312 C 358.62915,211.6104 358.47947,213.45088 359.00769,212.63049 C 360.32117,212.35745 360.13233,213.42512 359.37356,213.49854 C 359.49988,214.14179 360.70589,213.84243 361.5707,213.84926 C 362.58023,214.11622 363.28579,214.96572 364.25223,215.06796 C 365.24135,215.29522 365.48626,215.94778 366.48916,215.87877 C 366.57442,216.74928 367.74756,217.16078 366.97251,218.03508 C 366.19471,218.54652 366.76828,219.77538 366.60766,220.52401 C 366.41836,221.38211 367.00313,222.26921 366.70265,223.02006 C 366.32102,223.85448 366.32441,224.94081 365.49905,224.98397 C 365.98618,225.8067 365.25571,226.79547 365.67199,227.65667 C 364.9499,228.49292 365.29098,229.56912 364.62999,230.37449 C 364.80248,231.50748 366.22693,231.19337 366.18083,230.02298 C 366.49436,228.64844 367.70166,229.85865 368.3773,230.27494 C 369.67954,229.9958 368.34465,232.04409 369.93825,231.31964 C 370.91645,230.81496 371.6542,231.9215 372.541,231.62115 C 373.63318,231.46939 374.24653,231.50947 374.6691,230.8338 C 374.65037,229.8486 376.36566,230.31422 377.10856,230.21437 C 379.29596,230.10028 381.49392,229.68897 383.65984,230.18001 C 383.50216,231.42642 384.16192,232.91308 383.12864,233.90282 C 382.87455,234.73764 382.62118,235.79575 382.82984,236.65069 C 383.17026,237.73896 382.25518,238.62686 381.78943,239.48699 C 382.03607,240.63768 380.40135,240.20938 380.07948,241.01496 C 379.03065,242.03083 377.4416,242.24026 376.09303,241.68884 C 375.09993,241.43991 373.88352,241.79039 373.1635,242.41969 C 372.70883,243.43892 371.87802,244.0691 373.49521,244.36222 C 372.79331,244.79558 373.61546,245.75789 373.78715,245.72513 C 374.4316,245.60915 375.30972,246.78076 374.56465,247.32359 C 375.09175,247.80826 375.56431,248.82417 376.16581,249.45845 C 375.99827,250.39305 374.99907,250.00632 374.7402,250.89583 C 373.99195,251.09389 372.6636,249.97854 372.25355,251.29404 C 371.74703,251.36901 369.64616,251.68165 370.25421,250.64515 C 370.66525,249.93761 369.2452,249.45815 368.5524,249.30239 C 367.56964,248.84162 366.68768,249.97518 365.69851,249.64446 C 366.87386,250.94514 364.76372,250.28206 364.28064,251.01302 C 363.56992,251.56477 364.35877,253.15224 363.57432,253.03107 C 363.01905,253.9157 363.76205,254.76199 363.77108,255.54688 C 362.80116,256.20236 361.73686,257.1409 362.10107,258.39033 C 361.96002,259.42375 362.89136,260.15522 362.98143,261.06947 C 362.66684,262.0761 363.37231,262.95472 363.03178,263.96128 C 362.72242,264.97951 363.1697,265.9354 363.44835,266.90524 C 362.39148,266.50878 360.93774,266.68094 360.40173,265.53861 C 359.87557,264.58353 359.10379,264.05395 357.9451,264.19385 C 356.76423,264.33327 356.67131,262.83016 355.90112,262.25502 C 354.26347,260.54418 352.70115,258.75393 350.64154,257.48504 C 349.63575,256.75163 348.62997,256.01787 347.62417,255.28444 C 347.13343,256.26601 346.56844,257.01928 345.48049,256.1622 C 344.5914,256.1382 343.80902,254.58439 343.09044,255.33284 C 342.30041,256.28448 340.88499,256.28266 340.03151,257.16715 C 338.91516,257.68806 338.54748,256.32691 337.49017,256.25824 C 336.32862,256.08752 335.05256,256.96199 333.9163,256.84526 C 332.76784,256.52793 333.19458,255.17957 334.22823,255.08272 C 335.17396,254.7271 335.5986,255.97714 336.79625,255.53435 C 337.21035,254.62252 337.78223,253.90859 338.8986,253.87881 C 339.69457,253.45433 340.6732,253.44212 341.50357,252.78115 C 341.9618,251.8914 343.17164,251.16543 342.71003,250.0746 C 343.54816,249.22798 342.62556,248.04066 342.7325,247.12922 C 342.89345,246.32433 343.43634,245.37471 344.46573,245.51433 C 344.82761,244.55583 345.33558,244.10452 345.93127,243.73957 C 345.88813,242.89889 346.95617,241.44265 345.55298,241.35518 C 345.77532,240.18562 345.23817,240.00284 343.94205,240.38897 C 341.53126,240.88253 339.02829,240.31222 336.62228,240.59943 C 335.09857,241.18467 333.37887,240.83733 331.83907,241.38645 C 331.32528,240.34738 331.59532,239.71542 331.80161,238.68752 C 332.44295,237.63385 329.42669,238.18758 330.73686,237.05988 C 332.1099,235.97257 333.14732,234.5599 334.36952,233.32642 C 332.95748,232.79321 335.82721,232.54183 335.20287,231.63321 C 334.94841,230.46696 334.04838,229.49807 332.7502,229.44668 C 331.76385,228.65957 330.27409,228.67387 329.07971,228.21799 C 327.4497,228.08252 329.31693,226.90949 329.12421,226.20685 C 329.46226,225.20437 327.51848,224.4196 328.64406,223.87603 C 330.84485,222.23529 333.16061,220.71644 334.95879,218.64841 C 335.83251,219.67415 336.4759,219.02386 337.38273,219.019 C 338.44937,219.67301 337.57994,220.3841 338.14146,221.05914 C 338.2611,222.14112 339.66071,220.58215 340.34296,221.73852 C 341.16725,221.58558 341.99151,221.43264 342.81576,221.2797"
     id="Kingswood"
     style="opacity:1;fill:#c8c8ff;fill-opacity:0.33000004;fill-rule:evenodd;stroke:#7ffaff;stroke-width:1.75651956;stroke-opacity:1;display:inline" />
  <path
     d="M 275.41787,228.45983 C 275.78677,229.20963 276.34875,229.6724 276.91448,230.24524 C 277.8075,231.24006 278.90591,232.2114 278.9786,233.60683 C 279.0491,234.49576 279.11956,235.38469 279.19007,236.27395 C 280.05722,236.19301 279.97812,237.58022 280.72751,237.64461 C 281.38631,238.38002 282.07889,239.07046 283.08458,239.34253 C 284.29284,240.05723 285.96949,239.83807 286.90343,240.96654 C 287.92881,241.60008 287.83491,242.91364 288.28332,243.89797 C 288.8368,245.13834 288.76011,246.48331 288.84048,247.80256 C 289.52343,249.03023 290.51299,250.14905 290.57978,251.5965 C 290.61951,252.16374 291.49221,253.05424 291.22698,253.37206 C 290.64115,252.25698 290.41645,251.0117 290.01621,249.84983 C 289.45364,248.92136 288.04341,248.04427 288.67444,246.84587 C 288.83739,245.03052 287.89176,243.34589 287.46943,241.607 C 286.73194,240.95476 286.04654,240.21629 284.99169,240.08897 C 283.68895,239.68079 282.34001,239.19634 281.25876,238.392 C 280.50577,237.90217 280.05055,237.08439 279.41449,236.53293 C 278.89235,236.10573 279.14917,235.04318 278.93465,234.36515 C 278.86489,233.21807 278.40191,232.13933 277.52573,231.345 C 276.76046,230.45168 275.99522,229.55836 275.22995,228.66504 C 275.29258,228.59664 275.35522,228.52823 275.41787,228.45983 z M 322.63524,234.53468 C 322.33043,235.24478 322.02561,235.95489 321.72083,236.665 C 321.16523,235.88402 320.59873,235.77757 320.01705,236.60388 C 319.1923,237.4415 321.1833,237.55792 320.56497,238.02952 C 319.50457,239.21273 318.1534,240.0588 316.69559,240.72789 C 315.69798,241.43123 315.13821,242.61627 314.3187,243.51569 C 313.68882,244.40003 313.02122,245.24674 311.99634,245.7361 C 311.52109,246.22649 310.05293,246.46058 310.78892,247.26351 C 311.19476,248.20329 311.97883,249.07408 311.65661,250.14684 C 311.86644,251.26088 311.24555,251.22466 310.47514,250.63077 C 309.98266,250.11684 309.24421,249.34008 308.60745,250.14691 C 307.40299,250.98023 307.86491,252.51465 307.78482,253.72645 C 308.83812,253.80593 308.55986,254.82913 308.41548,255.51444 C 308.59033,256.71065 307.76966,256.25585 306.95418,256.21374 C 306.09342,256.52756 305.66069,255.97643 304.90482,256.33369 C 303.84102,256.44931 302.79597,255.74993 301.6873,255.88567 C 299.44443,255.75631 297.23839,256.367 295.01231,256.5744 C 293.91277,256.54353 292.66259,255.91719 292.33611,254.85304 C 293.70531,254.95368 291.82006,254.27605 292.44839,253.94617 C 291.30784,252.94065 291.14633,251.3849 290.85487,250.02431 C 290.32926,248.97347 289.24714,248.07608 289.4626,246.82098 C 289.49771,245.04642 288.62097,243.40439 288.23205,241.69118 C 288.16692,240.7201 287.17267,240.26429 286.45326,239.74555 C 285.15691,239.24348 283.70507,238.98438 282.50571,238.33075 C 281.58709,237.35359 280.18692,236.61889 279.82973,235.29799 C 280.0516,234.38022 279.95017,233.49401 279.54656,232.63754 C 278.72336,231.81787 280.33326,231.45396 280.34241,231.09451 C 279.70697,230.94713 278.94075,231.89522 278.67623,230.74326 C 278.04407,229.84788 276.75485,229.34765 276.52308,228.23344 C 275.41784,228.03999 276.70752,227.15817 277.1162,226.751 C 277.80969,226.38547 278.63322,226.16893 278.89732,225.36267 C 279.54185,224.14789 280.51325,222.79767 282.10235,222.82092 C 282.92931,222.44929 283.44954,223.50194 284.23494,223.2066 C 285.3323,222.90707 285.16188,222.38169 285.05534,221.63387 C 285.38356,221.03137 286.3645,220.23401 285.333,219.76901 C 284.58738,219.36237 284.16139,218.59213 285.2025,218.24736 C 284.76561,217.74822 285.06264,216.72158 286.03386,216.891 C 286.96678,216.88889 287.84505,216.68649 288.68531,216.31924 C 289.53578,216.24738 290.52705,215.80534 291.23168,216.47742 C 292.08982,216.85234 291.86667,216.21769 292.09775,215.63785 C 292.18902,214.95677 292.9304,214.77227 293.67304,214.4893 C 294.48852,214.15476 295.30399,213.81989 296.11945,213.48536 C 295.86351,214.9801 295.16965,216.45784 295.59747,217.97899 C 296.09564,218.40072 295.97787,219.53002 296.34809,219.77827 C 297.39273,219.16123 298.43733,218.5442 299.48198,217.9275 C 299.72117,218.44694 299.70302,220.0209 300.34769,218.87843 C 301.18308,218.69141 301.84405,218.28646 302.22754,217.53469 C 303.28578,216.74492 302.09864,218.46873 302.47962,218.82253 C 302.99941,219.41852 303.90721,220.02062 302.85898,220.59288 C 302.55224,220.95852 301.30137,222.0497 302.15098,222.16636 C 303.28376,222.50882 304.65769,222.34888 305.58972,223.10979 C 305.87636,224.53175 307.41718,225.02818 308.50917,225.78774 C 309.25439,225.87064 310.3082,225.44657 310.5163,226.411 C 311.10198,226.12797 311.67891,224.96162 312.27007,225.23256 C 313.65938,226.1637 313.31363,227.96618 313.62856,229.36774 C 314.14193,230.24879 315.13944,230.90641 315.83901,231.70147 C 317.11205,233.18068 318.88171,234.27446 320.89396,234.5203 C 321.48649,234.57325 322.10335,234.94202 322.62056,234.50154"
     id="Bristol_West"
     style="opacity:1;fill:#c8c8ff;fill-opacity:0.33000004;fill-rule:evenodd;stroke:#7ffaff;stroke-width:1.75651956;stroke-opacity:1;display:inline" />
  <path
     d="M 291.23038,253.37198 C 291.67479,253.57767 291.6135,254.59184 291.86339,255.10869 C 291.98628,255.8866 292.97055,256.12736 293.48074,256.66365 C 294.01121,256.96779 294.7426,256.90504 295.35116,256.97905 C 297.38478,256.69909 299.41952,256.3247 301.45242,256.10335 C 303.0913,256.29687 304.7124,256.89255 306.37356,256.58202 C 307.61444,256.30329 308.79884,256.80527 310.00375,257.0232 C 311.05391,256.69764 311.8751,256.03488 312.65523,255.31146 C 313.16609,254.5832 314.41357,254.5966 314.85565,255.37115 C 314.83419,256.22839 314.30203,257.37563 315.31905,257.88915 C 315.77345,258.23824 317.1028,257.93872 316.82177,258.73164 C 317.76572,258.66532 318.75631,258.55575 319.71823,258.47295 C 319.83133,259.30399 318.408,258.75329 318.65329,259.7316 C 318.64273,260.52296 318.31974,261.01318 317.43576,260.96161 C 316.46967,260.92665 317.62419,261.83308 317.97134,262.05441 C 318.96846,262.68291 319.45965,263.8042 320.17753,264.68655 C 320.84686,265.84522 321.30665,267.1266 321.51147,268.43059 C 321.42792,270.26384 322.2137,271.96723 322.63583,273.72521 C 323.50114,276.27145 323.31868,279.01797 324.15477,281.57192 C 323.72954,281.50943 323.11021,280.77177 322.95381,281.84238 C 322.91418,282.46668 322.18245,283.11398 322.21066,283.57268 C 323.00933,283.82777 321.72063,284.51639 321.55214,284.78611 C 321.42325,285.32241 320.96484,285.62526 321.27431,286.11965 C 320.48263,286.1905 320.20696,286.67728 320.15628,287.09594 C 320.08372,287.65673 320.68035,287.76013 320.16895,288.44354 C 320.07396,289.05674 319.26038,289.09995 318.98727,289.81837 C 318.63559,290.72407 317.88639,290.18326 317.84728,289.53701 C 317.12263,288.97755 316.92135,290.09405 316.17892,289.27788 C 315.56459,288.82199 315.42258,290.09281 315.02254,290.42043 C 314.39186,290.05567 313.76121,289.6909 313.13058,289.32579 C 313.03755,289.85258 312.25836,290.71392 312.25332,289.71432 C 311.58023,289.66122 311.90731,290.37148 311.21303,290.40492 C 310.68725,290.87906 310.09038,291.25643 309.3563,291.38821 C 309.54933,292.50264 307.88977,290.70492 308.4082,291.74488 C 307.90165,292.20923 307.65592,291.38092 306.93352,291.66911 C 306.41805,291.51662 305.52314,291.05852 305.79218,290.44565 C 306.15203,289.68607 305.20477,290.19439 304.63394,289.95479 C 303.74083,289.68447 304.18602,290.82991 303.26819,290.93848 C 302.47853,291.01897 302.34671,290.14418 301.99069,289.66862 C 301.49238,288.8083 301.09072,289.676 300.44445,289.18337 C 299.87572,289.45863 299.11773,289.32145 298.49448,289.22837 C 298.85099,288.47589 297.99056,288.06117 297.50226,288.47688 C 296.85355,288.48684 295.93189,288.31124 296.04022,288.93314 C 295.01781,289.11075 295.32355,288.18836 295.29832,287.54045 C 295.35299,286.84548 293.93571,286.85877 293.81744,287.39416 C 293.52125,287.38526 292.63517,287.20651 292.01723,287.503 C 292.36507,288.24627 291.15273,288.24444 291.07263,288.93095 C 290.42593,288.49725 289.74253,288.98744 289.23451,288.33827 C 288.46187,288.05679 288.42986,287.43146 288.53741,286.74097 C 288.47891,286.12161 287.37658,286.06001 287.42481,285.25606 C 288.01347,285.04126 288.709,284.83002 289.07112,284.23342 C 289.27868,283.79976 290.00547,282.69523 289.02787,282.81254 C 288.819,282.4762 289.67484,281.72894 289.62386,281.14356 C 289.92229,280.6502 289.69642,279.52582 290.38781,279.50517 C 290.79672,278.60049 290.32077,278.42532 289.43168,278.59015 C 289.09384,278.17845 288.367,277.38266 289.20408,277.01215 C 290.04966,276.59958 289.15988,276.0071 288.82658,275.56717 C 288.36144,275.12627 287.64979,275.00074 287.37589,274.45265 C 286.85563,274.27381 286.21909,273.39829 286.77067,273.00623 C 287.17734,272.54118 287.22494,272.10754 287.78182,271.58446 C 288.39657,270.73394 287.61449,269.6937 288.06686,268.78166 C 288.19878,267.2198 288.04551,265.63071 288.06661,264.05836 C 288.69649,263.67521 289.32638,263.29239 289.95631,262.90958 C 289.22323,262.37743 289.88269,261.95343 289.52938,261.24545 C 288.58001,261.36546 287.61517,261.69675 286.70776,261.24462 C 286.14739,261.00177 285.23431,260.98199 284.87845,260.60988 C 284.70527,259.83347 285.56932,259.71979 285.98666,259.40851 C 286.64675,258.96674 286.27482,258.23912 286.54493,257.75815 C 287.08508,257.36803 287.08996,256.71573 287.65806,256.27542 C 288.01307,255.36328 288.72735,255.96817 289.36498,256.24975 C 289.87272,256.60731 290.84959,256.25098 291.11672,255.84272 C 291.05359,255.12437 291.80783,254.62518 291.46365,253.98563 C 291.39498,253.76993 291.32629,253.5539 291.25761,253.33787"
     id="Bristol_South"
     style="opacity:1;fill:#c8c8ff;fill-opacity:0.33000004;fill-rule:evenodd;stroke:#7ffaff;stroke-width:1.75651956;stroke-opacity:1;display:inline" />
  <path
     style="opacity:1;fill:#c8c8ff;fill-opacity:0.33000004;fill-rule:evenodd;stroke:#7ffaff;stroke-width:1.75651956;stroke-opacity:1;display:inline"
     d="M 251.9333,208.24451 C 254.23028,205.82762 255.84938,203.66743 257.68348,200.71108 C 259.40142,197.98715 261.5235,195.5414 262.77206,192.56881 C 265.19598,190.8103 265.65725,186.01488 267.95475,185.01648 C 269.27647,187.32695 273.61938,189.02181 272.04034,192.00219 C 270.87624,196.35995 276.99442,197.4756 278.17715,201.27264 C 278.3272,203.50745 275.43517,208.16496 280.26879,208.08943 C 283.99119,208.97758 287.46668,207.13022 290.91552,206.25544 C 294.34734,205.55089 297.71359,207.57194 301.18832,206.71764 C 304.74984,205.58083 309.17999,204.31131 312.23151,203.30322 C 310.82257,201.95208 309.43856,201.83554 309.50838,199.28779 C 307.94437,196.57471 303.13208,193.14771 307.65422,190.63111 C 309.05828,186.76673 312.71975,184.92653 316.06158,183.08228 C 319.76821,179.47524 317.78811,189.735 322.20563,185.23827 C 325.36096,186.03347 328.58424,187.88309 331.75359,189.19371 C 334.35636,191.58156 336.04087,195.09245 338.04875,198.07612 C 341.58741,200.34922 336.01062,203.33535 339.02219,205.17862 C 336.39315,206.34546 333.58473,208.25124 330.98393,209.85214 C 329.38092,211.75589 330.99327,213.13273 332.2346,213.61753 C 332.65082,215.18004 332.05419,219.36702 332.961,219.37569 C 333.92595,217.04261 335.47793,219.51609 333.33354,220.30271 C 330.07493,223.27209 325.66029,225.07947 323.10771,228.75062 C 322.19237,231.53898 323.751,236.73147 318.9737,234.01339 C 315.27258,232.45034 313.45058,229.02374 312.57956,225.4705 C 310.27924,226.79068 306.51226,225.33634 304.80888,222.66948 C 302.51256,222.77272 301.1559,221.62696 303.15736,219.92072 C 302.44863,217.69532 302.5519,216.79455 300.71896,218.92322 C 299.33083,219.32611 299.17198,217.01069 297.58703,219.10766 C 293.17913,221.17955 298.38078,210.50148 293.48635,214.61673 C 291.88594,215.20447 291.9048,217.42052 289.75355,216.16759 C 286.60684,216.09019 283.40376,217.98742 285.51523,220.63971 C 285.75309,225.2424 279.7915,220.92329 278.98426,225.34741 C 277.31878,227.70223 275.57529,227.57724 273.53887,226.16703 C 270.90946,227.47113 268.52163,233.87603 264.4143,230.4172 C 261.39162,227.77285 259.18025,224.31053 256.26341,221.57543 C 253.09225,220.31998 250.30072,218.82073 250.14283,215.14709 C 249.36557,213.7122 245.21991,212.91035 248.72564,213.1508 C 247.23091,211.63571 246.36737,212.15916 248.69147,211.87735 C 249.46514,210.61119 250.2983,208.61434 251.93675,208.24442"
     id="Bristol_North_West" />
  <path
     d="M 322.63524,234.53468 C 322.75556,232.59276 322.30807,230.57054 323.11782,228.72554 C 324.07674,226.76092 326.21548,225.75237 327.87765,224.38955 C 328.65623,224.21724 329.03051,225.62245 329.12334,226.32706 C 329.14451,226.9513 327.53362,228.02601 328.9616,228.19427 C 330.12426,228.56082 331.39943,228.74867 332.49508,229.22189 C 333.12897,229.73791 334.1709,229.57593 334.64054,230.39673 C 334.81231,231.00845 335.76807,232.04033 334.78024,232.3919 C 333.31245,232.92897 334.79736,233.23017 333.753,233.96337 C 332.63679,235.12242 331.65148,236.40801 330.33228,237.37019 C 330.38428,238.44168 332.39105,237.54799 331.75639,238.80541 C 331.56695,239.74286 331.29089,240.25142 331.76401,241.22112 C 332.3111,241.41841 333.46079,240.86558 334.2739,240.97972 C 335.23621,240.98965 336.15347,240.75153 337.056,240.50237 C 339.69092,240.52191 342.34107,240.79253 344.94179,240.24906 C 346.22459,239.78154 344.69478,241.76268 346.2199,241.56008 C 346.14669,242.14599 346.23715,243.42684 345.62544,243.80656 C 345.44384,244.28783 344.5956,244.58964 344.43775,245.51498 C 343.48002,245.3871 342.83883,246.26567 342.74677,247.06394 C 342.47382,247.84295 343.33461,248.71364 342.95569,249.56205 C 342.55054,250.30695 342.9868,251.20183 342.14277,251.84537 C 341.71702,252.78292 340.77091,253.17303 339.8804,253.62179 C 339.10026,253.37397 338.43248,254.20126 337.58565,254.21043 C 337.16571,255.06548 336.70852,255.85678 335.58863,255.50866 C 334.99757,255.05794 334.31782,254.67622 333.52752,255.41963 C 332.57649,255.93507 333.78387,257.29426 334.59993,256.79734 C 335.74423,256.67082 336.93617,255.81603 338.02954,256.46876 C 339.58196,256.9907 339.32006,258.78856 339.22387,260.05028 C 339.26597,261.33661 338.71179,262.74282 339.60037,263.85861 C 340.23035,265.18827 341.35336,266.4098 342.94778,266.59497 C 344.38397,266.87017 345.51834,267.89659 347.02045,267.95366 C 347.21032,268.71663 345.51523,267.59601 344.9082,267.56282 C 343.2106,266.88084 341.02099,266.69434 340.10342,264.95149 C 340.04706,263.49676 338.18804,264.73086 339.12806,264.76274 C 340.29259,265.04488 339.57547,265.92252 338.98307,266.46518 C 339.55623,267.04153 340.92174,267.19816 340.76403,268.16166 C 340.60588,269.09337 341.10036,269.8252 341.13503,270.70458 C 340.31593,270.8082 339.24053,270.39678 338.57916,271.15395 C 337.93845,271.6485 336.97887,272.28298 337.24465,273.16775 C 338.1983,273.65931 338.42018,274.41619 337.29413,274.87239 C 336.60266,275.34032 336.01533,276.01845 335.74763,276.78428 C 337.00382,277.24274 335.26229,277.46741 335.84105,278.5167 C 335.72943,279.23774 335.77336,279.88624 335.05934,280.48091 C 334.44749,281.06888 335.42209,281.76351 333.83734,281.78369 C 333.25892,282.40168 331.9929,282.78612 332.07795,283.73263 C 331.42242,284.89979 330.81187,283.24694 330.02265,283.18848 C 329.04318,283.18363 328.8364,282.85161 327.82334,283.00087 C 326.92346,283.18034 326.40545,282.38442 325.50131,283.10569 C 325.08294,283.33933 326.02895,281.03217 324.84713,281.52246 C 323.70073,281.8459 323.95466,280.31905 323.66089,279.62811 C 323.34762,277.15282 323.02999,274.67831 322.21817,272.29924 C 321.79243,270.92872 321.4069,269.55221 321.47587,268.10799 C 321.05277,266.22181 320.19464,264.46686 318.90996,262.9772 C 318.44408,262.14495 317.36052,261.89775 316.946,261.01443 C 317.93244,260.96086 318.76151,260.75524 318.64676,259.637 C 318.42807,258.88841 320.69736,258.59867 319.1109,258.52112 C 318.4435,258.36745 316.72606,259.17209 316.86023,258.28714 C 317.73804,258.58059 318.56392,258.27897 319.32872,257.79125 C 320.65058,256.93616 322.60032,257.39169 323.64948,256.1237 C 324.91702,255.59961 323.76728,254.68571 323.92628,253.87719 C 324.55553,253.30992 325.33757,252.83353 326.02533,252.3014 C 325.04089,252.30102 324.45482,253.21616 323.66418,253.66127 C 323.11066,254.4501 324.51738,255.36879 323.54416,255.8834 C 322.40317,257.32359 320.28295,256.70661 318.88566,257.72314 C 317.99155,258.44818 316.83118,258.00459 315.8227,257.78178 C 314.52827,257.56559 315.08243,256.10682 315.0767,255.23213 C 314.62027,254.33504 313.61612,254.47907 312.82532,254.80735 C 311.7385,255.74877 310.47074,257.21966 308.8283,256.56019 C 307.73023,256.47003 308.70196,255.04849 308.58644,254.32632 C 308.00849,253.72631 307.52621,253.35644 307.77475,252.31217 C 307.58325,251.23118 308.26597,249.82267 309.50536,249.76929 C 310.04532,250.26505 311.00408,251.21383 311.58639,251.02027 C 311.65997,250.02088 311.92082,248.9877 311.2243,248.12695 C 310.83167,247.34087 310.0705,246.45851 311.36122,246.11099 C 312.45212,245.45975 313.51621,244.782 314.15844,243.6821 C 315.222,242.55005 315.8296,240.91628 317.38848,240.32956 C 318.73834,239.74901 319.84443,238.79543 320.83143,237.75721 C 320.01137,237.64423 319.43071,236.86583 320.33738,236.31292 C 320.9343,235.02859 321.78166,237.60203 321.99434,236.00885 C 322.20657,235.50611 322.4188,235.0037 322.63104,234.5013"
     id="Bristol_East"
     style="opacity:1;fill:#c8c8ff;fill-opacity:0.33000004;fill-rule:evenodd;stroke:#7ffaff;stroke-width:1.75651956;stroke-opacity:1;display:inline" />
  <path
     d="M 411.08848,264.19834 C 411.8807,263.12477 413.44381,263.03447 414.37756,262.03899 C 415.46317,260.89171 417.03286,260.91975 418.51935,260.74584 C 418.71549,262.18528 420.72224,262.18081 421.38862,261.03683 C 422.60893,260.46363 423.10206,259.43948 424.5984,259.86797 C 425.95764,260.11582 427.07671,258.54691 428.17961,259.37453 C 429.46465,260.52267 431.37437,260.6865 432.93076,260.28565 C 433.93073,261.16987 436.13905,259.98762 436.21572,261.57547 C 436.55237,262.53861 437.1776,263.61696 438.12337,264.05079 C 439.30956,264.79712 439.76591,266.02667 441.19931,266.43585 C 441.3811,267.37043 442.04198,268.55106 441.67923,269.77542 C 440.96107,271.48406 443.24649,271.51031 443.89536,270.3192 C 444.6027,269.00352 446.49037,269.73802 447.45623,268.64874 C 447.61626,267.59045 448.61296,266.05281 450.03963,266.4799 C 451.4732,266.4361 449.40965,269.0948 451.81375,268.56994 C 453.1937,268.84108 454.10338,270.24865 455.34385,270.34156 C 456.68112,271.27825 457.34981,273.09148 457.75403,274.61752 C 459.15706,275.46129 457.87519,277.03831 458.02126,277.52944 C 457.17014,278.09714 456.17965,278.38784 456.99456,279.41559 C 457.03809,280.32456 455.63545,280.82063 455.23497,281.77768 C 454.35985,281.96528 452.53087,283.06948 453.23713,283.90355 C 454.1908,284.87119 454.78246,285.99183 455.05199,287.28161 C 454.96435,288.59972 457.31285,289.33395 456.90429,289.74413 C 455.61002,289.76797 454.45094,290.66018 453.10503,290.59013 C 452.32471,291.18165 449.85647,290.44649 450.23924,291.99044 C 450.76839,294.20798 450.77268,296.53671 449.93259,298.68976 C 450.93677,300.17484 452.10019,301.58995 452.39365,303.38672 C 453.14576,304.13438 453.20678,305.61009 453.44412,306.75631 C 453.69935,307.91115 452.81361,308.93198 452.65072,310.09947 C 451.78507,311.53966 451.51509,312.93631 450.376,314.25323 C 449.49978,315.55741 448.17896,315.5688 447.04519,314.53702 C 446.00222,313.41475 444.82058,313.15409 444.37686,314.85137 C 443.54651,316.09925 444.1092,317.51783 444.18361,318.87674 C 443.20033,319.29851 442.16111,319.18221 440.86097,319.46232 C 439.66038,320.45324 438.43197,318.49457 437.84679,320.13886 C 437.40536,321.54616 435.98147,321.3316 435.03076,321.95517 C 434.14021,323.06985 433.12915,323.44472 431.88388,323.44266 C 430.943,323.64349 430.71603,324.6183 429.81766,325.3873 C 429.14599,325.72856 428.37511,326.55991 428.16207,327.50091 C 428.05927,328.31049 428.88803,329.88398 427.35794,329.34244 C 426.43918,329.21098 424.35134,329.71951 425.18438,331.10006 C 424.56981,332.42899 422.81926,331.92133 422.49953,330.5594 C 421.25528,330.89279 420.58148,332.10523 419.17857,332.02979 C 418.4134,332.04914 416.15237,331.4401 417.08895,330.44992 C 416.84172,329.14089 414.36704,329.27567 415.07924,327.53135 C 414.94521,326.10285 413.30448,325.80893 412.08623,326.25321 C 410.32483,327.0207 410.42365,325.51317 409.88153,324.4577 C 408.82826,323.42606 409.97234,322.10198 409.18462,321.29154 C 409.22093,319.47443 408.25194,319.92835 408.01525,318.33516 C 407.63614,317.07871 405.77581,316.27395 406.12433,314.90094 C 405.34225,314.96319 405.34838,315.49336 404.08824,316.41769 C 403.54529,315.24001 402.30126,314.74142 401.23677,314.80583 C 399.76732,313.46709 400.17365,313.70412 401.23512,312.65147 C 402.08719,311.19753 399.59211,312.54106 398.55977,311.80524 C 396.71816,311.93246 396.68729,311.12764 396.81459,309.69145 C 397.70261,308.33009 397.34979,307.11723 395.51397,307.28147 C 394.36117,306.72485 393.39679,305.37948 394.80432,304.44907 C 394.55948,303.07971 396.42539,302.60944 396.44226,301.54909 C 395.46407,300.71291 395.70497,299.62997 396.37112,298.72069 C 396.79558,297.42529 398.82838,297.97699 397.22338,296.62932 C 396.38302,295.68047 396.54135,293.87293 394.80145,293.9044 C 393.41712,293.41273 392.05041,293.76869 390.64442,293.66353 C 389.87655,294.65652 387.63178,294.18973 387.68256,295.53444 C 387.29576,297.27125 386.19319,295.00166 384.97469,295.35789 C 382.89639,293.89727 380.43772,292.8301 378.60876,291.11196 C 378.20559,289.88553 377.48935,288.99979 376.4764,288.13227 C 375.18064,287.01283 376.9512,285.89056 376.96128,284.84911 C 376.8131,283.58333 378.52826,282.89992 379.36665,282.12125 C 380.66828,281.33291 381.91956,280.01439 381.94074,278.49728 C 381.09562,277.33864 379.70468,276.73362 379.02984,275.41738 C 376.77775,274.77866 380.60535,275.91668 380.17712,274.57399 C 379.1706,274.1871 378.21022,271.78299 380.04544,272.32051 C 381.32971,272.1295 382.62437,271.54786 384.00854,271.54471 C 385.27002,271.48715 386.32933,270.61867 387.63716,271.13153 C 389.73881,271.81454 391.22916,269.7841 393.10077,269.33413 C 394.81508,270.37326 396.10606,268.20346 397.40403,267.4115 C 398.82971,266.8168 398.18924,264.90451 399.96292,265.12939 C 401.47615,265.58931 401.76935,264.92433 403.51017,264.98759 C 405.20072,264.91543 407.02128,265.26847 408.35346,264.02476 C 409.51212,262.98393 409.91036,263.51977 411.10182,264.16422"
     id="Bath"
     style="opacity:1;fill:#c8c8ff;fill-opacity:0.33000004;fill-rule:evenodd;stroke:#7ffaff;stroke-width:1.75651956;stroke-opacity:1;display:inline" />
</svg>
