<?xml version="1.0" encoding="UTF-8" standalone="no"?>
<!-- Created with Inkscape (http://www.inkscape.org/) -->
<svg
   xmlns:dc="http://purl.org/dc/elements/1.1/"
   xmlns:cc="http://creativecommons.org/ns#"
   xmlns:rdf="http://www.w3.org/1999/02/22-rdf-syntax-ns#"
   xmlns:svg="http://www.w3.org/2000/svg"
   xmlns="http://www.w3.org/2000/svg"
   xmlns:xlink="http://www.w3.org/1999/xlink"
   xmlns:sodipodi="http://sodipodi.sourceforge.net/DTD/sodipodi-0.dtd"
   xmlns:inkscape="http://www.inkscape.org/namespaces/inkscape"
   width="640px"
   height="480px"
   id="svg12462"
   sodipodi:version="0.32"
   inkscape:version="0.46"
   enable-background="new"
   sodipodi:docname="wiltshire.svg"
   inkscape:output_extension="org.inkscape.output.svg.inkscape">
  <defs
     id="defs2663">
    <inkscape:perspective
       sodipodi:type="inkscape:persp3d"
       inkscape:vp_x="0 : 240 : 1"
       inkscape:vp_y="0 : 1000 : 0"
       inkscape:vp_z="640 : 240 : 1"
       inkscape:persp3d-origin="320 : 160 : 1"
       id="perspective2665" />
  </defs>
  <sodipodi:namedview
     id="base"
     pagecolor="#ffffff"
     bordercolor="#666666"
     borderopacity="1.0"
     inkscape:pageopacity="0.0"
     inkscape:pageshadow="2"
     inkscape:zoom="1"
     inkscape:cx="372.83238"
     inkscape:cy="201.76757"
     inkscape:current-layer="layer61"
     inkscape:document-units="px"
     showgrid="false"
     inkscape:window-width="1213"
     inkscape:window-height="951"
     inkscape:window-x="82"
     inkscape:window-y="64" />
  <metadata
     id="metadata12467">
    <rdf:RDF>
      <cc:Work
         rdf:about="">
        <dc:format>image/svg+xml</dc:format>
        <dc:type
           rdf:resource="http://purl.org/dc/dcmitype/StillImage" />
      </cc:Work>
    </rdf:RDF>
  </metadata>
  <g
     id="layer1"
     inkscape:label="Backdrop"
     inkscape:groupmode="layer"
     style="opacity:1">
    <g
       style="display:inline"
       id="g5764"
       transform="matrix(1.3970623,0,0,1.3970623,2817.0736,5225.4225)" />
    <image
       y="1.2324257"
       x="0.83238602"
       id="image13929"
       height="480"
       width="640"
       sodipodi:absref="/Users/httpd/Desktop/UKParseParl/Maps/Wiltshire.jpg"
       xlink:href="/img/maps/wiltshire.jpg" />
  </g>
  <g
     inkscape:groupmode="layer"
     id="layer61"
     inkscape:label="Map"
     style="opacity:1;display:inline">
    <g
       style="display:inline"
       id="g5870"
       transform="matrix(1.6938727,0,0,1.6938727,156.05145,29.157979)">
      <path
         id="Westbury"
         onclick="javascript:respond(this.id);return true;"
         onmouseover="javascript:popup(this.id);return true;"
         onmouseout="javascript:popdown(this.id);return true;"
         style="fill:#c8c8ff;fill-opacity:0.33;fill-rule:evenodd;stroke:#7ffaff;stroke-width:0.99999994;stroke-opacity:1;display:inline"
         d="M 47.52836,96.275861 C 46.97675,97.778472 46.5039,99.366288 46.59366,100.98217 C 44.11473,100.61587 46.57807,102.39583 44.80893,102.94247 C 45.55359,103.92651 46.16158,104.95977 46.46399,106.1492 C 45.01925,106.03276 44.5545,107.38583 44.15379,108.81187 C 43.39158,110.36644 41.72606,109.39363 41.59158,110.97079 C 41.61796,112.23103 45.40766,111.14581 43.41338,112.45642 C 43.95213,112.39352 45.07997,112.77551 45.12745,113.66225 C 46.80964,113.19506 48.57022,114.12743 50.39928,113.93096 C 51.51864,114.8118 51.5688,114.36635 52.68303,114.20918 C 53.80932,115.20674 51.65369,116.95705 53.64368,116.74231 C 54.83341,116.31571 53.79709,119.22709 56.17806,118.49435 C 57.38364,117.44022 59.4323,117.98859 60.51517,117.59149 C 61.54643,118.53724 63.34014,118.85173 62.33646,120.77806 C 63.74342,121.84356 61.13815,123.02435 62.10953,124.51444 C 63.29392,126.61406 59.26357,124.18412 59.13989,125.24603 C 60.00045,126.37615 60.93487,127.56859 61.6608,128.49549 C 62.90359,129.94096 62.14096,130.65873 62.75788,132.4728 C 63.20878,133.70483 62.74626,134.92621 62.26223,136.04324 C 61.70803,137.01015 61.24379,138.41618 61.47121,139.81315 C 62.00356,141.05597 60.33932,143.06694 62.03033,143.48418 C 62.12572,145.34892 64.19336,145.48435 65.51374,144.44548 C 67.49763,143.30888 68.47904,145.35655 67.34781,147.068 C 68.19224,149.40683 69.85292,146.25092 71.3219,146.25926 C 72.46337,147.17925 72.71324,149.15251 74.16173,150.04731 C 73.98439,151.1806 77.76229,150.43433 77.10417,152.13758 C 77.12542,153.60219 75.98922,157.03848 78.22151,154.73635 C 80.35649,154.03729 80.43364,156.00263 80.91507,157.61794 C 82.69908,157.46062 84.55584,157.60959 84.20613,159.87761 C 84.28397,161.77631 84.30075,163.2084 82.05954,163.45581 C 80.73982,164.41005 79.04764,164.26166 77.62964,164.78369 C 76.3415,165.56709 74.36776,165.69562 74.65716,167.75048 C 74.79673,169.59292 74.34748,171.17338 74.02284,172.90298 C 75.07157,174.44258 72.24616,176.45398 73.89941,177.10308 C 76.19747,177.11273 76.03959,178.73221 75.03446,180.35861 C 73.81333,181.28075 74.02418,182.82567 72.96048,184.05755 C 72.33524,185.23907 72.74488,188.08741 71.03797,186.98434 C 69.44965,186.88891 68.01111,185.66955 66.29645,185.75592 C 65.56603,184.50747 63.80956,186.87568 62.62558,186.04118 C 60.9895,184.78526 60.15358,186.43598 58.31733,185.52549 C 57.09908,185.019 55.51419,184.70207 54.48541,184.15787 C 52.92447,184.93912 51.11155,183.99394 49.67003,185.05066 C 48.15028,185.10191 46.97144,182.56689 45.70429,183.4581 C 44.39809,184.19745 42.53776,184.81995 41.78673,186.03154 C 42.07631,188.08107 41.23762,190.18314 39.12455,190.68805 C 38.38862,191.47433 41.82947,189.96365 42.81093,190.11938 C 44.52607,189.7577 46.08985,190.35701 47.49124,190.33283 C 48.67554,190.81916 48.56742,193.30135 47.30657,192.8949 C 48.45174,193.97566 47.89252,195.67315 46.88908,197.03643 C 45.68131,198.2735 46.26833,199.99674 46.97769,200.94121 C 46.5606,202.44425 46.17689,203.49795 44.92405,204.4352 C 44.24224,205.45738 42.29662,205.97496 41.88804,207.31838 C 41.69348,208.4069 44.2748,207.28672 45.05694,207.27952 C 46.43072,206.01583 46.71431,208.75434 48.21102,208.49831 C 48.85805,209.22903 50.03162,208.84114 50.95102,208.93483 C 51.55639,209.4855 53.67103,208.69002 53.26208,209.20182 C 52.81099,210.62843 53.27206,211.69826 51.61145,212.31068 C 50.17787,213.30723 49.43174,214.85288 47.57678,213.88495 C 46.25753,214.52529 44.96579,212.56556 44.04805,214.54746 C 42.81979,215.17586 41.75387,216.2366 40.28945,216.12953 C 39.34827,215.52776 36.83704,215.68982 37.74891,213.99463 C 37.42942,212.46051 36.99669,210.51056 35.33218,209.80647 C 34.161,209.79883 33.5035,207.76253 32.47713,206.72813 C 31.64637,205.43334 30.08752,204.96673 29.34667,203.43894 C 28.15844,202.583 27.83438,200.42176 26.18796,200.49417 C 24.75022,201.00553 22.65551,202.05448 21.30017,201.06887 C 19.37126,199.30964 16.91966,198.73449 14.50163,198.11921 C 13.23192,198.22701 11.82794,197.5301 10.54091,197.96103 C 10.49491,196.80932 9.14497,195.55872 7.75691,195.78756 C 6.43581,195.45409 5.38787,194.27071 4.98731,192.75083 C 3.56014,192.07651 2.84453,190.6453 3.58236,189.17708 C 3.86814,187.35035 2.5468,186.96375 3.01127,185.66955 C 4.26435,185.18869 5.15398,184.63299 6.40595,184.15831 C 8.54742,183.54891 5.34789,181.28147 7.46145,180.61723 C 9.66991,180.29167 9.67002,178.60599 9.76126,176.97355 C 11.05711,175.21 11.96765,173.29273 13.37248,171.76608 C 13.48668,169.98311 14.98794,168.97215 16.21124,167.9232 C 16.00949,166.26831 17.60128,165.43497 17.70478,163.83564 C 18.51324,163.59945 18.69611,161.73025 19.2893,160.96614 C 20.1663,160.37186 19.95739,158.86378 20.97279,158.06411 C 21.10237,157.00912 22.82415,155.80804 22.3107,154.75866 C 21.77506,153.77649 22.51066,152.27762 22.87188,151.00472 C 23.44639,149.63539 23.23094,148.38379 24.26518,147.11175 C 25.4666,146.21421 25.38036,144.67706 26.578,143.58061 C 26.91202,142.39234 25.15418,141.03064 27.02184,140.26019 C 26.98101,138.76952 26.86318,137.21784 26.49765,135.79842 C 25.79097,134.70729 25.97182,132.17689 24.84421,131.95553 C 23.4896,131.48661 23.34148,130.45551 22.54264,129.88296 C 21.83528,130.1108 19.68099,131.50561 20.07694,130.47292 C 19.21173,129.13928 20.81642,128.12847 20.32993,127.04844 C 19.98198,126.39414 18.337,125.90651 19.72259,125.16212 C 20.97157,125.70401 22.26869,123.65677 20.92665,122.71534 C 21.73432,123.01658 21.43679,120.42717 20.36062,120.57095 C 20.52526,121.11485 17.36707,121.09945 18.61795,119.63527 C 17.66691,118.58575 15.9443,119.42082 15.09162,118.07164 C 14.22336,117.57379 13.59784,117.22793 12.29228,116.88624 C 10.52351,117.00426 9.93276,114.85642 8.43387,114.49703 C 6.76805,114.71768 7.70017,113.0946 8.49717,112.71232 C 9.11231,111.95238 10.93328,111.93468 11.54697,110.73734 C 12.29417,110.40875 14.58102,111.2005 14.04249,109.55655 C 13.92321,106.68259 16.39202,110.3342 17.0769,107.94153 C 17.98217,106.58544 18.37568,104.7292 17.48626,103.28589 C 16.37808,101.95829 16.9785,99.859818 17.0919,98.543738 C 20.22619,97.718166 23.6731,97.967594 27.02526,97.597554 C 33.71381,97.075814 40.49247,96.633379 47.12935,96.160574 C 47.18095,96.336743 47.36202,96.267801 47.50244,96.275861" />
      <path
         id="South_Swindon"
         onclick="javascript:respond(this.id);return true;"
         onmouseover="javascript:popup(this.id);return true;"
         onmouseout="javascript:popdown(this.id);return true;"
         style="fill:#c8c8ff;fill-opacity:0.33;fill-rule:evenodd;stroke:#7ffaff;stroke-width:0.99999994;stroke-opacity:1;display:inline"
         d="M 136.3566,38.862738 C 136.34282,39.45342 136.76752,40.268054 136.99249,40.944085 C 137.41345,41.567438 137.50539,41.986701 137.64112,42.456483 C 138.05695,42.564429 138.27557,42.596237 138.56025,42.921515 C 138.84482,43.978236 139.64327,43.196562 140.26291,42.960951 C 141.06861,42.552915 141.96149,42.254263 142.77157,41.945825 C 143.31725,40.774825 143.6751,41.962521 144.30666,42.369262 C 145.08679,42.745634 144.98813,43.478661 145.1713,44.150662 C 145.40489,45.125776 146.01465,45.909897 146.57092,46.721221 C 146.65241,47.398835 147.37229,48.098614 147.57077,48.717218 C 148.08628,48.58063 148.26277,49.379288 148.51907,49.864182 C 149.0234,50.499625 149.12605,50.965953 149.67615,51.470853 C 149.57047,52.113492 150.4748,52.724612 150.92684,53.200726 C 151.35175,53.738298 151.57947,54.191816 151.88607,54.97824 C 152.55359,56.022296 152.87134,57.209128 153.31049,58.350191 C 153.32125,59.038456 154.17243,59.708586 152.99676,59.954128 C 152.38511,60.132599 151.47168,59.866044 150.74322,60.059627 C 150.29998,60.141235 149.98989,61.489698 149.3717,60.569421 C 149.0108,59.770188 147.84304,59.992845 147.73507,60.617349 C 147.87031,61.720991 146.65443,60.824174 146.25028,61.750065 C 145.33512,62.498348 144.22436,62.996339 143.02629,63.014186 C 141.83974,63.177401 140.87543,64.006428 139.64719,64.014056 C 138.25807,64.429289 136.76568,64.312419 135.32827,64.481967 C 134.75205,64.234986 133.89544,64.913607 133.18544,64.931599 C 132.40633,65.118705 131.60926,65.188798 130.81444,65.273572 C 131.0396,66.568926 131.26475,67.864281 131.48991,69.159635 C 129.86885,69.056294 128.24701,69.155317 126.69821,69.677777 C 125.88141,69.600055 125.30465,70.301849 124.45824,70.035438 C 123.4082,69.773633 122.35374,70.002335 121.3057,69.974557 C 120.47728,70.106539 119.7393,70.446353 119.83168,71.010696 C 119.01185,70.489964 118.09649,70.04796 117.10028,70.239097 C 116.40355,69.525213 115.58253,70.388062 115.14152,70.263277 C 114.46804,69.634742 114.09177,68.815934 113.4608,68.1625 C 113.30828,67.4312 112.11675,67.026618 112.42622,66.287403 C 112.86063,65.524583 111.82999,65.001116 112.29474,64.127759 C 112.57804,62.846654 111.41252,63.693672 110.7645,63.894739 C 110.1467,64.787814 109.38028,63.586589 109.0222,64.414176 C 108.73517,65.250975 108.03192,65.257164 107.4173,65.180307 C 106.99676,64.468581 107.19612,63.892724 106.96941,63.177689 C 106.88689,62.394287 106.36944,62.02871 106.16868,61.330658 C 105.88315,60.628288 107.21759,60.556468 106.1417,60.139939 C 106.73479,59.609132 105.79705,58.809035 105.71158,58.159486 C 105.67565,57.503174 106.74219,57.023461 106.86434,57.962161 C 106.01764,58.42561 106.30487,59.206708 106.84328,59.683831 C 106.90966,60.116479 107.82778,60.761853 107.4581,61.479767 C 107.42374,62.554911 108.10157,61.687024 108.7898,62.049435 C 109.19564,61.111743 108.855,59.846038 107.88406,59.430085 C 107.53978,58.736207 107.75441,57.940572 107.20568,57.299947 C 106.49036,56.362254 107.94661,56.181481 107.19639,55.586625 C 106.36202,55.751135 106.63299,54.293574 106.27628,53.757153 C 105.89282,53.113506 106.33089,52.302902 105.97213,51.819015 C 105.54048,51.713228 103.79619,51.041803 104.61063,50.87499 C 105.47562,50.540645 103.56638,49.565243 104.69252,49.183689 C 105.66618,48.591712 104.09696,48.118764 103.72974,47.58954 C 103.49647,47.010804 101.92454,46.699487 102.25194,46.715895 C 103.02117,46.541454 102.65078,45.435653 102.98423,44.994082 C 103.4808,45.752152 103.79505,45.716889 104.39947,45.739342 C 104.75993,45.929903 106.17651,46.470642 105.84208,45.671552 C 106.07235,44.92442 104.91777,44.536822 105.06051,44.009037 C 105.71109,43.576964 106.48024,43.276586 106.03701,42.342779 C 106.21655,41.80751 106.11444,40.446381 106.84266,40.780294 C 107.51558,40.895581 107.22976,39.902908 108.37086,40.073894 C 108.94932,39.377713 109.52762,40.679544 110.12834,40.902633 C 110.54501,41.457621 111.87595,41.709207 111.45076,42.543415 C 111.3132,43.279608 111.05577,44.051783 111.30133,44.705505 C 111.50894,45.463576 112.06008,46.071241 112.27073,46.690996 C 112.22814,47.325575 112.6086,48.656624 113.41146,48.006644 C 115.90732,45.66709 118.93872,43.961684 122.17388,42.869988 C 122.50491,43.030325 122.20181,44.034368 123.14973,44.249253 C 124.37499,45.005452 125.5905,45.828002 126.93291,46.347007 C 127.45112,46.197754 128.3581,46.306851 129.02958,46.105927 C 129.66394,45.252577 130.55948,46.535985 130.62127,46.17746 C 130.60236,44.750987 129.29686,43.968881 128.59787,42.892729 C 129.68779,42.679571 128.50254,41.634221 128.28087,41.063401 C 128.17097,40.5929 128.67064,39.822308 128.73905,39.409665 C 127.99704,39.062511 128.63355,38.012554 128.3561,37.937567 C 128.06499,37.250022 127.74675,36.673302 127.02931,36.496558 C 126.49414,36.012383 125.30254,35.738919 126.13777,35.210271 C 126.11588,34.376063 126.98148,34.323961 127.29212,34.020704 C 127.195,33.116835 129.13292,34.205508 128.41353,33.62375 C 126.97471,33.577405 127.79156,33.110502 128.76834,33.152673 C 129.77486,33.57611 129.26499,32.648204 129.38754,32.182452 C 130.10933,32.112215 130.46348,32.176983 131.05476,32.540258 C 132.05923,32.259454 131.75647,33.429015 132.0842,33.837339 C 131.19127,34.040278 131.87757,35.316058 132.45785,34.631248 C 132.98535,35.439405 133.74166,35.030648 134.55538,34.885425 C 135.33553,34.764093 134.99413,36.07931 135.45194,36.507928 C 136.23278,37.021032 135.96574,36.240941 135.59433,37.095443 C 135.56146,37.945483 136.07006,37.86805 136.28194,38.622666 L 136.31682,38.747452 L 136.34508,38.848345" />
      <path
         id="Salisbury"
         onclick="javascript:respond(this.id);return true;"
         onmouseover="javascript:popup(this.id);return true;"
         onmouseout="javascript:popdown(this.id);return true;"
         style="fill:#c8c8ff;fill-opacity:0.33;fill-rule:evenodd;stroke:#7ffaff;stroke-width:0.99999994;stroke-opacity:1;display:inline"
         d="M 136.9759,155.47355 C 137.15013,157.29223 135.20959,159.16733 137.53189,160.10372 C 138.62896,161.12763 139.62471,162.81245 141.16563,163.01525 C 141.46258,164.66409 140.39054,166.16641 140.87905,167.43384 C 141.34389,169.96353 143.29921,171.93808 144.13034,174.2287 C 144.16632,176.07271 142.69507,177.70817 143.28744,179.46683 C 143.29592,180.55966 141.41105,182.84452 143.0288,183.07223 C 145.13304,183.11813 147.3042,183.45609 148.6774,185.20654 C 151.06059,186.07068 147.81475,187.63461 149.19889,188.99531 C 150.35602,190.67077 148.55566,191.79888 147.98826,193.32798 C 147.15786,194.54705 148.36483,196.12464 148.7198,197.32774 C 149.99763,198.05516 149.10348,200.375 149.3762,201.76764 C 148.43991,204.50718 148.88681,207.60652 148.11633,210.28128 C 148.66386,212.05923 148.58245,213.59999 150.92465,212.72807 C 151.85737,213.55292 153.10818,215.0587 154.77314,215.29228 C 155.4077,216.31231 152.62405,218.07731 155.21831,219.19044 C 156.80038,220.65852 153.7878,221.77123 153.32145,220.05415 C 152.4074,221.65578 152.54976,220.51731 154.07183,222.42883 C 152.67367,222.89387 151.18667,221.04698 149.97949,222.8383 C 148.62084,223.78089 150.52291,224.83718 150.13844,226.21414 C 152.10024,226.62319 150.59152,228.44646 152.03389,229.3086 C 152.84028,229.72339 155.29931,229.09357 154.2,230.96377 C 152.9258,231.82116 152.50719,233.0552 151.95418,234.48843 C 151.51218,236.19829 150.65522,238.37752 148.99767,236.4142 C 147.13093,235.37216 147.31532,238.8365 145.71172,239.25779 C 144.3819,240.39093 142.65846,240.6621 141.16747,239.72296 C 137.68081,238.37493 135.15388,235.49104 133.3436,232.3167 C 131.84159,231.41514 131.20374,230.05948 129.29787,230.41685 C 127.59266,231.27393 126.14536,229.81681 124.40815,230.25853 C 124.38093,228.52303 121.47532,228.84184 120.22853,228.11399 C 118.80811,227.72164 117.38922,226.43406 115.82827,226.27934 C 114.08624,224.82351 112.93698,227.27101 112.07688,227.49799 C 111.06644,225.46499 109.43033,223.89056 108.74318,221.67235 C 108.40747,219.18295 105.58108,221.24358 104.5325,222.12643 C 103.16043,224.13092 101.96731,226.24033 100.57471,228.24353 C 100.21499,226.00299 100.51144,223.37745 100.46376,221.34937 C 99.38941,222.06871 98.37064,223.72475 96.88333,223.46512 C 95.08861,224.04918 93.05924,222.96769 91.33395,224.17036 C 89.2145,223.5758 88.38858,225.94729 87.07008,227.15226 C 85.45116,229.88144 85.27604,227.85291 83.79597,226.41306 C 82.19303,225.02213 81.12357,227.08909 79.97174,227.84053 C 78.79755,228.15141 77.28677,228.60147 77.61689,230.01385 C 76.83368,231.39297 74.87548,231.43572 73.52369,231.16528 C 72.32382,232.26993 70.83857,231.98005 69.39443,232.36937 C 67.58471,231.25106 67.45765,234.31284 65.49261,233.96627 C 63.66216,233.75986 64.01604,236.0561 62.99819,236.27472 C 62.71817,238.23646 61.47087,239.28168 59.4012,238.71402 C 58.37932,239.51916 56.80083,238.73417 55.84852,240.28141 C 54.606,241.36173 54.45914,238.12507 53.42769,237.38298 C 51.95325,236.70204 50.78809,235.22866 51.39223,233.54973 C 49.93948,232.89213 52.75099,229.78888 50.47368,230.08582 C 48.42762,229.64164 46.79071,228.11874 45.21165,226.90226 C 43.70373,225.67744 42.88097,225.12202 42.03292,223.65812 C 41.1103,222.79959 39.6642,221.36261 40.28703,219.85093 C 39.91785,218.40545 38.44679,218.20554 37.89892,217.15846 C 37.12685,214.61799 39.11757,215.65888 40.59349,216.19673 C 41.99726,215.93018 43.10327,215.18608 44.28627,214.36885 C 45.17975,212.44957 46.60254,214.87908 47.8625,213.76449 C 49.71344,215.27026 50.35128,212.74475 51.8353,212.09679 C 53.76136,211.80865 52.41369,209.88707 53.55156,208.89972 C 52.58502,209.27177 51.57112,209.15605 50.58312,208.88518 C 49.36154,209.14986 48.27884,208.80732 47.17401,207.99283 C 46.22014,206.51282 44.99821,207.33234 43.52299,207.61862 C 41.0273,208.5861 41.87358,206.47985 43.2997,205.76193 C 44.61992,204.94299 45.36405,203.88008 46.54178,202.78276 C 47.18055,200.97662 46.68835,200.3868 46.06937,198.69505 C 46.59734,197.14798 48.22261,195.64536 48.04253,193.84467 C 46.20791,192.8628 49.11648,192.72881 48.2779,191.27571 C 47.43627,189.62426 45.70713,190.40883 44.05503,190.01576 C 42.28188,190.19682 40.41936,190.35888 38.79888,191.15321 C 39.9419,190.26533 41.71054,189.45645 41.81388,187.73766 C 41.18746,185.74138 42.88687,184.84039 44.45357,184.10649 C 45.93796,182.75299 47.1586,183.39103 48.49633,184.61183 C 49.94381,185.46317 51.30315,184.09801 52.8876,184.48935 C 54.63927,183.67255 55.42835,184.8899 57.13349,184.94992 C 58.23868,185.85219 60.32863,186.10566 61.21595,185.45525 C 62.71374,186.42547 64.26143,186.19057 65.7275,185.33996 C 66.66027,186.05701 68.81463,185.93351 70.0981,186.88085 C 72.11343,187.62035 72.39944,186.91784 72.77324,184.90501 C 73.2418,183.31446 74.10994,182.02573 74.64223,180.62804 C 75.6948,179.68401 76.68562,177.22788 74.48261,177.27221 C 71.94578,177.08525 74.58184,175.13934 74.14841,173.70882 C 73.84311,171.73299 75.00582,170.03578 74.67206,168.01603 C 74.26818,165.69994 76.50237,165.5943 77.87614,164.59846 C 80.2046,164.62911 82.11086,163.35607 84.23486,162.59785 C 83.77341,161.09553 84.92751,158.44768 83.31488,157.73164 C 80.97019,158.29829 80.39026,156.6991 80.05884,154.6985 C 78.34366,154.07111 76.04967,157.04424 76.96948,153.8961 C 77.77352,151.58792 76.683,150.8985 74.62211,150.48126 C 72.95073,149.35113 76.249,149.25139 77.35158,149.07651 C 78.47327,148.98757 81.8495,148.64142 80.05553,147.00006 C 79.5276,145.99962 81.81493,143.76024 82.98677,144.79091 C 84.54694,145.77567 86.57934,146.03157 88.5139,146.20443 C 90.08844,145.86461 91.80035,143.77665 93.21146,144.20857 C 94.51372,145.64167 95.83237,147.44869 97.96923,147.52857 C 98.61356,145.88937 99.12429,143.48505 100.83825,145.61432 C 99.34219,147.42667 100.51511,148.59349 102.03316,149.85272 C 102.98643,151.22954 101.6222,153.40357 103.85848,154.22123 C 105.52312,155.76342 107.75704,155.81898 109.82643,155.13618 C 111.74758,154.54881 113.87137,155.01168 115.49009,153.55916 C 117.17316,153.29836 117.67926,152.10016 118.8029,151.32914 C 118.96611,150.48744 116.21197,148.92611 118.55568,147.99432 C 121.56665,146.89111 124.71981,145.07848 128.04915,145.83021 C 129.85001,147.06929 131.96095,145.46334 133.90964,145.64311 C 133.8484,146.97689 134.64034,148.67121 135.31096,149.8746 C 135.99551,151.61411 137.36466,152.93682 136.96546,154.97311 L 136.98145,155.27752 L 136.99173,155.47355" />
      <path
         id="North_Wiltshire"
         onclick="javascript:respond(this.id);return true;"
         onmouseover="javascript:popup(this.id);return true;"
         onmouseout="javascript:popdown(this.id);return true;"
         style="fill:#c8c8ff;fill-opacity:0.33;fill-rule:evenodd;stroke:#7ffaff;stroke-width:0.99999994;stroke-opacity:1;display:inline"
         d="M 79.37397,20.526279 C 80.69672,20.33615 79.29928,23.184778 81.43382,21.482107 C 82.57807,21.835019 84.18975,21.981394 85.02268,22.339919 C 85.01789,21.308097 84.06013,19.30951 83.68971,17.906785 C 82.92923,16.198357 82.71211,15.693456 83.58681,14.769149 C 84.84729,13.982149 84.402,12.752714 85.70937,12.372888 C 87.07448,11.145755 87.48208,12.77344 88.38867,13.578575 C 89.47609,14.812471 90.20674,14.811752 90.9941,15.992539 C 92.59441,17.001188 93.4538,16.052557 94.79025,16.62899 C 95.59775,17.117051 97.41975,18.211049 97.28515,18.842319 C 97.28896,20.536786 95.26581,19.69495 96.3216,21.519384 C 95.69059,23.399087 97.98334,23.136994 96.49156,24.435802 C 94.44093,25.010652 94.90619,25.69503 95.10099,26.891362 C 93.51256,27.503201 95.04237,29.193494 95.63139,28.967815 C 96.91802,28.222986 98.32987,27.282703 99.32015,26.933389 C 100.66336,27.499171 101.89324,27.769324 103.04202,28.007813 C 104.2423,27.847909 106.71039,28.099496 106.93203,29.032439 C 106.28669,29.794971 106.78168,31.759447 106.71314,31.925396 C 106.32434,32.14316 106.80278,33.371012 106.95365,34.055535 C 107.84461,34.438096 108.91311,34.886432 108.34055,35.825996 C 108.74089,37.119623 106.96487,36.913662 107.53981,38.315811 C 108.1655,39.318559 110.79839,38.410084 110.13087,39.639951 C 109.84772,41.091611 107.91291,39.130157 107.34925,40.568144 C 106.2644,40.4471 105.89292,41.992602 106.0937,43.372586 C 103.98319,43.9139 106.09878,44.814747 105.92962,46.102185 C 104.49273,45.985891 103.58896,45.475953 102.8172,45.23876 C 102.24078,47.20338 102.12109,46.494534 103.99787,47.807735 C 105.55207,48.586962 104.43208,50.177226 104.37588,50.937023 C 105.21437,51.540082 106.61496,52.013031 106.26283,53.681879 C 106.35122,55.510775 107.88091,55.58864 107.1006,56.819083 C 107.51784,58.349472 107.9453,59.477581 108.9274,60.676072 C 109.69346,62.129316 107.05487,62.751661 107.5198,61.231347 C 107.5547,59.885906 105.4248,59.114019 106.83409,57.996272 C 105.60139,56.297631 105.82119,59.17231 106.24033,60.028539 C 106.92489,60.666429 105.84792,61.164133 105.63712,61.655072 C 105.53302,62.98209 104.19274,63.160993 103.29431,63.883513 C 103.69059,64.654393 102.98891,65.012918 102.51526,66.391895 C 101.99332,66.285532 103.344,67.914799 102.81488,68.584785 C 101.6536,69.398412 99.66461,68.81982 98.96883,70.167133 C 100.2968,71.639375 96.89649,71.694355 97.16559,73.175233 C 95.9436,74.252248 97.55348,75.967297 96.04322,76.619436 C 95.28584,77.371893 96.86027,78.802108 97.4032,79.464897 C 95.70633,80.24542 97.70202,82.331229 98.60595,83.109161 C 100.02428,83.989282 97.94947,85.528163 97.35742,86.554371 C 96.284,87.851021 95.51956,88.689691 95.57358,89.971372 C 94.80529,89.51296 93.69991,90.40071 92.70633,91.240963 C 92.03687,92.801289 90.21488,90.558023 89.13837,90.33148 C 88.05139,89.590394 86.44263,89.274903 85.0826,89.64926 C 83.49317,89.647389 82.56616,89.162495 82.33021,88.039567 C 81.58905,86.782354 80.56284,86.284074 80.93098,84.6751 C 79.76051,84.355867 79.15492,83.127152 79.28001,82.125843 C 81.68775,81.812943 77.41963,80.104515 79.37688,80.659502 C 80.7678,81.091575 79.59106,78.714456 80.84017,77.809723 C 81.02437,75.954487 79.55295,78.252734 78.78209,78.702078 C 78.01537,79.611416 75.2162,79.831051 76.84013,78.468338 C 77.08724,77.948469 78.45344,76.761637 77.50166,76.759046 C 76.62615,74.924105 74.76582,77.66709 73.87563,76.172395 C 72.56116,75.343512 71.60767,77.537554 71.55127,78.782678 C 71.15398,79.826445 70.79719,80.584803 70.27606,81.432828 C 69.66319,82.115624 69.4227,83.479776 68.00267,82.904207 C 67.67269,81.957015 66.6687,80.907059 65.77507,81.796535 C 64.34887,82.915145 62.55704,80.551412 62.18457,80.575592 C 64.24894,81.552001 62.7581,82.397579 61.32535,82.440902 C 60.13182,83.556634 58.7882,82.900609 57.78593,84.027423 C 56.83066,85.066297 56.92978,87.122312 55.60301,87.848286 C 55.96982,88.542596 56.0889,90.350047 57.36932,90.334935 C 58.43782,91.103799 59.60651,92.092011 61.08689,92.191321 C 62.28435,92.442044 63.82635,93.647443 61.58031,93.388229 C 60.36036,93.219976 58.54014,92.58223 58.23813,94.606149 C 59.10022,95.93216 56.06348,95.433449 55.04799,95.570325 C 52.66614,95.776286 50.28965,95.932448 47.89564,96.117252 C 47.00405,96.295291 45.50315,96.118835 44.29985,96.375171 C 36.20193,96.781481 28.11794,97.716583 20.02392,97.97076 C 18.93486,97.645914 17.8219,95.424813 18.5455,94.728057 C 19.83425,94.5054 19.44737,93.246747 20.07404,92.850225 C 20.74555,92.305456 19.92325,90.566083 19.25449,89.655018 C 17.91835,89.12493 16.62922,88.620461 17.52487,86.926426 C 18.10248,84.511022 18.48277,82.021495 18.77069,79.595153 C 20.36031,78.045909 16.79936,79.7493 17.20151,78.037273 C 17.32668,76.44629 17.57314,75.501114 17.9612,74.02441 C 18.32874,72.587718 18.53028,71.411248 18.09003,69.862436 C 18.20415,69.049242 15.9937,69.572565 15.45797,69.792919 C 13.98413,69.380565 13.83732,68.920426 12.83621,67.641624 C 11.12194,66.330437 11.97998,65.898364 13.54641,64.913032 C 14.43721,64.088611 16.69425,64.272839 16.98635,63.115224 C 16.96752,61.77885 19.17393,61.68688 19.99686,60.640234 C 21.13384,59.598337 22.98736,60.002056 23.95015,59.186127 C 25.01232,58.899566 26.26383,56.723083 25.27296,56.483154 C 23.7879,56.692714 24.56932,54.500686 23.46442,54.349418 C 22.27774,54.01939 25.03385,51.776988 23.48183,51.134636 C 22.27743,50.111307 23.18981,49.066675 22.64709,47.990524 C 22.72575,46.664945 22.64647,45.670688 23.42408,44.432761 C 25.28159,42.954186 22.32804,42.848543 21.56726,42.399775 C 21.76961,41.328229 22.06237,39.540352 23.16915,39.41643 C 24.81831,39.287902 25.95926,39.199242 27.19385,39.832671 C 27.33339,38.759254 27.98731,37.26312 28.12743,36.359394 C 29.54978,35.316346 31.59053,35.914944 32.60004,34.257034 C 33.72096,33.007449 35.48809,32.446561 34.88603,34.814036 C 35.14121,35.929912 38.01512,34.471631 38.08886,36.372923 C 39.99425,36.154728 39.2453,33.973208 40.27701,34.236308 C 40.62783,35.44473 42.14717,35.319512 43.22801,35.969924 C 44.70193,35.861114 45.59299,38.02925 46.30807,35.750002 C 49.56318,30.432861 53.2452,25.500295 56.99013,20.64833 C 59.40425,17.498748 61.81837,14.349166 64.23248,11.199585 C 65.15324,12.190818 66.22354,12.875629 66.92425,13.978695 C 67.92122,15.416394 69.69227,15.547801 70.6561,16.928073 C 71.54928,16.737512 72.40438,18.537335 73.65268,18.600663 C 75.02329,18.933713 76.11169,17.330784 76.99179,18.33857 C 77.60312,19.135932 78.07963,20.479215 79.29504,20.503251 L 79.36536,20.526279" />
      <path
         id="North_Swindon"
         onclick="javascript:respond(this.id);return true;"
         onmouseover="javascript:popup(this.id);return true;"
         onmouseout="javascript:popdown(this.id);return true;"
         style="fill:#c8c8ff;fill-opacity:0.33;fill-rule:evenodd;stroke:#7ffaff;stroke-width:0.99999994;stroke-opacity:1;display:inline"
         d="M 115.91205,11.401228 C 116.52082,11.774146 116.57893,13.203354 117.4826,12.699749 C 118.09304,12.409445 118.83464,11.928005 119.45681,12.250405 C 120.01939,12.64189 120.86673,12.397787 120.9327,13.39118 C 120.74599,14.206677 122.14015,14.582042 122.40476,14.035115 C 123.12758,14.001292 123.80033,14.510222 124.3175,14.06606 C 124.92208,14.212003 125.50328,13.649243 126.09026,13.336631 C 126.37991,12.805248 127.02187,12.55654 127.80294,12.648654 C 128.52364,12.56057 129.04428,12.859077 129.51907,12.334603 C 130.10196,11.763639 130.37984,12.456366 130.95561,11.5453 C 131.9252,11.362367 132.3793,11.263633 132.19554,10.198708 C 132.56162,9.644872 132.50177,8.988847 132.50963,8.349949 C 132.69669,7.666434 133.17811,7.431255 133.61145,6.82431 C 133.89397,6.836544 134.39802,6.370216 134.52908,6.024069 C 134.82045,5.519456 134.7712,4.571977 135.70491,4.72929 C 136.37531,4.903155 137.09709,4.959863 137.59483,5.379126 C 137.5845,6.020183 136.73202,5.913532 136.15492,6.367625 C 135.70347,6.824454 135.75001,7.575759 135.06212,7.982212 C 134.84433,8.681416 135.82572,9.244175 134.72208,9.601837 C 134.75929,10.346666 134.28821,11.001539 134.35887,11.733558 C 134.715,12.290273 135.88195,11.963412 135.5025,12.970046 C 136.22021,13.465303 136.0397,13.860674 136.37593,14.578012 C 136.34957,15.251453 136.71893,15.809319 136.45224,16.442891 C 136.06351,16.783281 135.54187,17.579348 136.38189,17.384181 C 137.28746,17.075455 137.05699,18.038623 137.516,17.993142 C 137.74113,18.489982 138.17851,18.858582 138.34438,19.468982 C 138.5646,20.073193 139.28601,20.601985 139.44777,20.912151 C 140.10708,20.906394 140.90435,21.100841 141.59117,21.293129 C 141.66291,21.78378 142.42639,22.554948 142.1104,23.167938 C 141.86341,23.962854 141.49072,24.265823 140.92371,24.786555 C 140.34824,24.870178 140.76778,25.809166 140.0935,26.111703 C 139.58232,26.679931 139.60242,27.0327 139.97704,27.59402 C 140.32765,27.923615 141.38762,28.233205 140.76508,28.90463 C 140.23337,29.321159 139.86972,30.160836 139.09704,30.186311 C 138.90011,29.790509 138.41663,29.346058 137.94526,29.824044 C 138.0524,30.409544 137.96895,31.184742 137.13168,31.366667 C 136.85946,31.804785 135.91938,32.236425 136.38983,32.874028 C 136.04831,33.708236 136.9088,33.179875 136.91253,34.069927 C 136.51909,34.098281 137.08569,34.993515 136.87343,35.480712 C 137.22226,35.943298 137.43342,36.125799 137.40077,36.617457 C 137.37851,36.940288 137.33695,37.556589 137.34458,37.85524 C 136.60941,37.939151 136.29901,39.545246 136.14571,38.088548 C 135.58845,38.216644 135.54571,37.063635 135.72322,36.782831 C 136.66627,36.650273 134.94864,36.796936 135.13092,35.667387 C 135.27017,34.455223 134.0913,35.00287 133.39361,35.135284 C 132.73791,34.903992 132.38245,34.825263 131.64161,34.578138 C 131.9605,33.902251 132.20673,33.658868 131.82379,32.948007 C 131.68494,32.342644 130.49565,32.566309 130.21345,32.141145 C 129.3315,32.161439 129.17535,32.331706 129.5199,33.157134 C 128.99459,33.322508 127.93008,33.010759 127.53085,33.437938 C 128.37319,33.39548 129.09171,34.136566 127.90203,33.652535 C 127.21528,33.754005 127.06081,34.302372 126.4506,34.601167 C 126.27287,35.196022 125.33196,35.738775 126.36861,36.049804 C 126.93757,36.61242 127.83569,36.566363 128.07091,37.376391 C 129.04194,37.970671 127.84928,38.422318 128.58379,39.079782 C 128.66886,39.461624 128.82325,40.254956 128.13978,40.702717 C 128.27763,41.31873 129.2236,42.123577 129.03203,42.718432 C 128.09031,43.048172 129.6518,43.896197 129.9144,44.393469 C 130.38903,44.969326 130.62473,45.696883 130.68336,46.433364 C 130.11644,45.566196 129.60224,45.89536 128.79591,46.160044 C 128.04494,46.25734 127.25307,46.326425 126.67684,46.257052 C 125.14196,45.462856 123.55983,44.666501 122.26648,43.511621 C 122.93787,42.385238 121.4754,43.134529 120.89799,43.363806 C 118.05676,44.440246 115.46129,46.111541 113.23749,48.174896 C 112.26333,48.315082 112.33406,46.971368 112.26243,46.303829 C 111.57566,45.903852 111.53339,44.898657 111.11595,44.245655 C 111.43094,43.58416 111.25363,42.761179 111.60998,42.057945 C 110.95371,41.539804 110.29742,41.021662 109.64114,40.503664 C 109.71855,39.813816 110.58978,39.432262 110.16972,38.920309 C 109.39109,39.450541 108.67122,38.501622 107.83509,38.603667 C 107.13818,38.128128 107.60413,37.191012 107.85927,36.84141 C 108.67469,36.988073 108.14067,36.097445 108.51408,35.608089 C 108.60609,35.161911 108.27272,34.474654 107.72236,34.427589 C 107.12493,34.345262 106.69095,33.777321 106.87156,33.307252 C 106.35776,32.69167 106.64975,32.142584 106.70852,32.10617 C 106.92788,31.682877 106.64663,31.418481 106.54372,30.41487 C 106.40454,29.730635 107.29316,29.259845 106.99483,28.635197 C 105.59244,28.229031 104.15473,27.646266 102.70283,28.089996 C 102.19714,27.569408 101.63594,27.628994 100.9312,27.539759 C 100.2623,27.554296 99.30152,26.403445 98.87171,27.181521 C 98.4165,27.361432 97.58193,27.675627 96.96829,28.183118 C 96.46482,28.522213 95.30157,29.337998 95.05025,28.967095 C 95.1613,28.347484 94.38984,28.215934 94.20727,27.593156 C 94.79729,27.156766 96.00495,26.520891 94.91714,25.915528 C 93.96371,25.294334 95.54734,24.992948 96.02947,24.75705 C 96.52254,24.576852 97.37768,23.437516 97.00428,23.404844 C 96.11562,23.369582 96.43225,22.366258 96.34375,21.611066 C 96.31231,21.074934 95.62992,19.775837 96.55201,20.152066 C 97.14759,20.070314 97.30171,18.857863 97.44965,18.659961 C 97.88545,18.521934 98.67782,17.934707 99.03658,17.552146 C 100.03678,18.014011 99.81262,17.142814 99.13983,16.731179 C 98.65708,16.185115 97.94882,15.554853 97.61829,15.087231 C 97.42538,14.663794 97.46008,14.089088 97.24048,13.560152 C 97.65695,13.256031 96.38394,12.721914 96.39315,12.016521 C 95.55818,11.413318 95.89011,10.220872 95.17081,9.530161 C 95.16109,8.090447 95.87746,10.161286 96.54848,9.712662 C 97.3658,9.384505 98.0446,8.64932 98.82716,8.47603 C 99.42643,8.100665 100.54567,7.597636 100.41903,8.758561 C 100.68202,9.481225 101.10988,10.234114 101.72258,10.552051 C 101.93594,11.365822 102.11056,11.965283 102.90903,12.393469 C 102.70003,13.118724 102.88986,13.883415 103.49268,14.409328 C 104.44379,14.276627 104.29237,15.322985 104.74777,15.906326 C 104.94821,16.639497 106.19888,15.984767 106.86003,16.294789 C 108.3816,15.856815 109.64124,14.833917 111.05182,14.191997 C 112.281,14.331751 111.23537,13.276037 111.46309,12.58144 C 111.33534,11.735286 110.82638,11.732119 110.60469,11.027015 C 109.84082,11.071057 110.45944,9.87343 110.70387,9.617669 C 110.90857,8.927821 111.85256,9.033896 111.70043,8.239988 C 111.93519,7.533876 112.70791,6.547248 111.74967,6.06149 C 111.52983,5.181657 110.57794,4.411353 111.05407,3.456245 C 110.98031,2.899242 110.7149,1.765232 111.48496,1.66002 C 112.50783,1.092079 112.45485,2.179313 113.20962,2.689251 C 112.28912,3.082175 112.77491,3.810308 113.29574,4.516564 C 113.2451,5.185255 113.92383,5.839409 114.11563,6.551422 C 114.37426,7.19363 114.77608,7.607423 114.8664,8.50827 C 114.90821,9.396739 115.9242,9.564991 115.7661,10.10904 C 115.75535,10.578966 115.44239,11.072352 115.92937,11.401228" />
      <path
         id="Devizes"
         onclick="javascript:respond(this.id);return true;"
         onmouseover="javascript:popup(this.id);return true;"
         onmouseout="javascript:popdown(this.id);return true;"
         style="fill:#c8c8ff;fill-opacity:0.33;fill-rule:evenodd;stroke:#7ffaff;stroke-width:0.99999994;stroke-opacity:1;display:inline"
         d="M 153.70315,59.631585 C 155.56389,60.200821 156.52634,56.754747 157.12087,57.918838 C 156.65572,60.178944 156.59177,62.534042 157.08923,64.712252 C 158.52619,65.797471 156.91704,67.401407 158.81586,68.658765 C 160.56982,69.335083 160.43437,71.667872 161.20141,72.646009 C 162.70516,72.99633 161.74607,76.029762 164.02692,76.226512 C 164.1708,78.497124 166.56086,78.996267 168.36643,79.349755 C 169.18466,80.816384 169.68416,82.591019 169.2197,84.301031 C 168.27845,86.010179 167.33186,87.710691 169.10494,88.918968 C 168.42969,89.825285 166.62665,87.737461 165.66453,89.10809 C 164.98599,90.4282 163.01786,89.4895 162.67306,90.417837 C 161.34834,89.434951 159.69245,91.032987 160.43777,92.274512 C 162.2824,92.006086 161.31359,95.305353 163.09916,93.945087 C 164.2407,93.378729 163.39986,96.839628 163.11094,97.819348 C 164.41889,98.673562 164.77839,99.487476 165.87481,100.14739 C 166.81276,101.09674 167.42513,102.16353 168.94398,103.18427 C 168.54624,104.38233 171.72461,102.53242 171.50226,104.7115 C 171.68683,106.03391 173.73879,106.84394 175.17744,106.37948 C 175.14395,107.7953 173.46014,109.77489 174.61889,111.02102 C 175.80035,111.97124 178.26871,113.11705 176.42877,114.88492 C 175.40909,115.90624 175.14158,119.27833 174.10973,118.65483 C 172.46914,118.30048 171.74679,115.81599 170.36232,116.22374 C 167.65948,115.56757 169.76002,118.67585 168.0761,119.50588 C 168.19536,121.31506 167.11862,123.27838 168.885,124.34979 C 169.6454,125.9779 168.83972,127.7901 169.19749,129.13453 C 171.87599,129.04818 168.9858,130.58619 169.94662,132.2074 C 168.68119,132.80801 166.49397,132.48058 166.01136,134.66339 C 168.11238,135.12698 167.0053,137.05347 166.82636,138.59235 C 165.53316,141.65586 167.91603,139.71298 168.61275,140.90772 C 168.20142,142.82298 167.73275,144.85927 165.78267,145.75839 C 164.67021,144.41094 162.76604,144.29997 161.26743,143.28268 C 159.5847,142.21387 158.48425,142.5416 156.75614,143.2693 C 154.80792,143.29175 153.97108,143.56392 153.36138,143.98361 C 152.76877,145.84749 152.34953,146.98956 150.83124,147.48539 C 150.31865,149.1574 149.52323,150.76177 148.74277,152.37477 C 148.80098,154.77233 146.95958,154.82789 145.10795,153.86947 C 143.3865,153.16336 142.24704,155.23362 140.54601,154.65647 C 140.07706,155.37856 137.00525,155.92621 136.95382,154.79075 C 137.34143,152.71473 135.82283,151.35907 135.12222,149.58185 C 134.03331,148.55622 134.55485,145.33481 132.95322,145.67966 C 131.01422,146.18341 129.06795,146.58339 127.23685,145.67923 C 124.19495,145.40462 121.37556,146.88492 118.63557,147.98914 C 115.91078,148.84537 119.38423,150.54847 118.67355,151.45479 C 117.60984,152.53842 116.3017,153.36399 114.61201,154.03758 C 112.73514,155.15202 110.36574,154.61185 108.33916,155.47355 C 105.90139,156.03775 103.79479,154.40647 102.2713,152.66681 C 103.19609,150.59035 101.55093,149.25455 100.19729,147.98194 C 100.56124,147.10542 100.8589,143.70626 99.02988,145.04307 C 98.6799,147.45502 96.94202,148.11407 95.18253,146.33367 C 93.94846,144.70297 92.50821,142.95467 90.76598,145.13849 C 89.14653,146.06669 87.50082,146.39427 85.73827,145.78617 C 83.90732,145.87944 82.17474,143.29837 80.92999,145.27048 C 78.11439,146.05676 82.43312,148.55219 79.28117,148.67812 C 77.75249,149.06169 76.04539,149.51305 74.45982,149.24131 C 73.60298,151.03207 72.27506,147.02367 71.47124,146.20443 C 69.97004,146.09605 68.3796,149.30133 67.44911,147.1912 C 68.4254,145.40994 67.56909,143.13473 65.38652,144.53155 C 64.05639,145.56006 62.13926,145.22025 62.05336,143.46979 C 60.27868,142.94503 62.20158,140.69932 61.42885,139.30753 C 61.56707,138.03592 61.60156,136.52223 62.59926,135.72645 C 63.1505,133.94346 62.91157,132.43725 62.32085,130.55194 C 63.10072,129.61597 61.25321,128.05363 60.61601,127.22043 C 59.05001,125.44479 58.72465,124.36792 61.43897,125.29669 C 63.42887,125.96221 61.03721,123.3004 62.38037,122.19705 C 62.7866,121.41854 62.99908,118.53638 61.32583,118.24665 C 60.30727,117.02154 59.21901,118.04256 57.65917,117.82178 C 56.22859,118.80452 53.58303,118.61237 54.2803,116.58399 C 52.16224,117.2226 53.21701,115.87328 52.85015,114.48264 C 51.75543,114.01588 51.47242,114.7823 50.09209,113.91197 C 48.43024,113.74486 46.01284,113.70399 45.04676,113.30243 C 45.13313,112.32544 42.55555,112.78342 43.79834,111.94259 C 44.34912,111.67374 39.41291,111.58205 42.34776,109.80497 C 43.50949,110.34427 44.73413,108.09482 44.83077,106.76809 C 46.48509,106.31255 46.46027,105.86724 45.88444,104.22689 C 43.98121,103.1231 46.00391,102.11316 45.47416,101.05471 C 47.50485,101.33004 46.31438,98.054238 47.40245,96.693973 C 48.39299,95.264909 51.19853,96.355022 52.92645,95.642433 C 54.81532,95.555356 56.9616,95.741168 58.64434,95.153077 C 57.50491,92.965511 60.62036,92.91528 61.92911,93.397008 C 64.41642,93.141248 60.65541,92.033576 59.7247,91.780262 C 58.67986,90.758372 56.29998,90.625526 56.35139,89.180054 C 54.39538,87.956232 57.13374,86.958378 57.17487,85.226777 C 57.46877,83.220129 59.29773,83.4389 60.55194,82.905646 C 62.79752,82.394701 63.6678,81.196498 62.35282,80.535004 C 63.36106,81.98321 65.23889,82.365196 66.4923,81.422322 C 67.78668,81.445926 68.24129,84.273972 69.69975,82.429963 C 69.93133,81.473992 71.10575,80.54623 71.26968,79.421719 C 71.6729,78.001579 72.56033,74.61797 74.31008,76.561145 C 75.65463,76.128497 77.16754,75.970464 78.21176,76.946153 C 77.33343,77.465446 76.2703,78.668399 76.65164,79.403296 C 77.87682,79.628544 79.5784,78.210563 80.45065,76.975946 C 81.92584,77.707534 79.26025,79.402145 80.13964,80.778243 C 77.42188,79.825726 80.70387,81.347191 79.65137,81.872817 C 78.43224,83.079799 80.44243,84.095645 80.94521,84.966123 C 80.48636,86.648069 82.51602,87.174126 82.48789,88.762662 C 83.31358,89.781674 85.52961,89.527641 87.1781,89.510226 C 89.04991,89.944601 90.42254,91.13532 92.26867,91.929084 C 93.12532,90.286287 94.9404,89.772895 95.73266,89.669698 C 95.37822,88.227105 97.52301,86.700458 98.4672,85.130345 C 100.38016,83.370678 97.33272,82.663127 96.94293,80.866759 C 97.39773,79.246702 96.78153,78.627955 95.62591,76.93176 C 97.62983,76.169228 96.0124,74.240446 97.30302,72.829949 C 98.75524,71.728178 98.97387,70.293214 99.9906,69.371209 C 101.86255,69.043916 104.36008,68.541607 102.23045,66.640746 C 102.82355,66.650821 103.27725,65.039113 103.25788,64.19411 C 103.06255,63.597528 105.38245,63.198558 105.42258,62.063972 C 105.98118,60.173762 106.70725,62.142269 107.10485,63.388112 C 106.91118,66.430611 108.85882,64.376035 109.89457,64.268953 C 111.84697,62.98353 112.50868,63.427548 112.65995,65.676571 C 112.02642,67.364993 114.30278,68.668839 115.08024,70.123234 C 116.1849,70.077033 118.4156,69.854952 119.8018,70.945065 C 120.0695,69.738946 122.96003,69.769891 124.49517,70.006796 C 126.78316,69.840847 129.09197,68.749151 131.52596,69.130705 C 131.27967,67.182348 129.91659,64.523274 132.9506,64.956498 C 135.96373,63.888694 139.38623,64.761187 142.36187,63.152358 C 144.3793,63.347812 145.95665,61.459042 147.53878,61.315545 C 147.64408,58.581772 149.91925,61.738838 150.38686,60.252779 C 151.1947,59.568688 152.82471,60.379004 153.73338,59.588262" />
    </g>
  </g>
</svg>
