<?xml version="1.0" encoding="UTF-8" standalone="no"?>
<!-- Created with Inkscape (http://www.inkscape.org/) -->
<svg
   xmlns:dc="http://purl.org/dc/elements/1.1/"
   xmlns:cc="http://creativecommons.org/ns#"
   xmlns:rdf="http://www.w3.org/1999/02/22-rdf-syntax-ns#"
   xmlns:svg="http://www.w3.org/2000/svg"
   xmlns="http://www.w3.org/2000/svg"
   xmlns:xlink="http://www.w3.org/1999/xlink"
   xmlns:sodipodi="http://sodipodi.sourceforge.net/DTD/sodipodi-0.dtd"
   xmlns:inkscape="http://www.inkscape.org/namespaces/inkscape"
   width="640"
   height="480"
   id="svg4404"
   sodipodi:version="0.32"
   inkscape:version="0.46"
   version="1.0"
   style="display:inline"
   sodipodi:docname="Somerton and Frome.svg"
   inkscape:output_extension="org.inkscape.output.svg.inkscape">
  <defs
     id="defs4406">
    <inkscape:perspective
       sodipodi:type="inkscape:persp3d"
       inkscape:vp_x="0 : 240 : 1"
       inkscape:vp_y="0 : 1000 : 0"
       inkscape:vp_z="640 : 240 : 1"
       inkscape:persp3d-origin="320 : 160 : 1"
       id="perspective4412" />
    <inkscape:perspective
       id="perspective4477"
       inkscape:persp3d-origin="372.04724 : 350.78739 : 1"
       inkscape:vp_z="744.09448 : 526.18109 : 1"
       inkscape:vp_y="0 : 1000 : 0"
       inkscape:vp_x="0 : 526.18109 : 1"
       sodipodi:type="inkscape:persp3d" />
    <inkscape:perspective
       id="perspective4545"
       inkscape:persp3d-origin="372.04724 : 350.78739 : 1"
       inkscape:vp_z="744.09448 : 526.18109 : 1"
       inkscape:vp_y="0 : 1000 : 0"
       inkscape:vp_x="0 : 526.18109 : 1"
       sodipodi:type="inkscape:persp3d" />
  </defs>
  <sodipodi:namedview
     id="base"
     pagecolor="#ffffff"
     bordercolor="#666666"
     borderopacity="1.0"
     inkscape:pageopacity="0.0"
     inkscape:pageshadow="2"
     inkscape:zoom="1.0263363"
     inkscape:cx="427.46219"
     inkscape:cy="169.31245"
     inkscape:current-layer="layer6"
     inkscape:document-units="px"
     showgrid="false"
     inkscape:window-width="1511"
     inkscape:window-height="946"
     inkscape:window-x="314"
     inkscape:window-y="74" />
  <metadata
     id="metadata4409">
    <rdf:RDF>
      <cc:Work
         rdf:about="">
        <dc:format>image/svg+xml</dc:format>
        <dc:type
           rdf:resource="http://purl.org/dc/dcmitype/StillImage" />
      </cc:Work>
    </rdf:RDF>
  </metadata>
  <g
     inkscape:groupmode="layer"
     id="layer6"
     inkscape:label="Backdrop"
     style="display:inline">
    <image
       y="0"
       x="0"
       id="image4547"
       height="480"
       width="640"
       sodipodi:absref="/Users/httpd/Desktop/UKPPSW SVG maps/Areas/Somerton-and--Frome.jpg"
       xlink:href="/img/maps/somerton_and_frome.jpg" />
  </g>
  <g
     id="layer1"
     inkscape:label="Layer 1"
     inkscape:groupmode="layer"
     style="display:inline"
     sodipodi:insensitive="true">
    <path
       style="opacity:0.75545852;fill:#f9b847;fill-opacity:0.49803922;stroke:#ffffff;stroke-width:0.5;stroke-linecap:round;stroke-linejoin:round;stroke-miterlimit:4;stroke-dasharray:none;stroke-opacity:1;display:inline"
       d="M 526.1181,80.625512 L 527.16153,82.31587 L 525.89391,83.023058 L 527.60126,86.524626 L 525.9198,85.998498 L 525.69555,86.334875 L 526.17845,87.240464 L 527.12701,88.042512 L 527.81688,90.586724 L 526.78208,91.932164 L 525.49727,92.397864 L 524.97983,94.157244 L 524.05718,94.045124 L 523.44494,94.338354 L 522.03075,93.769144 L 521.00458,93.898534 L 519.91805,95.157654 L 520.15094,95.925284 L 521.08222,96.261614 L 520.83214,96.770434 L 522.19459,97.305154 L 522.26357,97.538004 L 521.72894,97.745034 L 521.59096,98.098624 L 522.29805,97.891604 L 523.92784,98.986934 L 523.79848,99.478544 L 524.63492,99.961514 L 524.88501,100.41861 L 523.79848,102.21249 L 523.66049,103.32502 L 523.03966,103.94601 L 523.01377,104.90332 L 522.61712,105.2914 L 522.17731,105.20518 L 522.03075,105.51562 L 522.81546,107.02491 L 523.22075,108.60318 L 522.9362,109.25864 L 523.10865,109.93135 L 522.57401,110.19874 L 522.49639,110.50917 L 523.08276,110.79383 L 522.91029,111.69073 L 523.35873,111.65623 L 527.14426,109.15514 L 529.01544,109.40528 L 529.92088,108.99994 L 530.69698,108.09435 L 531.7835,107.9046 L 533.13731,108.9223 L 531.74897,111.12152 L 534.33594,113.20002 L 536.46584,112.26859 L 537.56961,114.44193 L 538.82855,114.05385 L 540.27725,118.45232 L 540.53595,120.79814 L 542.21743,124.24791 L 542.59687,126.1453 L 542.4503,127.91333 L 543.82996,130.90599 L 544.03695,135.46836 L 543.77823,138.65937 L 544.19213,139.69434 L 542.05361,141.31569 L 542.08813,141.91077 L 541.49313,142.34201 L 541.67423,142.48003 L 541.47588,143.26486 L 541.07922,143.66156 L 541.95877,144.42912 L 542.14849,146.05055 L 543.61439,148.55165 L 541.91567,151.26831 L 538.98379,154.91647 L 539.32872,155.73578 L 537.77656,158.65948 L 537.949,158.80607 L 536.04329,160.2119 L 534.27556,162.67845 L 533.55122,165.68841 L 532.4647,167.22357 L 533.12005,167.95659 L 532.59405,169.19857 L 532.43023,170.42323 L 530.46415,174.92517 L 529.90368,177.15892 L 529.80018,178.69407 L 530.1365,179.25462 L 530.09335,179.97908 L 529.25691,180.5828 L 528.79989,181.9972 L 529.01544,183.22191 L 530.63661,184.25681 L 530.65386,185.28312 L 529.12759,187.27541 L 528.9551,188.08609 L 527.83409,189.66433 L 527.39434,190.99252 L 526.66137,191.15637 L 526.85107,192.06195 L 525.73007,193.47634 L 525.81629,193.81272 L 525.08336,194.84765 L 524.72117,194.75279 L 523.3932,198.43542 L 522.79821,198.15947 L 522.47056,198.96151 L 522.34982,200.79851 L 522.03075,200.83304 L 522.03075,202.1698 L 521.74621,202.5924 L 519.82323,202.68724 L 520.10777,204.30866 L 519.57316,205.28323 L 519.63352,206.78391 L 517.46913,207.63769 L 517.63297,208.11203 L 517.07245,208.61227 L 517.63297,210.19915 L 517.61572,211.48423 L 517.40015,211.63944 L 515.88244,211.3807 L 515.53754,213.78695 L 514.6321,215.55494 L 511.76921,219.26349 L 512.0452,220.997 L 511.34674,223.78268 L 508.07857,226.2234 L 506.98342,228.20699 L 505.03461,229.49206 L 504.28436,230.389 L 503.62038,231.58781 L 502.69774,235.53779 L 501.12831,237.55591 L 500.54194,237.87503 L 500.55058,238.44421 L 500.11082,239.04794 L 498.57587,240.10011 L 496.81678,244.08459 L 491.16864,252.07948 L 490.8151,252.84706 L 491.63428,256.68495 L 490.8151,259.59139 L 485.28768,262.02349 L 482.57999,263.89497 L 482.30407,266.6289 L 483.66652,268.38831 L 484.17526,269.6475 L 483.33888,272.23481 L 482.17472,273.1404 L 481.57109,273.16624 L 480.45873,273.83895 L 479.90682,273.93387 L 479.55329,273.6061 L 478.50991,274.00282 L 475.93159,276.36593 L 475.60395,276.34868 L 475.50042,275.9347 L 474.8537,275.98646 L 473.30153,276.46943 L 472.99112,276.90929 L 471.66315,277.22835 L 471.24926,277.73722 L 470.58526,281.33361 L 472.23226,280.72125 L 471.87872,283.00674 L 472.37888,283.86058 L 473.46541,287.37932 L 472.62033,289.22495 L 472.53408,290.73426 L 471.83561,291.71746 L 472.1978,292.55398 L 472.40472,294.39963 L 473.37052,296.79723 L 473.82758,296.52126 L 477.25956,299.28106 L 477.78556,301.10948 L 481.65735,307.1811 L 482.70072,307.11209 L 484.94277,307.58644 L 485.51187,307.92278 L 485.6585,308.48338 L 486.27931,308.31949 L 486.5035,308.91457 L 487.6504,308.60414 L 488.5041,308.72486 L 491.65154,310.02716 L 492.46211,310.07891 L 492.66044,311.69166 L 493.41925,312.68347 L 493.50551,315.06382 L 493.65208,315.35704 L 494.10909,315.11556 L 494.42816,315.44331 L 494.01425,316.17635 L 492.84153,317.03019 L 491.93609,318.28075 L 489.26293,319.66067 L 487.21923,320.28159 L 484.53745,319.86763 L 483.64062,320.22986 L 481.57109,322.09275 L 481.23481,322.93797 L 480.32937,323.96423 L 479.82063,325.80987 L 480.13965,328.19885 L 480.09654,330.30323 L 479.80337,330.74305 L 480.20865,333.06301 L 481.8557,335.62449 L 483.06289,338.59992 L 484.45124,338.04798 L 485.71023,338.05658 L 489.87519,342.46367 L 490.25458,344.34384 L 489.77166,347.01741 L 490.89272,349.28564 L 491.54807,349.84621 L 491.97919,351.38997 L 491.7119,351.51937 L 491.74638,352.20071 L 490.35809,353.76169 L 488.46958,353.84797 L 488.07294,353.53749 L 487.78839,355.21062 L 487.06403,356.34905 L 486.33968,356.4267 L 484.75306,357.78935 L 484.02006,358.03942 L 483.61478,359.8161 L 483.09743,360.62677 L 481.2607,361.29088 L 481.11409,361.83422 L 480.01035,362.54141 L 478.50991,364.30941 L 473.1377,367.62117 L 473.25843,369.31161 L 472.5858,369.68247 L 471.41307,372.58888 L 469.12797,374.69323 L 467.99836,376.46991 L 467.9811,378.02227 L 466.73937,378.82436 L 462.56577,380.48024 L 462.49679,381.04949 L 463.85059,381.31681 L 463.63504,382.44663 L 463.98859,382.84334 L 463.51433,382.88648 L 463.10041,383.69716 L 462.6865,383.88691 L 462.76413,384.73213 L 462.2467,384.74933 L 461.62587,385.44795 L 461.59135,385.74975 L 461.94488,386.01715 L 461.53961,386.69849 L 460.53071,386.98309 L 460.272,389.82916 L 460.7808,390.56225 L 460.41861,391.4074 L 460.71179,391.76101 L 460.72043,394.7796 L 461.97078,396.71146 L 461.66897,397.15131 L 462.19497,397.31516 L 462.35879,398.0051 L 462.83306,397.84125 L 462.59161,398.73819 L 462.96243,399.00559 L 463.08316,399.56614 L 462.60024,399.88527 L 463.15215,400.15261 L 463.14351,400.5752 L 463.52294,400.44583 L 464.52323,400.87707 L 464.87678,400.66147 L 465.16131,400.93744 L 465.56659,400.60973 L 465.87704,400.89433 L 466.35131,400.04049 L 466.71347,400.1095 L 466.95492,399.64378 L 467.4551,399.88527 L 468.12766,399.64378 L 468.81755,400.13538 L 469.73156,399.9629 L 470.43005,400.93744 L 472.63758,400.14397 L 476.47486,400.53208 L 476.50075,401.15303 L 477.80283,401.4463 L 478.2512,402.61058 L 477.93213,402.81759 L 478.03565,403.16257 L 478.52712,403.42126 L 479.19112,403.1884 L 480.45873,405.11167 L 481.8557,406.42259 L 483.08879,406.42259 L 483.10599,407.29365 L 482.649,407.67313 L 483.10599,408.7943 L 482.56278,409.24275 L 482.72661,409.77748 L 482.45928,410.64857 L 482.93353,411.20056 L 482.7697,411.99397 L 478.66511,412.33036 L 477.43202,412.99439 L 474.3708,413.43426 L 471.76662,414.23636 L 469.93854,415.24542 L 464.35077,417.4015 L 460.53934,417.78097 L 459.03892,418.20359 L 453.45977,421.16177 L 450.85559,421.95523 L 447.13902,425.03415 L 439.97323,429.39814 L 439.20577,428.36318 L 437.91226,427.70772 L 437.2569,426.43992 L 437.17934,424.9824 L 436.12729,423.05913 L 433.96292,420.07507 L 432.12619,418.98842 L 430.22048,419.66111 L 429.84105,419.02289 L 428.5476,420.0837 L 426.86608,420.9289 L 424.01183,421.80859 L 423.96009,421.57573 L 420.49359,422.30882 L 421.8733,426.02594 L 421.93365,426.92288 L 423.06329,427.00916 L 423.42546,427.44039 L 422.17511,428.83753 L 422.58038,428.65642 L 423.35647,429.09627 L 422.67527,431.32999 L 421.89917,431.69221 L 421.29557,433.82244 L 419.53642,436.63404 L 417.1737,439.15239 L 415.42323,440.10109 L 414.1901,439.79922 L 413.83656,439.42837 L 413.43126,439.63532 L 412.37063,438.29856 L 413.90554,436.72025 L 413.22435,436.01305 L 413.47438,435.28863 L 411.78428,433.33083 L 410.34421,434.24506 L 408.55059,429.95006 L 406.47243,430.57104 L 404.78231,431.63184 L 403.73889,431.70085 L 403.31636,429.73447 L 402.73863,429.00138 L 403.86824,427.32823 L 403.33362,426.9919 L 403.0577,426.29332 L 400.488,424.09409 L 397.55612,419.00565 L 395.93498,417.10826 L 394.38281,417.42738 L 394.30523,416.09057 L 395.68494,415.82324 L 395.61596,414.57268 L 393.33079,411.90775 L 390.33855,403.41267 L 387.29465,397.21169 L 383.51769,396.35785 L 380.92216,396.98746 L 378.87846,396.46997 L 377.69711,397.59114 L 377.49875,397.15995 L 378.14554,396.6942 L 378.20589,396.37511 L 376.51574,396.93568 L 374.42894,398.60882 L 372.60949,398.90205 L 372.41113,398.72093 L 372.6526,398.26386 L 370.90207,398.20349 L 367.15964,396.85809 L 366.99582,394.13278 L 367.43562,391.72652 L 360.01109,391.51093 L 360.3043,393.71016 L 360.07145,394.50359 L 359.32125,394.90893 L 357.53627,394.55532 L 357.25171,397.09093 L 359.99387,398.53982 L 361.05449,398.63472 L 361.59776,399.0918 L 361.15798,400.85121 L 361.12349,405.38763 L 359.51097,405.59464 L 358.20888,406.59507 L 356.32045,407.50929 L 355.22528,408.85468 L 354.5613,410.65721 L 352.18994,411.44199 L 350.81023,412.37346 L 346.79187,404.99955 L 343.45474,403.70592 L 343.61857,405.24105 L 343.24775,406.94004 L 342.06639,407.906 L 341.17821,408.04399 L 340.55738,408.6132 L 339.66921,408.80294 L 338.2205,411.17467 L 337.57378,411.14019 L 336.45279,406.64681 L 336.30615,399.17807 L 336.02162,397.72052 L 333.30534,397.93615 L 332.87417,397.73777 L 330.30449,398.21211 L 330.39073,396.84084 L 329.64049,396.66834 L 329.62329,396.1681 L 328.28669,395.73692 L 327.7693,394.82271 L 326.86387,394.96929 L 326.58795,391.95939 L 326.21714,391.72652 L 324.69082,391.82137 L 323.16455,391.54541 L 322.59544,391.20907 L 321.00017,388.95811 L 321.07773,387.97489 L 320.47413,386.8882 L 321.30192,386.83645 L 322.44019,385.01672 L 324.26833,384.67175 L 325.48417,384.85286 L 325.94117,384.44749 L 323.57844,382.23962 L 322.31083,381.56694 L 322.64716,381.29093 L 322.33672,378.93647 L 321.80211,379.01412 L 321.2502,376.27152 L 320.80183,375.31422 L 320.1982,375.57297 L 320.84493,376.85798 L 319.91365,377.29784 L 320.06883,377.64281 L 319.31002,377.80667 L 317.95619,375.4177 L 317.49915,375.24519 L 316.95593,375.50395 L 315.99013,376.444 L 313.52389,375.08135 L 313.39453,374.75359 L 314.30862,373.35647 L 312.60125,372.47678 L 312.36842,372.06282 L 310.26437,371.6143 L 308.28968,369.27706 L 304.78006,369.08738 L 306.0994,364.13694 L 307.41012,360.86826 L 308.39317,355.71945 L 309.64348,355.56421 L 310.49719,352.71815 L 306.4271,354.33093 L 305.17675,355.44349 L 303.99533,355.5556 L 303.41761,356.17656 L 302.23625,356.04719 L 301.77061,356.4267 L 299.27854,356.84924 L 297.81258,357.5306 L 297.01928,357.34949 L 295.96723,357.59097 L 294.38059,359.03127 L 294.49269,359.5832 L 293.83734,359.87648 L 291.90576,359.9627 L 283.87766,376.66823 L 284.97276,372.05418 L 284.76584,369.13912 L 280.19561,371.40735 L 279.85068,372.6579 L 277.60863,372.93386 L 276.64284,373.53759 L 276.98781,375.2711 L 276.78083,375.40906 L 277.70352,376.90972 L 273.77139,379.09169 L 273.78001,380.15255 L 273.27122,380.82522 L 272.56412,381.10122 L 272.81421,382.5501 L 271.8743,382.16203 L 271.61559,382.73122 L 272.74522,383.28319 L 271.05506,386.55185 L 259.18105,379.60057 L 257.87035,381.19608 L 259.40524,382.78296 L 258.04279,383.17109 L 257.56852,383.99903 L 254.80053,385.57727 L 253.7399,384.73213 L 251.23056,383.90418 L 249.17823,383.33493 L 248.51425,383.50742 L 247.03106,383.33493 L 245.40134,390.47599 L 247.33288,392.1405 L 252.51539,395.60755 L 251.99802,397.31516 L 250.72177,399.79898 L 249.6525,401.18755 L 249.57492,402.0414 L 250.0492,403.20566 L 249.6525,404.06808 L 250.5493,405.37901 L 251.03221,406.72446 L 254.64529,407.8801 L 255.8008,408.7253 L 252.05838,412.05434 L 250.35959,413.74475 L 250.0492,414.37432 L 247.56572,416.3838 L 246.83277,417.28074 L 245.98769,417.75509 L 242.68502,420.94617 L 240.20158,422.64516 L 234.76906,427.63873 L 230.78517,430.79527 L 228.67248,433.08077 L 224.93869,435.96993 L 220.78235,438.58313 L 217.79875,440.09246 L 217.83321,440.33396 L 216.91056,440.56679 L 216.0655,440.20457 L 215.82404,438.816 L 215.4274,438.57451 L 215.87577,437.66897 L 215.34114,437.03075 L 215.65159,436.7634 L 215.74647,435.62498 L 215.0997,435.58186 L 214.76341,435.1851 L 213.43543,434.66766 L 212.98704,433.97772 L 212.12472,433.89146 L 211.10723,432.64954 L 211.58151,432.33041 L 210.89162,431.97682 L 210.76226,431.44211 L 210.25354,431.43347 L 211.38315,430.60551 L 211.71944,429.95006 L 211.98679,430.04495 L 212.1765,429.78621 L 212.14197,429.27738 L 211.54698,428.97554 L 212.11613,427.72498 L 211.66771,427.31965 L 212.29723,427.10401 L 212.4179,426.7504 L 211.65045,425.74135 L 211.80568,425.51713 L 212.21959,425.63786 L 211.68496,425.07725 L 212.58177,424.87893 L 212.16786,424.29241 L 211.64187,424.17166 L 211.59009,423.60248 L 210.76226,422.95567 L 210.05518,423.22299 L 210.30527,422.6538 L 209.52917,422.26573 L 209.64991,421.79133 L 209.39982,421.1014 L 209.78788,420.11823 L 209.32225,419.96296 L 209.04627,418.2467 L 208.6841,418.04831 L 206.75255,420.21306 L 205.15729,422.60206 L 201.67353,423.80949 L 200.12136,425.20663 L 198.63818,425.47402 L 193.1625,427.44039 L 188.73888,425.21527 L 186.42788,426.00872 L 185.74664,426.7763 L 185.64316,427.19027 L 185.91046,427.19891 L 185.3672,428.30281 L 183.51326,427.75083 L 183.52185,427.5007 L 180.33995,425.65513 L 178.53771,424.1372 L 177.18389,423.80085 L 176.87345,423.49037 L 176.51127,422.05007 L 175.9249,421.37736 L 174.84701,420.92027 L 173.76911,425.25835 L 172.92409,426.45716 L 174.2348,427.40586 L 174.03647,427.93193 L 172.99303,430.04495 L 171.43229,431.45073 L 171.08737,433.236 L 169.89738,434.43479 L 169.4317,435.87508 L 168.81085,435.91819 L 168.6815,437.09975 L 167.90543,437.99669 L 168.53488,438.76426 L 168.21586,439.03167 L 168.06926,440.97214 L 168.51767,443.52497 L 166.61196,443.75784 L 164.98218,443.53361 L 161.93821,441.27401 L 156.76435,439.93718 L 155.4019,439.18687 L 155.33289,438.3244 L 154.06534,437.65171 L 153.69453,437.23776 L 153.69453,436.80652 L 152.50455,436.08205 L 151.3749,434.71077 L 150.28838,433.99493 L 149.22775,433.83971 L 149.28812,435.05573 L 148.71901,436.13381 L 147.90841,436.87552 L 145.90787,437.61719 L 144.65752,438.89364 L 144.20914,437.94494 L 143.37267,438.18644 L 142.17406,439.57494 L 142.00161,440.20457 L 141.61354,440.35116 L 141.13928,441.89493 L 140.57017,442.12783 L 140.55291,441.79145 L 139.15595,442.03294 L 138.68166,441.69661 L 137.10368,442.17957 L 136.46557,441.89493 L 135.78432,442.67976 L 135.53425,442.49002 L 135.49114,442.74878 L 135.19797,442.71431 L 135.30142,442.99026 L 134.80131,442.97301 L 135.11171,443.37838 L 134.46497,444.83589 L 133.49922,445.31886 L 133.20604,445.0429 L 132.30061,446.1037 L 131.57627,446.38829 L 131.19681,447.1214 L 130.55872,446.18129 L 130.21379,446.67289 L 129.2911,446.19854 L 128.3943,446.75916 L 126.78182,441.54997 L 125.53146,438.78152 L 123.03939,435.90094 L 114.89054,427.85436 L 111.32058,422.75728 L 110.15644,419.8422 L 108.91472,420.40282 L 108.70777,420.9979 L 108.19898,421.11865 L 108.09553,421.75686 L 107.5178,421.67063 L 107.01763,422.15355 L 106.9228,421.86034 L 106.55201,422.05007 L 105.35337,421.55847 L 104.86184,421.68784 L 104.94809,421.28251 L 103.76674,421.33424 L 103.55976,421.62748 L 103.08548,421.48952 L 103.08548,421.9466 L 101.99034,423.09367 L 102.12831,423.48173 L 100.17088,424.51669 L 98.87742,424.14583 L 98.80843,423.70595 L 97.40288,423.87844 L 96.58364,423.6456 L 96.54918,423.88708 L 96.15252,423.80949 L 95.82483,424.1631 L 94.93664,423.55075 L 95.16947,423.19715 L 95.04011,422.24845 L 97.54944,421.92933 L 97.75641,419.618 L 97.35972,419.55761 L 97.308,418.27259 L 96.66128,418.27259 L 96.23873,415.09878 L 97.49771,414.77108 L 97.79953,415.04704 L 98.29968,414.55544 L 98.71359,414.77108 L 98.61009,415.65075 L 99.03262,415.65075 L 99.63624,415.43513 L 100.04151,414.7883 L 100.66241,414.6848 L 100.6193,414.25357 L 100.89522,414.13284 L 100.54167,412.51146 L 100.56752,409.92411 L 99.26543,402.91244 L 95.78172,397.66876 L 96.54918,396.6597 L 97.81679,395.92663 L 98.48935,394.96071 L 97.78226,393.76192 L 98.45489,392.82186 L 98.83432,391.08834 L 99.27407,390.28624 L 103.15448,388.80284 L 103.79258,388.94947 L 105.43957,388.4234 L 107.47463,388.48376 L 109.76841,387.93177 L 110.31167,388.1819 L 110.35478,388.75972 L 112.38122,388.07838 L 112.02767,386.6295 L 113.7264,386.17237 L 114.70084,386.27589 L 114.94229,386.55185 L 116.92555,385.41343 L 119.90917,385.4997 L 118.62435,384.57685 L 117.4602,382.70537 L 116.09775,379.39355 L 116.70136,379.2297 L 116.27883,377.78077 L 116.72727,377.78077 L 118.26217,376.72861 L 119.00373,375.65053 L 131.30891,367.92304 L 155.23806,345.24079 L 156.98859,345.18041 L 156.67814,343.80049 L 156.87644,343.74012 L 157.20414,344.17992 L 159.69621,344.43868 L 159.00639,344.10234 L 157.20414,344.00744 L 156.98859,343.58484 L 157.04895,342.03248 L 154.85864,341.52361 L 154.70343,340.10921 L 153.6859,339.25539 L 153.09953,337.92725 L 152.00438,337.27179 L 151.65083,336.74565 L 151.85781,333.67536 L 151.50427,332.48519 L 151.92681,330.88968 L 151.91818,330.30323 L 152.14236,330.2687 L 151.96991,329.01815 L 152.95293,326.47396 L 153.00471,325.49943 L 154.62581,322.79133 L 155.06562,321.75636 L 156.13488,320.79046 L 157.74741,318.6257 L 158.3855,316.69387 L 159.96356,314.16687 L 161.13629,313.24408 L 161.26563,311.1828 L 168.93158,313.65805 L 172.20835,314.486 L 173.38972,314.52048 L 178.11517,290.38065 L 180.98668,291.53635 L 196.31856,286.0253 L 211.68496,286.31852 L 213.69414,295.26208 L 240.10673,298.57386 L 242.74539,297.1422 L 242.46083,295.06372 L 244.24583,294.22715 L 245.37544,287.97441 L 246.24642,287.29311 L 247.87614,287.70707 L 249.66114,288.77651 L 251.17019,290.09605 L 256.42163,292.45913 L 257.87896,294.89122 L 260.83669,297.63382 L 262.45784,300.66962 L 264.0531,302.36004 L 263.76856,302.42899 L 263.74265,303.75716 L 263.41501,303.86064 L 263.32012,304.24013 L 259.18105,305.62006 L 259.00861,310.5705 L 259.66397,310.36349 L 260.02612,310.94133 L 259.22415,311.94175 L 259.56912,312.20913 L 259.43978,312.91633 L 259.81057,313.09744 L 258.99134,313.70978 L 259.76743,314.96896 L 259.06033,315.6589 L 260.0606,317.34932 L 262.12155,318.70334 L 264.82056,321.16991 L 265.2862,320.3765 L 265.01027,319.47956 L 264.47564,318.8413 L 264.8723,317.96163 L 264.76883,317.12505 L 263.79446,316.83181 L 263.18218,316.32301 L 262.68203,317.04746 L 261.98357,315.79692 L 263.13046,315.03791 L 262.98383,314.64984 L 263.50121,313.31304 L 264.06173,312.92495 L 265.47592,313.52867 L 265.47592,314.07202 L 266.9936,315.00344 L 268.50263,315.33978 L 270.00305,317.19405 L 271.7622,315.82275 L 272.1847,314.75334 L 274.7975,313.59767 L 275.53909,314.27035 L 275.96163,314.11514 L 277.03953,313.52867 L 276.91017,312.81284 L 278.89352,312.15739 L 280.38532,311.02759 L 281.86848,311.13107 L 283.85176,310.41524 L 284.03287,308.75934 L 284.9814,307.14657 L 286.35247,303.63642 L 286.98199,299.63466 L 290.36224,295.27936 L 291.96614,293.73558 L 293.72524,292.623 L 297.71774,293.07149 L 299.78729,292.64887 L 300.27881,292.84727 L 301.167,296.0383 L 300.7617,298.89298 L 300.98589,300.19526 L 301.33944,300.47987 L 301.3998,301.12671 L 302.4346,302.02365 L 302.38287,302.41177 L 303.77115,303.61058 L 304.26268,305.38721 L 305.2026,306.28415 L 306.20286,305.34405 L 306.72892,305.18882 L 307.49637,305.33547 L 307.91885,305.95639 L 309.41929,306.379 L 312.47189,306.36174 L 312.3339,305.12845 L 311.8338,303.92101 L 311.25601,303.99865 L 310.26437,301.28195 L 311.33364,299.21211 L 312.92027,298.2289 L 313.23934,296.59027 L 313.80844,296.01239 L 313.84296,294.61527 L 314.60179,294.29614 L 315.08469,293.60621 L 315.87805,293.14906 L 316.40403,293.14906 L 316.89556,292.67474 L 318.78402,292.01068 L 318.09414,291.07059 L 317.44742,291.55357 L 317.44742,290.65663 L 316.51613,289.64757 L 316.05048,289.3457 L 315.07606,289.3457 L 316.47304,286.53416 L 316.28331,284.8179 L 316.82658,283.44662 L 317.12839,281.45433 L 316.41267,280.03995 L 315.22269,280.32455 L 314.39487,278.39269 L 314.43797,277.51296 L 315.26578,275.90881 L 315.75731,273.13176 L 314.98985,273.00237 L 314.80878,272.64877 L 314.19652,272.80405 L 313.98096,271.85531 L 313.42043,271.15674 L 312.446,271.52761 L 310.799,272.83853 L 309.15199,273.00237 L 307.84991,273.632 L 306.94448,273.58884 L 305.5993,271.79495 L 303.5987,271.27749 L 303.65906,270.67377 L 300.74444,270.3547 L 300.046,269.69061 L 299.382,269.69061 L 297.35557,268.63844 L 297.12274,266.74966 L 297.76085,266.51679 L 298.24374,266.70654 L 298.83873,266.33568 L 298.22648,264.86953 L 298.27825,264.41246 L 298.64044,264.19681 L 299.84764,264.15371 L 299.89938,263.80011 L 301.21872,264.16233 L 303.62458,263.73109 L 303.25379,261.6785 L 303.90915,261.91137 L 304.40068,262.46329 L 304.84905,263.69662 L 304.64213,264.03296 L 305.15087,263.60173 L 306.23738,263.38614 L 308.24657,263.71384 L 312.54952,263.61899 L 314.09305,263.86047 L 314.42933,264.23135 L 314.78287,263.50687 L 315.19679,263.5931 L 315.3865,263.18775 L 315.74004,263.50687 L 315.88666,263.18775 L 316.19704,263.29124 L 317.00766,262.58404 L 318.73229,261.77335 L 318.65466,261.46287 L 319.93948,258.87557 L 326.33787,257.88371 L 325.69113,254.69268 L 329.23522,254.52019 L 330.10614,254.8048 L 330.83912,254.66679 L 330.82186,253.85612 L 331.08056,253.77848 L 332.33091,254.33044 L 333.79683,254.29597 L 335.68533,253.75262 L 337.26333,253.76989 L 339.32424,251.23428 L 340.60911,250.57881 L 341.45419,250.76856 L 343.10981,250.06138 L 344.30843,250.14757 L 344.79127,251.06179 L 345.01552,251.02732 L 345.24835,251.4585 L 345.59326,251.36365 L 345.85198,252.10537 L 346.24862,252.36408 L 346.23136,253.80437 L 346.49007,254.26145 L 347.37825,254.9169 L 349.1115,255.12392 L 349.18907,256.34856 L 348.88731,256.90054 L 351.02585,257.50427 L 350.87059,258.96178 L 351.03442,259.07389 L 351.25865,257.59911 L 352.16405,258.19421 L 353.17296,258.40122 L 353.41441,259.05669 L 354.82001,259.22053 L 354.75101,260.17785 L 355.32876,260.33306 L 356.07897,258.38394 L 358.27789,260.7902 L 358.53654,260.53145 L 357.85533,258.81518 L 357.76908,257.80612 L 359.16605,257.4439 L 361.07176,252.27785 L 364.99527,252.68319 L 367.00446,252.17433 L 367.90989,249.28515 L 368.03919,246.75817 L 367.78916,245.74053 L 366.90958,245.01609 L 366.37493,244.91253 L 365.67648,244.98154 L 364.65032,245.62837 L 362.77912,245.47315 L 367.27173,228.78486 L 368.02199,228.25878 L 369.8587,228.18113 L 373.07512,227.36183 L 376.03285,225.13671 L 377.7402,224.64511 L 377.08484,222.5494 L 377.58501,219.52218 L 377.1021,217.06424 L 377.18836,216.40015 L 376.62784,216.38288 L 376.63646,215.45146 L 376.05873,215.04612 L 376.01558,213.80422 L 376.62784,211.53597 L 374.85149,210.65624 L 374.53241,209.31084 L 372.42841,209.50059 L 376.10183,195.14086 L 376.34328,195.18402 L 377.57637,188.53453 L 378.75774,184.69669 L 379.86153,179.5651 L 381.57752,174.37323 L 381.56026,173.67463 L 381.11188,173.08817 L 383.81088,173.93337 L 387.28603,172.44997 L 389.94191,171.898 L 390.39893,171.54439 L 391.0629,170.25074 L 391.6148,170.19036 L 392.08044,169.68149 L 392.46851,168.56895 L 390.93355,168.77597 L 389.32966,167.94802 L 389.00201,167.56852 L 388.68294,166.14549 L 386.60476,165.1278 L 386.22538,164.33433 L 386.38059,162.69572 L 385.57865,160.95356 L 385.03539,160.2119 L 384.39724,159.88412 L 383.87124,158.87506 L 382.68124,157.83153 L 382.6554,157.24509 L 381.81896,156.48609 L 382.33633,156.52926 L 383.3194,155.44256 L 384.00923,155.85653 L 384.87152,154.37313 L 384.14722,153.77805 L 384.03507,152.15664 L 386.20812,151.32868 L 385.95805,150.86297 L 387.54468,150.449 L 388.15693,150.5956 L 389.20894,149.98329 L 388.47601,148.91386 L 388.95026,148.43089 L 388.51048,147.24934 L 388.91575,146.97333 L 389.09685,146.40414 L 388.58811,146.03327 L 389.90744,144.17039 L 389.59701,142.92847 L 390.83872,142.54903 L 390.97671,142.94574 L 391.45099,142.79907 L 391.51997,143.02337 L 393.51188,142.50586 L 393.37391,141.47959 L 393.59815,141.35022 L 393.71025,139.53906 L 396.8663,138.96123 L 396.59894,137.34847 L 397.62512,137.15008 L 397.27157,135.3648 L 397.46993,135.12333 L 396.82314,134.11427 L 396.57313,132.90689 L 397.2457,132.51013 L 397.0215,132.27728 L 397.46129,130.94914 L 397.73722,130.91462 L 398.13386,129.93144 L 397.54748,129.61233 L 397.97004,128.51705 L 397.78031,128.40489 L 398.22875,127.439 L 399.41873,127.93055 L 399.5222,128.34452 L 400.82428,128.65502 L 400.92774,128.40489 L 403.73028,129.43121 L 406.29132,124.75678 L 407.17951,125.66237 L 413.75034,128.49116 L 417.04434,128.90513 L 419.01041,128.65502 L 419.54505,128.42216 L 419.14842,125.67958 L 420.61432,125.38635 L 422.12337,125.6882 L 424.02047,125.42088 L 423.01156,122.12631 L 425.13282,120.98789 L 425.19318,120.29795 L 427.21099,119.27163 L 427.41797,118.9353 L 427.22826,117.9866 L 429.29779,117.50362 L 429.46167,117.78822 L 429.93593,117.74511 L 431.10867,117.1845 L 432.6263,118.53853 L 432.52284,116.84816 L 432.26414,116.83091 L 432.70393,116.48594 L 434.05775,116.55495 L 434.11811,116.2272 L 434.95456,116.30481 L 437.46388,115.82185 L 438.11062,114.37292 L 437.89505,112.41518 L 440.29225,111.39748 L 440.18015,110.19874 L 439.28334,108.68943 L 438.68836,106.8697 L 439.11952,106.92145 L 439.0247,106.4902 L 439.68867,106.30046 L 439.55931,106.08487 L 440.33541,105.72264 L 440.28368,105.49841 L 441.0425,105.06718 L 441.5426,105.3173 L 442.34457,104.28233 L 443.12929,104.05812 L 443.22412,103.26464 L 443.79329,102.61783 L 444.69005,103.04906 L 446.30255,102.95416 L 446.56128,103.29919 L 446.613,103.02316 L 448.17381,101.95374 L 450.2606,99.297434 L 450.97632,99.271524 L 452.60606,101.41902 L 452.9596,102.70408 L 453.31314,103.02316 L 454.81358,106.74032 L 455.39137,107.36125 L 455.64141,108.37031 L 456.65029,109.04304 L 458.4698,109.08614 L 459.66842,108.37031 L 460.28926,107.63726 L 459.67701,106.8697 L 460.91878,104.86879 L 461.86732,103.88562 L 462.98832,103.39402 L 464.24728,103.42851 L 466.26509,102.92831 L 468.86063,103.11806 L 469.64535,102.93695 L 472.13743,101.79851 L 475.08651,99.780404 L 476.08684,99.409554 L 478.19083,97.425904 L 478.55302,97.624274 L 480.58809,97.322414 L 481.68319,96.261614 L 485.83093,95.200814 L 485.93441,94.786834 L 486.56387,95.019704 L 487.46931,94.605734 L 488.40921,95.537164 L 488.03847,95.752734 L 488.48684,96.727334 L 491.39283,96.011484 L 492.6777,95.235294 L 493.7728,93.760534 L 495.23013,92.742834 L 496.09242,91.656134 L 495.86823,91.276704 L 496.04069,91.130064 L 498.8346,89.810504 L 499.2226,90.310744 L 501.12831,88.482379 L 503.59455,87.309415 L 504.53445,86.127875 L 507.76814,85.532795 L 508.6218,84.885971 L 511.45883,83.773413 L 512.23492,82.747107 L 514.54591,82.384863 L 516.31362,81.375805 L 517.56397,79.978667 L 519.91805,80.772085 L 521.72894,79.961408 L 522.25493,81.186064 L 523.4622,80.53924 L 524.36763,80.754879 L 523.97956,79.814772 L 524.37622,79.590545 L 526.06635,80.246009 L 526.1181,80.625512 z"
       id="_E07"
       onmouseout="javascript:popdown(this.id);return true;"
       onmouseover="javascript:popup(this.id);return true;"
       onclick="javascript:respond(this.id);return true;"
       inkscape:label="Somerton and Frome" />
  </g>
</svg>
