<?xml version="1.0" encoding="UTF-8" standalone="no"?>
<!-- Created with Inkscape (http://www.inkscape.org/) -->
<svg
   xmlns:dc="http://purl.org/dc/elements/1.1/"
   xmlns:cc="http://creativecommons.org/ns#"
   xmlns:rdf="http://www.w3.org/1999/02/22-rdf-syntax-ns#"
   xmlns:svg="http://www.w3.org/2000/svg"
   xmlns="http://www.w3.org/2000/svg"
   xmlns:xlink="http://www.w3.org/1999/xlink"
   xmlns:sodipodi="http://sodipodi.sourceforge.net/DTD/sodipodi-0.dtd"
   xmlns:inkscape="http://www.inkscape.org/namespaces/inkscape"
   width="640px"
   height="480px"
   id="svg4449"
   sodipodi:version="0.32"
   inkscape:version="0.46"
   sodipodi:docname="wells.svg"
   inkscape:output_extension="org.inkscape.output.svg.inkscape">
  <defs
     id="defs4451">
    <inkscape:perspective
       sodipodi:type="inkscape:persp3d"
       inkscape:vp_x="0 : 240 : 1"
       inkscape:vp_y="0 : 1000 : 0"
       inkscape:vp_z="640 : 240 : 1"
       inkscape:persp3d-origin="320 : 160 : 1"
       id="perspective4457" />
    <inkscape:perspective
       id="perspective4522"
       inkscape:persp3d-origin="372.04724 : 350.78739 : 1"
       inkscape:vp_z="744.09448 : 526.18109 : 1"
       inkscape:vp_y="0 : 1000 : 0"
       inkscape:vp_x="0 : 526.18109 : 1"
       sodipodi:type="inkscape:persp3d" />
    <inkscape:perspective
       id="perspective4589"
       inkscape:persp3d-origin="372.04724 : 350.78739 : 1"
       inkscape:vp_z="744.09448 : 526.18109 : 1"
       inkscape:vp_y="0 : 1000 : 0"
       inkscape:vp_x="0 : 526.18109 : 1"
       sodipodi:type="inkscape:persp3d" />
  </defs>
  <sodipodi:namedview
     id="base"
     pagecolor="#ffffff"
     bordercolor="#666666"
     borderopacity="1.0"
     inkscape:pageopacity="0.0"
     inkscape:pageshadow="2"
     inkscape:zoom="1.32"
     inkscape:cx="344.92014"
     inkscape:cy="257.00543"
     inkscape:current-layer="layer11"
     inkscape:document-units="px"
     showgrid="false"
     inkscape:window-width="1280"
     inkscape:window-height="911"
     inkscape:window-x="108"
     inkscape:window-y="79" />
  <metadata
     id="metadata4454">
    <rdf:RDF>
      <cc:Work
         rdf:about="">
        <dc:format>image/svg+xml</dc:format>
        <dc:type
           rdf:resource="http://purl.org/dc/dcmitype/StillImage" />
      </cc:Work>
    </rdf:RDF>
  </metadata>
  <g
     inkscape:groupmode="layer"
     id="layer11"
     inkscape:label="Backdrop"
     style="opacity:1;display:inline"
     sodipodi:insensitive="true">
    <image
       y="0"
       x="0"
       id="image4591"
       height="480"
       width="640"
       sodipodi:absref="/Users/httpd/Desktop/UKPPSW SVG maps/Areas/Wells.jpg"
       xlink:href="/img/maps/wells.jpg" />
  </g>
  <g
     id="_F02"
     inkscape:label="Map"
     inkscape:groupmode="layer"
     style="display:inline"
     sodipodi:insensitive="true">
    <path
       style="opacity:0.75545852;fill:#0087dc;fill-opacity:0;stroke:#ffffff;stroke-width:2.5;stroke-linecap:round;stroke-linejoin:round;stroke-miterlimit:4;stroke-dasharray:none;stroke-opacity:1;display:inline"
       d="M 64.069064,67.480537 L 65.309004,69.423578 L 68.476023,71.381594 L 70.821388,72.15887 L 74.257374,72.188702 L 76.363714,73.399416 L 80.621344,73.787998 L 83.355094,76.254197 L 84.505414,76.672695 L 88.314834,75.910406 L 94.021527,73.190177 L 94.768507,72.412919 L 96.217567,69.75242 L 95.515357,64.805104 L 95.709557,62.413612 L 96.591007,61.68123 L 105.52443,62.353862 L 106.8839,64.401537 L 108.34793,65.268464 L 120.50822,65.657062 L 123.00303,64.909711 L 125.97586,66.807981 L 128.12702,71.560926 L 131.98123,73.459165 L 134.73002,72.547452 L 135.89521,72.756701 L 141.00438,77.31542 L 142.75222,79.422864 L 145.62047,79.826424 L 147.24879,80.857724 L 163.9206,86.103984 L 167.74497,78.780124 L 173.57118,62.473463 L 174.96045,62.234287 L 175.58788,60.784457 L 176.94733,59.588775 L 179.69605,62.951725 L 180.50274,64.835017 L 181.68296,64.237155 L 182.83328,65.642118 L 184.90979,70.649194 L 194.53039,67.211522 L 198.20544,70.69407 L 206.362,70.798704 L 209.87263,71.919676 L 234.46212,69.872003 L 242.61869,69.588046 L 243.75405,70.036386 L 254.61464,69.184478 L 254.97313,62.294036 L 254.16645,59.439252 L 252.71737,56.689097 L 252.88177,53.729605 L 254.70429,52.728209 L 256.81072,52.100461 L 257.70701,52.279874 L 258.0655,51.71187 L 257.49785,50.247075 L 257.3933,46.854218 L 254.95829,45.643549 L 254.61464,43.027865 L 253.19546,42.803653 L 252.03021,40.935414 L 250.65581,41.02508 L 250.07324,40.247805 L 247.04057,39.904077 L 246.68209,37.647155 L 246.17418,37.602263 L 245.95009,36.107594 L 246.51782,36.002958 L 245.87541,33.80587 L 246.4281,33.641402 L 245.99495,31.444313 L 246.2937,27.632914 L 249.63998,27.005166 L 250.20772,26.496969 L 253.03111,26.3325 L 258.69293,28.170943 L 263.68256,27.528279 L 265.93833,28.200855 L 267.3277,26.870619 L 268.20905,27.184487 L 268.61238,28.738939 L 270.22575,30.248506 L 270.65901,29.650679 L 274.84196,29.979519 L 276.79895,30.801568 L 279.72692,30.592325 L 280.84732,31.623636 L 287.88358,32.744611 L 293.4558,33.058518 L 298.65448,32.640003 L 301.92616,34.747515 L 302.58343,34.343952 L 305.40692,35.360321 L 310.96418,32.370988 L 311.20323,31.264875 L 312.74193,31.36951 L 312.72696,34.164541 L 312.11448,36.615844 L 312.53277,38.050717 L 313.54861,39.321103 L 314.69894,38.753188 L 318.70254,40.442105 L 319.98723,39.380964 L 323.28873,40.232835 L 328.69665,39.395905 L 332.22225,39.769555 L 331.95331,40.427216 L 334.43317,41.607964 L 334.49296,42.146045 L 335.29965,41.84712 L 335.29965,41.040022 L 335.79261,41.159537 L 338.64593,42.415061 L 340.45357,43.820111 L 343.2322,41.966724 L 347.37029,40.158148 L 347.95287,36.750311 L 352.12081,44.64215 L 360.69574,44.104068 L 366.38748,44.32828 L 370.15205,44.746785 L 370.13717,45.15032 L 372.93068,45.942476 L 372.28838,42.713997 L 373.42373,43.565958 L 375.00721,42.713997 L 378.96602,43.670585 L 383.80624,46.106864 L 384.74741,46.136777 L 384.32911,47.721148 L 387.24221,48.931807 L 391.55957,51.681957 L 394.08416,53.729605 L 394.1141,54.7012 L 396.11585,55.597959 L 397.68443,53.400871 L 398.81981,53.580194 L 403.18201,56.509774 L 404.33231,57.840025 L 403.85421,59.932482 L 405.03441,60.694803 L 406.09511,60.530422 L 407.60391,61.158087 L 408.56001,62.204365 L 406.03529,64.192298 L 405.04938,67.480537 L 404.0186,68.990093 L 407.94751,68.197966 L 411.0996,68.810761 L 417.65772,72.113976 L 419.15168,73.54886 L 420.70533,73.713318 L 422.51289,75.058508 L 424.7537,75.940323 L 426.97964,78.197245 L 427.78636,78.107579 L 430.72928,80.783014 L 433.16435,81.933924 L 431.4165,84.430024 L 432.07377,87.763064 L 433.22411,89.975204 L 434.59849,91.469794 L 433.49302,92.815014 L 436.15214,94.459136 L 436.8393,96.19303 L 438.34809,95.77452 L 438.51248,96.88052 L 440.02129,98.98794 L 441.03711,98.86846 L 442.26208,100.13886 L 442.08284,100.7367 L 444.26396,101.75316 L 447.28161,102.57523 L 447.61028,97.74739 L 451.40475,99.51108 L 454.13856,96.40218 L 456.8126,98.3602 L 459.78542,99.89977 L 460.44278,99.72037 L 464.29706,97.05987 L 466.11959,94.758056 L 469.28661,93.965906 L 473.03628,91.963104 L 474.85881,89.287684 L 477.02496,89.033554 L 478.77281,86.402904 L 478.32459,85.177294 L 479.1164,81.814354 L 478.22003,80.035664 L 482.20878,79.497564 L 484.55416,80.857724 L 484.40474,81.351034 L 485.49532,81.754574 L 486.21238,83.383754 L 488.13946,84.863404 L 492.0087,85.252074 L 491.88918,87.225054 L 494.08514,85.237134 L 500.03087,82.382264 L 503.42199,81.993674 L 507.64972,77.853464 L 512.41525,75.955263 L 515.86608,70.604413 L 516.85199,70.514718 L 517.50934,69.588046 L 522.70814,71.859927 L 521.25904,76.22428 L 524.14226,76.926744 L 524.44102,74.834291 L 525.11322,75.028581 L 525.6062,73.220009 L 534.4501,76.672695 L 535.52566,77.689071 L 536.79548,80.409384 L 541.63568,81.694744 L 544.57861,84.160924 L 548.44785,85.610744 L 551.68952,85.999334 L 553.16851,85.670604 L 553.43737,84.953164 L 554.30388,84.997944 L 563.4315,86.417844 L 564.52208,87.225054 L 567.83855,87.643484 L 570.94577,89.138154 L 571.09519,90.991544 L 572.08113,91.200814 L 574.12773,90.976604 L 574.71039,90.274104 L 575.38263,90.363804 L 577.08569,89.422144 L 578.1762,90.124614 L 579.32652,89.571644 L 579.69995,90.109754 L 580.49178,89.691224 L 580.50671,90.214364 L 581.10425,90.333844 L 580.74568,90.752394 L 581.22378,93.652046 L 580.68598,97.23919 L 579.2668,97.01507 L 578.92316,98.28548 L 577.07076,100.03424 L 577.66828,101.0058 L 577.36951,103.12819 L 570.82632,109.31607 L 577.62354,113.02283 L 581.64207,114.53251 L 582.43382,114.24844 L 582.80724,113.29193 L 583.8231,113.21712 L 584.95846,114.18869 L 584.18167,115.2648 L 587.19936,117.0285 L 587.8865,116.40074 L 590.00781,117.53669 L 590.33649,117.73108 L 589.60444,119.62923 L 590.62029,120.18229 L 589.93312,121.88615 L 589.45511,121.94601 L 588.69321,124.24774 L 589.0816,124.65127 L 587.91642,125.33888 L 588.34955,127.43133 L 589.47008,129.18008 L 589.12644,129.59859 L 589.73892,132.69255 L 587.96118,133.03635 L 588.42433,135.83138 L 582.95669,136.83278 L 582.7625,139.9716 L 582.37402,140.19582 L 582.61305,141.97439 L 579.16223,142.87126 L 579.0427,142.48255 L 578.22105,142.73672 L 577.982,142.04919 L 575.83082,142.70681 L 576.36862,144.85908 L 574.08297,148.08757 L 574.96433,148.73032 L 574.65059,149.71675 L 573.9485,150.19509 L 574.71039,152.24276 L 573.88878,153.07979 L 575.15854,154.93316 L 573.33601,155.9943 L 572.27532,155.74026 L 569.5266,156.4577 L 569.95982,157.26479 L 566.19517,158.69967 L 566.38948,161.50965 L 567.64426,162.54096 L 566.15042,165.11177 L 564.95535,164.39435 L 563.25224,166.27764 L 562.35595,166.20285 L 563.80501,167.51823 L 563.8498,168.53456 L 565.91136,170.34306 L 566.82262,172.09182 L 567.92817,172.65985 L 568.86934,173.94519 L 570.25859,176.96444 L 569.98972,179.80424 L 570.647,181.17938 L 574.24727,182.94307 L 574.80005,185.40926 L 575.36767,186.06694 L 578.14629,187.50183 L 580.80548,187.14306 L 580.13319,189.07114 L 579.32652,189.95304 L 578.37039,190.05767 L 577.22009,192.29965 L 576.42835,192.91244 L 571.82723,193.86905 L 565.80678,196.43986 L 561.13098,194.97508 L 561.90775,195.99145 L 561.93764,197.20215 L 558.96483,206.19995 L 557.0526,215.09322 L 555.00598,221.7444 L 552.86975,233.26833 L 552.45145,233.19353 L 546.08752,258.07968 L 549.73253,257.75082 L 550.28531,260.08246 L 553.36272,261.60708 L 552.30202,265.53806 L 552.37676,267.69035 L 553.37765,268.39281 L 553.36272,270.00703 L 554.33377,270.03697 L 554.18433,271.18784 L 555.02095,275.44758 L 554.15443,280.69392 L 555.28979,284.32587 L 552.33193,285.17784 L 547.20791,289.0341 L 541.63568,290.45402 L 538.4537,290.58856 L 537.15396,291.50028 L 529.37086,320.42194 L 532.61255,320.69095 L 534.39029,319.56995 L 535.60031,319.45038 L 536.52653,319.62981 L 538.05037,320.88533 L 538.48353,322.64894 L 538.25951,327.02833 L 536.69092,332.03544 L 533.21017,332.9173 L 526.41296,332.21485 L 523.11146,341.16787 L 520.69132,341.7956 L 520.84075,343.54435 L 522.02088,346.51874 L 521.57277,346.96717 L 517.76334,342.79701 L 516.46362,346.17493 L 515.46271,345.90594 L 515.58227,344.24686 L 513.14717,343.96289 L 512.72887,342.82694 L 510.98102,342.46818 L 509.41249,341.43685 L 509.02402,343.99273 L 508.7402,343.79843 L 509.00917,341.2725 L 505.30431,340.22621 L 505.82709,339.26959 L 505.69271,337.14722 L 502.68998,336.78846 L 501.1513,335.65251 L 500.70308,334.86035 L 500.73297,332.36427 L 500.04583,331.91592 L 499.59761,330.63047 L 499.0001,330.79486 L 498.59673,330.04758 L 498.20826,330.10733 L 497.37176,328.52297 L 495.29523,328.37355 L 492.42699,329.59917 L 490.96296,329.27033 L 488.73702,330.40628 L 485.16664,334.80061 L 482.43287,334.7707 L 479.16119,335.71234 L 476.62159,335.77208 L 474.45546,334.8155 L 474.00726,334.95005 L 474.03717,336.35498 L 472.76732,336.59416 L 471.25854,336.10094 L 465.11867,336.39986 L 466.23909,341.93007 L 455.15436,343.64901 L 452.92851,348.13294 L 453.06299,348.67102 L 450.0752,350.07598 L 448.67089,351.3016 L 448.13316,351.12224 L 447.87916,351.6753 L 447.26668,351.12224 L 446.93801,351.82474 L 446.22093,351.6753 L 445.60845,352.93085 L 445.02585,352.2881 L 442.35181,351.86959 L 434.89726,352.03398 L 431.4165,351.46606 L 429.53419,351.83968 L 428.65284,352.58704 L 429.01133,352.00415 L 428.23454,349.86672 L 427.383,348.91021 L 426.24764,348.50664 L 426.89003,352.06389 L 422.72203,352.81125 L 420.43639,352.1835 L 420.34674,352.7963 L 418.25537,352.87099 L 417.62792,353.24473 L 417.53822,354.03686 L 418.5989,356.57777 L 417.56812,357.22048 L 416.73154,356.89164 L 415.62608,357.2952 L 416.02942,360.56857 L 419.54006,362.39204 L 420.69039,362.39204 L 421.9004,363.54293 L 426.94974,364.0959 L 426.84519,365.14218 L 430.31108,366.03894 L 432.64152,369.14785 L 434.2101,369.22265 L 436.46585,368.13148 L 439.31916,367.84753 L 442.17247,365.57563 L 443.86059,364.93292 L 444.83166,366.14358 L 445.20511,367.78778 L 446.26579,367.51868 L 446.57951,368.13148 L 447.90907,368.3557 L 447.05751,373.16849 L 445.62342,375.94856 L 445.54874,377.47317 L 446.98287,380.82118 L 449.04443,380.32795 L 450.28437,382.77918 L 449.76149,386.23189 L 448.82033,388.6084 L 449.14901,391.58275 L 446.72885,396.45529 L 448.41698,396.45529 L 449.22366,396.97843 L 450.83705,398.72719 L 450.83705,400.28164 L 451.95744,399.44464 L 453.15261,401.07385 L 449.88101,402.22468 L 449.02946,403.04674 L 448.11823,403.04674 L 446.74381,403.83898 L 445.90722,405.03466 L 444.5926,405.58771 L 444.5328,408.00902 L 443.54689,409.01049 L 442.99412,411.85034 L 440.2454,413.55428 L 438.39296,417.14144 L 440.11091,421.84961 L 441.11187,421.71506 L 441.97827,423.80762 L 442.21733,425.94497 L 436.92892,425.97489 L 434.32952,425.24248 L 433.5976,424.16637 L 432.26805,423.91223 L 431.3567,424.18125 L 429.62382,425.8105 L 427.99549,424.25605 L 427.14393,421.17706 L 424.73886,419.09946 L 424.82848,418.42684 L 423.03575,416.87237 L 422.93117,415.75138 L 422.3187,415.25815 L 421.93029,413.00122 L 422.63243,408.05391 L 421.09372,402.52369 L 420.24219,402.17987 L 416.65686,402.91229 L 409.74015,402.13503 L 406.69265,404.06318 L 403.91401,406.73864 L 398.05798,414.28659 L 396.96738,421.22184 L 394.59209,427.30512 L 392.94883,430.10012 L 392.63509,432.96988 L 389.19921,434.21045 L 386.62973,434.03111 L 384.0453,435.98912 L 380.60932,437.12504 L 380.83342,438.36563 L 378.96602,439.38199 L 378.23403,439.65097 L 376.94924,438.4852 L 372.42277,440.48802 L 371.69082,442.34137 L 368.64324,444.7179 L 366.04387,441.50436 L 363.42959,440.92147 L 360.80031,439.30728 L 360.80031,438.36563 L 358.35034,437.31934 L 357.37928,437.99191 L 356.48298,440.30866 L 356.73697,440.98121 L 354.75007,442.2966 L 355.96011,444.46386 L 356.82659,443.20834 L 357.8873,444.09013 L 359.57532,444.59833 L 359.75458,446.04814 L 359.06741,447.57268 L 359.99361,448.6788 L 360.47164,450.23325 L 359.66497,451.60826 L 354.98914,447.33357 L 351.41867,444.98701 L 349.68578,442.05742 L 350.91076,440.86172 L 349.56627,438.6795 L 350.98553,437.61828 L 350.34314,437.30438 L 350.56723,436.07879 L 349.9696,435.6154 L 351.35895,433.88161 L 350.73154,432.88019 L 349.59616,433.23896 L 349.89491,424.65958 L 357.06557,422.26812 L 357.22995,421.61042 L 357.79757,421.4311 L 357.84243,419.12929 L 358.33541,419.00979 L 355.57172,416.08022 L 352.76319,410.81903 L 347.63916,406.06598 L 345.11445,401.85104 L 336.01671,397.75571 L 333.40238,395.46884 L 330.31002,393.61549 L 327.48664,392.89805 L 325.97775,394.07876 L 324.02076,404.91509 L 320.92839,406.3649 L 321.42136,409.96704 L 316.8501,412.44816 L 271.09224,406.70869 L 267.61151,391.20904 L 240.99036,390.70088 L 239.4965,384.12438 L 237.65904,379.41621 L 238.01753,379.28168 L 235.68709,374.0055 L 236.5834,369.98487 L 241.91659,372.24178 L 242.09581,371.76353 L 243.69433,372.34643 L 251.38783,377.24896 L 251.79119,377.02476 L 258.60332,380.49234 L 263.578,381.67313 L 268.40323,381.25464 L 272.01847,381.49382 L 276.02208,384.0347 L 276.38065,383.60124 L 275.36484,382.64462 L 274.58794,380.82118 L 273.12392,379.65532 L 273.39286,376.45672 L 272.81018,376.5465 L 272.67582,374.09517 L 273.6767,368.71446 L 273.57213,365.15713 L 274.03517,364.8582 L 273.58706,363.33369 L 271.34627,364.64896 L 270.27062,364.57423 L 269.00079,362.30235 L 269.59842,361.24112 L 268.8962,359.53726 L 267.40236,357.89311 L 265.50509,357.26537 L 269.31449,354.66464 L 267.28283,353.57349 L 265.75908,351.79491 L 268.55268,349.85187 L 268.8962,348.70095 L 272.67582,346.74295 L 272.54134,346.32445 L 274.1249,345.77139 L 273.91573,343.93295 L 275.76817,343.60413 L 276.30589,338.67175 L 273.46754,339.53868 L 272.92973,338.3429 L 276.87362,337.86465 L 277.50104,333.66467 L 274.16964,332.85747 L 277.2023,316.25188 L 265.92337,310.18348 L 218.37292,282.36788 L 223.12349,254.83622 L 224.42314,251.80211 L 221.34574,250.14302 L 217.07317,246.88467 L 208.63271,243.2676 L 206.18274,240.84621 L 204.1062,240.59218 L 202.46294,239.57571 L 200.67034,239.66547 L 198.10084,238.05118 L 197.2792,238.26045 L 195.85994,240.12878 L 193.70876,241.38431 L 193.06635,241.17506 L 190.97497,238.72383 L 189.79476,238.33514 L 187.40452,239.0078 L 184.90979,238.67895 L 182.893,239.11241 L 175.42358,241.8925 L 172.46563,241.53374 L 172.42085,241.86255 L 158.48285,243.4619 L 153.73226,237.75225 L 152.86585,234.97219 L 149.14607,229.81561 L 148.78748,230.03982 L 146.24792,226.81133 L 143.72318,225.36151 L 139.82415,220.42913 L 135.80558,218.36652 L 133.81877,215.61636 L 119.73134,210.83341 L 117.99844,209.7274 L 116.71373,207.87401 L 115.414,207.47044 L 115.02562,206.75302 L 114.06949,206.9922 L 113.59147,206.43913 L 112.65031,206.54378 L 109.28911,205.22848 L 108.57203,205.43775 L 108.39271,206.17012 L 107.34697,206.97723 L 106.16686,209.4135 L 103.3284,208.62137 L 93.289507,207.96368 L 93.050457,208.69605 L 94.350207,209.93664 L 94.589147,210.92309 L 94.081257,212.40281 L 92.647117,212.22347 L 92.318437,212.56721 L 92.871207,214.00216 L 92.497787,214.74941 L 91.496807,214.10677 L 89.913346,211.65547 L 88.075864,211.74513 L 87.373664,208.4569 L 85.909714,207.54517 L 85.013324,205.84131 L 84.430734,205.91601 L 83.863004,209.32383 L 81.308474,210.04128 L 76.677414,209.21919 L 74.242444,208.29253 L 73.809174,208.99497 L 69.999782,207.30607 L 71.000657,201.97007 L 71.523523,201.6114 L 70.238801,200.81916 L 71.882084,200.19149 L 70.731777,199.96729 L 69.342429,200.77439 L 68.251925,200.52025 L 67.953147,199.93737 L 65.518134,198.68185 L 63.456578,198.4576 L 61.633955,196.48464 L 59.58734,196.14093 L 57.212067,197.72521 L 56.091645,196.21565 L 56.614517,194.90036 L 57.346526,194.52666 L 57.585573,193.09177 L 56.958154,191.76154 L 55.29993,190.83486 L 52.864825,190.56584 L 50.892886,192.85271 L 51.729464,189.69891 L 52.73043,189.47478 L 52.55111,188.71246 L 53.447488,185.2747 L 55.18038,180.73095 L 53.835892,178.87757 L 54.463343,178.5189 L 55.29993,179.01211 L 56.285831,174.37868 L 56.241085,170.6719 L 55.434293,165.42566 L 53.805981,160.71752 L 49.862103,155.17226 L 44.857593,149.77657 L 42.318025,145.84562 L 39.718625,139.32888 L 35.968933,132.9018 L 33.444305,125.75739 L 33.608602,118.83711 L 36.790549,104.53321 L 44.977133,57.421515 L 45.858466,39.963847 L 45.559691,34.493362 L 44.618556,31.713301 L 43.10974,29.785227 L 39.165853,30.293398 L 37.881166,29.830002 L 32.010168,29.620758 L 28.215699,28.529704 L 22.49406,24.927565 L 21.149543,23.642103 L 20.910596,21.878409 L 20.208401,21.160968 L 21.179465,20.757406 L 24.002841,21.983044 L 30.934522,22.700567 L 31.15862,23.223599 L 34.460117,24.852852 L 36.476844,24.912596 L 37.806403,24.045664 L 39.150891,24.240047 L 42.332954,25.181611 L 45.963054,27.04994 L 48.547473,26.302668 L 50.72858,27.005166 L 54.43341,27.274152 L 56.002027,28.634312 L 55.344675,29.247108 L 56.569645,32.176697 L 61.170887,33.013626 L 60.125174,33.775948 L 60.364211,34.10477 L 62.082151,33.402299 L 63.561147,34.403697 L 64.457452,36.929634 L 61.902929,36.062782 L 59.930975,37.348138 L 62.216628,36.34674 L 64.591845,37.811534 L 65.04004,39.380964 L 65.906522,40.457048 L 70.612259,44.970918 L 69.910124,45.419337 L 71.045495,45.703293 L 71.493719,48.438581 L 70.58237,51.368051 L 68.610387,54.237892 L 65.951304,55.55315 L 64.457452,55.732515 L 63.068104,57.077695 L 62.112049,56.599446 L 62.26141,64.640722 L 63.665622,67.659862 L 64.069064,67.480537 z"
       id="Wells"
       onmouseout="javascript:rollover(this.id);return true;"
       onmouseover="javascript:rollout(this.id);return true;"
       onclick="javascript:respond(this.id);return true;"
       inkscape:label="Wells" />
  </g>
</svg>
