<?xml version="1.0" encoding="UTF-8" standalone="no"?>
<!-- Created with Inkscape (http://www.inkscape.org/) -->
<svg
   xmlns:dc="http://purl.org/dc/elements/1.1/"
   xmlns:cc="http://creativecommons.org/ns#"
   xmlns:rdf="http://www.w3.org/1999/02/22-rdf-syntax-ns#"
   xmlns:svg="http://www.w3.org/2000/svg"
   xmlns="http://www.w3.org/2000/svg"
   xmlns:xlink="http://www.w3.org/1999/xlink"
   xmlns:sodipodi="http://sodipodi.sourceforge.net/DTD/sodipodi-0.dtd"
   xmlns:inkscape="http://www.inkscape.org/namespaces/inkscape"
   width="640px"
   height="480px"
   id="svg12462"
   sodipodi:version="0.32"
   inkscape:version="0.46"
   enable-background="new"
   sodipodi:docname="devon.svg"
   inkscape:output_extension="org.inkscape.output.svg.inkscape">
  <defs
     id="defs12464">
    <inkscape:perspective
       sodipodi:type="inkscape:persp3d"
       inkscape:vp_x="0 : 240 : 1"
       inkscape:vp_y="0 : 1000 : 0"
       inkscape:vp_z="640 : 240 : 1"
       inkscape:persp3d-origin="320 : 160 : 1"
       id="perspective12470" />
    <inkscape:perspective
       id="perspective12641"
       inkscape:persp3d-origin="372.04724 : 350.78739 : 1"
       inkscape:vp_z="744.09448 : 526.18109 : 1"
       inkscape:vp_y="0 : 1000 : 0"
       inkscape:vp_x="0 : 526.18109 : 1"
       sodipodi:type="inkscape:persp3d" />
    <inkscape:perspective
       id="perspective12691"
       inkscape:persp3d-origin="372.04724 : 350.78739 : 1"
       inkscape:vp_z="744.09448 : 526.18109 : 1"
       inkscape:vp_y="0 : 1000 : 0"
       inkscape:vp_x="0 : 526.18109 : 1"
       sodipodi:type="inkscape:persp3d" />
    <inkscape:perspective
       id="perspective12927"
       inkscape:persp3d-origin="372.04724 : 350.78739 : 1"
       inkscape:vp_z="744.09448 : 526.18109 : 1"
       inkscape:vp_y="0 : 1000 : 0"
       inkscape:vp_x="0 : 526.18109 : 1"
       sodipodi:type="inkscape:persp3d" />
    <inkscape:perspective
       id="perspective12977"
       inkscape:persp3d-origin="372.04724 : 350.78739 : 1"
       inkscape:vp_z="744.09448 : 526.18109 : 1"
       inkscape:vp_y="0 : 1000 : 0"
       inkscape:vp_x="0 : 526.18109 : 1"
       sodipodi:type="inkscape:persp3d" />
    <inkscape:perspective
       id="perspective13123"
       inkscape:persp3d-origin="372.04724 : 350.78739 : 1"
       inkscape:vp_z="744.09448 : 526.18109 : 1"
       inkscape:vp_y="0 : 1000 : 0"
       inkscape:vp_x="0 : 526.18109 : 1"
       sodipodi:type="inkscape:persp3d" />
  </defs>
  <sodipodi:namedview
     id="base"
     pagecolor="#ffffff"
     bordercolor="#666666"
     borderopacity="1.0"
     inkscape:pageopacity="0.0"
     inkscape:pageshadow="2"
     inkscape:zoom="1"
     inkscape:cx="372.83238"
     inkscape:cy="201.76757"
     inkscape:current-layer="layer61"
     inkscape:document-units="px"
     showgrid="false"
     inkscape:window-width="1213"
     inkscape:window-height="951"
     inkscape:window-x="110"
     inkscape:window-y="81" />
  <metadata
     id="metadata12467">
    <rdf:RDF>
      <cc:Work
         rdf:about="">
        <dc:format>image/svg+xml</dc:format>
        <dc:type
           rdf:resource="http://purl.org/dc/dcmitype/StillImage" />
      </cc:Work>
    </rdf:RDF>
  </metadata>
  <g
     id="layer1"
     inkscape:label="Backdrop"
     inkscape:groupmode="layer"
     style="opacity:1">
    <g
       style="display:inline"
       id="g5764"
       transform="matrix(1.3970623,0,0,1.3970623,2817.0736,5225.4225)" />
    <image
       y="0.23242569"
       x="0.83238602"
       id="image13125"
       height="480"
       width="640"
       sodipodi:absref="/Users/httpd/Desktop/UKParseParl/Maps/Devon.jpg"
       xlink:href="/img/maps/devon.jpg" />
  </g>
  <g
     inkscape:groupmode="layer"
     id="layer61"
     inkscape:label="Map"
     style="opacity:1;display:inline">
    <path
       d="M 189.55344,328.56151 L 189.55344,328.56151 L 190.84276,341.50282 L 195.5066,339.23044 L 196.9423,341.75151 L 191.946,346.58684 L 185.78598,343.78451 L 183.10533,346.79614 L 186.99622,353.38649 L 180.44221,358.8483 L 183.07525,362.1272 L 186.51849,358.11482 L 193.10398,362.28286 L 191.62535,366.24873 L 195.47902,371.26763 L 204.7985,358.07514 L 206.6654,353.90353 L 202.41883,348.89395 L 205.93648,348.0245 L 202.54549,345.94281 L 203.38823,340.02655 L 208.84259,337.932 L 210.14338,334.75652 L 215.70471,337.17991 L 218.79115,343.00313 L 226.89716,344.97321 L 222.66808,349.0042 L 224.9966,356.02462 L 229.67799,362.7928 L 236.26457,358.70601 L 239.81946,359.40802 L 239.95077,356.65329 L 244.06712,356.16277 L 258.30275,343.05043 L 261.07644,343.96749 L 260.38829,348.11119 L 267.17489,352.471 L 269.89743,351.2273 L 273.91965,355.06294 L 278.16731,351.81769 L 279.27164,348.64684 L 276.13403,340.66287 L 276.80931,327.67502 L 280.48158,325.03302 L 281.96129,312.81231 L 278.56674,302.27934 L 289.24857,280.21018 L 299.9701,276.41858 L 297.97294,275.09005 L 301.93578,268.11722 L 298.04024,261.33044 L 319.59959,258.65805 L 318.75329,256.12303 L 310.4426,245.5099 L 297.77974,250.33019 L 291.33022,243.60387 L 296.58917,233.25912 L 299.70462,232.0061 L 297.13205,231.28083 L 295.15924,222.67965 L 288.86323,222.43561 L 291.49736,217.45966 L 290.44063,214.33999 L 290.45102,206.47802 L 280.02936,206.33165 L 274.16923,199.59138 L 278.00073,195.37326 L 273.05203,193.91809 L 266.93032,184.43241 L 274.51779,181.10807 L 268.59719,171.81417 L 273.47146,170.12642 L 272.83198,159.72477 L 259.36468,163.77792 L 247.88165,160.31546 L 248.636,150.66699 L 257.41154,147.70764 L 256.16766,144.98549 L 259.75154,138.61124 L 251.43512,136.05653 L 243.92207,142.52377 L 237.29004,136.3914 L 237.81072,125.17611 L 229.72332,123.99179 L 223.70286,127.08247 L 214.18444,123.57349 L 215.67237,120.00048 L 202.15853,122.08929 L 198.71639,117.84685 L 193.05162,119.35675 L 193.51076,113.84268 L 195.45783,104.75559 L 190.17668,105.86334 L 190.66836,101.72429 L 188.07719,100.2133 L 182.61712,110.36626 L 177.1488,111.87151 L 165.55089,128.45918 L 155.03045,132.44257 L 145.39,132.08117 L 131.77956,121.79006 L 119.51069,118.34619 L 104.56117,117.91394 L 101.94565,123.67562 L 102.38757,142.33674 L 97.343666,153.46257 L 98.634071,158.14907 L 123.20546,158.15699 L 121.19791,164.69043 L 132.49161,185.06009 L 128.96466,185.53668 L 126.59675,193.45447 L 127.42804,203.65503 L 125.21938,209.99669 L 112.39727,216.3931 L 117.79004,219.99975 L 123.87563,219.65914 L 131.17145,228.92048 L 135.32036,229.80497 L 133.82421,224.73026 L 139.48431,223.02393 L 142.90321,226.28422 L 141.76058,236.13843 L 147.95208,248.5706 L 145.76204,255.698 L 151.3978,261.26434 L 154.98308,279.85107 L 157.42898,283.52748 L 164.55269,285.5208 L 162.48823,297.95188 L 161.30839,306.23463 L 162.55227,308.95678 L 166.82787,306.89014 L 168.29148,310.58981 L 168.19379,306.46471 L 172.14623,307.35386 L 169.92362,313.10623 L 175.46992,323.19516 L 172.02203,327.01111 L 177.06485,324.14012 L 180.2175,324.45858 L 184.28159,330.0621 L 189.55344,328.56151 z"
       style="opacity:1;fill:#c8c8ff;fill-opacity:0.33;stroke:#7ffaff;stroke-width:2.26517725;stroke-opacity:1"
       id="Torridge_and_West_Devon"
       onclick="javascript:respond(this.id);return true;"
       onmouseover="javascript:popup(this.id);return true;"
       onmouseout="javascript:popdown(this.id);return true;" />
    <path
       d="M 360.16066,352.82469 L 360.16066,352.82469 L 359.05992,364.4468 L 363.70407,369.64351 L 358.87167,373.09915 L 364.83879,384.35739 L 368.35182,383.29149 L 367.79251,367.97436 L 373.67807,359.18714 L 379.07552,362.99022 L 388.60898,358.83366 L 379.18466,350.9985 L 380.79571,336.02307 L 377.6384,335.50819 L 377.90464,338.45005 L 371.35994,344.30474 L 366.86462,345.39388 L 365.5685,348.7658 L 364.15606,347.22688 L 360.16066,352.82469 z"
       style="opacity:1;fill:#c8c8ff;fill-opacity:0.33;stroke:#7ffaff;stroke-width:2.26517725;stroke-opacity:1"
       id="Torbay"
       onclick="javascript:respond(this.id);return true;"
       onmouseover="javascript:popup(this.id);return true;"
       onmouseout="javascript:popdown(this.id);return true;" />
    <path
       d="M 290.44063,214.33999 L 290.44063,214.33999 L 291.49736,217.45966 L 288.85858,222.23918 L 295.15924,222.67965 L 297.13205,231.28083 L 299.70462,232.0061 L 296.58452,233.06269 L 291.33022,243.60387 L 297.77974,250.33019 L 310.4426,245.5099 L 318.75329,256.12303 L 319.12761,255.32799 L 318.89393,253.76119 L 321.77104,250.74493 L 318.15103,247.29286 L 322.03369,245.23549 L 326.15112,236.49013 L 330.61853,234.22238 L 333.80375,235.91587 L 336.02169,229.96705 L 350.30632,235.52518 L 353.22065,234.08037 L 357.85087,238.6878 L 363.92716,237.95431 L 368.84329,238.03447 L 379.48574,230.90351 L 392.42771,237.86921 L 393.30551,250.03409 L 390.73651,257.7601 L 393.9124,259.06072 L 394.83316,264.73867 L 396.58268,263.91107 L 397.03143,266.25898 L 398.62171,267.00751 L 402.49507,264.55727 L 402.54733,258.46321 L 409.21298,257.71577 L 409.93369,254.94711 L 421.89912,253.87765 L 428.27419,257.46105 L 428.79954,246.44219 L 433.20071,249.67923 L 439.09449,249.5397 L 440.33373,252.06541 L 446.05897,253.10914 L 448.3653,250.89257 L 455.33767,229.89393 L 465.62799,232.795 L 474.26041,215.49136 L 482.24547,212.35418 L 477.85358,209.51001 L 483.03813,196.02234 L 485.91059,192.80965 L 492.97848,192.44577 L 491.25793,186.19713 L 493.47589,180.24831 L 488.68179,177.02058 L 488.70612,169.7479 L 484.19222,170.05131 L 479.9957,175.45734 L 476.15134,170.83131 L 472.2175,170.7279 L 472.14307,167.58497 L 467.40012,166.51799 L 473.11356,150.46274 L 449.19204,152.99449 L 438.64478,147.54445 L 427.74757,135.61675 L 415.61826,138.06587 L 415.00313,120.39155 L 405.75093,119.82444 L 405.32081,118.26226 L 405.4754,116.48973 L 402.29018,114.79624 L 392.33123,117.58706 L 386.74197,113.98506 L 376.99344,117.36057 L 377.49801,122.06564 L 373.09573,127.08345 L 357.73468,125.87476 L 354.57737,125.35987 L 355.87708,130.43924 L 353.5661,132.45937 L 347.71525,126.11196 L 350.25776,142.16832 L 356.16549,142.61809 L 356.58524,152.04222 L 352.0563,160.01117 L 348.00043,163.05533 L 339.66431,167.96973 L 347.66582,182.12795 L 340.41078,182.88932 L 339.15185,187.83271 L 333.44058,187.37829 L 328.7896,198.49482 L 312.00572,203.60921 L 314.42371,206.10702 L 312.71141,208.50607 L 290.44063,214.33999 z"
       style="opacity:1;fill:#c8c8ff;fill-opacity:0.33;stroke:#7ffaff;stroke-width:2.26517725;stroke-opacity:1"
       id="Tiverton_and_Honiton"
       onclick="javascript:respond(this.id);return true;"
       onmouseover="javascript:popup(this.id);return true;"
       onmouseout="javascript:popdown(this.id);return true;" />
    <path
       d="M 288.82124,328.56991 L 288.82124,328.56991 L 293.72235,336.31561 L 301.38534,327.87937 L 304.10786,326.63565 L 306.36878,314.19992 L 312.05105,321.73058 L 325.04528,322.60219 L 326.75652,328.45799 L 324.86636,331.64743 L 332.59339,334.21609 L 338.74054,328.17427 L 343.54394,331.79488 L 349.64349,332.04356 L 347.49065,340.74242 L 344.37523,341.99544 L 345.21223,344.13759 L 342.28395,344.99309 L 338.72798,352.54592 L 338.42811,356.48389 L 340.75769,355.24947 L 342.17013,356.78838 L 339.84983,358.41565 L 343.61979,359.89875 L 345.71572,357.09753 L 352.18491,356.35475 L 354.78648,350.00378 L 360.16066,352.82469 L 364.15606,347.22688 L 365.5685,348.7658 L 366.86462,345.39388 L 371.35994,344.30474 L 377.90464,338.45005 L 377.6384,335.50819 L 380.79571,336.02307 L 384.31447,326.89879 L 380.53056,324.82639 L 384.27726,325.32732 L 391.72518,316.11002 L 392.91898,308.41657 L 403.8148,295.38332 L 398.60343,299.43754 L 396.37011,279.83611 L 391.67942,272.67506 L 391.498,265.01417 L 383.11645,259.7094 L 372.31584,260.16164 L 365.88958,254.41747 L 363.92716,237.95431 L 357.85087,238.6878 L 353.22065,234.08037 L 350.30632,235.52518 L 336.02169,229.96705 L 333.80375,235.91587 L 330.61853,234.22238 L 326.15112,236.49013 L 322.03369,245.23549 L 318.15103,247.29286 L 321.77104,250.74493 L 318.89393,253.76119 L 319.12761,255.32799 L 318.74863,255.92659 L 319.59959,258.65805 L 298.04024,261.33044 L 301.93578,268.11722 L 297.97294,275.09005 L 299.9701,276.41858 L 289.24392,280.01375 L 278.56674,302.27934 L 281.96129,312.81231 L 280.48158,325.03302 L 281.54761,328.54556 L 288.82124,328.56991 z"
       style="opacity:1;fill:#c8c8ff;fill-opacity:0.33;stroke:#7ffaff;stroke-width:2.26517725;stroke-opacity:1"
       id="Teignbridge"
       onclick="javascript:respond(this.id);return true;"
       onmouseover="javascript:popup(this.id);return true;"
       onmouseout="javascript:popdown(this.id);return true;" />
    <path
       d="M 260.80403,423.77047 L 260.80403,423.77047 L 260.29374,427.12379 L 261.56088,430.82811 L 267.25355,430.49679 L 275.07364,436.99412 L 279.00748,437.09753 L 282.37053,438.00062 L 285.00933,433.22112 L 293.17687,429.48998 L 291.50752,425.40209 L 295.02517,424.53264 L 297.26174,419.36958 L 294.4623,400.76425 L 299.45395,395.73249 L 291.44672,389.63268 L 295.73162,387.95888 L 296.15352,380.87334 L 281.09701,375.92314 L 273.3385,363.72459 L 273.915,354.86651 L 269.89743,351.2273 L 267.17024,352.27459 L 260.38829,348.11119 L 261.07644,343.96749 L 258.30275,343.05043 L 244.06712,356.16277 L 239.95077,356.65329 L 239.81946,359.40802 L 236.26457,358.70601 L 229.67799,362.7928 L 224.9966,356.02462 L 222.66808,349.0042 L 226.89716,344.97321 L 218.79115,343.00313 L 215.70471,337.17991 L 210.14338,334.75652 L 208.84259,337.932 L 203.38358,339.83012 L 202.54549,345.94281 L 205.74001,348.02915 L 202.41883,348.89395 L 206.6654,353.90353 L 204.60206,358.07979 L 195.47902,371.26763 L 199.72097,376.08077 L 201.24611,374.07924 L 203.51525,370.2912 L 209.05796,371.92886 L 215.03656,367.0703 L 215.94337,372.15894 L 223.49254,375.51799 L 224.99802,380.98557 L 222.11625,383.8054 L 222.65802,390.08195 L 223.08816,391.64412 L 216.2203,400.4546 L 215.32639,404.21008 L 218.30584,405.51535 L 209.01643,403.37677 L 211.33099,409.80789 L 213.35497,420.56985 L 236.81273,423.35573 L 225.67036,425.97803 L 232.09197,431.52577 L 240.34327,431.33042 L 242.22878,427.94455 L 248.2725,425.83603 L 256.95392,427.20285 L 260.80403,423.77047 z"
       style="opacity:1;fill:#c8c8ff;fill-opacity:0.33;stroke:#7ffaff;stroke-width:2.26517725;stroke-opacity:1"
       id="South_West_Devon"
       onclick="javascript:respond(this.id);return true;"
       onmouseover="javascript:popup(this.id);return true;"
       onmouseout="javascript:popdown(this.id);return true;" />
    <path
       d="M 195.5223,397.99647 L 195.5223,397.99647 L 195.17589,399.97011 L 199.92812,401.42994 L 200.16646,403.19319 L 204.03517,400.54653 L 209.37214,401.79599 L 209.88708,398.63911 L 214.29758,402.26902 L 218.60217,393.12611 L 223.08816,391.64412 L 222.65802,390.08195 L 219.06594,387.80848 L 204.24776,384.62151 L 198.72719,392.22085 L 199.82578,397.10841 L 195.5223,397.99647 z"
       style="opacity:1;fill:#c8c8ff;fill-opacity:0.33;stroke:#7ffaff;stroke-width:2.26517725;stroke-opacity:1"
       id="Plymouth_Sutton"
       onclick="javascript:respond(this.id);return true;"
       onmouseover="javascript:popup(this.id);return true;"
       onmouseout="javascript:popdown(this.id);return true;" />
    <path
       d="M 201.44258,374.07459 L 201.44258,374.07459 L 199.73027,376.47364 L 200.73582,377.43256 L 193.22384,375.64495 L 189.73767,386.1443 L 192.75898,389.21746 L 196.25696,395.81711 L 195.5223,397.99647 L 199.82578,397.10841 L 198.72719,392.22085 L 204.24776,384.62151 L 219.06594,387.80848 L 222.65802,390.08195 L 222.11625,383.8054 L 224.99802,380.98557 L 223.49254,375.51799 L 215.94337,372.15894 L 215.03656,367.0703 L 209.05796,371.92886 L 203.51525,370.2912 L 201.44258,374.07459 z"
       style="opacity:1;fill:#c8c8ff;fill-opacity:0.33;stroke:#7ffaff;stroke-width:2.26517725;stroke-opacity:1"
       id="Plymouth_Devonport"
       onclick="javascript:respond(this.id);return true;"
       onmouseover="javascript:popup(this.id);return true;"
       onmouseout="javascript:popdown(this.id);return true;" />
    <path
       d="M 182.20525,76.374035 L 182.20525,76.374035 L 186.95286,77.637449 L 188.95249,95.672081 L 195.5473,100.233 L 198.08731,99.58323 L 198.4652,107.23947 L 193.31895,114.04377 L 193.04697,119.16032 L 198.71174,117.65042 L 201.95744,121.89751 L 215.67237,120.00048 L 214.18444,123.57349 L 223.70286,127.08247 L 229.72332,123.99179 L 237.81072,125.17611 L 237.29004,136.3914 L 243.91742,142.32734 L 251.43512,136.05653 L 259.74689,138.41481 L 256.16766,144.98549 L 257.41154,147.70764 L 248.63135,150.47056 L 247.87699,160.11902 L 259.36468,163.77792 L 272.83198,159.72477 L 273.27034,169.93466 L 268.59254,171.61774 L 274.32133,181.11272 L 266.93032,184.43241 L 273.04738,193.72165 L 277.99608,195.17683 L 273.97277,199.59603 L 280.02936,206.33165 L 290.44637,206.28158 L 290.24417,214.34464 L 312.70676,208.30966 L 314.42371,206.10702 L 312.00572,203.60921 L 328.78495,198.29838 L 333.44058,187.37829 L 339.15185,187.83271 L 340.41078,182.88932 L 347.46936,182.1326 L 339.66431,167.96973 L 348.00043,163.05533 L 352.0563,160.01117 L 356.58524,152.04222 L 355.96903,142.62274 L 350.25776,142.16832 L 347.7106,125.91553 L 353.5661,132.45937 L 355.87243,130.2428 L 354.57737,125.35987 L 352.79994,125.00889 L 351.57466,123.07245 L 356.84403,104.86573 L 348.71941,102.10993 L 342.2595,103.24559 L 330.44047,93.894766 L 322.97035,93.875072 L 310.13644,83.172512 L 300.20648,78.887099 L 291.9144,69.059712 L 290.54135,52.582579 L 299.57383,52.172195 L 304.93872,54.600262 L 321.18437,51.660578 L 319.36257,32.835581 L 322.39894,28.243198 L 309.38145,26.389391 L 304.77449,22.764137 L 297.65437,29.2221 L 287.98133,27.48566 L 276.49723,32.278038 L 267.37171,28.759759 L 258.65662,34.27276 L 239.61867,35.509628 L 236.96128,39.503405 L 223.6822,34.904215 L 221.19337,37.714736 L 214.49047,36.890701 L 199.31085,43.342902 L 192.98695,41.920284 L 190.14705,46.508015 L 185.05771,47.414658 L 190.268,51.615261 L 188.76965,63.050242 L 187.0713,66.038593 L 176.47181,66.682618 L 182.66439,70.859967 L 182.20525,76.374035 z"
       style="opacity:1;fill:#c8c8ff;fill-opacity:0.33;stroke:#7ffaff;stroke-width:2.26517725;stroke-opacity:1"
       id="North_Devon"
       onclick="javascript:respond(this.id);return true;"
       onmouseover="javascript:popup(this.id);return true;"
       onmouseout="javascript:popdown(this.id);return true;" />
    <path
       d="M 383.11645,259.7094 L 383.11645,259.7094 L 391.69446,265.00952 L 394.91224,268.07803 L 396.58268,263.91107 L 394.83316,264.73867 L 393.9124,259.06072 L 390.73651,257.7601 L 393.30551,250.03409 L 392.42771,237.86921 L 379.48574,230.90351 L 368.83864,237.83803 L 363.92716,237.95431 L 365.88958,254.41747 L 372.31584,260.16164 L 383.11645,259.7094 z"
       style="opacity:1;fill:#c8c8ff;fill-opacity:0.33;stroke:#7ffaff;stroke-width:2.26517725;stroke-opacity:1"
       id="Exeter"
       onclick="javascript:respond(this.id);return true;"
       onmouseover="javascript:popup(this.id);return true;"
       onmouseout="javascript:popdown(this.id);return true;" />
    <path
       d="M 488.70612,169.7479 L 488.70612,169.7479 L 488.68179,177.02058 L 493.47589,180.24831 L 491.25793,186.19713 L 492.97848,192.44577 L 485.91059,192.80965 L 483.03348,195.8259 L 477.85358,209.51001 L 482.24547,212.35418 L 474.26041,215.49136 L 465.62334,232.59857 L 455.33767,229.89393 L 448.3653,250.89257 L 446.05897,253.10914 L 440.33373,252.06541 L 439.09449,249.5397 L 433.20071,249.67923 L 428.79954,246.44219 L 428.27419,257.46105 L 421.89912,253.87765 L 409.93369,254.94711 L 409.21298,257.71577 L 402.54733,258.46321 L 402.49042,264.36084 L 398.62171,267.00751 L 397.02678,266.06254 L 396.89544,268.81725 L 406.18269,287.46553 L 403.15563,292.45076 L 420.96259,297.33587 L 424.35929,291.35917 L 437.60689,286.32849 L 444.17594,273.20111 L 449.75696,268.15542 L 469.49238,263.16769 L 493.26861,262.80135 L 497.61972,255.62279 L 514.94534,256.78497 L 532.08491,250.0898 L 533.61473,248.28471 L 532.13717,243.99573 L 536.78815,232.8792 L 531.9987,229.8479 L 531.54065,227.10715 L 537.10308,221.27569 L 546.87953,219.07882 L 549.73803,215.27683 L 548.064,210.9925 L 529.48054,206.51889 L 530.78131,203.34339 L 526.93695,198.71738 L 525.92782,189.30718 L 519.09827,191.43431 L 515.49686,188.76798 L 508.68126,191.48439 L 509.75303,186.93851 L 503.729,181.57793 L 504.16594,166.82685 L 488.70612,169.7479 z"
       style="opacity:1;fill:#c8c8ff;fill-opacity:0.33;stroke:#7ffaff;stroke-width:2.26517725;stroke-opacity:1"
       id="East_Devon"
       onclick="javascript:respond(this.id);return true;"
       onmouseover="javascript:popup(this.id);return true;"
       onmouseout="javascript:popdown(this.id);return true;" />
    <path
       d="M 273.3385,363.72459 L 273.3385,363.72459 L 281.09701,375.92314 L 296.15352,380.87334 L 295.73162,387.95888 L 291.44672,389.63268 L 299.45395,395.73249 L 294.4623,400.76425 L 297.26174,419.36958 L 295.22164,424.52799 L 291.50752,425.40209 L 293.17687,429.48998 L 285.00933,433.22112 L 282.37053,438.00062 L 279.00748,437.09753 L 278.49717,440.45085 L 285.11524,445.99391 L 284.71192,453.86519 L 281.37678,454.14069 L 294.80006,464.82932 L 303.71516,467.76295 L 306.40976,465.34065 L 306.07374,459.45229 L 311.70595,456.56735 L 309.49729,462.90902 L 318.21592,465.8473 L 322.66829,471.24511 L 333.86291,462.52872 L 340.59369,464.53136 L 345.0704,462.65648 L 339.8136,456.49155 L 344.94804,432.58828 L 352.73772,421.20091 L 361.90154,418.03581 L 366.12596,413.80839 L 363.63354,408.16763 L 371.435,413.87925 L 378.59236,408.99276 L 377.68558,403.90409 L 381.40543,394.9716 L 384.53018,394.11144 L 382.4865,390.81859 L 388.26864,385.96466 L 379.7604,383.61104 L 381.98193,386.1135 L 380.25567,387.92327 L 378.02018,384.8315 L 368.35182,383.29149 L 364.83879,384.35739 L 358.67521,373.1038 L 363.69942,369.44707 L 359.05992,364.4468 L 360.16066,352.82469 L 354.59003,350.00843 L 352.18491,356.35475 L 345.71572,357.09753 L 343.61979,359.89875 L 339.84983,358.41565 L 342.17013,356.78838 L 340.75769,355.24947 L 338.42811,356.48389 L 338.72798,352.54592 L 342.28395,344.99309 L 345.21223,344.13759 L 344.37523,341.99544 L 347.49065,340.74242 L 349.44702,332.04821 L 343.54394,331.79488 L 338.74054,328.17427 L 332.59339,334.21609 L 324.86636,331.64743 L 326.75652,328.45799 L 325.04528,322.60219 L 312.05105,321.73058 L 306.36878,314.19992 L 304.10786,326.63565 L 301.38534,327.87937 L 293.72235,336.31561 L 288.82124,328.56991 L 281.54761,328.54556 L 280.48158,325.03302 L 276.61284,327.67967 L 276.13403,340.66287 L 279.27164,348.64684 L 278.16731,351.81769 L 273.915,354.86651 L 273.3385,363.72459 z"
       style="opacity:1;fill:#c8c8ff;fill-opacity:0.33;stroke:#7ffaff;stroke-width:2.26517725;stroke-opacity:1"
       id="Totnes"
       onclick="javascript:respond(this.id);return true;"
       onmouseover="javascript:popup(this.id);return true;"
       onmouseout="javascript:popdown(this.id);return true;" />
  </g>
</svg>
