/* XPM */
static char * blue_xpm[] = {
"20 20 30 1",
" 	c None",
".	c #020202",
"+	c #070303",
"@	c #060303",
"#	c #131424",
"$	c #384785",
"%	c #4F6AC6",
"&	c #5876DE",
"*	c #5876DD",
"=	c #4E68C3",
"-	c #36447E",
";	c #10111D",
">	c #2D3766",
",	c #5774DB",
"'	c #5777E0",
")	c #5573D7",
"!	c #282F57",
"~	c #2E3868",
"{	c #15172A",
"]	c #5775DC",
"^	c #3D4D90",
"/	c #030303",
"(	c #5370D3",
"_	c #0E0B12",
":	c #040304",
"<	c #5472D6",
"[	c #3F5096",
"}	c #191B31",
"|	c #5776DE",
"1	c #344077",
"                    ",
"        ....        ",
"     ....+@...      ",
"    ..#$%&*=-;..    ",
"   ..>,'''''')!..   ",
"  ..~''''''''''!.   ",
"  .{]'''''''''');.  ",
"  .^''''''''''''-.  ",
" ./(''''''''''''=.. ",
" ._'''''''''''''*@. ",
" ._'''''''''''''&+. ",
" .:<''''''''''''%.. ",
"  .[''''''''''''$.  ",
"  .}|'''''''''',#.  ",
"  ..1''''''''''>..  ",
"   ./1|'''''']~..   ",
"    ..}[<''(^{..    ",
"     ...:__/...     ",
"        ....        ",
"                    "};
