/* XPM */
static char * blue_grey_xpm[] = {
"40 20 55 1",
" 	c None",
".	c #020202",
"+	c #070303",
"@	c #060303",
"#	c #131424",
"$	c #384785",
"%	c #4F6AC6",
"&	c #5876DE",
"*	c #5876DD",
"=	c #4E68C3",
"-	c #36447E",
";	c #10111D",
">	c #120F10",
",	c #423D41",
"'	c #615D63",
")	c #6E6A71",
"!	c #635F65",
"~	c #454044",
"{	c #161213",
"]	c #2D3766",
"^	c #5774DB",
"/	c #5777E0",
"(	c #5573D7",
"_	c #282F57",
":	c #302B2E",
"<	c #6B676E",
"[	c #6D6B72",
"}	c #6C696F",
"|	c #373235",
"1	c #2E3868",
"2	c #383336",
"3	c #15172A",
"4	c #5775DC",
"5	c #6C6970",
"6	c #191516",
"7	c #3D4D90",
"8	c #4B454A",
"9	c #030303",
"0	c #5370D3",
"a	c #68656B",
"b	c #0E0B12",
"c	c #0F0A0A",
"d	c #100A0B",
"e	c #040304",
"f	c #5472D6",
"g	c #69666D",
"h	c #040303",
"i	c #3F5096",
"j	c #4E484D",
"k	c #191B31",
"l	c #5776DE",
"m	c #6D6A71",
"n	c #1D191A",
"o	c #344077",
"p	c #3F3A3D",
"                                        ",
"        ....                ....        ",
"     ....+@...            ...@+....     ",
"    ..#$%&*=-;..        ..>,'))!~{..    ",
"   ..]^//////(_..      ..:<[[[[[[}|..   ",
"  ..1//////////_.      .:[[[[[[[[[[2..  ",
"  .34//////////(;.    .><[[[[[[[[[[56.  ",
"  .7////////////-.    .,[[[[[[[[[[[[8.  ",
" .90////////////=..  ..'[[[[[[[[[[[[a9. ",
" .b/////////////*@.  .@)[[[[[[[[[[[[[c. ",
" .b/////////////&+.  .+)[[[[[[[[[[[[[d. ",
" .ef////////////%..  ..![[[[[[[[[[[[gh. ",
"  .i////////////$.    .~[[[[[[[[[[[[j.  ",
"  .kl//////////^#.    .{}[[[[[[[[[[mn.  ",
"  ..o//////////]..    ..|[[[[[[[[[[p..  ",
"   .9ol//////41..      ..25[[[[[[mp9.   ",
"    ..kif//073..        ..68a[[gjn..    ",
"     ...ebb9...          ...9cdh...     ",
"        ....                ....        ",
"                                        "};
