/* XPM */
static char * green_yellow_xpm[] = {
"40 20 57 1",
" 	c None",
".	c #020202",
"+	c #070303",
"@	c #060303",
"#	c #0D210D",
"$	c #22792D",
"%	c #2DB542",
"&	c #31CB4A",
"*	c #32CB49",
"=	c #2DB241",
"-	c #21742B",
";	c #0B1B0B",
">	c #211F03",
",	c #888606",
"'	c #CECE08",
")	c #EAEB08",
"!	c #EAEC08",
"~	c #D2D208",
"{	c #8F8D06",
"]	c #292604",
"^	c #1C5D23",
"/	c #31C848",
"(	c #30CD4A",
"_	c #30C547",
":	c #19501E",
"<	c #605D05",
"[	c #E4E508",
"}	c #EBEE08",
"|	c #E7E808",
"1	c #6F6C06",
"2	c #1D6024",
"3	c #726F06",
"4	c #0E260F",
"5	c #30CA49",
"6	c #E8EA08",
"7	c #2F2C04",
"8	c #248330",
"9	c #9A9807",
"0	c #030302",
"a	c #2FC146",
"b	c #DEE008",
"c	c #040302",
"d	c #0B1008",
"e	c #171204",
"f	c #0B1108",
"g	c #181304",
"h	c #040403",
"i	c #2FC447",
"j	c #E1E308",
"k	c #050402",
"l	c #258933",
"m	c #A19F07",
"n	c #112D12",
"o	c #31CB49",
"p	c #383404",
"q	c #1F6D29",
"r	c #817E06",
"                                        ",
"        ....                ....        ",
"     ....+@...            ...@+....     ",
"    ..#$%&*=-;..        ..>,')!~{]..    ",
"   ..^/((((((_:..      ..<[}}}}}}|1..   ",
"  ..2((((((((((:.      .<}}}}}}}}}}3..  ",
"  .45((((((((((_;.    .>[}}}}}}}}}}67.  ",
"  .8((((((((((((-.    .,}}}}}}}}}}}}9.  ",
" .0a((((((((((((=..  ..'}}}}}}}}}}}}bc. ",
" .d(((((((((((((*@.  .@)}}}}}}}}}}}}}e. ",
" .f(((((((((((((&+.  .+!}}}}}}}}}}}}}g. ",
" .hi((((((((((((%..  ..~}}}}}}}}}}}}jk. ",
"  .l(((((((((((($.    .{}}}}}}}}}}}}m.  ",
"  .no((((((((((/#.    .]|}}}}}}}}}}!p.  ",
"  ..q((((((((((^..    ..1}}}}}}}}}}r..  ",
"   .0qo((((((52..      ..36}}}}}}!r0.   ",
"    ..nli((a84..        ..79b}}jmp..    ",
"     ...hfd0...          ...cegk...     ",
"        ....                ....        ",
"                                        "};
