/* XPM */
static char * green_grey_xpm[] = {
"40 20 57 1",
" 	c None",
".	c #020202",
"+	c #070303",
"@	c #060303",
"#	c #0D210D",
"$	c #22792D",
"%	c #2DB542",
"&	c #31CB4A",
"*	c #32CB49",
"=	c #2DB241",
"-	c #21742B",
";	c #0B1B0B",
">	c #120F10",
",	c #423D41",
"'	c #615D63",
")	c #6E6A71",
"!	c #635F65",
"~	c #454044",
"{	c #161213",
"]	c #1C5D23",
"^	c #31C848",
"/	c #30CD4A",
"(	c #30C547",
"_	c #19501E",
":	c #302B2E",
"<	c #6B676E",
"[	c #6D6B72",
"}	c #6C696F",
"|	c #373235",
"1	c #1D6024",
"2	c #383336",
"3	c #0E260F",
"4	c #30CA49",
"5	c #6C6970",
"6	c #191516",
"7	c #248330",
"8	c #4B454A",
"9	c #030302",
"0	c #2FC146",
"a	c #68656B",
"b	c #030303",
"c	c #0B1008",
"d	c #0F0A0A",
"e	c #0B1108",
"f	c #100A0B",
"g	c #040403",
"h	c #2FC447",
"i	c #69666D",
"j	c #040303",
"k	c #258933",
"l	c #4E484D",
"m	c #112D12",
"n	c #31CB49",
"o	c #6D6A71",
"p	c #1D191A",
"q	c #1F6D29",
"r	c #3F3A3D",
"                                        ",
"        ....                ....        ",
"     ....+@...            ...@+....     ",
"    ..#$%&*=-;..        ..>,'))!~{..    ",
"   ..]^//////(_..      ..:<[[[[[[}|..   ",
"  ..1//////////_.      .:[[[[[[[[[[2..  ",
"  .34//////////(;.    .><[[[[[[[[[[56.  ",
"  .7////////////-.    .,[[[[[[[[[[[[8.  ",
" .90////////////=..  ..'[[[[[[[[[[[[ab. ",
" .c/////////////*@.  .@)[[[[[[[[[[[[[d. ",
" .e/////////////&+.  .+)[[[[[[[[[[[[[f. ",
" .gh////////////%..  ..![[[[[[[[[[[[ij. ",
"  .k////////////$.    .~[[[[[[[[[[[[l.  ",
"  .mn//////////^#.    .{}[[[[[[[[[[op.  ",
"  ..q//////////]..    ..|[[[[[[[[[[r..  ",
"   .9qn//////41..      ..25[[[[[[orb.   ",
"    ..mkh//073..        ..68a[[ilp..    ",
"     ...gec9...          ...bdfj...     ",
"        ....                ....        ",
"                                        "};
