/* XPM */
static char * grey_xpm[] = {
"20 20 30 1",
" 	c None",
".	c #020202",
"+	c #070303",
"@	c #060303",
"#	c #161213",
"$	c #454044",
"%	c #635F65",
"&	c #6D6A71",
"*	c #6E6A71",
"=	c #615D63",
"-	c #423D41",
";	c #120F10",
">	c #373235",
",	c #6C696F",
"'	c #6D6B72",
")	c #6B676E",
"!	c #302B2E",
"~	c #383336",
"{	c #191516",
"]	c #6C6970",
"^	c #4B454A",
"/	c #030303",
"(	c #68656B",
"_	c #0F0A0A",
":	c #0F0A0B",
"<	c #040303",
"[	c #69666D",
"}	c #4E484D",
"|	c #1D191A",
"1	c #3F3A3D",
"                    ",
"        ....        ",
"     ....+@...      ",
"    ..#$%&*=-;..    ",
"   ..>,'''''')!..   ",
"  ..~''''''''''!.   ",
"  .{]'''''''''');.  ",
"  .^''''''''''''-.  ",
" ./(''''''''''''=.. ",
" ._'''''''''''''*@. ",
" .:'''''''''''''&+. ",
" .<[''''''''''''%.. ",
"  .}''''''''''''$.  ",
"  .|&'''''''''',#.  ",
"  ..1''''''''''>..  ",
"   ./1&'''''']~..   ",
"    ..|}[''(^{..    ",
"     ...<:_/...     ",
"        ....        ",
"                    "};
