/* XPM */
static char * red_green_xpm[] = {
"40 20 56 1",
" 	c None",
".	c #020202",
"+	c #070303",
"@	c #060303",
"#	c #270909",
"$	c #891B1B",
"%	c #C92727",
"&	c #E02B2B",
"*	c #C52626",
"=	c #831A1A",
"-	c #200808",
";	c #0B1B0B",
">	c #21742B",
",	c #2DB241",
"'	c #32CB49",
")	c #31CB4A",
"!	c #2DB542",
"~	c #22792D",
"{	c #0D210D",
"]	c #6A1515",
"^	c #DD2A2A",
"/	c #E12B2B",
"(	c #DA2A2A",
"_	c #5C1313",
":	c #19501E",
"<	c #30C547",
"[	c #30CD4A",
"}	c #31C848",
"|	c #1C5D23",
"1	c #6D1616",
"2	c #1D6024",
"3	c #2D0A0A",
"4	c #DE2A2A",
"5	c #30CA49",
"6	c #0E260F",
"7	c #941D1D",
"8	c #248330",
"9	c #040202",
"0	c #D52929",
"a	c #2FC146",
"b	c #030302",
"c	c #170606",
"d	c #0B1008",
"e	c #0B1108",
"f	c #050303",
"g	c #D82929",
"h	c #2FC447",
"i	c #040403",
"j	c #9A1E1E",
"k	c #258933",
"l	c #360B0B",
"m	c #31CB49",
"n	c #112D12",
"o	c #7C1818",
"p	c #1F6D29",
"q	c #030202",
"                                        ",
"        ....                ....        ",
"     ....+@...            ...@+....     ",
"    ..#$%&&*=-..        ..;>,')!~{..    ",
"   ..]^//////(_..      ..:<[[[[[[}|..   ",
"  ..1//////////_.      .:[[[[[[[[[[2..  ",
"  .34//////////(-.    .;<[[[[[[[[[[56.  ",
"  .7////////////=.    .>[[[[[[[[[[[[8.  ",
" .90////////////*..  ..,[[[[[[[[[[[[ab. ",
" .c/////////////&@.  .@'[[[[[[[[[[[[[d. ",
" .c/////////////&+.  .+)[[[[[[[[[[[[[e. ",
" .fg////////////%..  ..![[[[[[[[[[[[hi. ",
"  .j////////////$.    .~[[[[[[[[[[[[k.  ",
"  .l&//////////^#.    .{}[[[[[[[[[[mn.  ",
"  ..o//////////]..    ..|[[[[[[[[[[p..  ",
"   .qo&//////41..      ..25[[[[[[mpb.   ",
"    ..ljg//073..        ..68a[[hkn..    ",
"     ...fcc9...          ...bdei...     ",
"        ....                ....        ",
"                                        "};
