/* XPM */
static char * red_red_xpm[] = {
"40 20 29 1",
" 	c None",
".	c #020202",
"+	c #070303",
"@	c #060303",
"#	c #270909",
"$	c #891B1B",
"%	c #C92727",
"&	c #E02B2B",
"*	c #C52626",
"=	c #831A1A",
"-	c #200808",
";	c #6A1515",
">	c #DD2A2A",
",	c #E12B2B",
"'	c #DA2A2A",
")	c #5C1313",
"!	c #6D1616",
"~	c #2D0A0A",
"{	c #DE2A2A",
"]	c #941D1D",
"^	c #040202",
"/	c #D52929",
"(	c #170606",
"_	c #050303",
":	c #D82929",
"<	c #9A1E1E",
"[	c #360B0B",
"}	c #7C1818",
"|	c #030202",
"                                        ",
"        ....                ....        ",
"     ....+@...            ...@+....     ",
"    ..#$%&&*=-..        ..-=*&&%$#..    ",
"   ..;>,,,,,,')..      ..)',,,,,,>;..   ",
"  ..!,,,,,,,,,,).      .),,,,,,,,,,!..  ",
"  .~{,,,,,,,,,,'-.    .-',,,,,,,,,,{~.  ",
"  .],,,,,,,,,,,,=.    .=,,,,,,,,,,,,].  ",
" .^/,,,,,,,,,,,,*..  ..*,,,,,,,,,,,,/^. ",
" .(,,,,,,,,,,,,,&@.  .@&,,,,,,,,,,,,,(. ",
" .(,,,,,,,,,,,,,&+.  .+&,,,,,,,,,,,,,(. ",
" ._:,,,,,,,,,,,,%..  ..%,,,,,,,,,,,,:_. ",
"  .<,,,,,,,,,,,,$.    .$,,,,,,,,,,,,<.  ",
"  .[&,,,,,,,,,,>#.    .#>,,,,,,,,,,&[.  ",
"  ..},,,,,,,,,,;..    ..;,,,,,,,,,,}..  ",
"   .|}&,,,,,,{!..      ..!{,,,,,,&}|.   ",
"    ..[<:,,/]~..        ..~]/,,:<[..    ",
"     ..._((^...          ...^((_...     ",
"        ....                ....        ",
"                                        "};
