/* XPM */
static char * red_grey_xpm[] = {
"40 20 55 1",
" 	c None",
".	c #020202",
"+	c #070303",
"@	c #060303",
"#	c #270909",
"$	c #891B1B",
"%	c #C92727",
"&	c #E02B2B",
"*	c #C52626",
"=	c #831A1A",
"-	c #200808",
";	c #120F10",
">	c #423D41",
",	c #615D63",
"'	c #6E6A71",
")	c #635F65",
"!	c #454044",
"~	c #161213",
"{	c #6A1515",
"]	c #DD2A2A",
"^	c #E12B2B",
"/	c #DA2A2A",
"(	c #5C1313",
"_	c #302B2E",
":	c #6B676E",
"<	c #6D6B72",
"[	c #6C696F",
"}	c #373235",
"|	c #6D1616",
"1	c #383336",
"2	c #2D0A0A",
"3	c #DE2A2A",
"4	c #6C6970",
"5	c #191516",
"6	c #941D1D",
"7	c #4B454A",
"8	c #040202",
"9	c #D52929",
"0	c #68656B",
"a	c #030303",
"b	c #170606",
"c	c #0F0A0A",
"d	c #100A0B",
"e	c #050303",
"f	c #D82929",
"g	c #69666D",
"h	c #040303",
"i	c #9A1E1E",
"j	c #4E484D",
"k	c #360B0B",
"l	c #6D6A71",
"m	c #1D191A",
"n	c #7C1818",
"o	c #3F3A3D",
"p	c #030202",
"                                        ",
"        ....                ....        ",
"     ....+@...            ...@+....     ",
"    ..#$%&&*=-..        ..;>,'')!~..    ",
"   ..{]^^^^^^/(..      .._:<<<<<<[}..   ",
"  ..|^^^^^^^^^^(.      ._<<<<<<<<<<1..  ",
"  .23^^^^^^^^^^/-.    .;:<<<<<<<<<<45.  ",
"  .6^^^^^^^^^^^^=.    .><<<<<<<<<<<<7.  ",
" .89^^^^^^^^^^^^*..  ..,<<<<<<<<<<<<0a. ",
" .b^^^^^^^^^^^^^&@.  .@'<<<<<<<<<<<<<c. ",
" .b^^^^^^^^^^^^^&+.  .+'<<<<<<<<<<<<<d. ",
" .ef^^^^^^^^^^^^%..  ..)<<<<<<<<<<<<gh. ",
"  .i^^^^^^^^^^^^$.    .!<<<<<<<<<<<<j.  ",
"  .k&^^^^^^^^^^]#.    .~[<<<<<<<<<<lm.  ",
"  ..n^^^^^^^^^^{..    ..}<<<<<<<<<<o..  ",
"   .pn&^^^^^^3|..      ..14<<<<<<loa.   ",
"    ..kif^^962..        ..570<<gjm..    ",
"     ...ebb8...          ...acdh...     ",
"        ....                ....        ",
"                                        "};
