/* XPM */
static char * yellow_yellow_xpm[] = {
"40 20 34 1",
" 	c None",
".	c #020202",
"+	c #070303",
"@	c #060303",
"#	c #292604",
"$	c #8F8C06",
"%	c #D2D208",
"&	c #EAEC08",
"*	c #EAEB08",
"=	c #CECE08",
"-	c #888506",
";	c #211F03",
">	c #888606",
",	c #8F8D06",
"'	c #6F6C06",
")	c #E7E808",
"!	c #EBEE08",
"~	c #E4E508",
"{	c #605D05",
"]	c #726F06",
"^	c #2F2C04",
"/	c #E8EA08",
"(	c #9A9807",
"_	c #040302",
":	c #DEE008",
"<	c #171204",
"[	c #181304",
"}	c #050302",
"|	c #E1E308",
"1	c #050402",
"2	c #A19F07",
"3	c #383404",
"4	c #817E06",
"5	c #030302",
"                                        ",
"        ....                ....        ",
"     ....+@...            ...@+....     ",
"    ..#$%&*=-;..        ..;>=*&%,#..    ",
"   ..')!!!!!!~{..      ..{~!!!!!!)'..   ",
"  ..]!!!!!!!!!!{.      .{!!!!!!!!!!]..  ",
"  .^/!!!!!!!!!!~;.    .;~!!!!!!!!!!/^.  ",
"  .(!!!!!!!!!!!!-.    .>!!!!!!!!!!!!(.  ",
" ._:!!!!!!!!!!!!=..  ..=!!!!!!!!!!!!:_. ",
" .<!!!!!!!!!!!!!*@.  .@*!!!!!!!!!!!!!<. ",
" .[!!!!!!!!!!!!!&+.  .+&!!!!!!!!!!!!![. ",
" .}|!!!!!!!!!!!!%..  ..%!!!!!!!!!!!!|1. ",
"  .2!!!!!!!!!!!!$.    .,!!!!!!!!!!!!2.  ",
"  .3&!!!!!!!!!!)#.    .#)!!!!!!!!!!&3.  ",
"  ..4!!!!!!!!!!'..    ..'!!!!!!!!!!4..  ",
"   .54&!!!!!!/]..      ..]/!!!!!!&45.   ",
"    ..32|!!:(^..        ..^(:!!|23..    ",
"     ...}[<_...          ..._<[1...     ",
"        ....                ....        ",
"                                        "};
