/* XPM */
static char * yellow_red_xpm[] = {
"40 20 56 1",
" 	c None",
".	c #020202",
"+	c #070303",
"@	c #060303",
"#	c #292604",
"$	c #8F8C06",
"%	c #D2D208",
"&	c #EAEC08",
"*	c #EAEB08",
"=	c #CECE08",
"-	c #888506",
";	c #211F03",
">	c #200808",
",	c #831A1A",
"'	c #C52626",
")	c #E02B2B",
"!	c #C92727",
"~	c #891B1B",
"{	c #270909",
"]	c #6F6C06",
"^	c #E7E808",
"/	c #EBEE08",
"(	c #E4E508",
"_	c #605D05",
":	c #5C1313",
"<	c #DA2A2A",
"[	c #E12B2B",
"}	c #DD2A2A",
"|	c #6A1515",
"1	c #726F06",
"2	c #6D1616",
"3	c #2F2C04",
"4	c #E8EA08",
"5	c #DE2A2A",
"6	c #2D0A0A",
"7	c #9A9807",
"8	c #941D1D",
"9	c #040302",
"0	c #DEE008",
"a	c #D52929",
"b	c #040202",
"c	c #171204",
"d	c #170606",
"e	c #181304",
"f	c #050302",
"g	c #E1E308",
"h	c #D82929",
"i	c #050303",
"j	c #A19F07",
"k	c #9A1E1E",
"l	c #383404",
"m	c #360B0B",
"n	c #817E06",
"o	c #7C1818",
"p	c #030302",
"q	c #030202",
"                                        ",
"        ....                ....        ",
"     ....+@...            ...@+....     ",
"    ..#$%&*=-;..        ..>,'))!~{..    ",
"   ..]^//////(_..      ..:<[[[[[[}|..   ",
"  ..1//////////_.      .:[[[[[[[[[[2..  ",
"  .34//////////(;.    .><[[[[[[[[[[56.  ",
"  .7////////////-.    .,[[[[[[[[[[[[8.  ",
" .90////////////=..  ..'[[[[[[[[[[[[ab. ",
" .c/////////////*@.  .@)[[[[[[[[[[[[[d. ",
" .e/////////////&+.  .+)[[[[[[[[[[[[[d. ",
" .fg////////////%..  ..![[[[[[[[[[[[hi. ",
"  .j////////////$.    .~[[[[[[[[[[[[k.  ",
"  .l&//////////^#.    .{}[[[[[[[[[[)m.  ",
"  ..n//////////]..    ..|[[[[[[[[[[o..  ",
"   .pn&//////41..      ..25[[[[[[)oq.   ",
"    ..ljg//073..        ..68a[[hkm..    ",
"     ...fec9...          ...bddi...     ",
"        ....                ....        ",
"                                        "};
