<?xml version="1.0" encoding="UTF-8" standalone="no"?>
<!-- Created with Inkscape (http://www.inkscape.org/) -->
<svg
   xmlns:dc="http://purl.org/dc/elements/1.1/"
   xmlns:cc="http://creativecommons.org/ns#"
   xmlns:rdf="http://www.w3.org/1999/02/22-rdf-syntax-ns#"
   xmlns:svg="http://www.w3.org/2000/svg"
   xmlns="http://www.w3.org/2000/svg"
   xmlns:xlink="http://www.w3.org/1999/xlink"
   xmlns:sodipodi="http://sodipodi.sourceforge.net/DTD/sodipodi-0.dtd"
   xmlns:inkscape="http://www.inkscape.org/namespaces/inkscape"
   width="640px"
   height="480px"
   id="svg12462"
   sodipodi:version="0.32"
   inkscape:version="0.46"
   enable-background="new"
   sodipodi:docname="gloucestershire.svg"
   inkscape:output_extension="org.inkscape.output.svg.inkscape">
  <defs
     id="defs12464">
    <inkscape:perspective
       sodipodi:type="inkscape:persp3d"
       inkscape:vp_x="0 : 240 : 1"
       inkscape:vp_y="0 : 1000 : 0"
       inkscape:vp_z="640 : 240 : 1"
       inkscape:persp3d-origin="320 : 160 : 1"
       id="perspective12470" />
    <inkscape:perspective
       id="perspective12641"
       inkscape:persp3d-origin="372.04724 : 350.78739 : 1"
       inkscape:vp_z="744.09448 : 526.18109 : 1"
       inkscape:vp_y="0 : 1000 : 0"
       inkscape:vp_x="0 : 526.18109 : 1"
       sodipodi:type="inkscape:persp3d" />
    <inkscape:perspective
       id="perspective12691"
       inkscape:persp3d-origin="372.04724 : 350.78739 : 1"
       inkscape:vp_z="744.09448 : 526.18109 : 1"
       inkscape:vp_y="0 : 1000 : 0"
       inkscape:vp_x="0 : 526.18109 : 1"
       sodipodi:type="inkscape:persp3d" />
    <inkscape:perspective
       id="perspective12927"
       inkscape:persp3d-origin="372.04724 : 350.78739 : 1"
       inkscape:vp_z="744.09448 : 526.18109 : 1"
       inkscape:vp_y="0 : 1000 : 0"
       inkscape:vp_x="0 : 526.18109 : 1"
       sodipodi:type="inkscape:persp3d" />
    <inkscape:perspective
       id="perspective12977"
       inkscape:persp3d-origin="372.04724 : 350.78739 : 1"
       inkscape:vp_z="744.09448 : 526.18109 : 1"
       inkscape:vp_y="0 : 1000 : 0"
       inkscape:vp_x="0 : 526.18109 : 1"
       sodipodi:type="inkscape:persp3d" />
    <inkscape:perspective
       id="perspective13123"
       inkscape:persp3d-origin="372.04724 : 350.78739 : 1"
       inkscape:vp_z="744.09448 : 526.18109 : 1"
       inkscape:vp_y="0 : 1000 : 0"
       inkscape:vp_x="0 : 526.18109 : 1"
       sodipodi:type="inkscape:persp3d" />
    <inkscape:perspective
       id="perspective13225"
       inkscape:persp3d-origin="372.04724 : 350.78739 : 1"
       inkscape:vp_z="744.09448 : 526.18109 : 1"
       inkscape:vp_y="0 : 1000 : 0"
       inkscape:vp_x="0 : 526.18109 : 1"
       sodipodi:type="inkscape:persp3d" />
    <inkscape:perspective
       id="perspective13275"
       inkscape:persp3d-origin="372.04724 : 350.78739 : 1"
       inkscape:vp_z="744.09448 : 526.18109 : 1"
       inkscape:vp_y="0 : 1000 : 0"
       inkscape:vp_x="0 : 526.18109 : 1"
       sodipodi:type="inkscape:persp3d" />
    <inkscape:perspective
       id="perspective13373"
       inkscape:persp3d-origin="372.04724 : 350.78739 : 1"
       inkscape:vp_z="744.09448 : 526.18109 : 1"
       inkscape:vp_y="0 : 1000 : 0"
       inkscape:vp_x="0 : 526.18109 : 1"
       sodipodi:type="inkscape:persp3d" />
    <inkscape:perspective
       id="perspective13423"
       inkscape:persp3d-origin="372.04724 : 350.78739 : 1"
       inkscape:vp_z="744.09448 : 526.18109 : 1"
       inkscape:vp_y="0 : 1000 : 0"
       inkscape:vp_x="0 : 526.18109 : 1"
       sodipodi:type="inkscape:persp3d" />
    <inkscape:perspective
       id="perspective13713"
       inkscape:persp3d-origin="372.04724 : 350.78739 : 1"
       inkscape:vp_z="744.09448 : 526.18109 : 1"
       inkscape:vp_y="0 : 1000 : 0"
       inkscape:vp_x="0 : 526.18109 : 1"
       sodipodi:type="inkscape:persp3d" />
    <inkscape:perspective
       id="perspective13763"
       inkscape:persp3d-origin="372.04724 : 350.78739 : 1"
       inkscape:vp_z="744.09448 : 526.18109 : 1"
       inkscape:vp_y="0 : 1000 : 0"
       inkscape:vp_x="0 : 526.18109 : 1"
       sodipodi:type="inkscape:persp3d" />
  </defs>
  <sodipodi:namedview
     id="base"
     pagecolor="#ffffff"
     bordercolor="#666666"
     borderopacity="1.0"
     inkscape:pageopacity="0.0"
     inkscape:pageshadow="2"
     inkscape:zoom="1"
     inkscape:cx="372.83238"
     inkscape:cy="201.76757"
     inkscape:current-layer="layer61"
     inkscape:document-units="px"
     showgrid="false"
     inkscape:window-width="1213"
     inkscape:window-height="951"
     inkscape:window-x="135"
     inkscape:window-y="147" />
  <metadata
     id="metadata12467">
    <rdf:RDF>
      <cc:Work
         rdf:about="">
        <dc:format>image/svg+xml</dc:format>
        <dc:type
           rdf:resource="http://purl.org/dc/dcmitype/StillImage" />
      </cc:Work>
    </rdf:RDF>
  </metadata>
  <g
     id="layer1"
     inkscape:label="Backdrop"
     inkscape:groupmode="layer"
     style="opacity:1">
    <g
       style="display:inline"
       id="g5764"
       transform="matrix(1.3970623,0,0,1.3970623,2817.0736,5225.4225)" />
    <image
       y="1.2324257"
       x="0.83238602"
       id="image13765"
       height="480"
       width="640"
       sodipodi:absref="/Users/httpd/Desktop/UKParseParl/Maps/Gloucester.jpg"
       xlink:href="/img/maps/gloucestershire.jpg" />
  </g>
  <g
     inkscape:groupmode="layer"
     id="layer61"
     inkscape:label="Map"
     style="opacity:1;display:inline">
    <g
       style="display:inline"
       id="g5964"
       transform="matrix(2.1858465,0,0,2.1858465,84.743689,40.82628)">
      <path
         id="Tewkesbury"
         onclick="javascript:respond(this.id);return true;"
         onmouseover="javascript:popup(this.id);return true;"
         onmouseout="javascript:popdown(this.id);return true;"
         style="fill:#c8c8ff;fill-opacity:0.33;fill-rule:evenodd;stroke:#7ffaff;stroke-width:1;stroke-opacity:1;display:inline"
         d="M 96.67172,32.286266 C 95.39505,30.708518 98.28756,31.194947 98.21203,29.769311 C 97.96377,28.725459 97.96304,27.626479 97.73188,26.486326 C 97.32756,25.349593 97.56083,24.046932 98.41206,23.155601 C 99.44874,22.761096 100.04754,22.049235 101.24447,21.827771 C 102.36488,22.094239 103.08969,23.06272 104.38993,23.155875 C 105.68444,23.085154 106.82434,23.127012 107.83968,24.072511 C 109.1666,24.010408 109.58901,25.252471 109.50793,26.319031 C 108.94253,27.74412 107.06953,28.061475 105.68219,28.196214 C 104.4062,29.144723 105.01801,31.072519 104.13431,32.3087 C 103.7352,33.156257 102.33067,34.623752 103.61302,35.364612 C 104.755,35.801659 105.38903,35.566652 105.12405,36.896124 C 104.57497,37.541094 106.80789,36.762479 106.52493,35.847758 C 106.50947,34.806504 107.87221,34.743581 108.1581,33.695214 C 109.0406,33.278001 108.86838,32.505542 109.96376,32.477774 C 110.74927,32.466557 111.85075,32.927132 112.81131,33.030273 C 112.94727,33.754171 113.59092,33.377448 114.29859,33.598092 C 115.20041,33.843769 116.34591,33.75677 116.89223,33.407953 C 117.75926,33.639677 118.26978,33.035608 119.17111,32.723998 C 120.32329,32.356166 119.53099,34.847542 121.36149,34.363301 C 122.16348,34.945484 121.42326,36.517213 123.31618,35.730938 C 124.97247,35.54928 123.03596,33.429155 125.24337,34.052512 C 126.46795,33.737756 125.15248,32.655465 126.98056,32.286266 C 126.25961,31.45485 128.43289,30.819593 129.04607,30.199656 C 130.05782,29.895159 131.24894,26.947996 131.79735,28.833797 C 132.31763,28.633125 133.1637,26.935822 133.92131,26.226423 C 135.94607,26.201801 138.11991,26.227654 139.97838,25.66558 C 140.3232,26.255696 140.51697,27.979948 141.66916,27.279714 C 142.8869,27.449472 144.06934,28.607134 144.23035,26.665659 C 144.71421,25.784588 145.92393,26.284559 146.22258,24.718028 C 146.677,23.271463 147.87333,23.926145 148.71706,25.138934 C 150.70136,26.632693 152.53059,28.384849 154.49272,29.850018 C 154.59658,31.441034 156.87596,31.322573 156.2166,32.56491 C 156.73059,33.371019 157.74641,33.682219 158.54779,34.433886 C 159.56638,34.685855 160.35335,34.4239 161.12355,35.199915 C 162.39296,35.203062 163.80609,35.544218 164.6911,36.526925 C 166.31994,35.862805 166.89299,36.279197 167.57436,37.729045 C 166.91003,38.08306 165.8705,39.344 165.76212,40.534766 C 164.35858,41.215575 163.43739,39.74001 162.15293,40.588114 C 160.60968,40.764438 159.0963,40.514521 157.79406,39.650959 C 156.6076,39.310623 155.88511,37.807153 154.82463,39.176978 C 154.03588,39.884461 152.62478,41.099576 152.78976,41.935643 C 153.69153,42.234805 156.35424,42.509755 154.69853,43.694639 C 154.57516,44.837802 153.53024,46.020087 154.20119,47.119203 C 153.75905,48.120513 152.20982,47.007992 151.53365,48.51666 C 150.63469,49.45108 148.39937,48.522816 149.26664,47.231919 C 149.53553,45.890956 147.82842,46.70965 147.2906,46.259061 C 146.45166,46.886932 146.99095,48.647979 145.47999,48.038849 C 144.60501,48.556329 143.48551,49.558871 143.78146,50.613803 C 144.30535,52.081571 144.48767,53.647418 145.07515,55.091658 C 144.78048,57.015761 146.26136,55.998993 147.34957,56.96296 C 148.39372,57.568397 149.51544,57.674957 150.55372,58.372318 C 152.44011,58.71279 151.38493,59.862793 151.02294,61.08078 C 152.13808,61.618369 151.76542,62.744296 152.20054,63.565316 C 153.04355,64.215484 154.90049,63.982939 155.31166,64.732691 C 155.09092,66.144374 153.35667,66.528894 153.11856,67.920332 C 154.13152,67.895983 155.66373,67.865753 156.943,67.76357 C 158.73401,68.191042 157.864,69.070198 156.89266,69.725974 C 156.14299,70.693771 153.89331,67.575756 154.63149,69.876581 C 152.73503,70.471348 153.04287,68.486237 151.96296,68.668032 C 150.24979,68.215801 150.42275,69.203432 149.65503,70.218558 C 149.32814,71.068441 147.85411,70.74794 146.96561,70.381613 C 146.27052,69.280172 144.98968,68.592387 144.36991,67.597369 C 144.58088,66.448734 144.68673,65.541536 143.40501,65.430872 C 142.04833,64.355968 142.15315,65.932348 140.61767,65.367401 C 139.58916,65.390655 139.20484,66.997403 137.81515,65.973385 C 136.6298,65.177809 134.95489,65.209681 134.09756,64.062278 C 133.07049,63.847379 132.09513,61.537936 131.67657,63.351511 C 131.483,64.723252 131.05114,66.432866 129.4243,65.282317 C 129.2618,66.361325 127.60403,66.029196 126.41834,66.347235 C 125.75263,65.402693 123.4886,66.039729 124.07203,64.476481 C 123.58032,63.768587 122.28735,65.535654 121.54174,64.322728 C 121.00669,64.279228 120.98295,63.064934 119.70461,63.187362 C 119.25336,62.439526 117.45698,62.849488 116.78962,62.476049 C 115.67893,62.281395 115.75611,63.21814 114.66271,61.559002 C 113.27873,60.491758 113.18929,63.453147 112.04718,62.779451 C 111.39759,62.07019 110.31234,62.31655 109.67104,61.874168 C 108.43877,60.774505 107.44619,61.214972 107.08425,62.818026 C 106.39106,65.39941 105.15322,67.825673 104.47749,70.399396 C 104.04332,72.435804 106.13289,71.030824 107.1688,70.81784 C 108.05926,71.219595 109.2592,71.183756 110.11828,71.523135 C 111.07536,70.057282 111.81618,71.614374 113.18299,71.771 C 114.75525,71.838164 115.06422,73.008001 115.70325,74.214635 C 116.96379,73.199372 116.7791,75.055216 117.41746,75.43016 C 117.25512,76.65061 118.48193,76.034366 117.93594,77.632496 C 118.2789,79.111618 116.37957,79.477534 116.10699,80.245205 C 115.08891,80.841067 114.235,79.499694 113.04974,80.094735 C 112.34686,80.181734 113.46159,82.278193 112.08267,82.76216 C 111.38353,83.719013 110.6022,84.734687 112.5947,83.952105 C 112.20991,84.607608 112.43296,86.168394 111.12299,86.656464 C 109.40746,86.585606 110.6502,87.074361 110.32742,88.381673 C 109.73443,88.798753 110.01112,90.136843 108.96979,90.734893 C 107.99878,91.247173 106.37476,91.448113 105.53441,90.531893 C 104.21715,90.573203 103.23029,90.190873 101.93774,89.839593 C 100.75236,89.492963 100.4262,88.532413 99.78926,87.782391 C 98.97773,86.918009 98.54686,85.862119 97.56,85.209078 C 98.45601,84.005864 95.98507,83.952789 96.20928,83.219726 C 96.57721,82.091337 97.66685,80.841477 97.90467,79.978052 C 96.83962,78.992609 95.96216,77.688991 94.51591,77.235665 C 94.87303,75.947094 93.61176,74.532127 94.10496,73.397856 C 94.01386,72.922917 92.9543,72.020644 91.83201,71.450088 C 90.05213,70.835349 88.59164,73.178306 86.84471,72.065101 C 85.67548,71.760604 84.7287,73.47569 83.61555,73.917388 C 82.01533,74.947698 82.20938,72.390253 83.6614,72.317891 C 85.80065,71.712317 83.43451,70.793354 82.9131,69.955236 C 82.26524,68.550118 82.58592,66.752957 81.40721,65.51281 C 80.98999,63.90018 80.05622,61.950908 81.44426,60.551536 C 81.99415,58.828516 83.39363,60.319538 84.47328,59.941311 C 85.59828,58.954227 87.08097,58.69706 88.35476,57.94936 C 90.09243,58.05592 89.88019,56.291042 88.76191,55.609959 C 88.40832,54.464745 88.87898,53.136914 89.10214,51.982945 C 89.98173,51.26958 91.85105,51.940129 91.58034,49.931626 C 92.0806,48.041585 94.75736,47.848299 95.14467,45.820372 C 95.55776,44.31143 96.23603,42.765828 97.82079,42.189801 C 98.99937,41.122694 98.30406,39.392287 98.36932,38.127244 C 99.13842,38.678512 100.88674,38.656625 100.68209,37.220866 C 101.04665,35.029063 98.47722,34.158252 97.15623,32.936708 C 96.87407,32.819888 96.82401,32.502123 96.67172,32.27245" />
      <path
         id="Stroud"
         onclick="javascript:respond(this.id);return true;"
         onmouseover="javascript:popup(this.id);return true;"
         onmouseout="javascript:popdown(this.id);return true;"
         style="fill:#c8c8ff;fill-opacity:0.33;fill-rule:evenodd;stroke:#7ffaff;stroke-width:1;stroke-opacity:1;display:inline"
         d="M 96.11367,83.418757 C 96.65842,83.947044 98.19118,84.182872 97.59241,85.42001 C 98.88538,85.76869 98.87299,87.101719 99.79335,87.79607 C 100.45028,88.579883 100.84059,89.624693 102.12793,89.891433 C 103.29313,90.206873 104.15591,90.607263 105.34839,90.504533 C 106.15793,91.128983 106.01311,92.040973 107.25278,92.576913 C 107.39917,94.212803 109.75384,93.755513 108.94335,95.376623 C 108.33406,96.539483 109.78694,97.274593 110.52057,97.493733 C 110.93466,98.230903 112.36266,97.876063 112.70091,98.985573 C 113.8428,99.189673 115.17353,99.841073 115.55437,100.85961 C 115.48294,101.95804 115.56899,102.65458 115.79022,103.42868 C 116.34557,104.13302 116.79608,105.08317 116.91135,105.81145 C 118.26421,106.65613 115.29527,106.66393 114.7119,107.15638 C 113.77247,107.61545 111.82692,106.3623 111.73972,107.33421 C 112.14041,108.59816 110.8913,109.62765 111.32616,110.77697 C 110.97767,111.78101 110.91905,113.13046 111.58988,114.00455 C 112.39466,115.66451 112.71155,113.39487 113.7857,113.0477 C 114.32847,113.19858 116.34502,113.39351 116.07825,114.71792 C 115.79948,115.86614 119.21403,114.45377 117.72301,115.7526 C 117.37744,116.95281 116.35461,116.29991 115.46804,116.23001 C 114.81401,117.18276 116.16632,117.68177 115.37111,118.35519 C 114.43051,118.06889 113.24212,118.61167 112.4395,119.16855 C 111.39461,119.52489 110.31552,119.01124 109.24015,119.43584 C 108.20077,119.59807 106.55899,119.31546 105.98655,120.17985 C 106.19443,121.29798 106.1532,122.10819 106.29482,123.153 C 105.48697,124.79217 107.32324,123.79387 107.92416,125.04427 C 107.22813,125.81359 107.10678,128.24819 105.9789,127.40474 C 104.50736,126.4011 104.22739,128.40181 103.30755,129.15443 C 103.08623,130.34205 102.47057,129.9708 101.52563,130.86213 C 100.66615,130.56229 100.27166,129.48725 99.18089,129.80843 C 98.27548,128.87921 97.9534,131.63035 96.9221,130.25601 C 95.76365,130.32318 95.638,129.36673 94.41296,129.25429 C 93.4994,128.76704 93.249,130.32742 92.47821,131.06951 C 90.85779,132.63659 92.38089,131.80996 93.20716,132.98622 C 93.17289,134.04102 93.81989,134.99172 94.85913,135.24888 C 96.07539,134.88297 96.14672,136.45798 95.78712,137.34302 C 95.35244,138.78261 94.84068,139.03266 93.67056,138.98328 C 92.37392,138.74554 91.05634,138.53009 89.79239,138.93472 C 88.43163,138.97972 87.63532,138.51641 87.00475,137.91631 C 86.79801,136.8637 86.30836,136.71323 85.78066,135.65529 C 85.68859,134.57587 85.09946,134.22665 84.07812,133.85348 C 82.95221,133.63899 81.28728,133.81313 80.93941,132.41731 C 79.99308,131.358 79.40917,133.48305 78.73568,132.26684 C 77.63883,132.81701 77.41776,132.5381 77.62723,133.49495 C 76.93108,135.01059 78.99808,134.38601 78.06563,135.23288 C 77.7014,136.26538 76.74225,135.96348 77.75323,136.69367 C 76.43887,136.78601 76.10558,136.06854 75.39664,135.48143 C 74.24596,135.02468 73.24837,135.8535 72.7308,135.54859 C 72.37321,136.19534 71.02683,135.77074 70.72934,136.64415 C 69.42509,135.39279 70.08239,137.37722 69.84843,137.68377 C 68.78131,136.79421 70.56088,139.30994 69.45986,139.16111 C 68.98348,139.16494 67.42291,139.19736 67.47504,139.84506 C 66.26783,139.89089 66.56688,140.19785 65.6339,139.9084 C 65.59121,140.77634 63.92909,141.33759 63.47247,141.87477 C 63.15904,143.13557 61.54864,142.63615 61.14304,143.9213 C 59.99524,144.2879 59.63535,145.49617 58.79118,145.85416 C 58.77219,145.54692 59.2934,144.32073 58.03032,144.68282 C 56.58025,145.93062 57.39573,143.98833 56.98597,143.48288 C 56.12729,142.38541 55.78971,144.56312 54.99562,144.35917 C 53.84223,143.47386 53.474,143.74511 52.44607,143.14788 C 51.83246,142.35395 50.23806,143.18906 50.35429,141.96532 C 49.17932,142.23289 48.59513,140.37103 47.97643,141.56398 C 47.25503,142.33767 46.02719,140.53353 45.26697,141.11106 C 44.30836,140.62464 43.69643,142.31606 42.74669,142.59648 C 41.58714,142.50797 40.6147,143.07128 39.541,143.21012 C 40.60873,142.16463 40.1436,142.28022 39.09166,141.32186 C 39.38719,140.21522 39.03925,139.00298 39.28243,137.77952 C 40.26685,137.28652 37.97704,137.05836 37.5753,137.30075 C 36.66098,136.74852 35.78764,136.48411 34.78149,135.58088 C 33.62928,134.83441 32.32097,134.30653 31.28153,133.40221 C 32.20837,132.59815 33.31078,131.88369 34.53165,131.82911 C 36.64755,130.61181 38.40731,128.70795 39.66273,126.59001 C 39.54747,126.96591 41.12654,127.66929 40.68123,127.16412 C 40.3322,126.43913 39.45896,127.40542 40.06017,125.76817 C 40.8598,124.40737 40.70388,122.78243 41.02946,121.30413 C 41.22206,120.83384 40.64848,118.84668 41.67246,118.9832 C 43.70705,119.40397 44.50183,116.92518 45.78019,115.83796 C 46.65989,114.63899 47.81984,114.58564 48.96275,115.39558 C 50.21888,116.09855 50.80068,115.57355 51.81073,114.86702 C 52.98983,114.14764 54.19096,113.1994 54.80685,112.03545 C 56.23995,112.07142 57.36945,110.9009 58.27374,109.95376 C 59.19855,109.29114 60.01897,109.41138 60.08655,108.62511 C 60.92116,107.10084 59.86764,105.47973 59.59586,104.04684 C 58.2929,103.80062 57.0646,102.23737 55.54967,102.00866 C 54.57143,101.06124 53.77016,100.79942 52.43013,100.8287 C 51.19469,100.77849 50.32083,100.82993 49.0479,100.24405 C 47.43551,99.633423 47.69404,97.749533 48.50655,96.592553 C 49.35934,95.019183 50.14024,93.162793 51.75644,92.255463 C 53.25386,92.391153 53.03826,94.547533 54.31916,95.158573 C 55.41412,95.869883 56.42859,96.696103 57.78967,96.764223 C 59.55681,97.320963 60.75935,99.500053 62.85881,99.178043 C 64.35036,98.992963 66.2327,98.415983 66.69891,96.837273 C 67.25025,95.051873 65.31477,94.324973 64.18251,93.445543 C 64.4697,91.875313 63.28425,90.284433 64.12507,88.822003 C 64.95728,88.490833 67.11278,88.236123 65.66335,87.17285 C 64.22542,86.405179 65.09883,84.418152 65.57009,83.263636 C 66.46165,82.675298 67.80249,82.378598 68.84393,81.870556 C 70.08882,81.685341 70.97887,83.072812 72.3262,82.68542 C 73.50505,82.516073 74.78305,83.177594 74.48016,84.540444 C 74.19065,85.619725 75.83523,87.151237 74.98353,87.34466 C 75.20234,88.048173 74.72133,89.605403 76.06561,89.730573 C 77.21681,90.141903 77.45757,91.317483 78.54611,91.972433 C 78.28204,93.059513 80.29265,92.805773 80.72585,93.808853 C 81.31106,94.258353 82.62102,94.980613 82.5351,93.138853 C 82.95708,91.853563 82.95973,90.580453 83.99259,90.066663 C 84.50042,89.373133 85.57944,88.662913 86.5431,89.269033 C 87.59723,89.418273 89.19363,87.909744 89.21959,89.133883 C 89.12772,89.491733 88.75918,91.288073 89.94951,90.131503 C 91.48566,89.038403 92.5739,87.522351 93.57506,85.978528 C 94.30597,85.197998 95.46863,84.461242 96.10815,83.432436" />
      <path
         id="Gloucester"
         onclick="javascript:respond(this.id);return true;"
         onmouseover="javascript:popup(this.id);return true;"
         onmouseout="javascript:popdown(this.id);return true;"
         style="fill:#c8c8ff;fill-opacity:0.33;fill-rule:evenodd;stroke:#7ffaff;stroke-width:1;stroke-opacity:1;display:inline"
         d="M 82.64796,74.21272 C 83.04347,74.195758 83.32931,73.953638 83.74754,73.89427 C 84.49368,73.566109 84.92341,72.770942 85.62193,72.388064 C 86.01218,72.230344 86.40243,72.072487 86.79268,71.914631 C 86.96165,72.236637 87.48838,72.305032 87.83952,72.351678 C 88.50966,72.508851 89.05619,72.026115 89.65324,71.804924 C 90.45632,71.345033 91.47902,71.176916 92.31301,71.65719 C 92.93485,71.890282 93.32502,72.49011 93.63633,73.049996 C 93.96103,72.525266 94.24257,72.966143 94.17688,73.349842 C 93.70996,73.550241 94.07169,74.080306 94.06507,74.454293 C 94.22142,75.38543 94.73561,76.282232 94.51866,77.249481 C 95.46052,77.555209 96.20744,78.218509 96.86085,78.93885 C 97.26199,79.342384 97.66311,79.745918 98.06425,80.149314 C 97.59636,80.653389 97.16709,81.183318 96.91302,81.829792 C 96.39681,82.872277 95.91388,83.986166 94.96749,84.716904 C 94.5827,85.022358 94.24195,85.442991 93.82942,85.675809 C 93.69208,85.88893 93.31137,86.151842 93.16675,86.488074 C 92.59106,87.425914 92.03218,88.400683 91.13785,89.076573 C 90.58089,89.566283 90.02393,90.055993 89.46698,90.545573 C 89.07738,90.549403 89.03101,90.352013 89.15331,90.045463 C 88.70149,89.972003 89.20706,89.383253 89.45737,89.273413 C 89.1846,89.031433 89.42,89.040463 88.9465,88.684803 C 88.70052,88.136273 88.36931,88.783013 88.07168,88.958793 C 87.48517,89.096683 86.79839,89.496653 86.23536,89.124313 C 85.91967,88.961803 85.50222,89.091343 85.18997,89.104883 C 84.84404,89.335383 84.47522,89.345363 84.32277,89.806903 C 84.1051,90.115223 83.75481,90.210293 83.53744,90.606993 C 83.15596,90.177873 83.21007,91.000123 83.06501,91.255653 C 82.75409,92.364073 82.44317,93.472493 82.13224,94.580903 C 81.7598,94.353693 81.40868,94.083533 81.02281,93.883273 C 80.80182,94.239753 80.59812,93.631713 80.40119,93.476453 C 80.31233,93.168813 79.72282,93.147063 79.43474,92.953233 C 79.46622,92.739833 78.73672,92.662413 78.46993,92.502363 C 78.73531,92.196503 78.59097,91.879963 78.20906,91.629093 C 77.92552,91.287663 77.56283,91.048823 77.17214,90.846513 C 77.29898,90.294013 76.69419,90.014823 76.32389,89.767913 C 75.94511,89.736583 75.57928,89.541933 75.32486,89.375593 C 75.0179,88.944153 74.9636,88.415593 75.04239,87.905503 C 75.47644,87.769943 74.63638,87.142072 75.38792,87.173945 C 75.74128,87.202944 76.1306,87.430291 76.44254,87.113346 C 76.9769,86.924027 77.18646,86.339519 77.11647,85.811643 C 77.03257,85.376374 77.27701,85.020443 77.64532,84.81471 C 78.01742,84.462062 78.48763,84.256465 78.92862,84.006958 C 79.05287,83.822838 79.36219,83.366913 79.1497,82.994705 C 79.02268,82.112539 78.46512,81.367439 78.14025,80.548197 C 77.97227,80.050278 77.53446,79.586009 77.58232,79.052113 C 77.92094,78.573482 78.62857,78.658702 79.1492,78.49811 C 79.6247,78.42479 80.05322,78.189646 80.2885,77.758344 C 80.57501,77.400909 80.48493,76.804363 80.96519,76.596304 C 81.23842,76.224779 81.92266,76.389476 81.97438,76.855933 C 82.08684,77.391333 82.56301,77.745759 82.60856,78.297164 C 82.93336,78.114958 82.35557,77.667788 82.26636,77.366027 C 82.09405,76.953602 82.01719,76.354457 81.46373,76.319028 C 80.9212,76.490291 80.91554,76.1702 80.90812,75.670502 C 80.91618,75.235643 81.40119,74.912269 81.31539,74.436921 C 81.48778,74.159235 81.96702,74.163475 82.35964,74.199998 C 82.45664,74.204239 82.55364,74.20848 82.65064,74.21272" />
      <path
         id="Forest_of_Dean"
         onclick="javascript:respond(this.id);return true;"
         onmouseover="javascript:popup(this.id);return true;"
         onmouseout="javascript:popdown(this.id);return true;"
         style="fill:#c8c8ff;fill-opacity:0.33;fill-rule:evenodd;stroke:#7ffaff;stroke-width:1;stroke-opacity:1;display:inline"
         d="M 65.16736,95.784663 C 62.01156,94.506763 66.74832,95.425043 65.3946,95.770033 L 65.16736,95.784663 z M 40.70235,33.257483 C 42.13708,32.710592 42.35079,30.556544 42.9583,29.694486 C 44.12116,29.296972 46.03544,29.645105 45.21778,31.260333 C 44.76916,32.99758 46.69176,31.995312 48.17597,32.005981 C 49.05829,32.387492 50.86009,32.05208 50.58414,33.353236 C 50.61657,34.25551 50.58742,35.603723 50.17512,36.34896 C 49.82313,38.186885 51.16079,37.667079 52.71256,38.455542 C 54.11998,38.615041 56.25883,38.290983 57.09688,37.623305 C 57.504,36.232141 58.06945,34.881329 58.06248,33.257483 C 59.39117,33.195927 61.06347,32.395973 62.52273,31.697107 C 63.73691,31.734862 65.53806,30.568034 66.03653,30.733414 C 66.21872,32.150159 65.42371,33.140116 67.18671,33.9993 C 67.74351,35.266943 69.84538,33.916132 70.74991,35.448602 C 70.70249,37.021698 71.1584,37.582815 71.62119,39.221572 C 70.93551,40.711226 71.70474,42.965269 70.45023,43.927184 C 71.3978,44.349321 74.37799,43.461684 73.75237,45.21302 C 74.11852,45.745957 75.61976,47.642839 76.7208,45.951554 C 78.70043,45.111247 80.67302,46.45221 82.47066,46.643854 C 84.33889,47.03193 84.63816,46.75315 85.60452,45.237095 C 86.21135,43.918019 87.10803,42.385138 87.82138,40.904102 C 89.07919,40.421503 89.17456,38.042023 90.82937,38.701766 C 91.32794,37.259715 93.39824,38.504787 93.8853,38.222997 C 95.00785,38.338859 95.92901,40.513563 97.35567,39.385721 C 97.42549,37.486241 98.18274,36.582326 98.26263,38.359788 C 98.86083,40.023715 98.65192,42.323446 96.67313,42.901251 C 95.06207,44.504716 95.31905,47.449416 92.86201,48.353879 C 91.02224,48.771502 92.12476,52.385384 89.87866,51.519086 C 88.35848,51.960511 88.85039,54.277751 88.70459,55.459079 C 90.62036,56.929446 89.16103,58.093127 87.32881,58.468618 C 85.73477,58.703352 84.53136,60.794477 82.87165,59.718752 C 81.31751,59.624092 80.20301,62.1405 80.91719,63.565863 C 81.15174,65.655483 82.77878,67.2874 82.66571,69.429685 C 83.68156,70.949023 85.78121,71.970988 82.81699,72.796112 C 82.86565,74.161971 81.13211,75.127031 81.44309,73.247522 C 81.21508,72.120775 81.48099,68.422766 81.24173,71.476899 C 81.2652,73.12701 81.22001,74.703253 80.76307,76.260892 C 80.74898,78.467332 77.96366,77.90471 77.36158,79.299705 C 77.52441,80.774039 79.75205,82.661208 78.51743,83.930082 C 76.36405,84.107226 77.58041,87.617558 75.49515,86.906929 C 74.19724,85.625333 75.519,82.291599 72.83455,82.502257 C 70.97394,83.110567 69.51113,80.696889 67.78925,82.106931 C 66.24014,82.620445 64.66718,82.950248 64.74198,84.991854 C 63.61704,86.626644 67.46764,88.121083 64.58469,88.302193 C 62.57424,89.213223 64.0854,91.800623 63.64358,93.473033 C 62.96883,96.040463 66.04392,95.403433 66.31482,96.496933 C 65.44487,98.629643 62.19828,99.232353 60.69825,97.341073 C 59.02553,95.738703 55.8742,96.332243 55.20808,93.702573 C 54.67743,91.831813 52.62261,90.002643 50.78656,91.527043 C 49.00643,92.519053 48.13645,94.368193 47.77718,96.140323 C 46.07068,97.234923 47.18625,99.159303 47.28884,100.64075 C 47.45797,101.22402 48.99401,102.64378 50.16966,102.31876 C 51.95354,101.94491 54.41849,102.34817 55.66863,103.70487 C 56.34433,106.26327 52.99134,106.61824 51.49919,107.68658 C 50.50316,109.18691 48.70297,108.78844 49.05751,108.47888 C 50.16519,109.16913 47.72711,110.32638 46.99288,111.26408 C 45.5406,112.66892 43.11212,112.73923 42.21254,114.75759 C 42.45651,116.38307 40.04798,116.80248 39.02528,118.02689 C 37.78387,119.64964 37.86589,122.28 36.55753,123.59867 C 34.67459,123.79852 33.4911,125.31006 31.93082,126.10208 C 30.27976,126.64186 28.94326,126.80956 28.38238,128.16844 C 26.88261,129.27467 27.31327,128.06612 25.3791,129.85603 C 23.55345,130.86282 25.98756,127.34797 24.97547,129.16168 C 24.24516,130.47036 23.30257,131.47673 21.62479,132.02103 C 20.20787,132.35138 18.89235,133.74801 17.41365,134.7154 C 17.49916,135.05943 16.08557,136.67821 15.21274,137.33933 C 13.18335,138.24885 15.57679,140.31645 13.78802,141.32542 C 13.13732,142.82861 11.82693,143.99038 11.45366,145.67236 C 9.68403,146.72032 9.17891,148.73662 9.74103,150.77467 C 11.23335,151.86202 8.7795,155.0513 8.18508,152.55391 C 7.16245,151.03717 9.91124,149.73683 7.99211,148.45031 C 6.64324,147.17487 6.01325,145.97111 6.89442,144.27709 C 7.32207,141.5016 4.52402,143.33023 4.27622,141.96532 C 5.10482,140.30619 7.55186,138.71914 6.73712,136.69887 C 5.50708,136.71173 4.60425,139.49119 3.19419,137.65641 C 3.07999,136.43924 3.92523,134.95738 5.5263,135.67608 C 6.80701,136.09425 9.80305,134.64509 8.06396,133.23806 C 6.30034,133.02412 4.93946,131.55074 6.36981,129.9708 C 6.94484,128.15039 5.54091,126.69452 3.78924,126.28907 C 3.31822,124.03872 5.93497,127.8753 6.38383,125.61004 C 7.27523,123.33904 3.82033,122.80254 4.20992,120.57736 C 5.16818,118.9557 2.13644,117.82513 3.60325,116.68114 C 5.43725,116.42439 6.25084,115.13308 6.35682,113.55383 C 6.69886,112.10343 8.80016,109.87182 6.537,109.00197 C 5.33772,108.13088 4.06993,106.13742 4.69444,104.68566 C 5.51108,103.31624 5.70973,101.52387 5.37696,100.08647 C 5.97557,98.967383 6.92261,97.788793 5.17493,96.783243 C 4.35834,95.084023 5.82687,93.620083 7.3368,93.359093 C 9.47557,93.521183 7.97775,90.866343 8.31698,89.870503 C 9.17914,89.257953 10.89286,88.991483 11.09158,87.101582 C 11.51674,85.889614 13.13767,83.929808 13.09566,83.843083 C 14.37333,86.219417 15.26117,83.35939 16.64555,82.86147 C 18.78904,82.884588 17.93047,79.00834 20.29725,79.629508 C 21.42438,80.11197 22.1911,82.863249 23.51047,80.970197 C 23.19905,79.402709 21.47446,78.000738 23.94545,77.824003 C 25.48811,77.827423 26.74833,77.033351 28.18594,77.618817 C 29.36009,78.101826 31.81036,79.477534 32.38893,77.737825 C 34.8665,77.907172 34.37101,74.738408 35.49297,73.161207 C 35.93014,72.133496 36.88907,70.009542 37.97929,71.055583 C 38.22433,72.76082 39.27027,71.175138 39.96506,72.545648 C 40.6596,71.742958 41.26581,70.421556 42.93917,71.054899 C 43.32695,69.806954 44.63583,68.340007 46.37229,68.67282 C 47.63818,68.717961 49.97873,67.610911 49.29379,67.080846 C 47.20346,67.065525 50.39182,65.900886 48.69616,64.99656 C 49.15109,64.170479 48.72872,62.760164 47.95808,61.699349 C 47.1358,60.861367 45.56756,59.831331 44.60638,58.290243 C 44.30119,56.627685 44.45855,55.367702 45.00303,54.692639 C 44.643,53.931533 45.11571,52.718881 44.65476,51.575034 C 44.15488,50.896961 43.34751,49.256563 42.21521,49.94599 C 40.93499,49.248629 39.26233,50.609152 39.00198,48.550721 C 36.78574,47.724913 40.66264,47.723956 39.7356,46.327183 C 39.18876,45.100988 38.41395,42.584853 40.03343,42.080505 C 39.80519,40.244085 41.8118,40.468969 42.34796,39.071102 C 44.27346,38.769478 43.44572,37.460114 42.37801,36.554147 C 40.82702,36.903374 40.05986,34.879551 40.05569,33.732421 C 40.05462,33.477443 40.46934,33.202082 40.73242,33.230124" />
      <path
         id="Cotswold"
         onclick="javascript:respond(this.id);return true;"
         onmouseover="javascript:popup(this.id);return true;"
         onmouseout="javascript:popdown(this.id);return true;"
         style="fill:#c8c8ff;fill-opacity:0.33;fill-rule:evenodd;stroke:#7ffaff;stroke-width:1;stroke-opacity:1;display:inline"
         d="M 173.88484,3.149775 C 174.47277,4.853507 176.38448,5.775616 176.45364,7.519701 C 177.45896,9.639552 180.08783,10.014223 180.78543,7.533107 C 181.49095,6.299936 180.41383,9.859922 181.21958,10.385884 C 181.14707,12.248431 180.45429,14.411097 181.4152,15.679697 C 183.72136,17.407231 184.10828,16.385676 184.94986,15.13267 C 187.79322,14.810937 183.9538,19.031488 186.2849,20.330045 C 189.19205,20.050855 188.41703,21.997939 187.42301,23.996729 C 187.27451,25.279008 188.90045,25.636854 189.64454,25.66558 C 190.8557,25.857361 191.03819,25.908931 192.47745,25.980199 C 192.8628,28.237935 194.50418,27.302832 195.29669,26.226423 C 195.69644,26.474425 196.73934,26.717913 196.88076,26.089632 C 197.74187,25.451228 198.32048,25.862422 199.39056,25.762702 C 200.59827,24.181534 200.40774,26.635702 201.39075,26.308498 C 202.7393,28.432042 199.78166,28.457211 198.91009,29.664119 C 196.40232,30.945988 198.17598,34.125969 195.64242,35.00745 C 194.62436,36.521317 192.92456,37.223192 192.09857,38.906953 C 193.6545,40.906154 192.42207,42.858435 192.64092,45.052153 C 192.18286,47.808493 196.27171,47.700838 194.83982,49.576654 C 196.55056,49.333986 199.21198,49.408674 200.23676,51.557662 C 201.60779,54.108814 203.11764,55.571795 199.89978,56.853937 C 199.38458,58.236347 195.91779,59.846515 197.43062,60.451541 C 197.15352,61.301151 196.63719,61.395947 197.01893,62.325579 C 196.54533,63.056043 197.73083,62.680004 198.23498,63.146325 C 198.80728,62.628434 198.76385,63.950793 198.51541,64.678385 C 198.50004,65.715397 199.74631,67.370432 197.86702,67.674108 C 197.10563,69.035726 195.87287,67.85522 194.51839,67.674108 C 193.20038,68.542595 194.0394,70.493645 192.85496,71.743231 C 192.23554,73.136722 193.05127,73.971284 191.219,75.047145 C 189.62669,76.365948 188.1577,77.741108 190.30386,79.219272 C 190.79126,81.356632 191.10644,82.983488 189.70128,85.131654 C 188.72759,87.361212 189.82683,90.092383 190.36264,91.940703 C 191.88723,91.934543 189.94827,96.083833 189.2164,97.357763 C 187.5209,99.269833 185.04542,100.19645 183.16742,101.89922 C 185.03281,103.40529 187.20108,105.31366 186.98707,107.9008 C 187.9285,109.77675 187.41267,111.50907 188.39285,112.84251 C 189.15583,114.39577 189.10045,116.04917 189.55563,117.64388 C 188.5547,119.21314 186.76287,120.03676 188.82623,121.44174 C 189.0133,122.33649 189.20424,122.5265 189.11512,123.21127 C 190.80112,124.46825 192.07946,126.79027 193.91375,127.86217 C 195.51204,127.93371 196.11974,130.9665 196.24549,131.85524 C 194.51813,132.6716 193.43197,132.84465 192.011,131.99326 C 191.03566,132.24441 192.19018,129.60201 190.06449,129.79092 C 188.60058,128.2579 187.06555,129.56672 186.70349,130.73478 C 185.72924,131.07402 184.9627,132.77652 184.94986,134.07248 C 185.06066,136.07469 182.66724,135.63901 181.74891,136.69887 C 179.98014,135.87498 178.76073,137.79375 177.30187,138.02574 C 175.442,138.40794 174.24114,137.77049 173.22552,136.37057 C 171.60786,136.0171 169.3817,137.36025 169.18885,134.62731 C 169.08632,133.1341 167.87921,131.38098 167.1191,129.73607 C 166.623,128.14109 166.12254,124.28754 164.75265,127.19189 C 163.9612,129.29136 166.98722,130.7724 165.28206,132.78665 C 163.90715,133.655 163.78935,135.23685 165.01939,136.06963 C 166.42384,138.4353 163.30452,138.50109 161.71931,139.68816 C 159.51836,141.04773 158.76207,139.07014 157.59441,138.25829 C 156.8155,136.44704 156.20608,135.00964 154.93299,133.50015 C 154.50686,130.20882 151.74513,134.6377 150.26301,133.50931 C 148.72983,132.82714 151.54881,137.10746 151.6563,137.45122 C 151.60012,138.96016 153.14355,139.89431 153.98444,141.15826 C 152.81458,142.36434 150.89335,142.04165 149.31068,140.3449 C 148.01282,140.19812 145.28341,140.31166 144.87278,138.61408 C 142.88092,138.35336 142.27222,134.27261 140.41346,136.71255 C 139.43418,137.02416 138.70182,139.08587 138.02094,139.91346 C 138.76651,141.0755 140.22303,145.20385 139.9196,145.7134 C 138.47217,144.77871 135.71548,145.65171 135.27085,145.0765 C 135.42335,143.65305 132.7596,143.49205 132.16492,142.04726 C 130.9411,141.56275 128.64155,142.90221 127.27871,141.21297 C 126.64645,139.88145 124.01771,139.51417 122.80318,137.75681 C 121.61909,136.03926 119.88602,134.16331 118.75491,137.27449 C 113.10374,144.69786 107.34712,151.80375 102.50454,159.80288 C 101.21124,158.12842 98.10034,158.93808 97.48015,156.87555 C 96.93568,158.62401 95.69829,159.28293 93.86054,158.08191 C 91.78426,157.85743 92.42562,154.29758 89.67551,157.72994 C 87.74649,158.69186 85.37705,158.60637 85.42952,161.29417 C 85.18547,163.4355 83.05572,161.07517 81.20984,162.05801 C 80.4681,163.21827 78.62901,163.8839 78.30345,162.62077 C 77.27368,161.79154 78.38682,161.17681 76.63873,160.74673 C 75.94585,160.49518 77.52251,157.32135 75.55393,158.91373 C 74.03978,159.71492 73.48454,158.43127 71.92269,159.81177 C 71.68135,158.29366 69.58913,159.00566 69.14669,159.03685 C 68.87882,156.90537 67.10164,159.36679 65.72948,157.58139 C 64.66182,157.66757 63.36336,155.0472 62.5252,156.26915 C 61.9918,157.93746 60.00788,157.69041 58.52484,157.65526 C 56.32604,157.86797 57.42737,155.6142 57.35256,154.65953 C 57.56915,153.48696 58.2223,152.82229 58.06799,151.63645 C 58.5725,150.92144 58.26557,149.70346 58.40997,148.91431 C 58.22367,147.83421 57.0317,146.75438 56.25682,146.31514 C 56.96102,145.49549 58.92322,146.15674 59.4033,145.50069 C 60.22656,144.20199 61.84458,143.29233 63.069,142.46762 C 63.96692,141.60297 65.88378,139.3864 66.40811,140.2144 C 66.98076,139.64412 68.49364,139.22567 69.71568,138.91488 C 69.84348,138.05748 69.26442,136.30546 70.68942,136.52651 C 71.46845,136.07921 72.90704,135.53314 73.56636,135.52247 C 75.24937,134.48108 77.23906,137.50471 77.64346,136.4692 C 76.52017,136.02039 79.60096,134.86464 77.68102,134.4555 C 76.99772,132.54412 78.27279,132.09161 79.52633,132.64985 C 80.80686,131.96987 83.70891,134.09013 85.00348,134.55125 C 86.29379,135.0861 86.23014,137.295 87.3494,137.97103 C 88.35885,139.81442 91.67591,138.07143 93.69928,138.98328 C 95.31017,139.58995 96.64998,136.60941 95.60075,135.31195 C 93.23324,135.89522 93.95049,132.11952 91.86216,132.32156 C 92.23665,131.66277 93.53282,128.03685 94.93044,129.53102 C 96.17076,129.9377 97.66043,131.2721 98.98349,129.62677 C 100.34007,129.38766 101.46247,131.88547 102.66317,129.91403 C 103.68371,129.91212 104.51418,125.4645 106.80114,127.73906 C 108.27347,125.4883 107.37324,124.40778 106.21837,123.38924 C 106.76755,122.17576 104.91844,119.73623 107.25799,119.44952 C 109.12011,119.50889 110.90851,119.36348 112.6681,119.0665 C 113.94188,117.96766 116.50444,118.6984 115.40802,116.98728 C 115.13104,116.00485 119.45035,116.48485 117.47632,115.07221 C 115.82835,115.63031 115.24541,111.57282 113.15369,113.51279 C 111.98093,116.33643 110.51847,112.33283 111.26567,110.93948 C 111.77563,109.27569 110.97237,105.89038 113.71182,107.11096 C 115.88131,107.07239 117.98833,106.62494 116.80874,104.74448 C 115.27969,103.53429 115.73568,102.11358 115.42714,100.25773 C 113.4585,99.027573 111.60514,98.334183 110.11011,97.097863 C 107.88668,96.426623 109.8387,93.717203 107.38162,92.735873 C 104.07414,90.457473 107.92221,91.752753 109.48859,90.283343 C 110.95343,89.037453 109.53729,86.439514 110.96724,86.770958 C 113.33633,85.300181 112.29417,83.599732 111.37035,83.817776 C 113.21837,83.057082 112.11126,79.659055 113.86648,80.095966 C 115.49363,80.568305 116.78487,80.232347 117.84757,78.496742 C 117.8109,76.15529 121.19326,78.244499 121.8373,79.284111 C 123.77067,79.42227 125.00362,77.128284 126.29795,77.317877 C 126.21655,75.212799 127.577,73.743253 128.12548,71.873593 C 128.294,70.358906 128.78466,67.667132 129.17518,65.656304 C 131.05762,66.693727 131.48067,63.239206 132.42519,62.75182 C 134.22079,64.569362 136.49095,65.557814 138.89501,66.278976 C 140.29658,65.408165 142.00947,64.990405 143.29946,65.327732 C 145.57867,65.627441 143.49461,68.441506 146.1076,69.356775 C 147.31257,71.378136 149.8475,71.130271 150.3493,69.194678 C 151.65973,66.840093 153.29898,71.031781 154.59945,69.433378 C 154.49666,69.32928 159.2978,70.234563 157.58619,67.945228 C 156.17181,67.26907 151.61794,69.002349 153.99128,66.511384 C 157.62146,64.104683 152.52327,64.400152 151.93221,62.959742 C 150.45865,61.634374 152.67977,59.3211 150.75664,58.424025 C 148.91257,57.863729 147.14443,56.329891 145.32263,56.466818 C 145.04384,54.299228 143.9795,52.013586 143.70457,49.727124 C 144.65346,47.720126 146.94444,48.601334 147.12168,46.348385 C 149.50358,45.548431 148.79433,47.764172 149.96694,48.771228 C 151.77146,49.101031 152.72892,47.129872 154.32099,47.278564 C 152.72762,45.628728 156.67917,42.948034 154.37322,42.362021 C 150.82736,42.290205 154.56041,39.255633 155.87394,38.461287 C 157.91448,40.123982 160.96786,41.242112 163.62277,40.274863 C 165.53658,41.953973 168.0525,37.729319 166.96085,36.834842 C 165.7585,36.189735 163.20533,35.642161 161.1537,35.186236 C 161.86443,33.91832 160.99762,30.671038 162.27879,29.21134 C 164.00296,27.705818 162.21513,26.679612 162.01274,24.899687 C 161.47096,23.030848 158.31713,23.469673 157.40013,21.274588 C 155.43582,21.558019 157.38355,18.375165 155.97344,17.075103 C 153.32772,17.576168 154.38334,14.11043 156.73236,14.768669 C 158.91405,16.114419 158.90479,11.372968 161.02103,14.66758 C 162.87853,16.559537 163.83046,10.415978 164.76296,11.932854 C 165.62444,15.291484 166.01504,10.271663 166.76895,9.141222 C 168.03049,6.796487 170.07571,6.739719 170.59498,4.818625 C 171.69338,4.224132 172.79762,3.643043 173.92041,3.136096" />
      <path
         id="Cheltenham"
         onclick="javascript:respond(this.id);return true;"
         onmouseover="javascript:popup(this.id);return true;"
         onmouseout="javascript:popdown(this.id);return true;"
         style="fill:#c8c8ff;fill-opacity:0.33;fill-rule:evenodd;stroke:#7ffaff;stroke-width:1;stroke-opacity:1;display:inline"
         d="M 105.94752,66.155728 C 106.24836,65.601861 106.24408,64.948547 106.59234,64.419713 C 106.98805,63.733979 106.92496,62.877941 107.38001,62.212452 C 107.56003,61.848999 107.74006,61.485408 107.92007,61.121818 C 108.29691,61.217434 108.7328,61.208133 108.9501,61.586907 C 109.31664,61.592242 109.62501,61.890583 109.78969,62.021629 C 110.19448,61.913564 110.40777,62.130378 110.67368,62.3119 C 111.03189,62.07744 111.31731,62.327631 111.60109,62.448691 C 111.75304,62.666462 112.13738,62.788343 112.39068,62.992709 C 112.64853,63.046331 112.8878,62.491917 113.09269,62.26498 C 113.29086,61.947762 113.48903,61.630543 113.68718,61.313325 C 113.9677,61.659817 114.47566,61.312504 114.70851,61.622062 C 114.97019,61.926696 115.16012,62.316961 115.56673,62.448691 C 115.73738,62.789163 116.02058,63.157405 115.97262,62.512298 C 116.01557,61.94229 116.46929,62.381253 116.77914,62.486855 C 116.91627,62.338574 117.62166,62.355399 117.65683,62.655108 C 117.71635,63.056864 118.32413,62.701207 118.62199,62.773706 C 119.00628,62.695598 119.37768,62.786154 119.74835,62.886422 C 119.5302,63.337285 120.19997,63.268479 120.48278,63.319639 C 120.76884,63.310337 120.85293,63.755182 120.98525,63.933968 C 121.18885,64.079924 121.49721,63.96201 121.26392,64.301799 C 121.60325,64.299884 121.43585,64.706016 121.94401,64.621343 C 122.40496,64.663201 122.8659,64.705059 123.32685,64.746917 C 123.31231,64.305766 123.35893,63.951887 123.85806,64.243115 C 124.27752,64.374298 123.94733,64.922967 123.99224,65.246888 C 124.03902,65.479706 124.61018,65.454537 124.84223,65.674907 C 125.18934,65.778048 125.57532,65.705001 125.85832,66.003753 C 126.1818,66.264477 126.46649,66.383622 126.8529,66.226586 C 127.59547,66.135209 128.34499,66.141228 129.09121,66.101011 C 128.97205,66.60577 128.64535,67.09302 128.6703,67.609817 C 128.82971,68.149594 128.74324,68.687046 128.62158,69.224224 C 128.47138,69.959476 128.12377,70.641106 127.8902,71.353787 C 128.146,71.785773 128.20476,71.614785 128.09244,72.133086 C 128.14637,72.564662 127.86262,72.959714 127.59599,73.2519 C 127.36187,73.506468 127.32212,74.048434 126.94312,74.088651 C 126.72039,74.648947 126.67728,75.28352 126.37868,75.826854 C 126.54569,76.194822 126.57796,76.56238 126.38919,76.929117 C 126.13868,77.199416 126.52093,77.857654 125.98537,77.700892 C 125.77758,77.261382 125.407,77.748905 125.04122,77.700892 C 124.73125,77.773938 124.11133,77.484762 124.18367,78.004431 C 124.2122,78.496742 123.84165,78.868129 123.38786,78.993567 C 122.94361,79.133231 122.53492,79.478628 122.06431,79.465359 C 121.75296,79.276314 121.53437,78.985223 121.25652,78.972227 C 120.86293,78.478412 120.50005,77.906899 119.92286,77.624152 C 119.41933,77.458087 118.89282,77.785155 118.41651,77.507879 C 118.13981,77.46137 117.53767,77.491875 117.88705,77.064403 C 118.01787,76.828438 118.27706,76.273067 117.99472,76.155153 C 117.64556,76.462385 117.25494,76.378806 117.26761,75.873363 C 117.32146,75.621257 117.53923,75.092286 117.20613,74.995165 C 116.865,75.502933 116.93995,74.616938 116.82473,74.367978 C 116.77765,73.921355 116.70676,73.533826 116.29182,74.000967 C 115.94736,74.349511 115.66607,74.392463 115.49961,73.879634 C 115.29177,73.564194 115.07505,73.254088 115.05522,72.872578 C 114.84126,72.596397 114.82051,72.041846 114.36879,72.108327 C 113.47185,71.958951 112.63886,71.538045 111.76839,71.276227 C 111.3774,71.298113 111.2617,70.501989 110.99548,70.78159 C 110.65673,71.091969 110.34011,71.430664 109.93361,71.654728 C 109.77584,71.2501 109.37739,71.233958 109.00487,71.175959 C 108.84548,71.333405 108.43225,71.160638 108.07466,71.222331 C 107.74535,71.097167 107.66256,70.454113 107.22571,70.800194 C 106.34531,71.086224 105.47976,71.425739 104.56459,71.586469 C 104.56759,70.940268 104.31906,70.256039 104.66644,69.662093 C 104.988,68.931355 105.20339,68.161905 105.4313,67.402168 C 105.704,67.020794 105.81843,66.58361 105.9558,66.142049" />
    </g>
  </g>
</svg>
