<?xml version="1.0" encoding="UTF-8" standalone="no"?>
<!-- Created with Inkscape (http://www.inkscape.org/) -->
<svg
   xmlns:dc="http://purl.org/dc/elements/1.1/"
   xmlns:cc="http://creativecommons.org/ns#"
   xmlns:rdf="http://www.w3.org/1999/02/22-rdf-syntax-ns#"
   xmlns:svg="http://www.w3.org/2000/svg"
   xmlns="http://www.w3.org/2000/svg"
   xmlns:xlink="http://www.w3.org/1999/xlink"
   xmlns:sodipodi="http://sodipodi.sourceforge.net/DTD/sodipodi-0.dtd"
   xmlns:inkscape="http://www.inkscape.org/namespaces/inkscape"
   width="640px"
   height="480px"
   id="svg12462"
   sodipodi:version="0.32"
   inkscape:version="0.46"
   enable-background="new"
   sodipodi:docname="cornwall.svg"
   inkscape:output_extension="org.inkscape.output.svg.inkscape">
  <defs
     id="defs3904">
    <inkscape:perspective
       sodipodi:type="inkscape:persp3d"
       inkscape:vp_x="0 : 240 : 1"
       inkscape:vp_y="0 : 1000 : 0"
       inkscape:vp_z="640 : 240 : 1"
       inkscape:persp3d-origin="320 : 160 : 1"
       id="perspective3906" />
  </defs>
  <sodipodi:namedview
     id="base"
     pagecolor="#ffffff"
     bordercolor="#666666"
     borderopacity="1.0"
     inkscape:pageopacity="0.0"
     inkscape:pageshadow="2"
     inkscape:zoom="1"
     inkscape:cx="372.83238"
     inkscape:cy="201.76757"
     inkscape:current-layer="layer1"
     inkscape:document-units="px"
     showgrid="false"
     inkscape:window-width="1213"
     inkscape:window-height="951"
     inkscape:window-x="196"
     inkscape:window-y="178" />
  <metadata
     id="metadata12467">
    <rdf:RDF>
      <cc:Work
         rdf:about="">
        <dc:format>image/svg+xml</dc:format>
        <dc:type
           rdf:resource="http://purl.org/dc/dcmitype/StillImage" />
      </cc:Work>
    </rdf:RDF>
  </metadata>
  <g
     id="layer1"
     inkscape:label="Backdrop"
     inkscape:groupmode="layer"
     style="opacity:1">
    <g
       style="display:inline"
       id="g5764"
       transform="matrix(1.3970623,0,0,1.3970623,2817.0736,5225.4225)" />
    <image
       y="1.2324257"
       x="-0.16761398"
       id="image13277"
       height="480"
       width="640"
       sodipodi:absref="/Users/httpd/Desktop/UKParseParl/Maps/Cornwall.jpg"
       xlink:href="/img/maps/cornwall.jpg" />
  </g>
  <g
     inkscape:groupmode="layer"
     id="layer61"
     inkscape:label="Map"
     style="opacity:1;display:inline">
    <g
       style="display:inline"
       id="g5441"
       transform="matrix(2.1749306,-9.1795559e-2,9.1795559e-2,2.1749306,-628.14383,-80.354426)">
      <path
         id="Truro_and_St_Austell"
         onclick="javascript:respond(this.id);return true;"
         onmouseover="javascript:popup(this.id);return true;"
         onmouseout="javascript:popdown(this.id);return true;"
         style="fill:#c8c8ff;fill-opacity:0.33;stroke:#7ffaff;stroke-width:1;stroke-opacity:1"
         d="M 400.37991,225.44958 L 400.37991,225.44958 L 399.19971,227.9013 L 399.65363,229.26337 L 400.47069,231.53348 L 402.83109,227.44728 L 403.55737,230.80705 L 404.556,232.71394 L 408.18739,230.35302 L 409.54916,223.72429 L 411.72799,220.45533 L 414.81467,219.63809 L 416.63036,221.8174 L 424.0747,214.28062 L 429.9757,215.55188 L 431.33747,218.0036 L 432.15453,215.73349 L 434.42415,214.37142 L 433.87944,212.73694 L 436.23984,211.19326 L 433.97023,209.46798 L 433.97023,207.83349 L 435.15043,206.10821 L 434.78729,203.9289 L 437.05691,201.9312 L 438.50946,202.29442 L 436.87534,197.9358 L 438.23711,195.9381 L 442.14085,194.75764 L 442.77634,193.75879 L 439.96201,193.12316 L 439.50809,189.85419 L 440.23437,188.76454 L 437.60161,185.9496 L 437.60161,182.86224 L 433.15317,177.59558 L 433.69787,176.23351 L 432.42689,173.50937 L 431.88218,175.59788 L 428.70472,178.32202 L 428.06923,174.50822 L 423.62078,176.14271 L 423.07607,178.95765 L 420.44331,180.95535 L 419.98939,183.86109 L 418.35527,185.22316 L 418.80919,187.22086 L 416.81193,189.12776 L 413.54368,189.30937 L 414.45153,192.57833 L 411.0925,192.0335 L 410.82014,193.9404 L 408.27817,192.75994 L 406.64405,190.39902 L 408.18739,188.76454 L 407.55189,185.58638 L 409.82151,183.31627 L 409.00445,182.40822 L 399.8352,182.045 L 398.92735,181.04615 L 395.20518,181.86339 L 390.66595,180.0473 L 389.2134,179.23006 L 389.57653,182.49903 L 387.85163,182.31742 L 389.12261,185.13236 L 387.94241,190.94385 L 384.40181,191.85189 L 381.76905,195.75649 L 377.32061,195.9381 L 377.22982,199.57028 L 374.96021,203.11166 L 376.32197,203.56568 L 377.13904,205.9266 L 381.13356,207.9243 L 383.22161,210.10361 L 392.48164,214.73464 L 394.11577,218.45763 L 396.56695,219.18406 L 399.01814,222.36222 L 398.74578,224.63234 L 400.37991,225.44958 z" />
      <path
         id="St_Ives"
         onclick="javascript:respond(this.id);return true;"
         onmouseover="javascript:popup(this.id);return true;"
         onmouseout="javascript:popdown(this.id);return true;"
         style="fill:#c8c8ff;fill-opacity:0.33;stroke:#7ffaff;stroke-width:1;stroke-opacity:1"
         d="M 395.65911,242.97486 L 395.65911,242.97486 L 390.9383,242.15761 L 390.03046,240.61394 L 388.12398,241.61279 L 387.48849,240.52313 L 386.12672,240.88635 L 386.48986,242.70244 L 385.67279,241.06796 L 382.49533,242.33922 L 379.04551,241.43118 L 375.05099,242.52083 L 374.4155,237.34497 L 375.5957,235.25647 L 378.50081,235.34727 L 379.31787,230.35302 L 382.49533,229.62659 L 383.22161,226.44843 L 380.95199,225.9036 L 377.22982,218.45763 L 371.05647,223.45188 L 365.79096,219.72889 L 364.88311,217.00475 L 362.06878,216.64154 L 360.61623,213.9174 L 357.52955,212.91855 L 359.16368,211.19326 L 358.34661,209.922 L 356.25857,210.55763 L 355.98621,214.18981 L 350.90227,219.8197 L 350.62992,219.54728 L 346.54461,218.18521 L 345.90912,214.28062 L 344.63813,215.09786 L 343.00401,214.0082 L 337.82928,214.46223 L 330.92965,219.63809 L 329.74945,218.63924 L 325.84571,223.54268 L 320.30785,223.54268 L 315.13312,231.07946 L 317.58431,238.52543 L 313.77135,242.52083 L 314.40684,244.79095 L 316.67646,245.69899 L 317.49352,248.96796 L 319.03686,249.69439 L 322.30511,247.96911 L 323.66688,248.78635 L 326.02728,246.69784 L 331.38357,246.87945 L 333.29005,244.79095 L 334.37947,245.42658 L 337.37536,239.7967 L 335.46888,236.16451 L 337.82928,234.80245 L 338.9187,232.44153 L 346.63539,233.34957 L 350.81149,237.16336 L 350.7207,238.79785 L 352.5364,238.25302 L 352.17326,237.52658 L 356.53092,238.16221 L 359.07289,240.70474 L 362.15957,240.25072 L 364.3384,242.33922 L 364.97389,241.7944 L 369.42234,247.60589 L 369.0592,250.23922 L 371.60117,252.32772 L 370.8749,253.14496 L 372.14588,254.68864 L 370.60254,258.86565 L 372.14588,259.68289 L 373.05373,263.95071 L 376.41276,264.94956 L 376.7759,267.21967 L 380.67964,266.67484 L 380.67964,263.49668 L 383.94789,258.32082 L 389.12261,257.8668 L 391.75537,259.04726 L 393.11714,256.77715 L 392.57243,254.59784 L 396.11303,253.05416 L 397.74715,249.60359 L 396.56695,246.60704 L 395.1144,246.33462 L 395.65911,242.97486 z" />
      <path
         id="South_East_Cornwall"
         onclick="javascript:respond(this.id);return true;"
         onmouseover="javascript:popup(this.id);return true;"
         onmouseout="javascript:popdown(this.id);return true;"
         style="fill:#c8c8ff;fill-opacity:0.33;stroke:#7ffaff;stroke-width:1;stroke-opacity:1"
         d="M 439.50809,189.85419 L 439.50809,189.85419 L 439.96201,193.12316 L 442.68555,193.75879 L 442.14085,194.66683 L 444.68282,194.30362 L 444.86439,192.66913 L 446.13537,192.85074 L 447.76949,194.84844 L 447.22479,198.38982 L 448.76813,199.66108 L 449.4944,197.84499 L 451.3101,197.84499 L 454.12442,194.93925 L 454.30599,195.75649 L 455.30462,195.84729 L 453.21657,196.66453 L 453.85207,197.75419 L 457.2111,197.02775 L 458.20973,198.0266 L 460.84248,196.39212 L 465.83564,198.29902 L 470.55644,197.11856 L 471.10115,195.75649 L 474.09704,196.75534 L 477.18372,193.9404 L 475.5496,191.85189 L 476.18509,190.39902 L 477.18372,193.30477 L 478.99941,191.39787 L 485.35434,190.67143 L 498.51811,192.75994 L 505.59932,198.11741 L 505.6901,202.022 L 507.50579,200.75074 L 510.32012,200.93235 L 508.77678,197.84499 L 512.7713,196.0289 L 512.68052,192.85074 L 507.86893,195.03005 L 509.41227,192.57833 L 508.32286,191.57948 L 509.77541,190.0358 L 509.41227,187.9473 L 508.0505,187.40247 L 508.95835,186.85764 L 504.96382,186.0404 L 505.87167,185.76799 L 508.59521,182.95305 L 507.41501,181.50017 L 508.14129,179.41167 L 506.59795,179.41167 L 509.59384,177.50477 L 509.68463,175.50707 L 510.4109,173.69098 L 507.41501,171.69328 L 505.6901,173.50937 L 504.60069,171.9657 L 507.68736,169.51397 L 505.96246,166.33582 L 507.23344,165.06455 L 510.04776,166.42662 L 512.40817,164.15651 L 511.77267,163.06685 L 509.59384,164.0657 L 509.13992,158.0726 L 506.68873,158.70823 L 504.87304,156.0749 L 503.42048,155.89329 L 501.06008,157.16456 L 502.69421,155.43927 L 500.24302,150.71743 L 501.33244,148.0841 L 499.51675,147.63008 L 499.51675,149.53697 L 498.88125,147.72088 L 496.88399,148.71973 L 496.33928,147.44847 L 496.97477,143.63468 L 489.80279,143.9979 L 489.98436,145.9956 L 486.08062,146.26801 L 485.98983,148.99215 L 484.80963,151.62548 L 485.62669,153.07835 L 483.35708,153.71398 L 482.17688,155.53007 L 474.55097,155.43927 L 471.64586,151.71628 L 467.8329,154.89444 L 465.92642,151.17146 L 463.65681,151.44387 L 460.93327,155.16686 L 458.11894,156.16571 L 458.11894,163.88409 L 456.75717,165.51857 L 457.66502,167.87949 L 456.57561,171.05765 L 454.66913,171.69328 L 454.30599,174.23581 L 451.3101,172.60133 L 449.31283,175.59788 L 445.40909,175.68868 L 445.49988,176.68753 L 440.14358,177.9588 L 438.23711,176.59673 L 437.96475,174.87144 L 433.69787,176.23351 L 433.15317,177.59558 L 437.60161,182.86224 L 437.60161,185.9496 L 440.23437,188.76454 L 439.50809,189.85419 z" />
      <path
         id="North_Cornwall"
         onclick="javascript:respond(this.id);return true;"
         onmouseover="javascript:popup(this.id);return true;"
         onmouseout="javascript:popdown(this.id);return true;"
         style="fill:#c8c8ff;fill-opacity:0.33;stroke:#7ffaff;stroke-width:1;stroke-opacity:1"
         d="M 392.02772,177.9588 L 392.02772,177.9588 L 394.11577,178.68523 L 391.93693,179.59328 L 390.84752,178.59443 L 390.66595,180.0473 L 395.20518,181.86339 L 398.92735,181.04615 L 399.8352,182.045 L 409.00445,182.40822 L 409.82151,183.31627 L 407.55189,185.58638 L 408.18739,188.76454 L 406.64405,190.39902 L 408.27817,192.75994 L 410.82014,193.9404 L 411.0925,192.0335 L 414.54231,192.57833 L 413.63447,189.30937 L 416.81193,189.12776 L 418.80919,187.22086 L 418.35527,185.22316 L 420.08018,183.86109 L 420.44331,180.95535 L 423.07607,178.95765 L 423.62078,176.14271 L 428.06923,174.50822 L 428.70472,178.32202 L 431.97297,175.59788 L 432.42689,173.50937 L 433.69787,176.23351 L 437.96475,174.87144 L 438.23711,176.59673 L 440.14358,177.9588 L 445.49988,176.68753 L 445.40909,175.68868 L 449.31283,175.59788 L 451.3101,172.60133 L 454.30599,174.23581 L 454.66913,171.69328 L 456.57561,171.05765 L 457.66502,167.87949 L 456.75717,165.51857 L 458.11894,163.88409 L 458.20973,156.16571 L 460.93327,155.16686 L 463.65681,151.44387 L 465.92642,151.17146 L 467.8329,154.89444 L 471.73664,151.71628 L 474.64175,155.43927 L 482.17688,155.53007 L 483.35708,153.71398 L 485.71748,153.07835 L 484.80963,151.62548 L 485.98983,148.99215 L 486.08062,146.26801 L 489.98436,145.9956 L 489.80279,143.9979 L 496.97477,143.63468 L 498.06419,137.91399 L 494.79594,136.91514 L 493.70653,135.18985 L 492.25397,126.56342 L 489.712,123.83929 L 490.80142,120.66113 L 488.07788,114.84964 L 488.71337,110.30941 L 487.17003,108.76573 L 484.53728,109.40136 L 485.17277,111.85309 L 483.26629,111.30826 L 479.99805,107.04044 L 477.27451,107.13125 L 474.73254,105.40596 L 480.72432,102.59102 L 481.81374,99.685275 L 481.54138,94.963439 L 482.72158,91.240452 L 484.35571,91.058843 L 479.36255,81.61517 L 480.36118,78.61862 L 469.0131,78.346206 L 467.92369,78.800229 L 465.92642,83.158847 L 467.10662,96.416312 L 468.28683,97.869184 L 466.74349,98.050794 L 466.01721,107.40366 L 456.84796,113.39676 L 456.57561,115.12205 L 454.2152,115.30366 L 453.94285,119.93469 L 450.49303,122.2048 L 450.49303,123.83929 L 444.68282,126.01859 L 443.50262,128.47032 L 442.59477,127.38066 L 439.78045,128.65193 L 439.32652,131.64848 L 440.32515,132.0117 L 438.60024,138.0048 L 435.24121,142.72663 L 430.6112,143.72548 L 428.52315,142.36341 L 425.89039,142.90824 L 426.16275,144.1795 L 423.80235,145.45077 L 420.89724,144.90594 L 419.71704,142.81744 L 417.53821,144.27031 L 419.98939,146.54042 L 417.90134,148.71973 L 418.35527,152.62433 L 417.26585,151.71628 L 415.45016,150.26341 L 415.63173,147.72088 L 411.0925,152.89674 L 404.46522,151.17146 L 404.01129,151.9887 L 405.91777,153.35076 L 405.00992,158.0726 L 406.09934,159.25306 L 404.64679,159.16226 L 402.74031,161.34156 L 404.19286,162.15881 L 403.92051,164.97375 L 402.92188,171.87489 L 401.10618,175.14386 L 399.74441,175.23466 L 401.19697,175.68868 L 397.38401,177.59558 L 395.47754,175.32547 L 395.1144,177.77719 L 392.02772,177.9588 z" />
      <path
         id="Falmouth_and_Camborne"
         onclick="javascript:respond(this.id);return true;"
         onmouseover="javascript:popup(this.id);return true;"
         onmouseout="javascript:popdown(this.id);return true;"
         style="fill:#c8c8ff;fill-opacity:0.33;stroke:#7ffaff;stroke-width:1;stroke-opacity:1"
         d="M 374.96021,203.11166 L 374.96021,203.11166 L 374.4155,203.11166 L 371.51039,204.56453 L 369.96705,207.01625 L 368.24214,206.74384 L 363.88448,211.01165 L 359.16368,211.19326 L 357.52955,212.91855 L 360.61623,213.9174 L 362.06878,216.64154 L 364.88311,217.00475 L 365.79096,219.72889 L 371.05647,223.45188 L 377.22982,218.45763 L 380.95199,225.9036 L 383.22161,226.44843 L 382.49533,229.62659 L 379.31787,230.44383 L 378.50081,235.34727 L 375.5957,235.25647 L 374.4155,237.34497 L 375.05099,242.52083 L 379.04551,241.43118 L 385.12809,240.97716 L 383.8571,239.70589 L 384.67416,237.16336 L 384.67416,240.34152 L 387.12535,239.97831 L 388.03319,237.52658 L 388.94104,237.799 L 387.57927,239.7967 L 391.30144,239.16106 L 392.754,240.06911 L 395.1144,238.25302 L 393.38949,234.34842 L 397.11166,231.44268 L 398.92735,230.62544 L 400.47069,231.53348 L 399.65363,229.26337 L 399.19971,227.9013 L 400.37991,225.44958 L 398.74578,224.63234 L 399.01814,222.36222 L 396.56695,219.18406 L 394.11577,218.45763 L 392.48164,214.73464 L 383.22161,210.10361 L 381.13356,207.9243 L 377.13904,205.9266 L 376.32197,203.56568 L 374.96021,203.11166 z" />
    </g>
  </g>
</svg>
