<?xml version="1.0" encoding="UTF-8" standalone="no"?>
<!-- Created with Inkscape (http://www.inkscape.org/) -->
<svg
   xmlns:dc="http://purl.org/dc/elements/1.1/"
   xmlns:cc="http://creativecommons.org/ns#"
   xmlns:rdf="http://www.w3.org/1999/02/22-rdf-syntax-ns#"
   xmlns:svg="http://www.w3.org/2000/svg"
   xmlns="http://www.w3.org/2000/svg"
   xmlns:xlink="http://www.w3.org/1999/xlink"
   xmlns:sodipodi="http://sodipodi.sourceforge.net/DTD/sodipodi-0.dtd"
   xmlns:inkscape="http://www.inkscape.org/namespaces/inkscape"
   width="640px"
   height="480px"
   id="svg2619"
   sodipodi:version="0.32"
   inkscape:version="0.46"
   sodipodi:docname="taunton_deane.svg"
   inkscape:output_extension="org.inkscape.output.svg.inkscape">
  <defs
     id="defs2621">
    <inkscape:perspective
       sodipodi:type="inkscape:persp3d"
       inkscape:vp_x="0 : 240 : 1"
       inkscape:vp_y="0 : 1000 : 0"
       inkscape:vp_z="640 : 240 : 1"
       inkscape:persp3d-origin="320 : 160 : 1"
       id="perspective2627" />
    <inkscape:perspective
       id="perspective2748"
       inkscape:persp3d-origin="372.04724 : 350.78739 : 1"
       inkscape:vp_z="744.09448 : 526.18109 : 1"
       inkscape:vp_y="0 : 1000 : 0"
       inkscape:vp_x="0 : 526.18109 : 1"
       sodipodi:type="inkscape:persp3d" />
  </defs>
  <sodipodi:namedview
     id="base"
     pagecolor="#ffffff"
     bordercolor="#666666"
     borderopacity="1.0"
     inkscape:pageopacity="0.0"
     inkscape:pageshadow="2"
     inkscape:zoom="1.18"
     inkscape:cx="351.23276"
     inkscape:cy="240"
     inkscape:current-layer="layer1"
     inkscape:document-units="px"
     showgrid="false"
     inkscape:window-width="1338"
     inkscape:window-height="878"
     inkscape:window-x="125"
     inkscape:window-y="103" />
  <metadata
     id="metadata2624">
    <rdf:RDF>
      <cc:Work
         rdf:about="">
        <dc:format>image/svg+xml</dc:format>
        <dc:type
           rdf:resource="http://purl.org/dc/dcmitype/StillImage" />
      </cc:Work>
    </rdf:RDF>
  </metadata>
  <g
     inkscape:groupmode="layer"
     id="layer2"
     inkscape:label="Backdrop"
     sodipodi:insensitive="true">
    <image
       y="0"
       x="0"
       id="image2750"
       height="480"
       width="640"
       sodipodi:absref="/Users/httpd/Desktop/UKPPSW SVG maps/Areas/Taunton.jpg"
       xlink:href="/img/maps/taunton.jpg" />
  </g>
  <g
     id="layer1"
     inkscape:label="Taunton"
     inkscape:groupmode="layer"
     sodipodi:insensitive="true">
    <path
       style="fill:#f9b847;fill-opacity:0.49803922;stroke:#ffffff;stroke-width:0.49999997;stroke-linecap:round;stroke-linejoin:round;stroke-miterlimit:4;stroke-dasharray:none;stroke-opacity:0.94117647;display:inline"
       d="M 524.3937,206.52629 L 518.32911,208.81741 L 512.68279,208.8496 L 512.73099,209.20455 L 518.0556,209.17228 L 525.79328,206.36498 L 537.4559,203.02519 L 539.28982,203.31555 L 540.93058,202.92841 L 542.2658,201.73439 L 543.27923,198.2656 L 545.64399,194.66764 L 548.21772,194.05449 L 549.72993,190.95677 L 561.98775,173.75768 L 563.24255,172.74121 L 563.693,171.40206 L 565.28556,169.51438 L 570.99621,164.62571 L 572.4923,163.86743 L 574.98564,162.1087 L 575.69349,160.57598 L 577.54342,159.64024 L 579.92423,156.3166 L 585.87622,160.22099 L 589.73694,163.68988 L 591.31344,166.09393 L 593.11515,167.65896 L 597.10461,167.78796 L 602.81525,166.02934 L 604.76176,167.07812 L 606.94948,167.25554 L 607.416,168.25589 L 606.88517,169.57888 L 606.48297,171.78926 L 607.27121,174.14488 L 606.61169,178.33982 L 606.88517,179.71115 L 607.416,180.63082 L 609.55543,181.88936 L 610.69762,184.45472 L 612.46713,185.95512 L 612.80494,188.61728 L 616.95529,189.63373 L 616.76218,192.66699 L 616.39224,192.77996 L 616.97136,195.36142 L 613.70579,195.47439 L 569.0658,237.90735 L 546.1104,252.36363 L 544.72703,254.38042 L 541.86366,256.34879 L 541.02712,256.34879 L 541.81534,259.05936 L 540.68929,259.36587 L 543.23093,265.56149 L 545.40266,269.06256 L 547.7995,270.78899 L 542.23358,270.62762 L 538.53375,272.75735 L 538.08332,272.24106 L 536.26549,272.04739 L 533.09652,272.90259 L 533.75606,275.61308 L 529.97575,276.88769 L 529.89532,275.80675 L 528.88186,275.33883 L 524.60283,276.37146 L 520.8064,276.2585 L 517.73389,277.24268 L 516.54354,276.96837 L 509.3046,279.74344 L 508.48424,281.24397 L 507.7764,284.48694 L 506.52165,286.24559 L 507.84072,288.48824 L 506.58602,290.29521 L 504.22128,291.66665 L 502.78958,293.55435 L 509.28849,303.36398 L 511.71754,316.48113 L 511.66931,321.32145 L 512.32884,324.3546 L 511.81412,324.58049 L 511.89455,325.3872 L 510.73628,325.58079 L 509.98022,326.79088 L 508.85417,327.19425 L 508.0659,327.19425 L 508.25903,325.5486 L 507.48687,325.14519 L 506.55384,326.06486 L 505.99078,325.5486 L 503.64214,326.16168 L 504.43041,332.09908 L 505.63687,332.09908 L 505.73338,334.50304 L 506.47341,334.616 L 506.08727,338.93994 L 501.4061,339.53695 L 501.64743,341.31173 L 501.2131,341.9732 L 498.96094,342.53792 L 495.77586,344.90971 L 493.65246,345.47432 L 488.66564,348.97545 L 487.90957,348.8141 L 487.20176,349.7499 L 483.29282,351.37945 L 482.92279,352.04095 L 480.75115,352.78316 L 477.90377,350.54049 L 475.12082,352.73474 L 473.75353,355.13877 L 473.86613,358.80125 L 470.34313,364.31913 L 471.51747,369.38531 L 470.69705,370.80511 L 468.1072,372.3217 L 466.6594,374.38695 L 459.98352,374.98383 L 451.05547,380.14684 L 449.38246,383.13166 L 450.25112,384.48691 L 447.00171,387.53628 L 446.22958,389.58534 L 443.80053,389.98866 L 441.38749,391.24716 L 439.08714,391.10193 L 436.22378,392.81219 L 435.11381,392.44104 L 431.75169,393.8448 L 429.91786,395.47432 L 428.71141,394.61925 L 423.99803,395.66791 L 419.89598,395.18394 L 417.25782,395.84546 L 416.66259,395.03872 L 409.76148,392.07005 L 406.22247,388.00416 L 396.79579,384.90642 L 392.59724,382.47014 L 385.95353,382.74437 L 383.4762,385.6325 L 380.83805,396.7328 L 378.71459,400.57273 L 379.40636,402.8477 L 382.57542,408.09135 L 387.12791,411.70536 L 387.35302,415.04513 L 390.16816,418.65926 L 391.24596,419.4659 L 392.45252,419.38525 L 393.43378,420.27266 L 395.65373,423.58011 L 397.10151,424.58045 L 398.35617,426.66181 L 400.02919,428.11393 L 403.95429,429.09809 L 404.61384,430.14675 L 408.02418,430.38881 L 408.31378,429.93701 L 410.54971,429.51755 L 412.23881,430.72762 L 412.78574,430.93736 L 412.88225,430.53403 L 414.79657,431.38911 L 415.00567,432.29265 L 416.63048,432.69605 L 417.54734,434.45469 L 419.67075,435.60014 L 419.94427,436.64891 L 421.39208,436.68121 L 423.04895,437.50399 L 423.32237,438.60111 L 424.07843,438.92386 L 423.38678,439.68216 L 423.4994,439.13362 L 422.85588,438.74636 L 419.17214,439.92422 L 417.90127,439.18196 L 414.74834,439.08519 L 394.22202,444.23202 L 391.51947,444.1997 L 383.33147,442.65083 L 381.19194,442.82828 L 374.93425,444.8289 L 370.33359,445.24848 L 367.85625,446.32945 L 365.5559,446.16805 L 361.48606,448.45918 L 355.82361,449.23362 L 351.39985,451.96025 L 348.39168,454.73532 L 344.30568,456.59082 L 339.57625,450.08872 L 337.77451,453.42846 L 334.15509,458.12354 L 329.37743,462.01189 L 324.26191,468.28816 L 323.74716,467.19095 L 322.18678,466.6424 L 321.75246,467.70729 L 320.28859,467.6105 L 319.1143,468.3042 L 314.89964,467.54593 L 310.15407,464.52879 L 308.86719,463.14129 L 307.75719,457.8815 L 308.06285,456.57465 L 305.8751,452.54107 L 302.22348,451.18581 L 298.86137,450.94388 L 297.18837,451.34718 L 292.9416,450.95992 L 289.65993,451.76665 L 288.26042,448.00739 L 288.17995,444.74825 L 288.87167,440.76313 L 289.78862,438.79478 L 287.13438,438.23007 L 283.83665,438.53663 L 281.93846,437.58474 L 278.93025,437.06835 L 270.22743,433.38976 L 272.14175,428.64636 L 274.4421,426.12943 L 276.06687,422.5153 L 279.20366,418.53016 L 279.42888,417.25551 L 280.31364,416.22298 L 279.17157,411.15681 L 282.35666,409.41434 L 283.57923,409.62407 L 288.03519,406.44559 L 287.00567,404.00933 L 287.68128,400.96 L 286.98955,397.4266 L 287.5365,396.00673 L 288.32473,388.29465 L 289.70822,386.26171 L 291.0434,381.131 L 296.80233,373.32202 L 298.28223,370.03068 L 296.68972,369.04647 L 295.48326,366.86831 L 289.41859,367.30393 L 275.08563,364.83537 L 270.38837,364.91612 L 259.12777,367.38468 L 236.73542,373.87057 L 227.7592,372.45079 L 225.76445,372.70896 L 220.74547,372.04748 L 211.96231,374.12875 L 207.36154,373.93516 L 195.45753,375.75825 L 193.38238,373.03165 L 187.26953,371.57955 L 184.90478,367.07805 L 175.70333,362.54433 L 171.24746,359.14006 L 162.39983,353.7835 L 156.04574,351.25045 L 153.34317,351.58916 L 151.78277,351.13751 L 149.82025,348.39462 L 146.86028,345.68413 L 146.89246,344.97416 L 144.83348,344.61919 L 143.24086,341.23106 L 144.72086,339.13355 L 143.03176,336.77802 L 138.96188,333.29301 L 131.49776,328.59792 L 127.49221,324.67728 L 125.70659,321.90219 L 125.35269,323.33814 L 123.9532,322.66048 L 122.87543,322.96709 L 122.3928,322.14422 L 122.32848,319.61118 L 121.25064,318.94965 L 118.95028,315.83577 L 118.85379,314.93223 L 119.67415,313.81896 L 119.17551,312.86698 L 120.15678,312.44753 L 118.78937,311.54398 L 119.67415,310.97927 L 119.36854,310.3824 L 116.34423,307.5105 L 114.92865,307.42977 L 114.17262,306.1068 L 110.82661,303.81577 L 110.2797,302.57342 L 107.68971,300.73414 L 105.93631,300.71801 L 101.14251,303.62217 L 88.289428,305.17103 L 87.420803,305.78409 L 83.157939,306.49404 L 78.010205,308.59149 L 75.227256,308.49468 L 72.572999,307.18782 L 70.819585,306.94581 L 67.47358,307.5427 L 63.709341,309.80154 L 56.695615,309.26911 L 56.164787,303.75117 L 54.829621,300.20162 L 54.893936,297.02321 L 54.041379,292.55404 L 52.207566,288.05265 L 52.175374,284.90643 L 52.673974,283.40592 L 51.901852,278.61402 L 53.430128,276.14557 L 53.928764,274.35465 L 53.735771,271.98292 L 54.314877,270.27264 L 53.349647,260.81797 L 55.183543,256.84898 L 55.955699,256.26812 L 55.666059,254.26749 L 56.180896,248.13646 L 55.440872,244.8451 L 57.692992,241.08587 L 57.403469,238.76256 L 56.019978,235.71312 L 52.44879,235.16457 L 47.349347,233.47045 L 34.287175,233.06715 L 30.748167,232.30885 L 25.536157,233.26073 L 18.055907,232.79281 L 19.471577,229.80799 L 16.382986,225.72607 L 16.157802,224.19325 L 16.897718,222.80575 L 16.62422,222.09582 L 17.299845,219.36916 L 16.608218,218.17526 L 18.683336,216.59408 L 18.232896,213.56082 L 18.908556,211.62465 L 24.249279,210.10808 L 26.453122,208.70443 L 27.595167,205.91324 L 28.817764,204.96124 L 31.118195,201.57311 L 32.85549,200.62112 L 34.23898,201.60529 L 36.249701,201.6699 L 40.802172,198.58829 L 38.067501,195.0226 L 43.64954,181.48594 L 50.904488,185.82603 L 55.923471,191.26326 L 58.529546,193.00582 L 59.62342,192.84446 L 61.972047,193.5221 L 68.245725,190.2146 L 75.645476,188.1655 L 80.519695,187.76218 L 82.8201,188.87547 L 84.879121,188.74638 L 85.297352,189.92414 L 88.048244,188.61728 L 87.404697,185.39041 L 90.638093,179.7273 L 90.091147,179.01746 L 90.31637,178.38818 L 91.313731,178.06549 L 91.506738,176.22624 L 90.734581,175.16131 L 91.410249,174.58047 L 90.718484,173.90283 L 90.380791,171.19233 L 89.544213,170.4824 L 89.656809,168.82058 L 88.450356,168.30431 L 87.823021,167.22336 L 88.289428,166.65863 L 86.568224,165.15812 L 85.715697,165.91641 L 84.782654,165.33553 L 84.155307,163.78667 L 82.804003,163.51244 L 81.356209,161.14068 L 81.307938,159.1239 L 80.535782,158.72058 L 80.712764,157.05875 L 80.262361,155.99382 L 81.806655,154.18686 L 81.742246,153.38013 L 82.514401,152.25073 L 86.069508,151.89574 L 94.547147,148.92707 L 97.394401,148.79798 L 98.77788,148.03969 L 100.33826,148.34623 L 104.26329,147.4427 L 106.25803,148.24941 L 109.07319,146.89415 L 110.18316,147.2491 L 110.53709,147.99127 L 113.57737,148.36236 L 122.76281,142.53789 L 123.50276,141.03744 L 132.65593,141.05358 L 134.55412,141.7151 L 135.18155,142.74762 L 136.38807,141.55373 L 142.42042,139.77893 L 147.84165,142.58634 L 150.01325,142.4089 L 152.4745,143.08644 L 153.98662,145.24847 L 156.30307,146.29721 L 163.55811,151.46014 L 161.8529,154.33199 L 161.96549,160.33394 L 164.13723,160.65672 L 166.29277,159.52728 L 171.53698,160.04357 L 176.55599,159.30141 L 183.95573,160.86646 L 183.82703,159.43051 L 182.26663,157.86547 L 179.98239,157.18784 L 177.0224,152.3798 L 173.75691,149.66923 L 174.27165,146.79733 L 173.8856,146.47469 L 173.8051,143.74793 L 173.19389,143.6673 L 173.85341,141.6505 L 169.02753,139.3595 L 165.72971,137.06846 L 162.3516,133.6641 L 159.97078,129.98546 L 159.18253,129.5337 L 157.63822,122.91871 L 154.59795,118.8045 L 155.98132,117.30396 L 157.67042,116.80383 L 157.1557,115.93249 L 161.40247,112.15712 L 167.78884,104.60631 L 173.93379,106.65538 L 178.29327,111.54405 L 178.87243,114.38363 L 185.40353,118.91743 L 189.42517,119.06257 L 191.74162,118.28812 L 193.92932,116.83604 L 196.14924,114.46438 L 196.47099,110.05966 L 197.58093,105.3969 L 200.71786,99.023845 L 204.38556,95.619563 L 206.13896,94.683721 L 207.00761,96.942544 L 210.45011,98.055812 L 214.71307,102.87997 L 216.4504,101.89582 L 221.95192,102.12171 L 226.55268,99.749933 L 225.2497,98.394638 L 225.68404,97.394298 L 230.84774,89.730567 L 234.70848,85.180724 L 235.70587,84.406283 L 239.05187,83.486583 L 238.27971,82.244229 L 241.96352,78.452701 L 249.02544,74.741884 L 252.46798,71.079406 L 255.92655,68.675343 L 256.95612,66.352054 L 265.11193,60.656658 L 268.84406,66.255237 L 269.51971,68.030003 L 269.29448,70.692169 L 269.64841,70.982539 L 273.0587,72.063574 L 277.77199,72.289494 L 281.24669,74.935469 L 282.67839,77.742828 L 285.34875,77.500817 L 290.35165,80.001566 L 297.60657,78.549484 L 298.20183,82.615376 L 297.7192,85.874505 L 300.48615,86.326292 L 304.13777,84.938679 L 304.58821,84.309466 L 305.55337,84.858037 L 307.59631,82.147462 L 309.10851,82.050678 L 309.3176,80.211392 L 311.29619,79.969384 L 312.90491,78.323699 L 314.51351,78.388201 L 316.81384,82.954202 L 321.02849,81.760291 L 322.18678,80.388853 L 327.431,77.420176 L 327.94573,81.582748 L 326.3371,83.664125 L 326.35313,85.438909 L 327.09317,89.311113 L 329.60262,93.038039 L 328.63745,94.974191 L 326.69094,96.329489 L 320.93203,97.668625 L 317.23218,97.765443 L 316.08999,98.410786 L 313.96657,100.1371 L 313.46795,102.39593 L 314.28828,103.86415 L 316.60474,105.76799 L 316.55654,106.25195 L 311.90754,109.12395 L 307.58032,109.18844 L 306.88856,110.15647 L 310.05754,112.18939 L 318.11692,114.20618 L 317.23218,115.12589 L 314.49742,121.06321 L 318.21344,124.35465 L 320.69071,124.16106 L 320.56208,126.00032 L 322.412,131.53435 L 324.69624,131.2278 L 325.08238,134.76116 L 326.77147,137.4072 L 330.27827,141.26331 L 330.13345,142.9413 L 331.54913,144.24815 L 334.62164,143.81251 L 337.96764,145.03872 L 338.64327,145.1355 L 338.77189,144.50632 L 341.08842,144.78054 L 349.83944,146.53918 L 356.46706,144.53853 L 357.5126,143.18331 L 368.80539,142.6508 L 371.33094,143.11873 L 373.48647,144.26431 L 374.41954,150.15329 L 374.35522,151.21809 L 372.98785,152.28302 L 372.73043,153.05746 L 378.50549,152.89609 L 379.82457,157.76858 L 385.51921,155.84867 L 384.31272,150.26625 L 384.74708,147.5395 L 389.29953,148.60441 L 391.50338,146.18432 L 398.67791,148.99158 L 406.30293,152.79927 L 406.86599,152.65404 L 412.96277,156.21973 L 416.18002,157.49436 L 422.34113,158.15587 L 425.1563,157.84933 L 427.02232,158.39788 L 428.32531,157.42986 L 428.5183,156.13905 L 434.10033,157.47821 L 435.27462,158.1397 L 437.44635,161.52792 L 437.73584,163.22196 L 440.67974,165.30335 L 446.27778,165.88418 L 445.68266,167.07812 L 445.87564,167.83638 L 449.46298,167.65896 L 452.69626,168.82058 L 454.691,168.1268 L 456.78231,168.86901 L 458.50353,168.07842 L 458.68054,173.16067 L 449.9455,172.90252 L 449.91341,173.77383 L 451.11986,174.20947 L 451.21638,175.30655 L 449.76858,174.66121 L 449.65599,175.66155 L 452.53545,176.04869 L 452.34245,177.51693 L 449.02865,177.62989 L 448.99643,178.1623 L 452.56765,178.40433 L 452.88937,184.13203 L 450.04199,184.08356 L 450.84634,189.37559 L 455.33454,188.60114 L 460.90038,179.24326 L 463.29729,179.43694 L 463.97293,178.38818 L 466.06416,177.66216 L 467.89796,177.2749 L 468.78273,177.58142 L 475.66776,181.50209 L 478.57945,180.29202 L 479.85029,180.25973 L 483.30882,181.43758 L 483.58233,180.67929 L 486.05967,179.93705 L 486.96054,179.04968 L 489.05177,179.37235 L 491.72213,184.59986 L 492.71945,188.40755 L 492.63899,192.47345 L 497.46499,191.95707 L 497.57757,192.44113 L 500.47315,193.63501 L 500.07094,196.7651 L 502.30695,196.86188 L 505.99078,202.86382 L 507.7442,202.73473 L 509.07938,200.65345 L 510.9615,199.78219 L 511.86235,200.16938 L 514.29138,199.52401 L 516.07699,199.83056 L 516.86524,197.233 L 520.61337,194.42564 L 521.51422,192.6993 L 522.88162,191.98937 L 527.28926,193.10264 L 527.33756,190.2146 L 527.98102,190.02101 L 531.47174,191.44081 L 533.62735,191.36014 L 536.53903,184.18037 L 541.10752,182.67995 L 541.59014,179.14646 L 544.4214,177.71051 L 545.90131,174.37073 L 546.68957,174.38687 L 549.68163,172.54765 L 550.80767,173.24135 L 558.60963,174.20947 L 561.44085,174.03192 L 549.3599,191.16649 L 548.15344,193.78026 L 545.43477,194.61922 L 543.07014,198.23332 L 542.31408,201.23428 L 541.44532,202.39589 L 539.48281,203.12198 L 537.3755,202.8315 L 532.00267,204.31589 L 524.3937,206.52629 z M 572.78183,163.51244 L 570.99621,164.41597 L 569.93457,165.3517 L 568.72796,166.3843 L 565.49467,163.57694 L 563.04956,165.73897 L 552.48069,155.92932 L 547.09178,153.57373 L 545.90131,148.95939 L 546.70565,146.79733 L 545.17747,146.05521 L 544.45351,145.03872 L 544.64661,143.97383 L 546.49654,142.29593 L 547.02736,140.45661 L 555.60146,141.00514 L 559.0279,139.47243 L 557.38709,135.66472 L 557.29057,133.05102 L 561.03871,132.27661 L 561.60174,133.8416 L 567.89152,140.85991 L 569.098,143.52214 L 572.47621,145.55498 L 574.05259,147.6364 L 576.89998,149.94356 L 579.84378,155.26784 L 579.69904,156.30047 L 578.33166,157.68794 L 577.55951,159.38205 L 575.51646,160.52762 L 574.96954,161.9474 L 572.78183,163.51244 z M 606.90118,167.07812 L 604.95476,166.94903 L 602.83136,165.8196 L 597.08847,167.57824 L 592.72903,167.22336 L 590.29996,164.04485 L 586.14962,160.18879 L 580.27807,156.36496 L 579.71505,153.99316 L 577.14127,149.86292 L 574.10092,147.34588 L 572.97484,145.63574 L 569.16241,143.18331 L 567.98805,140.63404 L 561.52124,133.27691 L 560.60438,127.32333 L 571.15711,124.19328 L 573.34487,128.25917 L 574.56742,128.2107 L 575.21086,130.21136 L 585.86011,124.32236 L 594.43424,142.42493 L 597.18499,141.84418 L 597.89285,144.00611 L 599.24402,144.16748 L 601.73746,146.18432 L 602.94395,146.32944 L 605.01906,147.60407 L 610.02198,150.84708 L 612.56363,153.47693 L 609.53943,158.54311 L 609.44286,160.36625 L 607.609,165.12581 L 607.93074,167.46528 L 607.51252,167.52987 L 606.90118,167.07812 z"
       onmouseout="hideData('E63');"
       onmouseover="showData('E63');"
       id="E63"
       inkscape:label="_Taunton" />
  </g>
</svg>
