<?xml version="1.0" encoding="UTF-8" standalone="no"?>
<!-- Created with Inkscape (http://www.inkscape.org/) -->
<svg
   xmlns:svg="http://www.w3.org/2000/svg"
   xmlns="http://www.w3.org/2000/svg"
   xmlns:xlink="http://www.w3.org/1999/xlink"
   xmlns:inkscape="http://www.inkscape.org/namespaces/inkscape"
   version="1.0"
   width="151"
   height="154"
   id="svg3172">
  <defs
     id="defs3174">
    <linearGradient
       id="linearGradient5059">
      <stop
         id="stop5061"
         style="stop-color:#fff4cd;stop-opacity:0.9137255"
         offset="0" />
      <stop
         id="stop5063"
         style="stop-color:#ffcd0b;stop-opacity:0.9137255"
         offset="1" />
    </linearGradient>
    <linearGradient
       id="linearGradient4743">
      <stop
         id="stop4745"
         style="stop-color:#ff7123;stop-opacity:1"
         offset="0" />
      <stop
         id="stop4751"
         style="stop-color:#ffd3bb;stop-opacity:1"
         offset="0.5" />
      <stop
         id="stop4747"
         style="stop-color:#ff7123;stop-opacity:1"
         offset="1" />
    </linearGradient>
    <linearGradient
       id="linearGradient4237">
      <stop
         id="stop4239"
         style="stop-color:#dbdbe3;stop-opacity:1"
         offset="0" />
      <stop
         id="stop4241"
         style="stop-color:#5f6063;stop-opacity:0"
         offset="1" />
    </linearGradient>
    <filter
       id="filter4435">
      <feGaussianBlur
         id="feGaussianBlur4437"
         stdDeviation="0.43858332"
         inkscape:collect="always" />
    </filter>
    <filter
       id="filter4439">
      <feGaussianBlur
         id="feGaussianBlur4441"
         stdDeviation="0.57033013"
         inkscape:collect="always" />
    </filter>
    <filter
       height="1.1286401"
       y="-0.064319998"
       width="1.2144001"
       x="-0.1072"
       id="filter4443">
      <feGaussianBlur
         id="feGaussianBlur4445"
         stdDeviation="0.53064"
         inkscape:collect="always" />
    </filter>
    <filter
       height="1.201"
       y="-0.1005"
       width="1.1339999"
       x="-0.067000002"
       id="filter4447">
      <feGaussianBlur
         id="feGaussianBlur4449"
         stdDeviation="0.33165"
         inkscape:collect="always" />
    </filter>
    <filter
       id="filter4451">
      <feGaussianBlur
         id="feGaussianBlur4453"
         stdDeviation="0.26532"
         inkscape:collect="always" />
    </filter>
    <filter
       height="1.0982667"
       y="-0.049133334"
       width="1.4421999"
       x="-0.2211"
       id="filter4455">
      <feGaussianBlur
         id="feGaussianBlur4457"
         stdDeviation="0.72963"
         inkscape:collect="always" />
    </filter>
    <filter
       height="1.3216"
       y="-0.1608"
       width="1.1072"
       x="-0.053599998"
       id="filter4459">
      <feGaussianBlur
         id="feGaussianBlur4461"
         stdDeviation="0.26532"
         inkscape:collect="always" />
    </filter>
    <filter
       height="1.1148571"
       y="-0.057428572"
       width="1.268"
       x="-0.134"
       id="filter4463">
      <feGaussianBlur
         id="feGaussianBlur4465"
         stdDeviation="0.6633"
         inkscape:collect="always" />
    </filter>
    <filter
       height="1.3216"
       y="-0.1608"
       width="1.1072"
       x="-0.053599998"
       id="filter4467">
      <feGaussianBlur
         id="feGaussianBlur4469"
         stdDeviation="0.26532"
         inkscape:collect="always" />
    </filter>
    <filter
       height="1.201"
       y="-0.1005"
       width="1.1339999"
       x="-0.067000002"
       id="filter4471">
      <feGaussianBlur
         id="feGaussianBlur4473"
         stdDeviation="0.33165"
         inkscape:collect="always" />
    </filter>
    <filter
       height="1.1286401"
       y="-0.064319998"
       width="1.2144001"
       x="-0.1072"
       id="filter4475">
      <feGaussianBlur
         id="feGaussianBlur4477"
         stdDeviation="0.53064"
         inkscape:collect="always" />
    </filter>
    <filter
       height="1.0968785"
       y="-0.048439242"
       width="1.4726787"
       x="-0.23633938"
       id="filter4479">
      <feGaussianBlur
         id="feGaussianBlur4481"
         stdDeviation="2.0482745"
         inkscape:collect="always" />
    </filter>
    <filter
       height="1.0968785"
       y="-0.048439242"
       width="1.4726787"
       x="-0.23633938"
       id="filter4483">
      <feGaussianBlur
         id="feGaussianBlur4485"
         stdDeviation="2.0482745"
         inkscape:collect="always" />
    </filter>
    <filter
       id="filter4487">
      <feGaussianBlur
         id="feGaussianBlur4489"
         stdDeviation="0.94299777"
         inkscape:collect="always" />
    </filter>
    <linearGradient
       x1="30.674089"
       y1="96.172066"
       x2="113.30006"
       y2="96.172066"
       id="linearGradient4749"
       xlink:href="#linearGradient4743"
       gradientUnits="userSpaceOnUse"
       gradientTransform="matrix(0.6428325,0,0,1.0020613,27.211465,-0.1982404)" />
    <filter
       id="filter5027"
       x="-0.70170498"
       width="2.40341"
       y="-0.037946809"
       height="1.0758936">
      <feGaussianBlur
         inkscape:collect="always"
         stdDeviation="1.1695082"
         id="feGaussianBlur5029" />
    </filter>
    <linearGradient
       x1="56"
       y1="62"
       x2="92"
       y2="130"
       id="linearGradient5057"
       xlink:href="#linearGradient4743"
       gradientUnits="userSpaceOnUse" />
    <radialGradient
       cx="74"
       cy="96"
       r="25"
       fx="74"
       fy="96"
       id="radialGradient5067"
       xlink:href="#linearGradient5059"
       gradientUnits="userSpaceOnUse"
       gradientTransform="matrix(1.2026636,1.68e-7,-2.7960322e-7,2.0015989,-14.997079,-96.153521)" />
    <filter
       id="filter5109">
      <feGaussianBlur
         inkscape:collect="always"
         stdDeviation="1.05"
         id="feGaussianBlur5111" />
    </filter>
  </defs>
  <path
     d="M 134.62,90.06218 C 138.58,40.56218 112.84,12.84218 75.22,12.84218 C 37.6,12.84218 9.88,40.56218 13.84,90.06218 C 15.82,90.06218 17.8,90.06218 19.78,90.06218 C 19.78,88.08218 19.78,56.40218 19.78,54.42218 C 19.78,40.56218 43.54,40.56218 43.54,54.42218 C 43.54,56.40218 43.80282,135.47544 43.80282,137.45544 C 43.80282,151.31544 20.04282,151.31544 20.04282,137.45544 C 20.04282,135.47544 19.78,97.98218 19.78,96.00218 C 17.8,96.00218 15.82,96.00218 13.84,96.00218 C 13.87653,97.77019 15.82,101.94218 15.82,103.85634 C 15.82,105.90218 13.84,105.90218 13.84,103.92218 C 3.72347,50.71388 27.7,6.90218 75.18619,6.90218 C 122.74,6.90218 146.5,50.46218 134.62,103.66873 C 134.1333,105.84851 132.64,105.90218 132.64,103.92218 C 132.64,101.94218 134.62,97.98218 134.62,96.00218 C 132.64,96.00218 130.66,96.00218 128.68,96.00218 C 128.91614,97.4886 128.68,135.60218 128.68,137.58218 C 128.68,151.44218 104.92,151.44218 104.92,137.58218 C 104.92,135.60218 104.92,56.40218 104.92,54.42218 C 104.92,40.56218 128.68,40.56218 128.68,54.42218 C 128.68,56.40218 128.68,88.08218 128.68,90.06218 C 130.66,90.06218 132.64,90.06218 134.62,90.06218 z"
     id="path3451"
     style="fill:#000000;fill-opacity:1;fill-rule:evenodd;stroke:#000000;stroke-width:1px;stroke-linecap:butt;stroke-linejoin:miter;stroke-opacity:1" />
  <path
     d="M 22.02282,52.31544 C 22.02282,44.39545 41.82282,44.39544 41.82282,52.31544 C 41.82282,54.29544 41.82282,137.45544 41.82282,139.43544 C 41.82282,149.33544 22.02282,149.33544 22.02282,139.43544 C 22.02282,137.45544 22.02282,54.29544 22.02282,52.31544 z"
     id="path4249"
     style="fill:#ececec;fill-rule:evenodd;stroke:#000000;stroke-width:1px;stroke-linecap:butt;stroke-linejoin:miter;stroke-opacity:1;filter:url(#filter4483)" />
  <path
     d="M 107.16282,52.31544 C 107.16282,44.39545 126.96282,44.39544 126.96282,52.31544 C 126.96282,54.29544 126.96282,137.45544 126.96282,139.43544 C 126.96282,149.33544 107.16282,149.33544 107.16282,139.43544 C 107.16282,137.45544 107.16282,54.29544 107.16282,52.31544 z"
     id="path4251"
     style="fill:#ececec;fill-rule:evenodd;stroke:#000000;stroke-width:1px;stroke-linecap:butt;stroke-linejoin:miter;stroke-opacity:1;filter:url(#filter4479)" />
  <path
     d="M 14.10282,93.89544 C -1.879524,-18.96456 150.72282,-18.96456 134.88282,93.89544 L 134.88282,93.89544 L 134.88282,93.89544"
     id="path4253"
     style="fill:none;fill-rule:evenodd;stroke:#f0f0f0;stroke-width:0.89999998;stroke-linecap:round;stroke-linejoin:miter;stroke-miterlimit:4;stroke-dasharray:none;stroke-opacity:1;filter:url(#filter4487)" />
  <path
     d="M 76,62 C 76,58 72,58 72,62 C 72,62 60,54 52,50 C 48,46 48,46 48,50 C 44,50 48,83.5 48,96 C 48,108.5 44,142 48,142 C 48,146 48,146 52,142 C 60,138 72,130 72,130 C 72,134 76,134 76,130 C 76,130 88,138 96,142 C 100,146 100,146 100,142 C 102,142 100.31174,119.18219 100.31174,96.182186 C 100.31174,73.182186 102,50 100,50 C 100,46 100,46 96,50 C 88,54 76,62 76,62 z"
     id="path2509"
     style="fill:url(#linearGradient4749);fill-opacity:1;fill-rule:evenodd;stroke:none;stroke-width:1.5;stroke-linecap:butt;stroke-linejoin:round;stroke-miterlimit:4;stroke-dasharray:none;stroke-opacity:1" />
  <path
     d="M 76,65.999998 C 76,61.999998 72,61.999998 72,65.999998 C 72,65.999998 52,54 52,54 C 52,54 52,138 52,138 C 52,138 72,126 72,126 C 72,130 76,130 76,126 C 76,126 96,138 96,138 L 96,54 C 96,54 76,65.999998 76,65.999998 z"
     id="path5031"
     style="opacity:0.87000002;fill:url(#linearGradient5057);fill-opacity:1;fill-rule:evenodd;stroke:url(#radialGradient5067);stroke-width:6;stroke-linecap:butt;stroke-linejoin:round;stroke-miterlimit:4;stroke-dasharray:none;stroke-opacity:1;filter:url(#filter5109)" />
  <path
     d="M 56,59.606022 C 55.997031,59.545065 56.036472,131.62447 56,131.60602 C 63.938363,127.6477 68.074213,125.99631 72,122 C 71.946117,121.856 71.996532,70.131924 72,70 C 68.247155,65.991538 63.658513,64.321294 56,59.606022 z"
     id="path5113"
     style="fill:none;fill-rule:evenodd;stroke:#ffffff;stroke-width:0.03;stroke-linecap:butt;stroke-linejoin:miter;stroke-miterlimit:4;stroke-dasharray:none;stroke-opacity:1" />
  <path
     d="M 76,70 C 79.851298,66.093457 84.0054,65.828864 91.853998,59.46002 C 92.001119,67.271688 91.947346,131.65052 91.853998,131.60602 C 84.088995,127.90473 80.077071,126.11352 76,122 C 76.154216,122.02796 76.031565,70.082872 76,70 z"
     id="path5115"
     style="fill:none;fill-rule:evenodd;stroke:#ffffff;stroke-width:0.06;stroke-linecap:butt;stroke-linejoin:miter;stroke-miterlimit:4;stroke-dasharray:none;stroke-opacity:1" />
  <path
     d="M 76,62 C 76,65.970853 76,126.02914 76,130 C 76,134 72,133.97084 72,130 C 72,126.02914 72,65.970853 72,62 C 72,58.029148 76,58.029148 76,62 z"
     id="path3511"
     style="opacity:0.67000002;fill:#ff7123;fill-opacity:1;fill-rule:evenodd;stroke:none;stroke-width:0.40496072;stroke-linecap:butt;stroke-linejoin:miter;stroke-miterlimit:4;stroke-dasharray:none;stroke-opacity:1;filter:url(#filter5027)" />
  <path
     d="M 75.985115,61.497216 C 75.985115,57.497216 71.985115,57.497216 71.985115,61.497216 C 71.985115,61.497216 59.985115,53.497217 51.985115,49.497217 C 47.985115,45.497217 47.985115,45.497217 47.985115,49.497217 C 43.985115,49.497217 47.985115,82.997216 47.985115,95.497216 C 47.985115,107.99722 43.985115,141.49722 47.985115,141.49722 C 47.985115,145.49722 47.985115,145.49722 51.985115,141.49722 C 59.985115,137.49722 71.985115,129.49722 71.985115,129.49722 C 71.985115,133.49722 75.985115,133.49722 75.985115,129.49722 C 75.985115,129.49722 87.98511,137.49722 95.98511,141.49722 C 99.985108,145.49722 99.985108,145.49722 99.985108,141.49722 C 101.98511,141.49722 100.29685,118.67941 100.29685,95.679402 C 100.29685,72.679402 101.98511,49.497217 99.985108,49.497217 C 99.985108,45.497217 99.985108,45.497217 95.98511,49.497217 C 87.98511,53.497217 75.985115,61.497216 75.985115,61.497216 z"
     id="path5117"
     style="fill:none;fill-opacity:1;fill-rule:evenodd;stroke:#000000;stroke-width:1.5;stroke-linecap:butt;stroke-linejoin:round;stroke-miterlimit:4;stroke-dasharray:none;stroke-opacity:1" />
  <g
     transform="translate(-131.86639,7.170041)"
     id="g3307">
    <g
       transform="translate(-23.692308,14.963563)"
       id="g3297">
      <text
         x="166.78137"
         y="103.49798"
         id="text2519"
         xml:space="preserve"
         style="font-size:40px;font-style:italic;font-variant:normal;font-weight:bold;font-stretch:normal;fill:#000000;fill-opacity:1;stroke:none;stroke-width:1px;stroke-linecap:butt;stroke-linejoin:miter;stroke-opacity:1;font-family:Aurelis ADF Script No2;-inkscape-font-specification:Aurelis ADF Script No2 Bold Italic"><tspan
           x="166.78137"
           y="103.49798"
           id="tspan2521">SooVee</tspan></text>
      <text
         x="169.12"
         y="102.27361"
         id="text2523"
         xml:space="preserve"
         style="font-size:40px;font-style:italic;font-variant:normal;font-weight:bold;font-stretch:normal;fill:#7d4900;fill-opacity:1;stroke:#000000;stroke-width:1px;stroke-linecap:round;stroke-linejoin:round;stroke-opacity:1;font-family:Aurelis ADF Script No2;-inkscape-font-specification:Aurelis ADF Script No2 Bold Italic"><tspan
           x="169.12"
           y="102.27361"
           id="tspan2525">SooVee</tspan></text>
    </g>
    <text
       x="163.22267"
       y="128.74899"
       id="text3303"
       xml:space="preserve"
       style="font-size:15px;font-style:normal;font-variant:normal;font-weight:normal;font-stretch:normal;fill:#000000;fill-opacity:1;stroke:#ffffff;stroke-width:1px;stroke-linecap:butt;stroke-linejoin:miter;stroke-opacity:1;font-family:Aurelis ADF Cd;-inkscape-font-specification:Aurelis ADF Cd"><tspan
         x="163.22267"
         y="128.74899"
         id="tspan3305"
         style="font-size:14px;stroke:#ffffff;stroke-opacity:1">»serial audio manager»</tspan></text>
    <text
       x="163.72192"
       y="128.34125"
       id="text3316"
       xml:space="preserve"
       style="font-size:15px;font-style:normal;font-variant:normal;font-weight:normal;font-stretch:normal;fill:#000000;fill-opacity:1;stroke:none;stroke-width:1px;stroke-linecap:butt;stroke-linejoin:miter;stroke-opacity:1;font-family:Aurelis ADF Cd;-inkscape-font-specification:Aurelis ADF Cd"><tspan
         x="163.72192"
         y="128.34125"
         id="tspan3318"
         style="font-size:14px;stroke:none;stroke-opacity:1">»serial audio manager»</tspan></text>
  </g>
</svg>
