<?xml version='1.0' encoding='ASCII'?>
<!DOCTYPE score-partwise PUBLIC "-//Recordare//DTD MusicXML 1.0 Partwise//EN" "http://www.musicxml.org/dtds/partwise.dtd">
<score-partwise>
  <part-list>
    <score-part id="P1">
      <part-name>Music</part-name>
    </score-part>
  </part-list>
  <part id="P1">
    <measure number="1">
      <attributes>
        <divisions>1</divisions>
        <time>
          <beats>7</beats>
          <beat-type>4</beat-type>
        </time>
      </attributes>
      <attributes>
        <clef>
          <sign>F</sign>
          <line>4</line>
        </clef>
      </attributes>
      <note>
        <pitch><step>C</step><octave>4</octave></pitch>
        <duration>1</duration>
        <type>quarter</type>
      </note>
      <note>
        <pitch><step>D</step><octave>4</octave></pitch>
        <duration>1</duration>
        <type>quarter</type>
      </note>
      <note>
        <pitch><step>E</step><octave>4</octave></pitch>
        <duration>1</duration>
        <type>quarter</type>
      </note>
      <note>
        <pitch><step>F</step><octave>4</octave></pitch>
        <duration>1</duration>
        <type>quarter</type>
      </note>
      <note>
        <pitch><step>G</step><octave>4</octave></pitch>
        <duration>1</duration>
        <type>quarter</type>
      </note>
      <note>
        <pitch><step>A</step><octave>4</octave></pitch>
        <duration>1</duration>
        <type>quarter</type>
      </note>
      <note>
        <pitch><step>B</step><octave>4</octave></pitch>
        <duration>1</duration>
        <type>quarter</type>
      </note>
    </measure>
    <measure number="2">
      <attributes>
        <clef>
          <sign>G</sign>
          <line>2</line>
        </clef>
      </attributes>
      <note>
        <pitch><step>C</step><octave>4</octave></pitch>
        <duration>1</duration>
        <type>quarter</type>
      </note>
      <note>
        <pitch><step>D</step><octave>4</octave></pitch>
        <duration>1</duration>
        <type>quarter</type>
      </note>
      <note>
        <pitch><step>E</step><octave>4</octave></pitch>
        <duration>1</duration>
        <type>quarter</type>
      </note>
      <note>
        <pitch><step>F</step><octave>4</octave></pitch>
        <duration>1</duration>
        <type>quarter</type>
      </note>
      <note>
        <pitch><step>G</step><octave>4</octave></pitch>
        <duration>1</duration>
        <type>quarter</type>
      </note>
      <note>
        <pitch><step>A</step><octave>4</octave></pitch>
        <duration>1</duration>
        <type>quarter</type>
      </note>
      <note>
        <pitch><step>B</step><octave>4</octave></pitch>
        <duration>1</duration>
        <type>quarter</type>
      </note>
    </measure>
    <measure number="3">
      <attributes>
        <clef>
          <sign>G</sign>
          <line>2</line>
        </clef>
      </attributes>
      <note>
        <pitch><step>C</step><octave>4</octave></pitch>
        <duration>1</duration>
        <type>quarter</type>
      </note>
      <note>
        <pitch><step>D</step><octave>4</octave></pitch>
        <duration>1</duration>
        <type>quarter</type>
      </note>
      <note>
        <pitch><step>E</step><octave>4</octave></pitch>
        <duration>1</duration>
        <type>quarter</type>
      </note>
      <note>
        <pitch><step>F</step><octave>4</octave></pitch>
        <duration>1</duration>
        <type>quarter</type>
      </note>
      <note>
        <pitch><step>G</step><octave>4</octave></pitch>
        <duration>1</duration>
        <type>quarter</type>
      </note>
      <note>
        <pitch><step>A</step><octave>4</octave></pitch>
        <duration>1</duration>
        <type>quarter</type>
      </note>
      <note>
        <pitch><step>B</step><octave>4</octave></pitch>
        <duration>1</duration>
        <type>quarter</type>
      </note>
    </measure>
    <measure number="4">
      <attributes>
        <clef>
          <sign>F</sign>
          <line>4</line>
        </clef>
      </attributes>
      <note>
        <pitch><step>C</step><octave>4</octave></pitch>
        <duration>1</duration>
        <type>quarter</type>
      </note>
      <note>
        <pitch><step>D</step><octave>4</octave></pitch>
        <duration>1</duration>
        <type>quarter</type>
      </note>
      <note>
        <pitch><step>E</step><octave>4</octave></pitch>
        <duration>1</duration>
        <type>quarter</type>
      </note>
      <note>
        <pitch><step>F</step><octave>4</octave></pitch>
        <duration>1</duration>
        <type>quarter</type>
      </note>
      <note>
        <pitch><step>G</step><octave>4</octave></pitch>
        <duration>1</duration>
        <type>quarter</type>
      </note>
      <note>
        <pitch><step>A</step><octave>4</octave></pitch>
        <duration>1</duration>
        <type>quarter</type>
      </note>
      <note>
        <pitch><step>B</step><octave>4</octave></pitch>
        <duration>1</duration>
        <type>quarter</type>
      </note>
    </measure>
    <measure number="5">
      <attributes>
        <clef>
          <sign>C</sign>
          <line>4</line>
        </clef>
      </attributes>
      <note>
        <pitch><step>C</step><octave>4</octave></pitch>
        <duration>1</duration>
        <type>quarter</type>
      </note>
      <note>
        <pitch><step>D</step><octave>4</octave></pitch>
        <duration>1</duration>
        <type>quarter</type>
      </note>
      <note>
        <pitch><step>E</step><octave>4</octave></pitch>
        <duration>1</duration>
        <type>quarter</type>
      </note>
      <note>
        <pitch><step>F</step><octave>4</octave></pitch>
        <duration>1</duration>
        <type>quarter</type>
      </note>
      <note>
        <pitch><step>G</step><octave>4</octave></pitch>
        <duration>1</duration>
        <type>quarter</type>
      </note>
      <note>
        <pitch><step>A</step><octave>4</octave></pitch>
        <duration>1</duration>
        <type>quarter</type>
      </note>
      <note>
        <pitch><step>B</step><octave>4</octave></pitch>
        <duration>1</duration>
        <type>quarter</type>
      </note>
    </measure>
    <measure number="6">
      <attributes>
        <clef>
          <sign>C</sign>
          <line>3</line>
        </clef>
      </attributes>
      <note>
        <pitch><step>C</step><octave>4</octave></pitch>
        <duration>1</duration>
        <type>quarter</type>
      </note>
      <note>
        <pitch><step>D</step><octave>4</octave></pitch>
        <duration>1</duration>
        <type>quarter</type>
      </note>
      <note>
        <pitch><step>E</step><octave>4</octave></pitch>
        <duration>1</duration>
        <type>quarter</type>
      </note>
      <note>
        <pitch><step>F</step><octave>4</octave></pitch>
        <duration>1</duration>
        <type>quarter</type>
      </note>
      <note>
        <pitch><step>G</step><octave>4</octave></pitch>
        <duration>1</duration>
        <type>quarter</type>
      </note>
      <note>
        <pitch><step>A</step><octave>4</octave></pitch>
        <duration>1</duration>
        <type>quarter</type>
      </note>
      <note>
        <pitch><step>B</step><octave>4</octave></pitch>
        <duration>1</duration>
        <type>quarter</type>
      </note>
    </measure>
    <measure number="7">
      <attributes>
        <clef>
          <sign>F</sign>
          <line>4</line>
        </clef>
      </attributes>
      <note>
        <pitch><step>C</step><octave>4</octave></pitch>
        <duration>1</duration>
        <type>quarter</type>
      </note>
      <note>
        <pitch><step>D</step><octave>4</octave></pitch>
        <duration>1</duration>
        <type>quarter</type>
      </note>
      <note>
        <pitch><step>E</step><octave>4</octave></pitch>
        <duration>1</duration>
        <type>quarter</type>
      </note>
      <note>
        <pitch><step>F</step><octave>4</octave></pitch>
        <duration>1</duration>
        <type>quarter</type>
      </note>
      <note>
        <pitch><step>G</step><octave>4</octave></pitch>
        <duration>1</duration>
        <type>quarter</type>
      </note>
      <note>
        <pitch><step>A</step><octave>4</octave></pitch>
        <duration>1</duration>
        <type>quarter</type>
      </note>
      <note>
        <pitch><step>B</step><octave>4</octave></pitch>
        <duration>1</duration>
        <type>quarter</type>
      </note>
    </measure>
    <measure number="8">
      <attributes>
        <clef>
          <sign>G</sign>
          <line>2</line>
        </clef>
      </attributes>
      <note>
        <pitch><step>C</step><octave>4</octave></pitch>
        <duration>1</duration>
        <type>quarter</type>
      </note>
      <note>
        <pitch><step>D</step><octave>4</octave></pitch>
        <duration>1</duration>
        <type>quarter</type>
      </note>
      <note>
        <pitch><step>E</step><octave>4</octave></pitch>
        <duration>1</duration>
        <type>quarter</type>
      </note>
      <note>
        <pitch><step>F</step><octave>4</octave></pitch>
        <duration>1</duration>
        <type>quarter</type>
      </note>
      <note>
        <pitch><step>G</step><octave>4</octave></pitch>
        <duration>1</duration>
        <type>quarter</type>
      </note>
      <note>
        <pitch><step>A</step><octave>4</octave></pitch>
        <duration>1</duration>
        <type>quarter</type>
      </note>
      <note>
        <pitch><step>B</step><octave>4</octave></pitch>
        <duration>1</duration>
        <type>quarter</type>
      </note>
    </measure>
    <measure number="9">
      <attributes>
        <clef>
          <sign>C</sign>
          <line>3</line>
        </clef>
      </attributes>
      <note>
        <pitch><step>C</step><octave>4</octave></pitch>
        <duration>1</duration>
        <type>quarter</type>
      </note>
      <note>
        <pitch><step>D</step><octave>4</octave></pitch>
        <duration>1</duration>
        <type>quarter</type>
      </note>
      <note>
        <pitch><step>E</step><octave>4</octave></pitch>
        <duration>1</duration>
        <type>quarter</type>
      </note>
      <note>
        <pitch><step>F</step><octave>4</octave></pitch>
        <duration>1</duration>
        <type>quarter</type>
      </note>
      <note>
        <pitch><step>G</step><octave>4</octave></pitch>
        <duration>1</duration>
        <type>quarter</type>
      </note>
      <note>
        <pitch><step>A</step><octave>4</octave></pitch>
        <duration>1</duration>
        <type>quarter</type>
      </note>
      <note>
        <pitch><step>B</step><octave>4</octave></pitch>
        <duration>1</duration>
        <type>quarter</type>
      </note>
    </measure>
    <measure number="10">
      <attributes>
        <clef>
          <sign>percussion</sign>
          <line>3</line>
        </clef>
      </attributes>
      <note>
        <pitch><step>C</step><octave>4</octave></pitch>
        <duration>1</duration>
        <type>quarter</type>
      </note>
      <note>
        <pitch><step>D</step><octave>4</octave></pitch>
        <duration>1</duration>
        <type>quarter</type>
      </note>
      <note>
        <pitch><step>E</step><octave>4</octave></pitch>
        <duration>1</duration>
        <type>quarter</type>
      </note>
      <note>
        <pitch><step>F</step><octave>4</octave></pitch>
        <duration>1</duration>
        <type>quarter</type>
      </note>
      <note>
        <pitch><step>G</step><octave>4</octave></pitch>
        <duration>1</duration>
        <type>quarter</type>
      </note>
      <note>
        <pitch><step>A</step><octave>4</octave></pitch>
        <duration>1</duration>
        <type>quarter</type>
      </note>
      <note>
        <pitch><step>B</step><octave>4</octave></pitch>
        <duration>1</duration>
        <type>quarter</type>
      </note>
    </measure>
    <measure number="11">
      <attributes>
        <clef>
          <sign>G</sign>
          <line>2</line>
          <clef-octave-change>-1</clef-octave-change>
        </clef>
      </attributes>
      <note>
        <pitch><step>C</step><octave>4</octave></pitch>
        <duration>1</duration>
        <type>quarter</type>
      </note>
      <note>
        <pitch><step>D</step><octave>4</octave></pitch>
        <duration>1</duration>
        <type>quarter</type>
      </note>
      <note>
        <pitch><step>E</step><octave>4</octave></pitch>
        <duration>1</duration>
        <type>quarter</type>
      </note>
      <note>
        <pitch><step>F</step><octave>4</octave></pitch>
        <duration>1</duration>
        <type>quarter</type>
      </note>
      <note>
        <pitch><step>G</step><octave>4</octave></pitch>
        <duration>1</duration>
        <type>quarter</type>
      </note>
      <note>
        <pitch><step>A</step><octave>4</octave></pitch>
        <duration>1</duration>
        <type>quarter</type>
      </note>
      <note>
        <pitch><step>B</step><octave>4</octave></pitch>
        <duration>1</duration>
        <type>quarter</type>
      </note>
    </measure>
    <measure number="12">
      <attributes>
        <clef>
          <sign>F</sign>
          <line>3</line>
          <clef-octave-change>0</clef-octave-change>
        </clef>
      </attributes>
      <note>
        <pitch><step>C</step><octave>4</octave></pitch>
        <duration>1</duration>
        <type>quarter</type>
      </note>
      <note>
        <pitch><step>D</step><octave>4</octave></pitch>
        <duration>1</duration>
        <type>quarter</type>
      </note>
      <note>
        <pitch><step>E</step><octave>4</octave></pitch>
        <duration>1</duration>
        <type>quarter</type>
      </note>
      <note>
        <pitch><step>F</step><octave>4</octave></pitch>
        <duration>1</duration>
        <type>quarter</type>
      </note>
      <note>
        <pitch><step>G</step><octave>4</octave></pitch>
        <duration>1</duration>
        <type>quarter</type>
      </note>
      <note>
        <pitch><step>A</step><octave>4</octave></pitch>
        <duration>1</duration>
        <type>quarter</type>
      </note>
      <note>
        <pitch><step>B</step><octave>4</octave></pitch>
        <duration>1</duration>
        <type>quarter</type>
      </note>
    </measure>
  </part>
</score-partwise>